<svg xmlns="http://www.w3.org/2000/svg" viewBox="0 0 151.83 129.6"><defs><style>.cls-1{fill:#fff;}</style></defs><g id="Layer_2" data-name="Layer 2"><g id="Letters"><path class="cls-1" d="M0,129.6V0M64.22,128.39h34.5c6.83,0,13.66,0,20.49,0a9.05,9.05,0,0,0,9.14-9.22q0-54.74,0-109.48A11.13,11.13,0,0,0,127.94,7,9.31,9.31,0,0,0,118.8.46Q72.86.57,26.9.49c-5.79,0-11.58,0-17.37,0A9.06,9.06,0,0,0,.33,9.79q0,54.68,0,109.36a11.28,11.28,0,0,0,.09,1.42A9.41,9.41,0,0,0,10,128.43C28,128.33,46.13,128.39,64.22,128.39Zm78.94-16.26a8.49,8.49,0,0,0-8.65,8.61,8.66,8.66,0,0,0,17.32,0A8.48,8.48,0,0,0,143.16,112.13Z"/><path d="M64.22,128.39c-18.09,0-36.18-.06-54.27,0a9.41,9.41,0,0,1-9.53-7.86,11.28,11.28,0,0,1-.09-1.42q0-54.69,0-109.36A9.06,9.06,0,0,1,9.53.51c5.79,0,11.58,0,17.37,0q45.95,0,91.9,0A9.31,9.31,0,0,1,127.94,7a11.13,11.13,0,0,1,.39,2.69q0,54.75,0,109.48a9.05,9.05,0,0,1-9.14,9.22c-6.83,0-13.66,0-20.49,0ZM68.6,56.27c0-2.24,0-4.47,0-6.71,0-1-.36-1.28-1.33-1.27-5.23,0-10.46,0-15.69,0-1.58,0-1.58,0-1.58,1.57Q50,79,50,108.21c0,1.23.4,1.55,1.58,1.54,5.39,0,10.78,0,16.17,0,1.59,0,1.6,0,1.6-1.58,0-9.78,0-19.56,0-29.34a35,35,0,0,1,.5-6.06c.74-4.08,2.58-7.43,7-8.53a17.33,17.33,0,0,1,4.25-.42c4.56.06,7.41,2.2,8.41,6.64a35.12,35.12,0,0,1,.8,7.45c.08,10.06,0,20.12,0,30.18,0,1.64,0,1.66,1.69,1.66,5.35,0,10.7,0,16,0,1.18,0,1.57-.3,1.56-1.54-.05-11.66.09-23.32-.09-35a55.7,55.7,0,0,0-1.46-11.57c-1.56-6.8-5.51-11.75-12.46-13.7a49.3,49.3,0,0,0-7.4-1.12,19.79,19.79,0,0,0-12.4,2.65A23.17,23.17,0,0,0,68.6,56.27ZM19.08,79.05c0,9.74,0,19.48,0,29.22,0,1.17.36,1.49,1.5,1.48q8.21-.06,16.4,0c1,0,1.47-.27,1.47-1.42q0-29.33,0-58.66c0-1.15-.41-1.39-1.46-1.39-5.43,0-10.86,0-16.29,0-1.59,0-1.6,0-1.6,1.65ZM28.76,40.1a11.11,11.11,0,1,0-11.12-11A11,11,0,0,0,28.76,40.1Z"/><path d="M143.16,112.13a8.48,8.48,0,0,1,8.67,8.59,8.66,8.66,0,0,1-17.32,0A8.49,8.49,0,0,1,143.16,112.13Zm-7.86,8.57a7.88,7.88,0,1,0,15.75,0,7.88,7.88,0,1,0-15.75,0Z"/><path class="cls-1" d="M68.6,56.27a23.17,23.17,0,0,1,7.21-6.77,19.79,19.79,0,0,1,12.4-2.65A49.3,49.3,0,0,1,95.61,48c7,2,10.9,6.9,12.46,13.7a55.7,55.7,0,0,1,1.46,11.57c.18,11.65,0,23.31.09,35,0,1.24-.38,1.56-1.56,1.54-5.35,0-10.7,0-16,0-1.67,0-1.69,0-1.69-1.66,0-10.06.05-20.12,0-30.18a35.12,35.12,0,0,0-.8-7.45c-1-4.44-3.85-6.58-8.41-6.64a17.33,17.33,0,0,0-4.25.42c-4.39,1.1-6.23,4.45-7,8.53a35,35,0,0,0-.5,6.06c0,9.78,0,19.56,0,29.34,0,1.57,0,1.58-1.6,1.58-5.39,0-10.78,0-16.17,0-1.18,0-1.58-.31-1.58-1.54Q50.05,79,50,49.88c0-1.57,0-1.57,1.58-1.57,5.23,0,10.46,0,15.69,0,1,0,1.35.26,1.33,1.27C68.56,51.8,68.6,54,68.6,56.27Z"/><path class="cls-1" d="M19.08,79.05V50c0-1.65,0-1.65,1.6-1.65,5.43,0,10.86,0,16.29,0,1.05,0,1.46.24,1.46,1.39q0,29.33,0,58.66c0,1.15-.42,1.42-1.47,1.42q-8.21-.06-16.4,0c-1.14,0-1.51-.31-1.5-1.48C19.1,98.53,19.08,88.79,19.08,79.05Z"/><path class="cls-1" d="M28.76,40.1A11.11,11.11,0,1,1,39.86,29,11,11,0,0,1,28.76,40.1Z"/><path class="cls-1" d="M135.3,120.7a7.88,7.88,0,1,1,7.8,7.89A8,8,0,0,1,135.3,120.7Zm8.94.59.83-.33a2.37,2.37,0,0,0,1.71-2.55,2.23,2.23,0,0,0-2.29-2.15,30.72,30.72,0,0,0-3.46,0c-.28,0-.78.4-.78.63-.06,2.59-.05,5.18,0,7.77,0,.18.39.37.59.55.15-.2.41-.38.43-.59.05-.67,0-1.36,0-2,.07-.48.21-1.2.52-1.34a1.34,1.34,0,0,1,1.77.75,23.81,23.81,0,0,0,1.68,2.62,4,4,0,0,0,1.15.71l.22-.32C145.87,123.79,145.09,122.6,144.24,121.29Z"/><path d="M144.24,121.29c.85,1.31,1.63,2.5,2.4,3.7l-.22.32a4,4,0,0,1-1.15-.71,23.81,23.81,0,0,1-1.68-2.62,1.34,1.34,0,0,0-1.77-.75c-.31.14-.45.86-.52,1.34-.08.67,0,1.36,0,2,0,.21-.28.39-.43.59-.2-.18-.58-.37-.59-.55,0-2.59-.05-5.18,0-7.77,0-.23.5-.62.78-.63a30.72,30.72,0,0,1,3.46,0,2.23,2.23,0,0,1,2.29,2.15,2.37,2.37,0,0,1-1.71,2.55Zm-3-4.24c0,1,0,1.8,0,2.58,0,.25.36.65.58.67a9.49,9.49,0,0,0,2.26,0,1.52,1.52,0,0,0,1.4-1.85c-.1-1-.74-1.34-1.63-1.36S142.27,117.05,141.29,117.05Z"/><path class="cls-1" d="M141.29,117.05c1,0,1.81,0,2.63,0s1.53.36,1.63,1.36a1.52,1.52,0,0,1-1.4,1.85,9.49,9.49,0,0,1-2.26,0c-.22,0-.55-.42-.58-.67C141.24,118.85,141.29,118.05,141.29,117.05Z"/></g></g></svg>