<svg width="51" height="37" viewBox="0 0 51 37" fill="none" xmlns="http://www.w3.org/2000/svg">
<path d="M5.04545 3.26364V3.26361L5.04327 3.26366C4.73361 3.27043 4.43107 3.3578 4.16548 3.51716C3.89988 3.67651 3.68042 3.90235 3.52872 4.17239L3.4801 4.25895L3.56631 4.3082L25.1777 16.6527L25.2273 16.6811L25.2769 16.6527L46.8882 4.3082L46.9744 4.25895L46.9258 4.17239C46.7741 3.90235 46.5547 3.67651 46.2891 3.51716C46.0235 3.3578 45.7209 3.27043 45.4113 3.26364H45.4091H5.04545ZM3.41329 7.85138L3.26364 7.76578V7.93818V31.9545C3.26364 32.4271 3.45136 32.8803 3.78552 33.2145C4.11967 33.5486 4.57289 33.7364 5.04545 33.7364H45.4091C45.8817 33.7364 46.3349 33.5486 46.669 33.2145C47.0032 32.8803 47.1909 32.4271 47.1909 31.9545V7.93818V7.76578L47.0413 7.85138L26.0185 19.8764L26.0182 19.8766C25.7777 20.0154 25.5049 20.0885 25.2273 20.0885C24.9496 20.0885 24.6768 20.0154 24.4364 19.8766L24.436 19.8764L3.41329 7.85138ZM5.04545 0.1H45.4091C46.7207 0.1 47.9786 0.621038 48.9061 1.54849C49.8335 2.47594 50.3545 3.73384 50.3545 5.04545V31.9545C50.3545 33.2662 49.8335 34.5241 48.9061 35.4515C47.9786 36.379 46.7207 36.9 45.4091 36.9H5.04545C3.73384 36.9 2.47594 36.379 1.54849 35.4515C0.621037 34.5241 0.1 33.2662 0.1 31.9545V5.04545C0.1 3.73384 0.621037 2.47594 1.54849 1.54849C2.47594 0.621038 3.73384 0.1 5.04545 0.1Z" fill="black" stroke="black" stroke-width="0.2"/>
</svg>
