<svg xmlns="http://www.w3.org/2000/svg" viewBox="0 0 587.26 330.25"><defs><style>.cls-1{fill:#a44a55;}.cls-2{fill:#e4cecc;}.cls-3{fill:#b2686c;}.cls-4,.cls-5{fill:none;stroke:#231f20;stroke-miterlimit:10;}.cls-5{stroke-width:0.25px;}</style></defs><g id="Layer_2" data-name="Layer 2"><g id="plan_sec_config::light" data-name="plan/sec config::light"><polygon class="cls-1" points="78.61 156 78.62 159.08 77.16 161.13 77.16 158.04 78.61 156"/><polygon class="cls-1" points="88.82 142.13 88.82 144.61 88.2 145.48 88.18 143.02 88.82 142.13"/><polygon class="cls-1" points="110.95 110.28 110.95 110.3 110.01 111.62 108.62 113.59 107.94 114.55 105.77 117.6 104.31 119.65 103.4 120.94 101.89 123.06 94.94 132.86 93.4 135.02 92.52 136.27 91.96 137.05 91.96 136.53 110.95 109.79 110.95 110.28"/><polygon class="cls-2" points="586.48 93.27 567.5 120.01 565.28 119.09 564.67 118.84 558.61 116.33 558.07 116.16 540.18 110.52 543.42 105.96 547.84 99.73 548.13 99.33 527.98 91.21 531.85 84 534.93 78.5 538.39 73.56 586.48 93.27"/><polygon class="cls-1" points="583.01 98.7 582.93 105.77 577.17 113.71 577.17 107.22 576.19 108.54 576.05 108.44 577.48 106.44 577.5 106.46 577.5 109.52 578.98 107.44 578.98 104.35 578.97 104.34 579.8 103.17 579.82 103.19 579.82 106.25 581.3 104.16 581.3 101.08 581.29 101.07 582.99 98.69 583.01 98.7"/><polygon class="cls-1" points="581.3 101.08 581.3 104.16 579.82 106.25 579.82 103.19 579.8 103.17 581.29 101.07 581.3 101.08"/><polygon class="cls-1" points="578.98 104.35 578.98 107.44 577.5 109.52 577.5 106.46 577.48 106.44 578.97 104.34 578.98 104.35"/><polygon class="cls-1" points="577.17 107.22 577.17 113.71 576.19 115.06 576.19 108.54 577.17 107.22"/><polygon class="cls-1" points="576.19 115.06 564.65 130.98 564.49 119.29 567.44 120.54 566.62 120.62 566.62 124.41 566.62 124.88 568.09 122.82 568.1 119.69 567.5 120.53 567.45 120.53 568.95 118.42 568.99 118.45 568.99 121.51 570.47 119.43 570.47 116.34 570.45 116.32 576.05 108.44 576.19 108.54 576.19 115.06"/><polygon class="cls-1" points="570.47 116.34 570.47 119.43 568.99 121.51 568.99 118.45 568.95 118.42 570.45 116.32 570.47 116.34"/><polygon class="cls-1" points="568.1 119.69 568.09 122.82 566.62 124.88 566.62 124.41 566.62 120.62 567.44 120.54 567.45 120.53 567.5 120.53 568.1 119.69"/><polygon class="cls-3" points="564.49 119.29 564.65 130.98 540.28 121.51 540.18 111.04 558.61 116.81 564.49 119.29"/><path class="cls-3" d="M529.91,92.49V97l2,.81V93.29Zm17.93,7.24L543.42,106l-14.91-6.07.1-8Z"/><polygon class="cls-3" points="531.86 93.29 531.86 97.77 529.9 96.96 529.91 92.49 531.86 93.29"/><polygon class="cls-2" points="531.82 156.97 528.1 162.22 512.84 183.75 510.62 182.79 503.41 179.86 485.62 174.26 485.56 174.22 488.77 169.67 493.19 163.43 493.47 163.03 473.32 154.78 474.19 153.23 480.28 142.2 482.91 138.51 483.73 137.26 531.82 156.97"/><path class="cls-1" d="M528.35,162.4l-.08,7.07L510,194.68l.12-10.13-.05-.51,2.77-.29,15.26-21.53Zm-14.92,24.12v-3.13l-.6.84-.87.09v4.26Z"/><polygon class="cls-1" points="513.44 183.39 513.43 186.52 511.97 188.58 511.97 188.11 511.97 184.32 512.84 184.23 513.44 183.39"/><polygon class="cls-2" points="512.84 183.75 510.07 184.04 496.26 185.51 447.61 190.68 447 190.74 447.8 189.45 450.18 185.73 457.19 177.27 485.52 174.27 485.56 174.22 485.62 174.26 503.41 179.86 510.62 182.79 512.84 183.75"/><path class="cls-3" d="M510.07,184l.05.51L510,194.68l-20,2.13-.06-.57,0-3.24H491l5.49-.59v-4.32l-.27-2.57Zm-5.34,7.49v-4.32l-5.49.58v4.32Z"/><polygon class="cls-3" points="504.73 187.21 504.73 191.53 499.24 192.11 499.24 187.79 504.73 187.21"/><polygon class="cls-3" points="496.53 188.08 496.53 192.4 491.04 192.99 491.04 188.67 496.53 188.08"/><path class="cls-3" d="M496.26,185.51l.27,2.57-5.49.59V193H490l0-2.9-3.28.34,0,6,3.3-.23.06.57-41.51,4.43-.83,0,0-10.1-.05-.51Zm-29.09,10v-4.32l-5.48.59v4.32Zm-8.23.88v-4.32l-5.48.59V197Z"/><path class="cls-3" d="M475.25,156.19v4.47l2,.81V157Zm17.94,7.24-4.42,6.24h0l-14.9-6.07.09-8Z"/><polygon class="cls-3" points="489.95 193 489.97 196.24 486.67 196.47 486.65 190.44 489.93 190.1 489.95 193"/><polygon class="cls-2" points="481.64 231.96 462.65 258.71 462.58 258.72 460.44 257.79 453.23 254.86 435.43 249.25 438.58 244.74 443.28 238.03 423.94 230.11 423.13 229.78 424 228.23 430.09 217.2 433.54 212.26 481.64 231.96"/><polygon class="cls-1" points="471.3 247.18 471.24 247.14 472.64 245.15 472.65 245.16 472.65 248.22 474.13 246.13 474.13 243.06 474.13 243.05 474.97 241.88 474.98 241.89 474.98 244.94 476.46 242.86 476.46 239.78 476.46 239.77 478.03 237.57 478.07 244.47 471.45 253.75 471.3 253.64 471.3 247.18"/><polygon class="cls-3" points="477.2 156.99 477.2 161.47 475.24 160.66 475.25 156.19 477.2 156.99"/><polygon class="cls-1" points="476.46 239.78 476.46 242.86 474.98 244.94 474.98 241.89 474.97 241.88 476.46 239.78"/><polygon class="cls-1" points="474.13 243.06 474.13 246.13 472.65 248.22 472.65 245.16 472.64 245.15 474.13 243.06"/><polygon class="cls-1" points="471.45 253.75 460.12 269.65 460.05 259.53 460.05 259.51 461.78 259.32 461.78 263.11 461.78 263.58 463.25 261.52 463.25 258.38 464.13 257.14 464.14 257.15 464.14 260.21 465.62 258.12 465.62 255.05 465.62 255.04 471.24 247.14 471.3 247.18 471.3 253.64 471.45 253.75"/><polygon class="cls-3" points="467.17 191.21 467.17 195.53 461.69 196.12 461.69 191.8 467.17 191.21"/><polygon class="cls-1" points="465.62 255.05 465.62 258.12 464.14 260.21 464.14 257.15 464.13 257.14 465.62 255.05"/><polygon class="cls-1" points="463.25 258.38 463.25 261.52 461.78 263.58 461.78 263.11 461.78 259.32 462.65 259.23 463.25 258.38"/><polygon class="cls-2" points="462.58 258.72 396.81 265.74 397.59 264.49 400.71 259.87 407 252.27 435.43 249.25 453.23 254.86 460.44 257.79 462.58 258.72"/><path class="cls-3" d="M460.05,259.53l.07,10.12-20.27,2.16-.06-.58,0-3.24h1.09l5.48-.58v-4.32l-5.48.58-.22-2.08,19.41-2.07Zm-5.51,7V262.2l-5.48.59v4.32Z"/><polygon class="cls-3" points="458.94 192.09 458.94 196.41 453.46 197 453.46 192.68 458.94 192.09"/><polygon class="cls-3" points="454.54 262.2 454.54 266.52 449.06 267.11 449.06 262.79 454.54 262.2"/><polygon class="cls-3" points="446.34 263.08 446.34 267.4 440.86 267.98 440.86 263.66 446.34 263.08"/><polygon class="cls-3" points="443.28 238.03 438.58 244.74 438.54 244.71 423.76 238.69 423.76 238.56 423.76 230.55 423.94 230.11 443.28 238.03"/><path class="cls-3" d="M440.86,263.66V268h-1.09l0-2.89-3.29.34,0,6,3.3-.23.06.58-42.17,4.5V266.16l43-4.58ZM417,270.53v-4.32l-5.49.59v4.32Zm-8.23.88v-4.32l-5.49.58V272Z"/><polygon class="cls-3" points="439.77 267.99 439.79 271.23 436.49 271.46 436.46 265.44 439.75 265.1 439.77 267.99"/><polygon class="cls-3" points="416.99 266.21 416.99 270.53 411.5 271.12 411.5 266.8 416.99 266.21"/><polygon class="cls-2" points="415.21 107.19 396.23 133.94 387.35 130.25 380.97 128.24 383.31 129.5 383.34 129.51 392.4 134.36 395.28 135.91 387.12 147.41 384.67 147.46 361.21 147.96 348.98 149.09 367.97 122.35 369.85 123.12 377.07 112.96 402.99 108.33 415.21 107.19"/><polygon class="cls-1" points="404.87 122.47 404.78 122.41 406.21 120.39 406.21 123.47 407.67 121.45 407.62 118.41 408.52 117.14 408.52 120.27 410.03 118.12 410.03 115.01 410.03 115 411.7 112.66 411.71 112.67 411.61 119.72 405.21 128.68 404.87 128.43 404.87 122.47"/><polygon class="cls-1" points="410.03 115.01 410.03 118.12 408.52 120.27 408.52 117.14 408.52 117.13 410.03 115.01"/><polygon class="cls-3" points="408.76 267.09 408.76 271.41 403.27 272 403.27 267.67 408.76 267.09"/><polygon class="cls-1" points="407.62 118.41 407.67 121.45 406.21 123.47 406.21 120.39 407.62 118.41"/><polygon class="cls-2" points="407 252.27 400.71 259.87 397.59 264.49 396.81 265.74 347.97 246.35 351.83 245.87 360.09 244.86 385.64 243.9 407 252.27"/><polygon class="cls-1" points="405.21 128.68 384.67 157.45 384.67 147.97 385.84 147.95 385.25 148.78 385.25 153.26 386.02 152.17 385.97 147.95 385.97 147.94 387.12 147.92 392.45 140.42 392.45 142.91 393.06 142.04 393.06 139.56 393.06 139.55 395.28 136.43 395.31 136.43 395.31 138.84 396.83 136.69 396.78 133.68 397.72 132.35 397.72 135.43 399.2 133.35 399.2 130.27 399.2 130.26 404.78 122.41 404.87 122.47 404.87 128.43 405.21 128.68"/><polygon class="cls-1" points="399.2 130.27 399.2 133.35 397.72 135.43 397.72 132.35 399.2 130.27"/><path class="cls-3" d="M397.68,266.19v10.12l-15.37-6.14.24-.61.11-6h.81v3.33l4.06,1.61v-4.32l-4.06-1.62.56-1.42,12.8,5.08.85-.09ZM393.63,271v-4.32L389.57,265v4.32Z"/><polygon class="cls-1" points="396.78 133.68 396.83 136.69 395.31 138.84 395.31 136.43 395.31 134.54 395.61 134.2 396.23 134.45 396.78 133.68"/><polygon class="cls-2" points="387.34 130.77 395.61 134.2 395.31 134.54 395.31 136.43 395.28 136.43 395.28 135.91 392.4 134.36 383.34 129.51 387.34 130.77"/><polygon class="cls-3" points="393.63 266.63 393.63 270.95 389.57 269.34 389.57 265.02 393.63 266.63"/><polygon class="cls-1" points="393.06 139.56 393.06 142.04 392.45 142.91 392.45 140.42 393.06 139.56"/><polygon class="cls-3" points="387.53 264.21 387.53 268.53 383.47 266.92 383.47 263.59 383.47 262.59 387.53 264.21"/><polygon class="cls-1" points="385.97 147.95 386.02 152.17 385.25 153.26 385.25 148.78 385.84 147.95 385.97 147.94 385.97 147.95"/><polygon class="cls-3" points="384.67 147.97 384.67 157.45 352.49 160.75 352.49 149.29 361.21 148.48 384.67 147.97"/><path class="cls-3" d="M382.55,269.56l-.24.61-31-12.37v-9.61l32.7,13-.56,1.42v1h-.81Zm-16.79-9.68v-4.32L361.7,254v4.32Zm-6.1-2.42v-4.32l-4.07-1.61v4.32Z"/><polygon class="cls-3" points="365.76 255.56 365.76 259.88 361.7 258.27 361.7 253.95 365.76 255.56"/><polygon class="cls-2" points="361.3 37.46 342.32 64.21 333.43 60.53 327.05 58.52 329.32 59.73 341.37 66.18 333.21 77.68 307.29 78.23 295.07 79.37 314.05 52.62 315.94 53.4 318.2 50.21 322.67 43.93 322.95 43.53 302.8 35.27 309.75 22.69 313.21 17.76 361.3 37.46"/><polygon class="cls-3" points="359.66 253.14 359.66 257.46 355.59 255.85 355.59 251.53 359.66 253.14"/><polygon class="cls-1" points="358.02 42.61 357.93 49.65 352.02 57.98 351.99 57.96 352.05 51.43 350.96 52.74 350.87 52.68 352.3 50.67 352.3 53.75 353.75 51.71 353.75 48.62 354.61 47.41 354.61 50.49 356.12 48.36 356.12 45.28 358.02 42.61"/><polygon class="cls-1" points="356.12 45.28 356.12 48.36 354.61 50.49 354.61 47.41 354.61 47.4 356.12 45.28"/><polygon class="cls-1" points="353.75 48.62 353.75 51.71 352.3 53.75 352.3 50.67 352.3 50.66 353.75 48.62"/><polygon class="cls-1" points="352.05 51.43 351.99 57.96 352.02 57.98 350.96 59.48 350.96 52.74 352.05 51.43"/><polygon class="cls-1" points="350.96 52.74 350.96 59.48 330.82 87.88 330.82 78.25 331.91 78.23 331.33 79.05 331.33 83.53 332.11 82.44 332.06 78.22 333.19 78.2 338.48 70.77 338.48 73.25 339.15 72.31 339.15 69.82 341.37 66.7 341.44 66.7 341.44 68.88 341.44 69.04 342.92 66.96 342.92 63.88 343.76 62.7 343.76 65.78 345.29 63.62 345.28 60.56 345.28 60.55 350.87 52.68 350.96 52.74"/><polygon class="cls-2" points="345.41 285.44 326.43 312.19 301.44 303.43 299.11 302.74 302.3 298.23 306.78 291.91 307.06 291.51 286.91 283.25 293.87 270.67 297.32 265.74 345.41 285.44"/><polygon class="cls-1" points="345.28 60.56 345.29 63.62 343.76 65.78 343.76 62.7 343.76 62.69 345.28 60.56"/><polygon class="cls-1" points="342.92 63.88 342.92 66.96 341.44 69.04 341.44 68.88 341.44 66.7 341.44 64.72 341.68 64.49 341.69 64.47 342.32 64.73 342.92 63.88"/><polygon class="cls-1" points="341.94 290.87 341.94 297.22 336.05 305.71 336.05 299.3 335.07 300.65 335.01 300.61 336.42 298.63 336.43 298.64 336.43 301.7 337.91 299.61 337.91 296.53 338.75 295.35 338.76 295.36 338.76 298.42 340.24 296.33 340.24 293.25 341.93 290.86 341.94 290.87"/><polygon class="cls-2" points="336.62 62.35 341.69 64.47 341.68 64.49 341.44 64.72 341.44 66.7 341.37 66.7 341.37 66.18 329.32 59.73 333.43 61.04 333.47 61.06 336.62 62.35"/><polygon class="cls-1" points="340.24 293.25 340.24 296.33 338.76 298.42 338.76 295.36 338.75 295.35 340.24 293.25"/><polygon class="cls-1" points="339.15 69.82 339.15 72.31 338.48 73.25 338.48 70.77 339.15 69.82"/><polygon class="cls-1" points="337.91 296.53 337.91 299.61 336.43 301.7 336.43 298.64 336.42 298.63 337.91 296.53"/><polygon class="cls-1" points="336.05 299.3 336.05 305.71 335.07 307.12 335.07 300.65 336.05 299.3"/><polygon class="cls-1" points="335.07 300.65 335.07 307.12 323.96 323.13 323.96 312.97 325.56 312.8 325.56 316.58 325.56 317.06 327.02 314.99 327.03 311.86 327.91 310.62 327.92 310.63 327.92 313.68 329.4 311.6 329.4 308.52 335.01 300.61 335.07 300.65"/><polygon class="cls-1" points="332.06 78.22 332.11 82.44 331.33 83.53 331.33 79.05 331.91 78.23 332.06 78.22"/><polygon class="cls-3" points="330.82 78.25 330.82 87.88 298.63 91.06 298.57 79.57 298.57 79.56 307.29 78.75 330.82 78.25"/><polygon class="cls-1" points="329.4 308.52 329.4 311.6 327.92 313.68 327.92 310.63 327.91 310.62 329.4 308.52"/><polygon class="cls-1" points="327.03 311.86 327.02 314.99 325.56 317.06 325.56 316.58 325.56 312.8 326.43 312.71 327.03 311.86"/><polygon class="cls-2" points="261.54 319.12 260.65 319.21 263.76 314.23 269.93 306.77 270.78 305.74 299.11 302.74 301.44 303.43 326.43 312.19 261.54 319.12"/><path class="cls-3" d="M324,313v10.16l-20.34,2.15-.06-.57,0-3.24h1.09l5.49-.58v-4.33l-.22-2.07Zm-5.64,7v-4.32l-5.49.58v4.33Z"/><polygon class="cls-3" points="322.67 43.93 318.2 50.21 303.43 44.19 303.43 36.05 322.67 43.93"/><polygon class="cls-3" points="318.32 315.68 318.32 320 312.83 320.59 312.83 316.26 318.32 315.68"/><polygon class="cls-3" points="310.12 316.55 310.12 320.88 304.63 321.46 304.63 317.14 310.12 316.55"/><path class="cls-3" d="M309.9,314.48l.22,2.07-5.49.59v4.32h-1.09l0-2.9-3.28.35,0,6,3.3-.23.06.57-42.08,4.46V319.65ZM280.76,324v-4.32l-5.48.58v4.32Zm-8.23.88v-4.33l-5.48.59v4.32Z"/><path class="cls-3" d="M288.84,284.66v4.48l2,.8v-4.48Zm17.94,7.25-4.48,6.32-14.76-6.06V284Z"/><polygon class="cls-3" points="303.54 321.47 303.56 324.71 300.26 324.94 300.24 318.92 303.52 318.57 303.54 321.47"/><polygon class="cls-2" points="297.39 146.58 290.25 156.74 290.25 156.25 271.26 182.99 262.38 179.31 256 177.3 258.33 178.55 258.34 178.55 270.31 184.97 262.16 196.46 259.77 196.51 236.24 197.02 224.02 198.15 243 171.4 244.89 172.18 252.1 162.02 254.73 161.55 272.01 158.46 263.5 158.64 251.18 159.82 270 133.05 278.85 136.69 297.39 146.58"/><polygon class="cls-1" points="295.69 149.51 295.69 155.76 259.77 206.54 259.77 197.03 260.87 197.01 260.28 197.84 260.28 202.32 261.05 201.23 261.05 197 262.16 196.98 267.43 189.55 267.43 192.04 268.1 191.09 268.11 188.59 270.31 185.48 270.34 185.48 270.34 187.9 271.86 185.75 271.81 182.76 271.8 182.75 272.74 181.42 272.75 181.43 272.75 184.49 274.24 182.44 274.24 179.32 281.2 169.5 281.22 169.51 281.22 172.57 282.7 170.52 282.7 167.4 283.58 166.16 283.59 166.17 283.59 169.23 285.07 167.18 285.07 164.06 287.27 160.95 287.29 160.96 287.29 163.93 287.91 163.03 287.9 160.07 287.9 160.06 289.31 158.08 289.31 158.59 294.42 151.32 294.42 153.99 295.19 152.9 295.19 150.23 295.69 149.51"/><polygon class="cls-1" points="295.19 150.23 295.19 152.9 294.42 153.99 294.42 151.32 295.19 150.23"/><polygon class="cls-3" points="290.79 285.46 290.79 289.94 288.83 289.14 288.84 284.66 290.79 285.46"/><polygon class="cls-1" points="287.9 160.07 287.91 163.03 287.29 163.93 287.29 160.96 287.27 160.95 287.9 160.07"/><polygon class="cls-1" points="285.07 164.06 285.07 167.18 283.59 169.23 283.59 166.17 283.58 166.16 285.07 164.06"/><polygon class="cls-1" points="282.7 167.4 282.7 170.52 281.22 172.57 281.22 169.51 281.2 169.5 282.7 167.4"/><polygon class="cls-3" points="280.76 319.69 280.76 324.01 275.28 324.59 275.28 320.27 280.76 319.69"/><polygon class="cls-1" points="274.24 179.32 274.24 182.44 272.75 184.49 272.75 181.43 272.74 181.42 274.24 179.32"/><polygon class="cls-3" points="272.53 320.56 272.53 324.89 267.05 325.47 267.05 321.15 272.53 320.56"/><polygon class="cls-1" points="271.81 182.76 271.86 185.75 270.34 187.9 270.34 185.48 270.34 183.61 270.54 183.24 270.55 183.22 271.26 183.51 271.8 182.75 271.81 182.76"/><polygon class="cls-2" points="270.78 305.74 269.93 306.77 263.76 314.23 260.65 319.21 260.59 319.22 211.75 299.82 246.1 297.29 249.23 297.15 270.78 305.74"/><polygon class="cls-2" points="262.55 179.9 270.55 183.22 270.54 183.24 270.34 183.61 270.34 185.48 270.31 185.48 270.31 184.97 258.34 178.55 262.55 179.9"/><polygon class="cls-1" points="268.11 188.59 268.1 191.09 267.43 192.04 267.43 189.55 268.11 188.59"/><path class="cls-3" d="M261.54,319.65v10.09l-15.44-6.11.23-.59.1-6h.81v3.32L251.3,322v-4.32l.56-1.4,8.73,3.47Zm-4.14,4.78V320.1l-4.06-1.61v4.32Z"/><polygon class="cls-1" points="261.05 197 261.05 201.23 260.28 202.32 260.28 197.84 260.87 197.01 261.05 197"/><polygon class="cls-3" points="259.77 197.03 259.77 206.54 227.57 209.84 227.52 198.35 227.52 198.34 236.24 197.53 259.77 197.03"/><polygon class="cls-3" points="257.4 320.1 257.4 324.43 253.34 322.81 253.34 318.49 257.4 320.1"/><polygon class="cls-2" points="255.58 285.46 249.23 297.15 246.1 297.29 211.75 299.82 226.53 272.63 228.94 273.54 235.97 276.09 255.58 285.46"/><path class="cls-3" d="M246.33,323l-.23.59-31-12.26v-9.69l36.75,14.6-.56,1.4-4.06-1.61v1h-.81Zm-16.8-9.68V309l-4.06-1.61v4.32Zm-6.1-2.42v-4.33L219.37,305v4.32Z"/><polygon class="cls-3" points="251.3 317.68 251.3 322 247.24 320.39 247.24 317.07 247.24 316.07 251.3 317.68"/><polygon class="cls-3" points="229.53 309.04 229.53 313.36 225.47 311.75 225.47 307.43 229.53 309.04"/><polygon class="cls-3" points="223.43 306.61 223.43 310.94 219.37 309.32 219.37 305 223.43 306.61"/><polygon class="cls-2" points="184.2 60.19 187.68 61.58 204.12 68.11 203.53 68.88 197.57 76.66 195.03 80.5 194.3 81.61 148.98 63.62 145.46 62.22 164.44 35.47 166.33 36.25 168.57 33.09 173.06 26.78 173.34 26.38 153.19 18.12 160.14 5.54 163.6 0.61 211.69 20.31 192.71 47.06 183.82 43.38 177.44 41.36 179.79 42.62 183.41 44.56 189.52 47.83 191.76 49.03 191.68 49.14 183.92 60.08 184.2 60.19"/><polygon class="cls-1" points="208.16 25.82 208.16 32.75 187.69 61.56 187.68 61.58 184.2 60.19 188.92 53.55 188.92 56.03 189.54 55.16 189.54 52.68 189.54 52.67 191.76 49.55 191.78 49.55 191.78 52 193.31 49.85 193.31 46.73 194.2 45.48 194.2 48.56 195.68 46.47 195.68 43.39 202.63 33.6 202.63 36.68 204.15 34.56 204.14 31.47 205 30.26 205 33.34 206.52 31.22 206.51 28.13 208.15 25.82 208.16 25.82"/><polygon class="cls-1" points="206.51 28.13 206.52 31.22 205 33.34 205 30.26 205 30.25 206.51 28.13"/><polygon class="cls-1" points="204.14 31.47 204.15 34.56 202.63 36.68 202.63 33.6 204.14 31.47"/><polygon class="cls-1" points="203.53 73.68 203.53 79 195.33 92.22 195.03 92.11 195.03 80.5 197.57 76.66 203.53 68.88 203.53 69.55 203.53 73.68"/><polygon class="cls-1" points="195.68 43.39 195.68 46.47 194.2 48.56 194.2 45.48 194.2 45.47 195.68 43.39"/><path class="cls-3" d="M181,78.47v4.32l4,1.59V80.05Zm6.1,2.42v4.33l4,1.58V82.47Zm8-.39V92.11L148.81,73.76v-9.7l.17-.44,45.32,18Zm-31.8-4.75V71.42l-4-1.6v4.32Zm-6.08-2.42V69l-4.07-1.61v4.36Z"/><polygon class="cls-1" points="193.31 46.73 193.31 49.85 191.78 52 191.78 49.55 191.78 47.7 192.08 47.35 192.1 47.33 192.71 47.58 193.31 46.73"/><polygon class="cls-2" points="183.85 43.9 192.1 47.33 192.08 47.35 191.78 47.7 191.78 49.55 191.76 49.55 191.76 49.03 189.52 47.83 183.41 44.56 179.79 42.62 183.85 43.9"/><polygon class="cls-3" points="191.04 82.47 191.04 86.8 187.05 85.22 187.06 80.89 191.04 82.47"/><polygon class="cls-1" points="189.54 52.68 189.54 55.16 188.92 56.03 188.92 53.55 189.54 52.68"/><polygon class="cls-3" points="184.94 80.05 184.94 84.38 180.95 82.79 180.96 78.47 184.94 80.05"/><path class="cls-3" d="M173.06,26.78l-4.49,6.31-14.75-6V18.9Zm-16-2V20.33l-1.95-.8V24Z"/><polygon class="cls-3" points="163.23 71.42 163.23 75.75 159.19 74.14 159.19 69.82 163.23 71.42"/><polygon class="cls-3" points="157.15 69.01 157.15 73.33 153.08 71.76 153.08 67.4 157.15 69.01"/><polygon class="cls-3" points="157.07 20.33 157.07 24.81 155.11 24.01 155.12 19.53 157.07 20.33"/><polygon class="cls-2" points="150.41 221.07 143.19 231.25 143.19 231 143.19 230.48 130.96 231.63 123.31 232.98 116.33 233.12 104.11 234.26 123.09 207.51 131.98 211.2 150.41 221.07"/><polygon class="cls-1" points="132.9 245.71 132.8 245.64 134.19 243.67 134.21 243.68 134.21 246.74 135.69 244.65 135.69 241.59 135.68 241.58 136.57 240.33 136.58 240.34 136.58 243.39 138.06 241.31 138.06 238.25 138.05 238.24 140.36 234.98 140.37 234.99 140.37 238.42 141.16 237.3 141.15 233.9 141.14 233.89 141.7 233.1 142.25 233.09 147.57 225.59 147.57 228.07 148.19 227.2 148.21 224.69 148.65 224.07 148.7 230.26 133.14 251.71 132.9 251.53 132.9 245.71"/><polygon class="cls-1" points="147.57 225.59 148.21 224.69 148.19 227.2 147.57 228.07 147.57 225.59"/><polygon class="cls-2" points="107.61 235.79 120.02 233.56 123.31 232.98 130.96 231.63 143.19 230.48 124.2 257.23 115.32 253.55 96.89 247.78 105.05 236.25 107.61 235.79"/><polygon class="cls-1" points="141.15 233.9 141.16 237.3 140.37 238.42 140.37 234.99 140.36 234.98 141.14 233.89 141.15 233.9"/><polygon class="cls-1" points="138.06 238.25 138.06 241.31 136.58 243.39 136.58 240.34 136.57 240.33 138.05 238.24 138.06 238.25"/><polygon class="cls-1" points="135.69 241.59 135.69 244.65 134.21 246.74 134.21 243.68 134.19 243.67 135.68 241.58 135.69 241.59"/><polygon class="cls-1" points="133.14 251.71 121.22 268.14 121.2 268.14 121.27 258.09 121.27 258.06 123.28 257.85 123.28 257.87 123.28 262.13 124.8 260.03 124.76 256.99 124.75 256.98 125.68 255.66 125.7 255.67 125.7 258.73 127.18 256.64 127.18 253.58 127.17 253.57 132.8 245.64 132.9 245.71 132.9 251.53 133.14 251.71"/><polygon class="cls-1" points="127.18 253.58 127.18 256.64 125.7 258.73 125.7 255.67 125.68 255.66 127.17 253.57 127.18 253.58"/><polygon class="cls-1" points="124.76 256.99 124.8 260.03 123.28 262.13 123.28 257.87 123.28 257.85 124.2 257.75 124.75 256.98 124.76 256.99"/><polygon class="cls-2" points="124.2 257.23 58.36 264.26 61.55 259.25 61.91 258.81 67.13 252.51 68.55 250.79 96.89 247.78 115.32 253.55 124.2 257.23"/><path class="cls-3" d="M121.27,258.06v0l-.07,10.05-19.78,2.12-.08-.77,0-3h1.08l5.49-.54,0-4.42-5.43.52-.21-2Zm-5.15,7,0-4.42-5.43.52h0v4.44Z"/><polygon class="cls-2" points="48.22 153.48 65.56 150.38 56.94 150.56 44.74 151.69 44.74 151.66 63.7 124.94 65.59 125.72 72.52 115.96 72.81 115.56 75.3 115.11 92.71 112 84.21 112.18 71.89 113.36 90.7 86.59 99.57 90.2 118.1 100.12 110.95 110.28 110.95 109.79 91.96 136.53 83.08 132.85 76.7 130.84 79.05 132.1 79.06 132.1 91.02 138.51 83.8 148.68 83.8 148.18 64.81 174.92 55.93 171.24 37.5 165.43 45.66 153.94 48.22 153.48"/><polygon class="cls-1" points="110.01 112.13 115.12 104.87 115.12 107.45 115.12 107.53 115.89 106.44 115.89 103.77 116.34 103.13 116.39 109.3 101.77 130.06 101.64 129.97 101.64 124.25 101.9 124.25 101.91 126.12 103.4 124.02 103.4 120.94 104.31 119.65 104.31 122.74 105.77 120.69 105.77 117.6 107.94 114.55 107.94 117.54 108.62 116.57 108.62 113.59 110.01 111.62 110.01 112.13"/><polygon class="cls-3" points="116.1 260.66 116.12 265.08 110.63 265.63 110.63 261.19 110.67 261.18 116.1 260.66"/><polygon class="cls-1" points="115.89 103.77 115.89 106.44 115.12 107.53 115.12 107.45 115.12 104.87 115.12 104.86 115.89 103.77"/><polygon class="cls-1" points="108.62 113.59 108.62 116.57 107.94 117.54 107.94 114.55 108.62 113.59"/><polygon class="cls-3" points="107.87 261.54 107.89 265.96 102.4 266.5 102.4 262.07 102.44 262.06 107.87 261.54"/><polygon class="cls-1" points="105.77 117.6 105.77 120.69 104.31 122.74 104.31 119.65 105.77 117.6"/><polygon class="cls-1" points="103.4 120.94 103.4 124.02 101.91 126.12 101.9 124.25 101.89 123.06 103.4 120.94"/><path class="cls-3" d="M101.32,266.51l0,3,.08.77L58.3,274.87v-9.59h0l.08-.14v-.37l43.87-4.68.21,2h0v4.43Zm-22.78,2.58,0-4.42-5.43.52h0v4.44Zm-8.23.88,0-4.42-5.43.52h0v4.43Z"/><polygon class="cls-1" points="101.64 124.25 101.64 129.97 101.77 130.06 74.96 168.14 74.49 167.81 74.49 162.09 73.51 163.36 73.43 163.3 74.73 161.46 74.74 161.47 74.74 164.56 76.25 162.41 76.25 159.35 76.25 159.33 77.16 158.04 77.16 161.13 78.62 159.08 78.61 156 80.97 152.67 80.98 152.68 80.98 155.86 81.76 154.76 81.76 151.59 81.75 151.58 82.49 150.53 82.86 150.52 82.89 150.48 88.18 143.02 88.2 145.48 88.82 144.61 88.82 142.13 91.02 139.02 91.1 139.02 91.09 141.36 92.56 139.29 92.52 136.27 93.4 135.02 93.41 135.02 93.41 138.1 94.94 135.94 94.94 132.86 101.89 123.06 101.9 124.25 101.64 124.25"/><polygon class="cls-1" points="94.94 132.86 94.94 135.94 93.41 138.1 93.41 135.02 93.4 135.02 94.94 132.86"/><polygon class="cls-1" points="92.52 136.27 92.56 139.29 91.09 141.36 91.1 139.02 91.1 137.1 91.33 136.8 91.33 136.79 91.96 137.05 92.52 136.27"/><polygon class="cls-2" points="91.33 136.79 91.33 136.8 91.1 137.1 91.1 139.02 91.02 139.02 91.02 138.51 79.06 132.1 83.12 133.38 91.33 136.79"/><polygon class="cls-2" points="78.61 156 77.16 158.04 76.25 159.33 74.73 161.46 73.43 163.3 67.78 171.25 67.78 171.26 66.25 173.41 65.4 174.61 64.81 175.44 64.81 174.92 83.8 148.18 83.8 148.68 83.8 148.69 82.86 150.01 82.49 150.53 81.75 151.58 80.97 152.67 78.61 156"/><polygon class="cls-1" points="81.76 151.59 81.76 154.76 80.98 155.86 80.98 152.68 80.97 152.67 81.75 151.58 81.76 151.59"/><polygon class="cls-3" points="78.52 264.67 78.54 269.09 73.05 269.64 73.05 265.2 73.09 265.19 78.52 264.67"/><polygon class="cls-1" points="76.25 159.35 76.25 162.41 74.74 164.56 74.74 161.47 74.73 161.46 76.25 159.33 76.25 159.35"/><polygon class="cls-1" points="73.51 163.36 74.49 162.09 74.49 167.81 74.96 168.14 65.98 180.9 62.2 186.04 62.2 174.36 64.15 175.17 63.94 175.45 63.94 179.75 65.41 177.68 65.41 174.62 65.4 174.61 66.25 173.41 66.25 176.49 67.79 174.33 67.78 171.26 67.78 171.25 73.43 163.3 73.51 163.36"/><polygon class="cls-3" points="70.29 265.55 70.31 269.97 64.82 270.51 64.82 266.08 64.86 266.07 70.29 265.55"/><polygon class="cls-2" points="67.79 248.44 67.79 248.96 66.99 250.22 64.61 253.97 61.91 258.81 61.55 259.25 58.36 264.26 58.36 264.7 57.6 265.98 29.31 269.01 10.6 259.18 7.45 257.83 1.95 255.47 67.79 248.44"/><polygon class="cls-1" points="67.78 171.26 67.79 174.33 66.25 176.49 66.25 173.41 67.78 171.26"/><polygon class="cls-1" points="65.41 174.62 65.41 177.68 63.94 179.75 63.94 175.45 64.15 175.17 64.81 175.44 65.4 174.61 65.41 174.62"/><polygon class="cls-3" points="62.2 174.36 62.2 186.04 39.2 176.4 39.2 166.49 55.97 171.77 62.2 174.36"/><path class="cls-3" d="M58.29,265.28v9.59l-30.78,3.29v-9.57l1.78.93,28.29-3,.68-1.22Zm-1.39,6.15V267l-2.69.29v4.48ZM32,274.14v-4.47l-2.68.28v4.48Z"/><polygon class="cls-3" points="56.9 266.95 56.9 271.43 54.22 271.72 54.21 267.24 56.9 266.95"/><polygon class="cls-3" points="32.03 269.67 32.03 274.14 29.36 274.43 29.35 269.95 32.03 269.67"/><polygon class="cls-3" points="27.53 268.58 27.53 268.59 27.52 278.16 4.67 268.68 4.68 257.17 4.69 257.16 10.6 259.7 27.53 268.58"/><polygon class="cls-4" points="249.23 297.15 255.58 285.46 235.97 276.09 228.94 273.54 226.53 272.63 211.75 299.82 260.59 319.22 260.65 319.21 261.54 319.12 326.43 312.19 345.41 285.44 297.32 265.74 293.87 270.67 286.91 283.25 307.06 291.51 306.78 291.91 302.3 298.23 299.11 302.74 270.78 305.74 249.23 297.15"/><polyline class="cls-4" points="261.54 329.74 261.54 319.65 261.54 319.12 261.54 319.11"/><line class="cls-4" x1="323.96" y1="323.13" x2="323.96" y2="312.97"/><polygon class="cls-4" points="407 252.27 385.64 243.9 360.09 244.86 351.83 245.87 347.97 246.35 396.81 265.74 462.58 258.72 462.65 258.71 481.64 231.96 433.54 212.26 430.09 217.2 424 228.23 423.13 229.78 423.94 230.11 443.28 238.03 438.58 244.74 435.43 249.25 407 252.27"/><polyline class="cls-4" points="351.32 248.22 351.32 257.8 382.31 270.17 397.68 276.31 439.85 271.81 460.12 269.65 471.45 253.75 478.07 244.47 478.03 237.57"/><polyline class="cls-4" points="423.76 230.55 423.76 238.56 423.76 238.69 438.54 244.71"/><polyline class="cls-4" points="287.54 284.03 287.54 292.17 302.3 298.23"/><polygon class="cls-4" points="485.56 174.22 485.52 174.27 457.19 177.27 450.18 185.73 447.8 189.45 447 190.74 447.61 190.68 496.26 185.51 510.07 184.04 512.84 183.75 528.1 162.22 531.82 156.97 483.73 137.26 482.91 138.51 480.28 142.2 474.19 153.23 473.32 154.78 493.47 163.03 493.19 163.43 488.77 169.67 485.56 174.22"/><polyline class="cls-4" points="473.95 155.55 473.95 155.56 473.86 163.59 488.76 169.66"/><line class="cls-4" x1="397.68" y1="276.31" x2="397.68" y2="266.19"/><line class="cls-4" x1="460.12" y1="269.65" x2="460.05" y2="259.53"/><polyline class="cls-4" points="447.66 191.19 447.69 201.29 448.52 201.24 490.03 196.81 510 194.68 510.12 184.55"/><polyline class="cls-4" points="510 194.68 528.27 169.47 528.35 162.4"/><polyline class="cls-4" points="528.61 91.85 528.61 91.86 528.51 99.89 543.42 105.96"/><polyline class="cls-4" points="583.01 98.7 582.93 105.77 577.17 113.71 576.19 115.06 564.65 130.98 540.28 121.51 540.18 111.04"/><polyline class="cls-4" points="564.67 118.84 558.61 116.33 558.07 116.16 540.18 110.52 543.42 105.96 547.84 99.73 548.13 99.33 527.98 91.21 531.85 84 534.93 78.5 538.39 73.56 586.48 93.27 567.5 120.01 565.28 119.09"/><polyline class="cls-4" points="61.91 258.81 64.61 253.97 66.99 250.22 67.79 248.96 67.79 248.44 1.95 255.47 7.45 257.83 10.6 259.18 29.31 269.01 57.6 265.98 58.36 264.7"/><polyline class="cls-4" points="143.19 231.25 150.41 221.07 131.98 211.2 123.09 207.51 104.11 234.26 104.11 234.77 107.67 234.44 116.33 233.62 120.02 233.56 107.61 235.79 105.05 236.25 96.89 247.78 68.55 250.79 67.13 252.51 61.91 258.81"/><line class="cls-5" x1="143.19" y1="230.48" x2="143.19" y2="231"/><polyline class="cls-4" points="58.36 264.26 124.2 257.23 143.19 230.48"/><polyline class="cls-4" points="4.68 257.17 4.67 268.68 27.52 278.16 58.3 274.87 101.42 270.26 121.2 268.14 121.22 268.14 133.14 251.71 148.7 230.26 148.65 224.07"/><line class="cls-4" x1="27.52" y1="278.16" x2="27.53" y2="268.59"/><polyline class="cls-4" points="58.3 274.9 58.3 274.87 58.29 265.28"/><polyline class="cls-4" points="153.82 18.9 153.82 27.06 168.57 33.09"/><line class="cls-4" x1="187.69" y1="61.56" x2="187.68" y2="61.58"/><polyline class="cls-4" points="187.69 61.56 208.16 32.75 208.16 25.82"/><polyline class="cls-4" points="148.81 64.06 148.81 73.76 195.03 92.11 195.33 92.22 203.53 79 203.53 73.68"/><polygon class="cls-4" points="211.69 20.31 163.6 0.61 160.14 5.54 153.19 18.12 173.34 26.38 173.06 26.78 168.57 33.09 166.33 36.25 164.44 35.47 145.46 62.22 148.98 63.62 194.3 81.61 195.03 80.5 197.57 76.66 203.53 68.88 204.12 68.11 187.68 61.58 184.2 60.19 183.92 60.08 191.68 49.14 191.76 49.03 189.52 47.83 183.41 44.56 179.79 42.62 177.44 41.36 183.82 43.38 192.71 47.06 211.69 20.31"/><line class="cls-4" x1="121.2" y1="268.14" x2="121.27" y2="258.09"/><polyline class="cls-4" points="107.67 234.47 107.61 235.79 107.61 235.8"/><line class="cls-4" x1="67" y1="250.23" x2="67.13" y2="252.51"/><polyline class="cls-4" points="215.1 301.7 215.1 311.37 246.1 323.63 261.54 329.74 303.62 325.28 323.96 323.13 335.07 307.12 336.05 305.71 341.94 297.22 341.94 290.87"/><polyline class="cls-4" points="270 133.05 278.85 136.69 297.39 146.58"/><polyline class="cls-4" points="258.34 178.55 270.31 184.97 262.16 196.46 259.77 196.51 236.24 197.02 224.02 198.15 243 171.4 244.89 172.18 252.1 162.02 254.73 161.55 272.01 158.46 263.5 158.64 251.18 159.82 270 133.05"/><polyline class="cls-4" points="297.39 146.58 290.25 156.74 290.25 156.25 271.26 182.99 262.38 179.31 256 177.3 258.33 178.55"/><polyline class="cls-4" points="227.52 198.35 227.57 209.84 259.77 206.54 295.69 155.76 295.69 149.51"/><line class="cls-4" x1="254.76" y1="160.02" x2="254.73" y2="161.55"/><polyline class="cls-4" points="383.31 129.5 380.97 128.24 387.35 130.25 396.23 133.94 415.21 107.19 402.99 108.33 377.07 112.96 369.85 123.12 367.97 122.35 348.98 149.09 361.21 147.96 384.67 147.46 387.12 147.41 395.28 135.91 392.4 134.36 383.34 129.51"/><polyline class="cls-4" points="352.49 149.29 352.49 160.75 384.67 157.45 405.21 128.68 411.61 119.72 411.71 112.67"/><polygon class="cls-4" points="361.3 37.46 313.21 17.76 309.75 22.69 302.8 35.27 322.95 43.53 322.67 43.93 318.2 50.21 315.94 53.4 314.05 52.62 295.07 79.37 307.29 78.23 333.21 77.68 341.37 66.18 329.32 59.73 327.05 58.52 333.43 60.53 342.32 64.21 361.3 37.46"/><polyline class="cls-4" points="303.43 36.05 303.43 44.19 318.2 50.21"/><polyline class="cls-4" points="298.57 79.57 298.63 91.06 330.82 87.88 350.96 59.48 352.02 57.98 357.93 49.65 358.02 42.61"/><polyline class="cls-4" points="79.06 132.1 91.02 138.51 83.8 148.68 83.8 148.18 64.81 174.92 55.93 171.24 37.5 165.43 45.66 153.94 48.22 153.48 65.56 150.38"/><polyline class="cls-4" points="44.74 151.66 63.7 124.94 65.59 125.72 72.52 115.96 72.81 115.56 75.3 115.11 92.71 112 84.21 112.18 71.89 113.36 90.7 86.59 99.57 90.2 118.1 100.12 110.95 110.28 110.95 109.79 91.96 136.53 83.08 132.85 76.7 130.84 79.05 132.1"/><polyline class="cls-4" points="44.72 151.69 44.74 151.69 56.94 150.56 65.56 150.38"/><polyline class="cls-4" points="48.22 153.49 48.22 153.48 48.22 151.91"/><line class="cls-4" x1="48.22" y1="151.91" x2="48.22" y2="151.89"/><line class="cls-4" x1="75.3" y1="115.11" x2="75.3" y2="113.56"/><polyline class="cls-4" points="39.2 166.49 39.2 176.4 62.2 186.04 65.98 180.9 74.96 168.14 101.77 130.06 116.39 109.3 116.34 103.13"/><line class="cls-4" x1="564.65" y1="130.98" x2="564.49" y2="119.29"/><polyline class="cls-4" points="384.67 157.45 384.67 147.97 384.67 147.46"/><polyline class="cls-4" points="330.82 87.88 330.82 78.25 330.82 78.14"/><line class="cls-4" x1="195.03" y1="92.11" x2="195.03" y2="80.5"/><polyline class="cls-4" points="203.53 73.68 203.53 69.55 203.53 68.88"/><line class="cls-4" x1="62.2" y1="186.04" x2="62.2" y2="174.36"/><polyline class="cls-4" points="259.77 206.54 259.77 197.03 259.77 196.51"/><line class="cls-5" x1="82.86" y1="150.52" x2="82.49" y2="150.53"/><polyline class="cls-5" points="91.02 138.51 91.02 139.02 88.82 142.13 88.18 143.02 82.89 150.48 82.86 150.52 82.86 150.01"/><polyline class="cls-5" points="91.96 137.05 91.33 136.79 83.12 133.38 79.06 132.1 79.05 132.1"/><polyline class="cls-5" points="110.95 110.3 110.01 111.62 108.62 113.59 107.94 114.55 105.77 117.6 104.31 119.65 103.4 120.94 101.89 123.06 94.94 132.86 93.4 135.02 92.52 136.27 91.96 137.05 91.96 136.53"/><line class="cls-5" x1="110.95" y1="110.3" x2="110.95" y2="110.28"/><line class="cls-5" x1="110.01" y1="112.13" x2="110.01" y2="111.62"/><polyline class="cls-5" points="115.12 104.87 110.01 112.13 109.66 112.15"/><polyline class="cls-5" points="118.1 100.12 118.1 100.63 116.34 103.13 115.89 103.77 115.12 104.86"/><polyline class="cls-5" points="67.78 171.26 66.25 173.41 65.4 174.61 64.81 175.44 64.81 174.92"/><polyline class="cls-5" points="83.8 148.69 82.86 150.01 82.49 150.53 81.75 151.58 80.97 152.67 78.61 156 77.16 158.04 76.25 159.33 74.73 161.46 73.43 163.3 67.78 171.25"/><polyline class="cls-5" points="64.81 175.44 64.15 175.17 62.2 174.36 55.97 171.77 39.2 166.49 37.5 165.95 37.5 165.43"/><polyline class="cls-5" points="40.15 175.82 40.12 171.31 42.05 172.08 42.04 176.63"/><polyline class="cls-5" points="59.87 184.24 59.84 179.73 61.78 180.5 61.76 185.05"/><polyline class="cls-5" points="64.16 175.16 64.15 175.17 63.94 175.45 63.94 179.75 65.41 177.68 65.41 174.62"/><polyline class="cls-5" points="66.25 173.41 66.25 176.49 67.79 174.33 67.78 171.26 67.78 171.25"/><polyline class="cls-5" points="302.8 35.27 302.8 35.79 303.43 36.05 322.67 43.93"/><polyline class="cls-5" points="304.72 36.68 304.72 41.16 306.65 41.95 306.68 37.51 304.7 36.66"/><polyline class="cls-5" points="354.61 47.41 354.61 50.49 356.12 48.36 356.12 45.28"/><polyline class="cls-5" points="352.3 50.67 352.3 53.75 353.75 51.71 353.75 48.62"/><polyline class="cls-5" points="350.96 59.48 350.96 52.74 352.05 51.43 351.99 57.96"/><polyline class="cls-5" points="343.76 62.7 343.76 65.78 345.29 63.62 345.28 60.56"/><polyline class="cls-5" points="341.68 64.49 341.44 64.72 341.44 66.7 341.44 68.88 341.44 69.04 342.92 66.96 342.92 63.88"/><polyline class="cls-5" points="361.3 37.46 361.3 37.98 358.02 42.61 356.12 45.28 354.61 47.4 354.61 47.41 353.75 48.62 352.3 50.66 352.3 50.67 350.87 52.68 345.28 60.55 345.28 60.56 343.76 62.69 343.76 62.7 342.92 63.88 342.32 64.73 341.69 64.47 336.62 62.35 333.47 61.06 333.43 61.04 329.32 59.73"/><line class="cls-5" x1="342.32" y1="64.21" x2="342.32" y2="64.73"/><polyline class="cls-5" points="295.07 79.37 295.07 79.88 298.57 79.56 307.29 78.75 330.82 78.25 331.91 78.23 332.06 78.22 333.19 78.2 338.48 70.77 339.15 69.82 341.37 66.7 341.37 66.18"/><polyline class="cls-5" points="338.48 70.77 338.48 73.25 339.15 72.31 339.15 69.82"/><polyline class="cls-5" points="331.92 78.22 331.91 78.23 331.33 79.05 331.33 83.53 332.11 82.44 332.06 78.22"/><polyline class="cls-5" points="326.94 87.41 326.94 82.73 329.56 82.47 329.58 87.14"/><polyline class="cls-5" points="299.59 90.17 299.59 85.49 302.21 85.23 302.23 89.91"/><polyline class="cls-5" points="73.51 169.18 73.51 163.36 74.49 162.09 74.49 167.81"/><polyline class="cls-5" points="100.66 131.34 100.66 125.52 101.64 124.25 101.64 129.97"/><polyline class="cls-5" points="74.74 161.47 74.74 164.56 76.25 162.41 76.25 159.35"/><polyline class="cls-5" points="408.52 117.14 408.52 120.27 410.03 118.12 410.03 115.01"/><polyline class="cls-5" points="406.21 120.39 406.21 123.47 407.67 121.45 407.62 118.41"/><polyline class="cls-5" points="404.87 128.43 404.87 122.47 405.9 121.1 405.9 126.82"/><polyline class="cls-5" points="397.72 132.35 397.72 135.43 399.2 133.35 399.2 130.27"/><polyline class="cls-5" points="395.61 134.2 395.31 134.54 395.31 136.43 395.31 138.84 396.83 136.69 396.78 133.68"/><polyline class="cls-5" points="392.45 140.42 392.45 142.91 393.06 142.04 393.06 139.56"/><polyline class="cls-5" points="383.31 129.5 383.34 129.51 387.34 130.77 395.61 134.2 396.23 134.45 396.78 133.68 397.72 132.35 399.2 130.27 399.2 130.26 404.78 122.41 406.21 120.39 407.62 118.41 408.52 117.14 408.52 117.13 410.03 115.01 410.03 115 411.7 112.66 415.21 107.71 415.21 107.19"/><polyline class="cls-5" points="348.98 149.09 348.98 149.61 352.49 149.29 361.21 148.48 384.67 147.97 385.84 147.95 385.97 147.94 387.12 147.92 392.45 140.42 393.06 139.56 393.06 139.55 395.28 136.43 395.28 135.91"/><polyline class="cls-5" points="385.84 147.95 385.25 148.78 385.25 153.26 386.02 152.17 385.97 147.95"/><polyline class="cls-5" points="380.85 157.15 380.85 152.47 383.44 152.24 383.49 156.88"/><polyline class="cls-5" points="353.5 159.9 353.5 155.22 356.09 155 356.14 159.63"/><line class="cls-5" x1="76.25" y1="159.35" x2="76.25" y2="159.33"/><polyline class="cls-5" points="77.16 158.04 77.16 161.13 78.62 159.08 78.61 156 78.61 155.98"/><polyline class="cls-5" points="270.31 184.97 270.31 185.48 268.11 188.59 267.43 189.55 262.16 196.98 261.05 197 260.87 197.01 259.77 197.03 236.24 197.53 227.52 198.34 224.02 198.67 224.02 198.15"/><polyline class="cls-5" points="287.9 160.07 287.27 160.95 285.07 164.06 283.58 166.16 282.7 167.4 281.2 169.5 274.24 179.32 272.74 181.42 271.8 182.75 271.26 183.51 270.55 183.22 262.55 179.9 258.34 178.55 258.33 178.55"/><line class="cls-5" x1="289.31" y1="158.08" x2="287.9" y2="160.06"/><polyline class="cls-5" points="297.39 146.58 297.39 147.09 295.69 149.51 295.19 150.23 294.42 151.32 289.31 158.59 289.31 158.08 290.25 156.74"/><polyline class="cls-5" points="294.42 151.32 294.42 153.99 295.19 152.9 295.19 150.23"/><polyline class="cls-5" points="287.29 160.96 287.29 163.93 287.91 163.03 287.9 160.07 287.9 160.06"/><polyline class="cls-5" points="283.59 166.17 283.59 169.23 285.07 167.18 285.07 164.06"/><polyline class="cls-5" points="281.22 169.51 281.22 172.57 282.7 170.52 282.7 167.4"/><polyline class="cls-5" points="272.75 181.43 272.75 184.49 274.24 182.44 274.24 179.32"/><polyline class="cls-5" points="270.54 183.24 270.34 183.61 270.34 185.48 270.34 187.9 271.86 185.75 271.81 182.76"/><polyline class="cls-5" points="267.43 189.55 267.43 192.04 268.1 191.09 268.11 188.59"/><polyline class="cls-5" points="260.87 197.01 260.28 197.84 260.28 202.32 261.05 201.23 261.05 197"/><polyline class="cls-5" points="256 206.21 256 201.52 258.64 201.27 258.64 205.93"/><polyline class="cls-5" points="228.53 208.96 228.53 204.27 231.17 204.02 231.17 208.68"/><polyline class="cls-5" points="80.98 152.68 80.98 155.86 81.76 154.76 81.76 151.59"/><polyline class="cls-5" points="88.18 143.02 88.2 145.48 88.82 144.61 88.82 142.13"/><polyline class="cls-5" points="91.33 136.8 91.1 137.1 91.1 139.02 91.09 141.36 92.56 139.29 92.52 136.27"/><polyline class="cls-5" points="93.41 135.02 93.41 138.1 94.94 135.94 94.94 132.86"/><polyline class="cls-5" points="147.57 225.59 147.57 228.07 148.19 227.2 148.21 224.69"/><polyline class="cls-5" points="140.37 234.99 140.37 238.42 141.16 237.3 141.15 233.9"/><polyline class="cls-5" points="132.9 251.53 132.9 245.71 133.88 244.44 133.88 250.12"/><polyline class="cls-5" points="136.58 240.34 136.58 243.39 138.06 241.31 138.06 238.25"/><polyline class="cls-5" points="134.21 243.68 134.21 246.74 135.69 244.65 135.69 241.59"/><polyline class="cls-5" points="125.7 255.67 125.7 258.73 127.18 256.64 127.18 253.58"/><polyline class="cls-5" points="124.76 256.99 124.8 260.03 123.28 262.13"/><line class="cls-5" x1="123.28" y1="262.13" x2="123.28" y2="257.87"/><polyline class="cls-5" points="101.89 123.06 101.9 124.25 101.91 126.12 103.4 124.02 103.4 120.94"/><polygon class="cls-5" points="110.63 261.19 110.63 265.63 116.12 265.08 116.1 260.66 110.67 261.18 110.63 261.19"/><polygon class="cls-5" points="102.44 262.06 102.4 262.07 102.4 266.5 107.89 265.96 107.87 261.54 102.44 262.06"/><polygon class="cls-5" points="73.05 265.2 73.05 269.64 78.54 269.09 78.52 264.67 73.09 265.19 73.05 265.2"/><polygon class="cls-5" points="64.82 266.08 64.82 270.51 70.31 269.97 70.29 265.55 64.86 266.07 64.82 266.08"/><polygon class="cls-5" points="54.22 271.72 54.21 267.24 56.9 266.95 56.9 271.43 54.22 271.72"/><polygon class="cls-5" points="29.36 274.43 29.35 269.95 32.03 269.67 32.03 274.14 29.36 274.43"/><polyline class="cls-5" points="67.79 248.44 64.61 253.46 60.54 260.72"/><polyline class="cls-5" points="58.36 264.26 61.55 259.25 61.91 258.81"/><polyline class="cls-5" points="124.2 257.23 115.32 253.55 96.89 247.78"/><polyline class="cls-5" points="123.31 232.98 130.96 231.63 143.19 230.48"/><polyline class="cls-5" points="104.11 234.26 116.33 233.12 123.31 232.98 120.02 233.56"/><polyline class="cls-5" points="25.21 276.36 25.23 271.83 27.15 272.56 27.15 277.17"/><polyline class="cls-5" points="5.57 268.09 5.6 263.56 7.52 264.29 7.52 268.9"/><polyline class="cls-5" points="142.25 233.09 142.25 232.57 142.98 231.54"/><polyline class="cls-5" points="142.25 233.09 147.57 225.59 148.21 224.69 148.65 224.07 148.65 224.06 150.41 221.59 150.41 221.07"/><line class="cls-5" x1="142.25" y1="233.09" x2="141.7" y2="233.1"/><line class="cls-5" x1="142.25" y1="232.57" x2="142.07" y2="232.57"/><polyline class="cls-5" points="143.18 231.01 143.19 231 143.19 231.25 142.98 231.54"/><polyline class="cls-5" points="58.36 264.77 102.23 260.09 121.27 258.06 123.28 257.85 124.2 257.75 124.75 256.98 125.68 255.66 127.17 253.57 132.8 245.64 134.19 243.67 135.68 241.58 136.57 240.33 138.05 238.24 140.36 234.98 141.14 233.89 141.7 233.1 142.07 232.57 143.18 231.01"/><polyline class="cls-5" points="57.6 266.5 58.28 265.28 58.36 265.14 58.36 264.77 58.36 264.7 58.36 264.26"/><polyline class="cls-5" points="1.95 255.98 4.69 257.16 10.6 259.7 27.53 268.58 27.53 268.59 29.31 269.52 57.6 266.5 57.6 265.98"/><line class="cls-5" x1="1.95" y1="255.98" x2="1.95" y2="255.47"/><polyline class="cls-5" points="104.31 119.65 104.31 122.74 105.77 120.69 105.77 117.6"/><polyline class="cls-5" points="107.94 114.55 107.94 117.54 108.62 116.57 108.62 113.59"/><polyline class="cls-5" points="115.12 104.86 115.12 104.87 115.12 107.45 115.12 107.53 115.89 106.44 115.89 103.77"/><polygon class="cls-5" points="157.07 20.33 155.12 19.53 155.11 24.01 157.07 24.81 157.07 20.33"/><polygon class="cls-5" points="153.08 71.76 153.08 67.4 157.15 69.01 157.15 73.33 153.08 71.76"/><polygon class="cls-5" points="159.19 74.14 159.19 69.82 163.23 71.42 163.23 75.75 159.19 74.14"/><polyline class="cls-5" points="177.71 84.41 177.7 78.53 180.04 79.42 180.14 85.47"/><polyline class="cls-5" points="544.73 121.6 544.73 117.13 542.83 116.39 542.78 120.77"/><polyline class="cls-5" points="562.55 129.33 562.55 124.63 564.18 125.36 564.21 129.92"/><polyline class="cls-5" points="577.17 113.71 577.17 107.22 576.19 108.54 576.19 115.06"/><line class="cls-5" x1="180.96" y1="78.47" x2="180.95" y2="78.47"/><polygon class="cls-5" points="180.96 78.47 180.95 82.79 184.94 84.38 184.94 80.05 180.96 78.47"/><polyline class="cls-5" points="567.45 120.53 568.95 118.42 570.45 116.32 576.05 108.44 577.48 106.44 578.97 104.34 579.8 103.17 581.29 101.07 582.99 98.69 586.48 93.78 586.48 93.27"/><polyline class="cls-5" points="540.18 110.52 540.18 111.04 558.61 116.81 564.49 119.29 567.44 120.54"/><line class="cls-5" x1="187.06" y1="80.89" x2="187.05" y2="80.89"/><polygon class="cls-5" points="187.06 80.89 187.05 85.22 191.04 86.8 191.04 82.47 187.06 80.89"/><polyline class="cls-5" points="202.13 80.04 202.13 75.4 202.83 74.41 202.83 79.02"/><polyline class="cls-5" points="527.98 91.08 527.98 91.21 527.98 91.6 528.61 91.86 547.84 99.73"/><polyline class="cls-5" points="568.99 118.45 568.99 121.51 570.47 119.43 570.47 116.34"/><polyline class="cls-5" points="540.28 110.56 558.07 116.16 564.67 118.84 565.28 119.09 567.5 120.05"/><polyline class="cls-5" points="566.62 124.41 566.62 124.88 568.09 122.82 568.1 119.69 567.5 120.53 567.45 120.53 567.44 120.54 566.62 120.62 566.62 124.41"/><line class="cls-5" x1="529.91" y1="92.49" x2="529.9" y2="92.49"/><polygon class="cls-5" points="529.91 92.49 529.9 96.96 531.86 97.77 531.86 93.29 529.91 92.49"/><polyline class="cls-5" points="579.82 103.19 579.82 106.25 581.3 104.16 581.3 101.08"/><polyline class="cls-5" points="577.5 106.46 577.5 109.52 578.98 107.44 578.98 104.35"/><polyline class="cls-5" points="195.84 90.25 195.84 85.62 196.54 84.62 196.54 89.24"/><polyline class="cls-5" points="153.19 18.12 153.19 18.64 153.82 18.9 173.06 26.78"/><polyline class="cls-5" points="194.2 45.48 193.31 46.73 192.71 47.58 192.71 47.06"/><polyline class="cls-5" points="205 30.26 204.14 31.47 202.63 33.6 195.68 43.39 194.2 45.47"/><polyline class="cls-5" points="211.69 20.31 211.69 20.83 208.15 25.82 206.51 28.13 205 30.25"/><polyline class="cls-5" points="192.71 47.58 192.1 47.33 183.85 43.9 179.79 42.62"/><polyline class="cls-5" points="189.54 52.68 188.92 53.55 184.2 60.19 184.2 60.2"/><polyline class="cls-5" points="191.76 49.03 191.76 49.55 189.54 52.67"/><polyline class="cls-5" points="473.32 154.78 473.32 155.3 473.95 155.56 493.19 163.43"/><polyline class="cls-5" points="206.51 28.13 206.52 31.22 205 33.34 205 30.26 205 30.25"/><polyline class="cls-5" points="514.33 182.15 514.33 185.21 515.81 183.13 515.81 180.04"/><polyline class="cls-5" points="464.14 257.15 464.14 260.21 465.62 258.12 465.62 255.05"/><polyline class="cls-5" points="485.62 174.26 503.41 179.86 510.62 182.79 512.84 183.75"/><polyline class="cls-5" points="511.97 188.11 511.97 188.58 513.43 186.52 513.44 183.39 512.84 184.23 511.97 184.32 511.97 188.11"/><line class="cls-5" x1="475.25" y1="156.19" x2="475.24" y2="156.19"/><polygon class="cls-5" points="475.25 156.19 475.24 160.66 477.2 161.47 477.2 156.99 475.25 156.19"/><polyline class="cls-5" points="525.17 166.89 525.17 169.95 526.65 167.86 526.65 164.78"/><polyline class="cls-5" points="522.84 170.16 522.84 173.22 524.32 171.14 524.32 168.05"/><polygon class="cls-5" points="499.24 187.79 499.24 192.11 504.73 191.53 504.73 187.21 499.24 187.79"/><polygon class="cls-5" points="496.53 188.08 491.04 188.67 491.04 192.99 496.53 192.4 496.53 188.08"/><polygon class="cls-5" points="461.69 191.8 461.69 196.12 467.17 195.53 467.17 191.21 461.69 191.8"/><polygon class="cls-5" points="453.46 192.68 453.46 197 458.94 196.41 458.94 192.09 453.46 192.68"/><polygon class="cls-5" points="489.97 196.24 486.67 196.47 486.65 190.44 489.93 190.1 489.95 193 489.97 196.24"/><polyline class="cls-5" points="435.43 249.25 453.23 254.86 460.44 257.79 462.58 258.72 462.65 258.75"/><polyline class="cls-5" points="407 252.27 400.71 259.87 397.59 264.49 396.81 265.74"/><line class="cls-5" x1="461.78" y1="259.32" x2="461.78" y2="263.11"/><polyline class="cls-5" points="461.78 263.11 461.78 263.58 463.25 261.52 463.25 258.38"/><line class="cls-5" x1="481.64" y1="231.96" x2="481.64" y2="232.51"/><polyline class="cls-5" points="476.46 239.77 478.03 237.57 478.03 237.56 481.62 232.51"/><polyline class="cls-5" points="474.13 243.05 474.97 241.88 476.46 239.78"/><polyline class="cls-5" points="347.97 246.35 347.97 246.86 351.33 248.19 384.03 261.17 396.83 266.25 397.68 266.16 440.64 261.58 460.05 259.51 461.78 259.32 462.65 259.23 463.25 258.38 464.13 257.14 465.62 255.05 465.62 255.04 471.24 247.14 472.64 245.15 474.13 243.06"/><polyline class="cls-5" points="425.06 231.19 425.06 235.66 427.02 236.46 427.02 231.99 425.06 231.18"/><polyline class="cls-5" points="471.3 253.64 471.3 247.18 472.27 245.82 472.27 252.24"/><polyline class="cls-5" points="474.98 241.89 474.98 244.94 476.46 242.86 476.46 239.78 476.46 239.77"/><polyline class="cls-5" points="472.65 245.16 472.65 248.22 474.13 246.13 474.13 243.06 474.13 243.05"/><polygon class="cls-5" points="449.06 262.79 449.06 267.11 454.54 266.52 454.54 262.2 449.06 262.79"/><polygon class="cls-5" points="440.86 263.66 440.86 267.98 446.34 267.4 446.34 263.08 440.86 263.66"/><polygon class="cls-5" points="411.5 266.8 411.5 271.12 416.99 270.53 416.99 266.21 411.5 266.8"/><polygon class="cls-5" points="403.27 267.67 403.27 272 408.76 271.41 408.76 267.09 403.27 267.67"/><polygon class="cls-5" points="389.57 265.02 389.57 269.34 393.63 270.95 393.63 266.63 389.57 265.02"/><polygon class="cls-5" points="383.47 262.59 383.47 263.59 383.47 266.92 387.53 268.53 387.53 264.21 383.47 262.59"/><polygon class="cls-5" points="361.7 253.95 361.7 258.27 365.76 259.88 365.76 255.56 361.7 253.95"/><polygon class="cls-5" points="355.59 251.53 355.59 255.85 359.66 257.46 359.66 253.14 355.59 251.53"/><polygon class="cls-5" points="439.79 271.23 436.49 271.46 436.46 265.44 439.75 265.1 439.77 267.99 439.79 271.23"/><polyline class="cls-5" points="380.22 268.46 382.55 269.56 382.66 263.59 380.27 262.63 380.21 268.5"/><line class="cls-5" x1="288.84" y1="284.66" x2="288.83" y2="284.66"/><polygon class="cls-5" points="288.84 284.66 288.83 289.14 290.79 289.94 290.79 285.46 288.84 284.66"/><polyline class="cls-5" points="286.91 283.25 286.91 283.77 287.54 284.03 306.78 291.91"/><polyline class="cls-5" points="204.14 31.47 204.15 34.56 202.63 36.68 202.63 33.6"/><polyline class="cls-5" points="201.4 35.55 202.38 34.24 202.38 39.95"/><line class="cls-5" x1="201.4" y1="35.57" x2="201.4" y2="41.41"/><polyline class="cls-5" points="194.2 45.47 194.2 45.48 194.2 48.56 195.68 46.47 195.68 43.39"/><polyline class="cls-5" points="327.92 310.63 327.92 313.68 329.4 311.6 329.4 308.52"/><polyline class="cls-5" points="335.07 307.12 335.07 300.65 336.05 299.3 336.05 305.71"/><polyline class="cls-5" points="338.76 295.36 338.76 298.42 340.24 296.33 340.24 293.25"/><polyline class="cls-5" points="336.43 298.64 336.43 301.7 337.91 299.61 337.91 296.53"/><polyline class="cls-5" points="193.31 46.73 193.31 49.85 191.78 52 191.78 49.55 191.78 47.7 192.08 47.35"/><line class="cls-5" x1="325.56" y1="312.8" x2="325.56" y2="316.58"/><polyline class="cls-5" points="325.56 316.58 325.56 317.06 327.02 314.99 327.03 311.86"/><polygon class="cls-5" points="312.83 316.26 312.83 320.59 318.32 320 318.32 315.68 312.83 316.26"/><polygon class="cls-5" points="310.12 316.55 304.63 317.14 304.63 321.46 310.12 320.88 310.12 316.55"/><polygon class="cls-5" points="275.28 320.27 275.28 324.59 280.76 324.01 280.76 319.69 275.28 320.27"/><polygon class="cls-5" points="267.05 321.15 267.05 325.47 272.53 324.89 272.53 320.56 267.05 321.15"/><polygon class="cls-5" points="253.34 318.49 253.34 322.81 257.4 324.43 257.4 320.1 253.34 318.49"/><polygon class="cls-5" points="251.3 317.68 247.24 316.07 247.24 317.07 247.24 320.39 251.3 322 251.3 317.68"/><polygon class="cls-5" points="225.47 307.43 225.47 311.75 229.53 313.36 229.53 309.04 225.47 307.43"/><polygon class="cls-5" points="219.37 305 219.37 309.32 223.43 310.94 223.43 306.61 219.37 305"/><polygon class="cls-5" points="303.56 324.71 300.26 324.94 300.24 318.92 303.52 318.57 303.54 321.47 303.56 324.71"/><polyline class="cls-5" points="244 321.94 246.33 323.04 246.43 317.07 244.05 316.1 243.98 321.98"/><polyline class="cls-5" points="326.43 312.19 301.44 303.43 299.11 302.74 299.07 302.73"/><polyline class="cls-5" points="270.78 305.74 269.93 306.77 263.76 314.23 260.65 319.21 260.59 319.31"/><polyline class="cls-5" points="249.23 297.15 246.1 297.29 211.75 299.82"/><polyline class="cls-5" points="260.59 319.73 260.59 319.31 260.59 319.22"/><line class="cls-5" x1="326.43" y1="312.71" x2="326.43" y2="312.19"/><polyline class="cls-5" points="211.75 299.82 211.75 300.34 215.11 301.68 251.86 316.28 260.59 319.75 261.54 319.65 309.9 314.48 323.96 312.97 325.56 312.8 326.43 312.71 327.03 311.86 327.91 310.62 329.4 308.52 335.01 300.61 336.42 298.63 337.91 296.53 338.75 295.35 340.24 293.25 341.93 290.86 345.41 285.96 345.41 285.44"/><line class="cls-5" x1="192.08" y1="47.35" x2="192.1" y2="47.33"/><polyline class="cls-5" points="98.03 269.84 98.01 263.96 101.3 263.61 101.32 266.51 101.34 269.49"/><polyline class="cls-5" points="189.54 52.67 189.54 52.68 189.54 55.16 188.92 56.03 188.92 53.55"/></g><g id="light"><line class="cls-5" x1="322.95" y1="43.53" x2="361.3" y2="37.98"/><line class="cls-5" x1="173.34" y1="26.38" x2="211.69" y2="20.32"/><line class="cls-5" x1="493.47" y1="163.04" x2="531.83" y2="156.97"/><line class="cls-5" x1="548.13" y1="99.34" x2="586.48" y2="93.27"/><line class="cls-5" x1="443.29" y1="238.03" x2="481.64" y2="231.97"/><line class="cls-5" x1="307.06" y1="291.51" x2="345.41" y2="285.44"/><line class="cls-5" x1="91.02" y1="138.51" x2="63.71" y2="124.95"/><line class="cls-5" x1="71.89" y1="113.36" x2="108.62" y2="110.31"/><line class="cls-5" x1="65.56" y1="150.39" x2="82.86" y2="150.02"/><line class="cls-5" x1="145.47" y1="62.22" x2="183.92" y2="60.09"/><line class="cls-5" x1="178.54" y1="41.95" x2="166.34" y2="36.25"/><line class="cls-5" x1="327.06" y1="58.52" x2="315.94" y2="53.4"/><line class="cls-5" x1="367.97" y1="122.35" x2="383.32" y2="129.5"/><line class="cls-5" x1="270.34" y1="158.6" x2="287.92" y2="158.6"/><line class="cls-5" x1="256" y1="177.3" x2="244.89" y2="172.18"/></g></g></svg>