<svg xmlns="http://www.w3.org/2000/svg" viewBox="0 0 391.04 67.15"><defs><style>.cls-1{fill:#373535;}.cls-2{fill:#e7e6e4;}.cls-3{fill:#f9d196;}.cls-4{fill:#f5b659;}.cls-5{fill:#bababa;}</style></defs><g id="Layer_2" data-name="Layer 2"><g id="Layer_1-2" data-name="Layer 1"><path class="cls-1" d="M66.36,20.4a3.12,3.12,0,0,1-2.53-1.11,5.09,5.09,0,0,1-.93-3.35,5.25,5.25,0,0,1,.89-3.34,3.56,3.56,0,0,1,5.15,0,5.12,5.12,0,0,1,.92,3.34A5.28,5.28,0,0,1,69,19.29,3.14,3.14,0,0,1,66.36,20.4Zm0-.83a1.58,1.58,0,0,0,1.53-.92,6.6,6.6,0,0,0,.44-2.71,6.19,6.19,0,0,0-.45-2.69,1.75,1.75,0,0,0-3.06,0,6.19,6.19,0,0,0-.45,2.69,6.41,6.41,0,0,0,.45,2.71A1.58,1.58,0,0,0,66.39,19.57Z"/><path class="cls-1" d="M74.71,20.4a2.26,2.26,0,0,1-1.83-.75,3.6,3.6,0,0,1-.64-2.39V13.41c0-.46-.11-.76-.34-.88a1.68,1.68,0,0,0-.84-.2h0v-.67h2.71V17.2A3.39,3.39,0,0,0,74,18.83a1.24,1.24,0,0,0,1.19.56,1.51,1.51,0,0,0,1.39-.71,3.64,3.64,0,0,0,.43-1.9V13.49c0-.5-.11-.82-.34-1a1.68,1.68,0,0,0-.84-.2h0v-.67H78.5v6.83c0,.47.12.77.36.89a1.74,1.74,0,0,0,.84.19h0v.67h-2.4l-.21-1.3h-.06a2.48,2.48,0,0,1-1,1.17A3.05,3.05,0,0,1,74.71,20.4Z"/><path class="cls-1" d="M83.64,20.4A2.14,2.14,0,0,1,82,19.85a2.84,2.84,0,0,1-.51-1.93V12.51H80.39v-.59a2.43,2.43,0,0,0,.63-.16,1.5,1.5,0,0,0,.55-.39,2.08,2.08,0,0,0,.39-.65,5.19,5.19,0,0,0,.27-1H83v2H84.9v.85H83V18a2,2,0,0,0,.29,1.22.93.93,0,0,0,.8.38,4.05,4.05,0,0,0,.52,0l.46-.08v.7a2.41,2.41,0,0,1-.6.18A4.23,4.23,0,0,1,83.64,20.4Z"/><path class="cls-1" d="M88.52,20.4A3.44,3.44,0,0,1,86.69,20,1.37,1.37,0,0,1,86,18.72a1,1,0,0,1,.32-.84,1,1,0,0,1,.64-.23,2.56,2.56,0,0,0,.37,1.41,1.36,1.36,0,0,0,1.25.59,1.62,1.62,0,0,0,1.19-.4,1.4,1.4,0,0,0,.41-1.06,1.29,1.29,0,0,0-.16-.66,1.53,1.53,0,0,0-.53-.51,9,9,0,0,0-1.07-.57,9,9,0,0,1-1.29-.72,2.38,2.38,0,0,1-.75-.81,2.46,2.46,0,0,1-.24-1.14,2,2,0,0,1,.76-1.68,3.19,3.19,0,0,1,2-.58,2.67,2.67,0,0,1,1.66.44,1.3,1.3,0,0,1,.56,1,.9.9,0,0,1-.27.69,1.12,1.12,0,0,1-.79.26,2.06,2.06,0,0,0-.33-1.26,1.19,1.19,0,0,0-1-.44,1.35,1.35,0,0,0-1,.36,1.31,1.31,0,0,0-.32.92,1.15,1.15,0,0,0,.41,1,7,7,0,0,0,1.39.77,5.25,5.25,0,0,1,1.71,1.08,2.23,2.23,0,0,1,.53,1.57,2.23,2.23,0,0,1-.8,1.86A3.27,3.27,0,0,1,88.52,20.4Z"/><path class="cls-1" d="M92.4,20.24v-.67h.2a1.68,1.68,0,0,0,.84-.19c.24-.12.36-.42.36-.89V13.42c0-.47-.12-.77-.34-.89a1.62,1.62,0,0,0-.83-.2h-.1v-.67h2.72v6.75c0,.51.12.82.35,1a1.67,1.67,0,0,0,.85.2h.19v.67Zm2-10.21a.9.9,0,0,1-.61-.21.93.93,0,0,1-.25-.75.93.93,0,0,1,.25-.75.9.9,0,0,1,.61-.21,1,1,0,0,1,.63.21.93.93,0,0,1,.25.75.93.93,0,0,1-.25.75A1,1,0,0,1,94.45,10Z"/><path class="cls-1" d="M100.63,20.4a2.6,2.6,0,0,1-2.23-1.07A5.81,5.81,0,0,1,97.64,16a6,6,0,0,1,.76-3.4,2.6,2.6,0,0,1,2.24-1.07,2.24,2.24,0,0,1,1.4.4,2.73,2.73,0,0,1,.86,1H103c0-.26,0-.54-.06-.85s0-.6,0-.88V9.84q0-.71-.36-.9a1.86,1.86,0,0,0-.84-.19h-.13V8.08h2.79v10.4c0,.47.11.77.35.89a1.72,1.72,0,0,0,.85.2h.12v.67h-2.54L103,18.78h0A3.22,3.22,0,0,1,102,20,2.22,2.22,0,0,1,100.63,20.4Zm.3-1a1.56,1.56,0,0,0,1.54-.88A6,6,0,0,0,102.9,16a6.36,6.36,0,0,0-.42-2.6,1.59,1.59,0,0,0-1.56-.89,1.4,1.4,0,0,0-1.36.9,6.39,6.39,0,0,0-.42,2.6,6.12,6.12,0,0,0,.42,2.59A1.4,1.4,0,0,0,100.93,19.42Z"/><path class="cls-1" d="M110.21,20.4a3,3,0,0,1-2.54-1.15,5.09,5.09,0,0,1-.91-3.23,5.51,5.51,0,0,1,.86-3.38,2.89,2.89,0,0,1,2.45-1.14,2.83,2.83,0,0,1,2.28,1,4.32,4.32,0,0,1,.82,2.86v.71h-4.91a4.9,4.9,0,0,0,.58,2.57,1.83,1.83,0,0,0,1.63.82,2.3,2.3,0,0,0,1.29-.35,2.36,2.36,0,0,0,.79-.82.47.47,0,0,1,.22.18.58.58,0,0,1,.1.35,1.19,1.19,0,0,1-.29.69,2.2,2.2,0,0,1-.88.65A3.76,3.76,0,0,1,110.21,20.4Zm-1.92-5.19h3.36a5.22,5.22,0,0,0-.37-2.07,1.22,1.22,0,0,0-1.21-.79,1.39,1.39,0,0,0-1.27.74A4.49,4.49,0,0,0,108.29,15.21Z"/><path class="cls-1" d="M65.24,63.49a3.44,3.44,0,0,1-1.83-.42,1.38,1.38,0,0,1-.67-1.26,1,1,0,0,1,.32-.84,1.06,1.06,0,0,1,.64-.24,2.57,2.57,0,0,0,.37,1.42,1.35,1.35,0,0,0,1.25.58,1.66,1.66,0,0,0,1.19-.39,1.4,1.4,0,0,0,.41-1.06,1.24,1.24,0,0,0-.16-.66,1.64,1.64,0,0,0-.53-.52c-.26-.16-.62-.35-1.07-.57a8.19,8.19,0,0,1-1.29-.71,2.38,2.38,0,0,1-.75-.81,2.48,2.48,0,0,1-.24-1.15,2,2,0,0,1,.76-1.67,3.21,3.21,0,0,1,2-.58,2.61,2.61,0,0,1,1.66.44,1.28,1.28,0,0,1,.56,1,.9.9,0,0,1-.27.69,1.1,1.1,0,0,1-.79.25,2,2,0,0,0-.33-1.25,1.17,1.17,0,0,0-1-.44,1.35,1.35,0,0,0-1,.36,1.34,1.34,0,0,0-.32.92,1.17,1.17,0,0,0,.41,1,6.54,6.54,0,0,0,1.39.76,5.61,5.61,0,0,1,1.71,1.08,2.59,2.59,0,0,1-.27,3.44A3.33,3.33,0,0,1,65.24,63.49Z"/><path class="cls-1" d="M73,63.49a3.1,3.1,0,0,1-2.52-1.11A5.1,5.1,0,0,1,69.59,59a5.17,5.17,0,0,1,.89-3.33,3.56,3.56,0,0,1,5.15,0A5.11,5.11,0,0,1,76.55,59a5.29,5.29,0,0,1-.89,3.36A3.15,3.15,0,0,1,73,63.49Zm0-.84a1.54,1.54,0,0,0,1.52-.92A6.37,6.37,0,0,0,75,59a6.43,6.43,0,0,0-.44-2.69,1.6,1.6,0,0,0-1.54-.89,1.58,1.58,0,0,0-1.52.89A6.25,6.25,0,0,0,71.09,59a6.35,6.35,0,0,0,.45,2.71A1.57,1.57,0,0,0,73.08,62.65Z"/><path class="cls-1" d="M81.56,63.49A3.39,3.39,0,0,1,79.8,63a2.89,2.89,0,0,1-1.2-1.42,6.21,6.21,0,0,1-.44-2.53,6.84,6.84,0,0,1,.44-2.7A2.78,2.78,0,0,1,79.8,55a3.49,3.49,0,0,1,1.69-.41,4.07,4.07,0,0,1,1.27.19,2.36,2.36,0,0,1,1,.54,1.22,1.22,0,0,1,.36.9.86.86,0,0,1-.33.77,1.9,1.9,0,0,1-1,.22,3.08,3.08,0,0,0-.24-1.28,1,1,0,0,0-1-.54,1.56,1.56,0,0,0-1,.32,2.06,2.06,0,0,0-.64,1.12,8.7,8.7,0,0,0-.22,2.24,5.18,5.18,0,0,0,.51,2.57,1.78,1.78,0,0,0,1.66.87,2.14,2.14,0,0,0,1.23-.34,2.31,2.31,0,0,0,.76-.86.77.77,0,0,1,.27.63,1.19,1.19,0,0,1-.27.71,2,2,0,0,1-.84.6A3.71,3.71,0,0,1,81.56,63.49Z"/><path class="cls-1" d="M85,63.33v-.68h.19a1.84,1.84,0,0,0,.85-.18c.24-.12.35-.42.35-.89V56.51q0-.7-.33-.9a1.75,1.75,0,0,0-.83-.19h-.1v-.67h2.72V61.5c0,.5.12.82.34,1a1.64,1.64,0,0,0,.86.2h.19v.68Zm2-10.21a1,1,0,0,1-.62-.21,1.29,1.29,0,0,1,0-1.5,1,1,0,0,1,.62-.21.93.93,0,0,1,.62.21,1.21,1.21,0,0,1,0,1.5A.93.93,0,0,1,87.06,53.12Z"/><path class="cls-1" d="M92.45,63.49a2.22,2.22,0,0,1-1.62-.63,2.57,2.57,0,0,1-.65-1.93A2.18,2.18,0,0,1,91,59a4.55,4.55,0,0,1,2.53-.67l1.22,0v-1a5.06,5.06,0,0,0-.1-1,1.17,1.17,0,0,0-.38-.69,1.29,1.29,0,0,0-.87-.25,1.1,1.1,0,0,0-1.08.49,2.8,2.8,0,0,0-.25,1.25c-.86,0-1.29-.33-1.29-1A1.22,1.22,0,0,1,91.56,55a4.43,4.43,0,0,1,1.93-.37,3,3,0,0,1,2.05.62,2.82,2.82,0,0,1,.69,2.15V61.5a1.42,1.42,0,0,0,.21.91.87.87,0,0,0,.7.24h0v.68H95.12l-.24-1.39h-.11a6.69,6.69,0,0,1-.61.8,2.34,2.34,0,0,1-.7.55A2.3,2.3,0,0,1,92.45,63.49Zm.4-.93a1.72,1.72,0,0,0,1.4-.63,2.52,2.52,0,0,0,.52-1.66V59l-.93,0a2.55,2.55,0,0,0-1.69.55A2,2,0,0,0,91.68,61,2,2,0,0,0,92,62.16,1,1,0,0,0,92.85,62.56Z"/><path class="cls-1" d="M98,63.33v-.68h.19a1.61,1.61,0,0,0,.86-.2c.23-.13.35-.45.35-1V52.93c0-.47-.13-.77-.37-.9a1.79,1.79,0,0,0-.84-.19H98v-.67h2.85V61.5c0,.5.12.82.34,1a1.64,1.64,0,0,0,.86.2h.19v.68Z"/><path class="cls-1" d="M109.41,63.49a3.38,3.38,0,0,1-1.82-.42,1.39,1.39,0,0,1-.68-1.26,1,1,0,0,1,.32-.84,1.09,1.09,0,0,1,.64-.24,2.65,2.65,0,0,0,.37,1.42,1.36,1.36,0,0,0,1.25.58,1.66,1.66,0,0,0,1.19-.39,1.4,1.4,0,0,0,.41-1.06,1.34,1.34,0,0,0-.15-.66,1.59,1.59,0,0,0-.54-.52,10.52,10.52,0,0,0-1.07-.57,9.21,9.21,0,0,1-1.29-.71,2.44,2.44,0,0,1-.74-.81,2.48,2.48,0,0,1-.24-1.15,2,2,0,0,1,.76-1.67,3.18,3.18,0,0,1,2-.58,2.64,2.64,0,0,1,1.67.44,1.27,1.27,0,0,1,.55,1,.9.9,0,0,1-.27.69A1.09,1.09,0,0,1,111,57a2,2,0,0,0-.34-1.25,1.14,1.14,0,0,0-1-.44,1.33,1.33,0,0,0-1,.36,1.3,1.3,0,0,0-.33.92,1.17,1.17,0,0,0,.42,1,6.29,6.29,0,0,0,1.39.76,5.42,5.42,0,0,1,1.7,1.08,2.21,2.21,0,0,1,.54,1.58,2.26,2.26,0,0,1-.8,1.86A3.34,3.34,0,0,1,109.41,63.49Z"/><path class="cls-1" d="M113.24,67.15v-.67h.11a1.7,1.7,0,0,0,.83-.2c.23-.13.35-.45.35-1V56.51c0-.47-.11-.77-.34-.9a1.78,1.78,0,0,0-.83-.19h-.19v-.67h2.61l.16,1.41H116a3.13,3.13,0,0,1,.86-1.14,2.15,2.15,0,0,1,1.4-.43,2.61,2.61,0,0,1,2.23,1.06,5.78,5.78,0,0,1,.78,3.37,5.81,5.81,0,0,1-.78,3.39,2.59,2.59,0,0,1-2.25,1.08,2.23,2.23,0,0,1-1.37-.4,2.53,2.53,0,0,1-.85-1H116c0,.28,0,.59,0,.92s0,.63,0,.89v1.54c0,.47.12.76.36.88a1.74,1.74,0,0,0,.84.19h.13v.67ZM118,62.53a1.42,1.42,0,0,0,1.37-.92,6.66,6.66,0,0,0,.4-2.62,6.37,6.37,0,0,0-.4-2.58,1.44,1.44,0,0,0-1.39-.86,1.55,1.55,0,0,0-1.55.88A6.22,6.22,0,0,0,116,59a6.33,6.33,0,0,0,.43,2.6A1.56,1.56,0,0,0,118,62.53Z"/><path class="cls-1" d="M125.09,63.49a2.22,2.22,0,0,1-1.62-.63,2.53,2.53,0,0,1-.65-1.93,2.18,2.18,0,0,1,.83-1.89,4.53,4.53,0,0,1,2.53-.67l1.21,0v-1a5.12,5.12,0,0,0-.09-1,1.18,1.18,0,0,0-.39-.69,1.26,1.26,0,0,0-.86-.25,1.1,1.1,0,0,0-1.08.49,2.8,2.8,0,0,0-.25,1.25c-.86,0-1.29-.33-1.29-1A1.22,1.22,0,0,1,124.2,55a4.43,4.43,0,0,1,1.93-.37,3,3,0,0,1,2.05.62,2.82,2.82,0,0,1,.69,2.15V61.5a1.5,1.5,0,0,0,.2.91.91.91,0,0,0,.71.24h.05v.68h-2.07l-.24-1.39h-.11a6.69,6.69,0,0,1-.61.8,2.47,2.47,0,0,1-.7.55A2.3,2.3,0,0,1,125.09,63.49Zm.4-.93a1.72,1.72,0,0,0,1.4-.63,2.52,2.52,0,0,0,.52-1.66V59l-.93,0a2.55,2.55,0,0,0-1.69.55,2,2,0,0,0-.47,1.44,2,2,0,0,0,.29,1.15A1,1,0,0,0,125.49,62.56Z"/><path class="cls-1" d="M134.64,63.49a3.44,3.44,0,0,1-1.76-.45,3,3,0,0,1-1.2-1.42,6.4,6.4,0,0,1-.43-2.53,6.84,6.84,0,0,1,.44-2.7A2.77,2.77,0,0,1,132.88,55a3.53,3.53,0,0,1,1.7-.41,4,4,0,0,1,1.26.19,2.24,2.24,0,0,1,1,.54,1.19,1.19,0,0,1,.37.9.84.84,0,0,1-.34.77,1.84,1.84,0,0,1-1,.22,2.92,2.92,0,0,0-.25-1.28,1,1,0,0,0-1-.54,1.56,1.56,0,0,0-1,.32,2.06,2.06,0,0,0-.64,1.12,8.62,8.62,0,0,0-.23,2.24,5.17,5.17,0,0,0,.52,2.57,1.77,1.77,0,0,0,1.66.87,2.09,2.09,0,0,0,1.22-.34,2.23,2.23,0,0,0,.76-.86.75.75,0,0,1,.28.63,1.15,1.15,0,0,1-.28.71,2,2,0,0,1-.84.6A3.64,3.64,0,0,1,134.64,63.49Z"/><path class="cls-1" d="M142,63.49a3.07,3.07,0,0,1-2.55-1.16,5.11,5.11,0,0,1-.91-3.23,5.47,5.47,0,0,1,.87-3.37,2.88,2.88,0,0,1,2.44-1.14,2.82,2.82,0,0,1,2.28,1,4.32,4.32,0,0,1,.83,2.86v.7h-4.91a4.82,4.82,0,0,0,.58,2.58,1.85,1.85,0,0,0,1.62.82,2.24,2.24,0,0,0,1.3-.36,2.31,2.31,0,0,0,.78-.81.49.49,0,0,1,.23.18.63.63,0,0,1,.09.35,1.17,1.17,0,0,1-.28.69,2.26,2.26,0,0,1-.88.64A3.61,3.61,0,0,1,142,63.49ZM140.1,58.3h3.36a5.4,5.4,0,0,0-.37-2.07,1.23,1.23,0,0,0-1.22-.79,1.4,1.4,0,0,0-1.27.73A4.66,4.66,0,0,0,140.1,58.3Z"/><path class="cls-1" d="M270.61,20.24v-.67h.19a1.72,1.72,0,0,0,.85-.19c.24-.12.35-.42.35-.89V13.42c0-.47-.11-.77-.33-.89a1.64,1.64,0,0,0-.83-.2h-.1v-.67h2.72v6.75c0,.51.11.82.34,1a1.74,1.74,0,0,0,.86.2h.19v.67ZM272.66,10a.93.93,0,0,1-.62-.21,1,1,0,0,1-.24-.75,1,1,0,0,1,.24-.75.93.93,0,0,1,.62-.21,1,1,0,0,1,.62.21.93.93,0,0,1,.26.75.93.93,0,0,1-.26.75A1,1,0,0,1,272.66,10Z"/><path class="cls-1" d="M275.44,20.24v-.67h.13a1.72,1.72,0,0,0,.85-.2c.23-.14.35-.45.35-1v-5c0-.47-.11-.77-.34-.89a1.67,1.67,0,0,0-.83-.2h-.08v-.67H278l.19,1.3h.08a2.5,2.5,0,0,1,1-1.16,2.78,2.78,0,0,1,1.31-.3,2.25,2.25,0,0,1,1.81.75,3.54,3.54,0,0,1,.65,2.39v3.77c0,.51.1.82.31,1a1.43,1.43,0,0,0,.8.2h.08v.67h-2.64V14.7a3,3,0,0,0-.36-1.6,1.28,1.28,0,0,0-1.2-.59,1.43,1.43,0,0,0-1.05.37,2,2,0,0,0-.55,1,4.36,4.36,0,0,0-.17,1.28v3.37c0,.49.11.78.33.9a1.74,1.74,0,0,0,.82.18h.08v.67Z"/><path class="cls-1" d="M287.73,20.4a3.41,3.41,0,0,1-1.82-.42,1.38,1.38,0,0,1-.68-1.26,1,1,0,0,1,.33-.84,1,1,0,0,1,.63-.23,2.64,2.64,0,0,0,.37,1.41,1.37,1.37,0,0,0,1.25.59,1.62,1.62,0,0,0,1.19-.4,1.56,1.56,0,0,0,.26-1.72,1.49,1.49,0,0,0-.54-.51,7.61,7.61,0,0,0-1.07-.57,10.29,10.29,0,0,1-1.29-.72,2.15,2.15,0,0,1-1-2,2,2,0,0,1,.76-1.68,3.18,3.18,0,0,1,2-.58,2.71,2.71,0,0,1,1.67.44,1.3,1.3,0,0,1,.56,1,.91.91,0,0,1-.28.69,1.1,1.1,0,0,1-.78.26,2,2,0,0,0-.34-1.26,1.17,1.17,0,0,0-1-.44,1.33,1.33,0,0,0-1,.36,1.31,1.31,0,0,0-.33.92,1.16,1.16,0,0,0,.42,1,6.67,6.67,0,0,0,1.39.77,5.08,5.08,0,0,1,1.7,1.08,2.19,2.19,0,0,1,.54,1.57,2.26,2.26,0,0,1-.8,1.86A3.28,3.28,0,0,1,287.73,20.4Z"/><path class="cls-1" d="M294.82,20.4a2.16,2.16,0,0,1-1.62-.55,2.84,2.84,0,0,1-.51-1.93V12.51h-1.12v-.59a2.33,2.33,0,0,0,.63-.16,1.53,1.53,0,0,0,.56-.39,2.08,2.08,0,0,0,.39-.65,5.27,5.27,0,0,0,.26-1h.74v2h1.93v.85h-1.93V18a2,2,0,0,0,.29,1.22.92.92,0,0,0,.8.38,4.17,4.17,0,0,0,.52,0l.45-.08v.7a2.41,2.41,0,0,1-.6.18A4.15,4.15,0,0,1,294.82,20.4Z"/><path class="cls-1" d="M297,20.24v-.67h0a1.71,1.71,0,0,0,.86-.2c.23-.14.34-.45.34-1v-5c0-.47-.11-.77-.35-.89a1.67,1.67,0,0,0-.83-.2h0v-.67h2.34l.27,1.63h.07a9,9,0,0,1,.43-.88,2,2,0,0,1,.63-.66,1.92,1.92,0,0,1,1-.25,1.83,1.83,0,0,1,1.17.32,1.07,1.07,0,0,1,.39.87,1,1,0,0,1-.33.8,1.55,1.55,0,0,1-1.08.3,1.91,1.91,0,0,0-.17-.95.65.65,0,0,0-.61-.3.79.79,0,0,0-.65.34,2.63,2.63,0,0,0-.45.85,6.42,6.42,0,0,0-.24,1.11,7.05,7.05,0,0,0-.08,1.08v2.57c0,.47.11.77.35.89a1.67,1.67,0,0,0,.83.19h.4v.67Z"/><path class="cls-1" d="M307.62,20.4a2.26,2.26,0,0,1-1.83-.75,3.66,3.66,0,0,1-.63-2.39V13.41c0-.46-.12-.76-.35-.88a1.68,1.68,0,0,0-.84-.2h-.05v-.67h2.71V17.2a3.39,3.39,0,0,0,.31,1.63,1.24,1.24,0,0,0,1.19.56,1.5,1.5,0,0,0,1.39-.71,3.63,3.63,0,0,0,.44-1.9V13.49c0-.5-.12-.82-.35-1a1.68,1.68,0,0,0-.84-.2h0v-.67h2.69v6.83c0,.47.12.77.36.89a1.74,1.74,0,0,0,.84.19h.05v.67h-2.4l-.21-1.3H310a2.48,2.48,0,0,1-1,1.17A3.05,3.05,0,0,1,307.62,20.4Z"/><path class="cls-1" d="M317.2,20.4a3.44,3.44,0,0,1-1.76-.45,3,3,0,0,1-1.2-1.42,6.4,6.4,0,0,1-.43-2.53,6.84,6.84,0,0,1,.44-2.7,2.81,2.81,0,0,1,1.19-1.39,3.53,3.53,0,0,1,1.7-.41,4,4,0,0,1,1.26.19,2.24,2.24,0,0,1,1,.54,1.2,1.2,0,0,1,.37.91.85.85,0,0,1-.33.76,1.89,1.89,0,0,1-1,.23,3,3,0,0,0-.25-1.29,1,1,0,0,0-1-.54,1.56,1.56,0,0,0-1,.32,2.1,2.1,0,0,0-.64,1.12,8.75,8.75,0,0,0-.22,2.24,5.18,5.18,0,0,0,.51,2.57,1.77,1.77,0,0,0,1.66.87,2.14,2.14,0,0,0,1.23-.34,2.4,2.4,0,0,0,.76-.86.77.77,0,0,1,.27.63,1.19,1.19,0,0,1-.27.71,2.11,2.11,0,0,1-.84.6A3.73,3.73,0,0,1,317.2,20.4Z"/><path class="cls-1" d="M323.86,20.4a2.14,2.14,0,0,1-1.62-.55,2.84,2.84,0,0,1-.51-1.93V12.51h-1.12v-.59a2.43,2.43,0,0,0,.63-.16,1.5,1.5,0,0,0,.55-.39,2.1,2.1,0,0,0,.4-.65,5.27,5.27,0,0,0,.26-1h.74v2h1.93v.85h-1.93V18a2,2,0,0,0,.29,1.22.91.91,0,0,0,.79.38,3.94,3.94,0,0,0,.52,0l.46-.08v.7a2.41,2.41,0,0,1-.6.18A4.15,4.15,0,0,1,323.86,20.4Z"/><path class="cls-1" d="M325.94,20.24v-.67h.19a1.75,1.75,0,0,0,.85-.19c.23-.12.35-.42.35-.89V13.42c0-.47-.11-.77-.34-.89a1.62,1.62,0,0,0-.83-.2h-.09v-.67h2.72v6.75c0,.51.11.82.34,1a1.74,1.74,0,0,0,.86.2h.19v.67ZM328,10a.81.81,0,0,1-.87-1,.81.81,0,0,1,.87-1,1,1,0,0,1,.62.21.93.93,0,0,1,.26.75.93.93,0,0,1-.26.75A1,1,0,0,1,328,10Z"/><path class="cls-1" d="M334.63,20.4a3.12,3.12,0,0,1-2.53-1.11,5.09,5.09,0,0,1-.93-3.35,5.25,5.25,0,0,1,.89-3.34,3.56,3.56,0,0,1,5.15,0,5.12,5.12,0,0,1,.92,3.34,5.28,5.28,0,0,1-.89,3.35A3.14,3.14,0,0,1,334.63,20.4Zm0-.83a1.58,1.58,0,0,0,1.53-.92,6.6,6.6,0,0,0,.44-2.71,6.19,6.19,0,0,0-.45-2.69,1.75,1.75,0,0,0-3.06,0,6.19,6.19,0,0,0-.45,2.69,6.41,6.41,0,0,0,.45,2.71A1.58,1.58,0,0,0,334.66,19.57Z"/><path class="cls-1" d="M339.35,20.24v-.67h.12a1.72,1.72,0,0,0,.85-.2c.24-.14.35-.45.35-1v-5c0-.47-.11-.77-.34-.89a1.63,1.63,0,0,0-.82-.2h-.08v-.67h2.44l.2,1.3h.08a2.45,2.45,0,0,1,1-1.16,2.71,2.71,0,0,1,1.3-.3,2.29,2.29,0,0,1,1.82.75,3.6,3.6,0,0,1,.64,2.39v3.77c0,.51.11.82.31,1a1.46,1.46,0,0,0,.8.2h.08v.67h-2.64V14.7a3.11,3.11,0,0,0-.35-1.6,1.3,1.3,0,0,0-1.2-.59,1.46,1.46,0,0,0-1.06.37,2,2,0,0,0-.55,1,4.72,4.72,0,0,0-.17,1.28v3.37c0,.49.11.78.34.9a1.67,1.67,0,0,0,.81.18h.08v.67Z"/><path class="cls-1" d="M355.47,20.4a3.43,3.43,0,0,1-1.82-.42,1.37,1.37,0,0,1-.67-1.26.94.94,0,0,1,.32-.84,1,1,0,0,1,.64-.23,2.56,2.56,0,0,0,.37,1.41,1.35,1.35,0,0,0,1.24.59,1.64,1.64,0,0,0,1.2-.4,1.58,1.58,0,0,0,.25-1.72,1.53,1.53,0,0,0-.53-.51,8.46,8.46,0,0,0-1.08-.57,9.43,9.43,0,0,1-1.28-.72,2.38,2.38,0,0,1-.75-.81,2.46,2.46,0,0,1-.24-1.14,2,2,0,0,1,.76-1.68,3.18,3.18,0,0,1,2-.58,2.71,2.71,0,0,1,1.67.44,1.3,1.3,0,0,1,.56,1,.9.9,0,0,1-.27.69,1.12,1.12,0,0,1-.79.26,2.06,2.06,0,0,0-.33-1.26,1.2,1.2,0,0,0-1-.44,1.33,1.33,0,0,0-1,.36,1.31,1.31,0,0,0-.33.92,1.16,1.16,0,0,0,.42,1,7,7,0,0,0,1.39.77,5.25,5.25,0,0,1,1.71,1.08,2.23,2.23,0,0,1,.53,1.57,2.23,2.23,0,0,1-.8,1.86A3.28,3.28,0,0,1,355.47,20.4Z"/><path class="cls-1" d="M359.3,24.06v-.67h.11a1.67,1.67,0,0,0,.83-.2c.24-.13.35-.45.35-1V13.42c0-.47-.11-.77-.34-.89a1.63,1.63,0,0,0-.82-.2h-.2v-.67h2.61l.16,1.41h.07a2.89,2.89,0,0,1,.85-1.13,2.17,2.17,0,0,1,1.4-.44,2.59,2.59,0,0,1,2.23,1.07,5.76,5.76,0,0,1,.78,3.37,5.85,5.85,0,0,1-.78,3.39,2.59,2.59,0,0,1-2.24,1.07,2.3,2.3,0,0,1-1.38-.39,2.68,2.68,0,0,1-.85-1H362c0,.27,0,.58,0,.92s0,.63,0,.88v1.54c0,.47.12.76.36.89a1.86,1.86,0,0,0,.84.18h.12v.67Zm4.75-4.62a1.4,1.4,0,0,0,1.37-.91,6.72,6.72,0,0,0,.41-2.63,6.26,6.26,0,0,0-.41-2.57,1.42,1.42,0,0,0-1.39-.87,1.57,1.57,0,0,0-1.55.88,6.24,6.24,0,0,0-.41,2.58,6.44,6.44,0,0,0,.42,2.61A1.56,1.56,0,0,0,364.05,19.44Z"/><path class="cls-1" d="M371.15,20.4a2.26,2.26,0,0,1-1.62-.62,2.61,2.61,0,0,1-.65-1.94,2.21,2.21,0,0,1,.83-1.89,4.64,4.64,0,0,1,2.53-.67l1.22,0v-1a4.49,4.49,0,0,0-.1-1,1.23,1.23,0,0,0-.38-.69,1.33,1.33,0,0,0-.87-.25,1.11,1.11,0,0,0-1.08.49,2.86,2.86,0,0,0-.24,1.26c-.87,0-1.3-.34-1.3-1a1.23,1.23,0,0,1,.78-1.17,4.53,4.53,0,0,1,1.92-.37,2.94,2.94,0,0,1,2.05.63,2.78,2.78,0,0,1,.69,2.14v4.14a1.46,1.46,0,0,0,.21.92.88.88,0,0,0,.7.24h.05v.67h-2.06l-.24-1.39h-.12a6.17,6.17,0,0,1-.6.8,2.34,2.34,0,0,1-.71.55A2.27,2.27,0,0,1,371.15,20.4Zm.4-.93a1.71,1.71,0,0,0,1.4-.63,2.5,2.5,0,0,0,.52-1.66V15.89l-.92,0a2.46,2.46,0,0,0-1.7.55,2,2,0,0,0-.46,1.43,2,2,0,0,0,.28,1.15A1,1,0,0,0,371.55,19.47Z"/><path class="cls-1" d="M380.71,20.4A3.39,3.39,0,0,1,379,20a2.89,2.89,0,0,1-1.2-1.42,6.21,6.21,0,0,1-.44-2.53,6.84,6.84,0,0,1,.44-2.7,2.83,2.83,0,0,1,1.2-1.39,3.49,3.49,0,0,1,1.69-.41,4.07,4.07,0,0,1,1.27.19,2.36,2.36,0,0,1,1,.54,1.23,1.23,0,0,1,.36.91.85.85,0,0,1-.33.76,1.89,1.89,0,0,1-1,.23,3.16,3.16,0,0,0-.24-1.29,1,1,0,0,0-1-.54,1.56,1.56,0,0,0-1,.32,2.1,2.1,0,0,0-.64,1.12,8.75,8.75,0,0,0-.22,2.24,5.18,5.18,0,0,0,.51,2.57,1.78,1.78,0,0,0,1.66.87,2.14,2.14,0,0,0,1.23-.34,2.31,2.31,0,0,0,.76-.86.77.77,0,0,1,.27.63,1.19,1.19,0,0,1-.27.71,2,2,0,0,1-.84.6A3.71,3.71,0,0,1,380.71,20.4Z"/><path class="cls-1" d="M388.08,20.4a3,3,0,0,1-2.54-1.15,5.09,5.09,0,0,1-.91-3.23,5.51,5.51,0,0,1,.86-3.38,2.89,2.89,0,0,1,2.45-1.14,2.83,2.83,0,0,1,2.28,1,4.32,4.32,0,0,1,.82,2.86v.71h-4.91a4.9,4.9,0,0,0,.58,2.57,1.83,1.83,0,0,0,1.63.82,2.3,2.3,0,0,0,1.29-.35,2.36,2.36,0,0,0,.79-.82.47.47,0,0,1,.22.18.58.58,0,0,1,.1.35,1.19,1.19,0,0,1-.29.69,2.2,2.2,0,0,1-.88.65A3.76,3.76,0,0,1,388.08,20.4Zm-1.92-5.19h3.36a5.22,5.22,0,0,0-.37-2.07,1.22,1.22,0,0,0-1.21-.79,1.39,1.39,0,0,0-1.27.74A4.49,4.49,0,0,0,386.16,15.21Z"/><path class="cls-1" d="M274.69,64v-.67h.45a1.75,1.75,0,0,0,.85-.2c.23-.14.35-.45.35-1V60.8c0-.19,0-.42,0-.69s0-.52,0-.78,0-.45,0-.61h-.06a3.14,3.14,0,0,1-.86,1.18,2.18,2.18,0,0,1-1.41.43,2.59,2.59,0,0,1-2.23-1.06,5.85,5.85,0,0,1-.76-3.37,5.86,5.86,0,0,1,.77-3.39,2.63,2.63,0,0,1,2.27-1.07,2.29,2.29,0,0,1,1.37.39,2.89,2.89,0,0,1,.87,1h.08l.27-1.25h2.41v.67H279a1.72,1.72,0,0,0-.85.2c-.24.13-.35.45-.35,1v8.82c0,.47.12.77.36.89a1.75,1.75,0,0,0,.85.2h.1V64Zm-.32-4.64a1.57,1.57,0,0,0,1.53-.85,6,6,0,0,0,.44-2.61,6.3,6.3,0,0,0-.42-2.59,1.58,1.58,0,0,0-1.56-.9,1.41,1.41,0,0,0-1.36.88,6.39,6.39,0,0,0-.42,2.63,6.12,6.12,0,0,0,.42,2.59A1.4,1.4,0,0,0,274.37,59.36Z"/><path class="cls-1" d="M283.41,60.33a2.25,2.25,0,0,1-1.83-.74A3.68,3.68,0,0,1,281,57.2V53.34c0-.46-.12-.75-.35-.88a1.68,1.68,0,0,0-.84-.19h0V51.6h2.7v5.53a3.44,3.44,0,0,0,.31,1.64,1.25,1.25,0,0,0,1.19.56,1.52,1.52,0,0,0,1.4-.72,3.67,3.67,0,0,0,.43-1.89v-3.3c0-.5-.12-.82-.35-1a1.68,1.68,0,0,0-.84-.2h0V51.6h2.68v6.83c0,.47.12.77.36.89a1.86,1.86,0,0,0,.84.18h.05v.67h-2.4l-.21-1.29h-.06a2.53,2.53,0,0,1-1,1.17A3,3,0,0,1,283.41,60.33Z"/><path class="cls-1" d="M289.14,60.17V59.5h.19a1.87,1.87,0,0,0,.85-.18c.23-.12.35-.42.35-.89V53.36c0-.47-.11-.77-.34-.9a1.62,1.62,0,0,0-.83-.19h-.09V51.6H292v6.75c0,.5.11.82.34.95a1.64,1.64,0,0,0,.86.2h.19v.67ZM291.19,50a.93.93,0,0,1-.62-.21,1,1,0,0,1-.25-.75.8.8,0,0,1,.87-1,1,1,0,0,1,.62.2.94.94,0,0,1,.26.76.93.93,0,0,1-.26.75A1,1,0,0,1,291.19,50Z"/><path class="cls-1" d="M297.83,60.33a3.07,3.07,0,0,1-2.55-1.15,5.07,5.07,0,0,1-.91-3.23,5.6,5.6,0,0,1,.86-3.38,2.93,2.93,0,0,1,2.45-1.13,2.82,2.82,0,0,1,2.28,1,4.37,4.37,0,0,1,.83,2.87V56h-4.92a4.93,4.93,0,0,0,.59,2.58,1.84,1.84,0,0,0,1.62.81,2.23,2.23,0,0,0,1.3-.35,2.31,2.31,0,0,0,.78-.81.49.49,0,0,1,.23.18.62.62,0,0,1,.09.34,1.13,1.13,0,0,1-.29.7,2.24,2.24,0,0,1-.87.64A3.65,3.65,0,0,1,297.83,60.33Zm-1.92-5.18h3.36a5.4,5.4,0,0,0-.37-2.07,1.24,1.24,0,0,0-1.22-.79,1.39,1.39,0,0,0-1.27.73A4.63,4.63,0,0,0,295.91,55.15Z"/><path class="cls-1" d="M305.06,60.33a2.1,2.1,0,0,1-1.62-.55,2.84,2.84,0,0,1-.51-1.93v-5.4h-1.12v-.6a2.09,2.09,0,0,0,.63-.16,1.47,1.47,0,0,0,.55-.38,2.15,2.15,0,0,0,.4-.66,5,5,0,0,0,.26-1h.74v2h1.93v.85h-1.93v5.44a2,2,0,0,0,.29,1.22.94.94,0,0,0,.8.38,2.64,2.64,0,0,0,.51,0,3.4,3.4,0,0,0,.46-.08v.71a3,3,0,0,1-.6.17A3.47,3.47,0,0,1,305.06,60.33Z"/><path class="cls-1" d="M313.78,60.33a3.45,3.45,0,0,1-1.83-.41,1.41,1.41,0,0,1-.67-1.27,1,1,0,0,1,.32-.84,1.14,1.14,0,0,1,.64-.23,2.65,2.65,0,0,0,.37,1.42,1.36,1.36,0,0,0,1.25.58,1.66,1.66,0,0,0,1.19-.39,1.42,1.42,0,0,0,.41-1.06,1.34,1.34,0,0,0-.15-.66,1.59,1.59,0,0,0-.54-.52,8.83,8.83,0,0,0-1.07-.57,8.26,8.26,0,0,1-1.29-.72,2.18,2.18,0,0,1-.74-.81,2.41,2.41,0,0,1-.24-1.14,2,2,0,0,1,.76-1.67,3.16,3.16,0,0,1,2-.59,2.65,2.65,0,0,1,1.66.44,1.29,1.29,0,0,1,.56,1,.9.9,0,0,1-.27.68,1.1,1.1,0,0,1-.78.26,2.1,2.1,0,0,0-.34-1.26,1.17,1.17,0,0,0-1-.44,1.33,1.33,0,0,0-1,.36,1.31,1.31,0,0,0-.33.92,1.17,1.17,0,0,0,.41,1,6.61,6.61,0,0,0,1.4.77,5.19,5.19,0,0,1,1.7,1.08,2.56,2.56,0,0,1-.26,3.43A3.32,3.32,0,0,1,313.78,60.33Z"/><path class="cls-1" d="M317.6,64v-.67h.11a1.74,1.74,0,0,0,.84-.2c.23-.14.35-.45.35-1V53.36c0-.47-.12-.77-.35-.9a1.63,1.63,0,0,0-.82-.19h-.19V51.6h2.61l.16,1.41h.06a3,3,0,0,1,.86-1.14,2.13,2.13,0,0,1,1.4-.43,2.59,2.59,0,0,1,2.23,1.06,5.76,5.76,0,0,1,.77,3.37,5.81,5.81,0,0,1-.77,3.39,2.6,2.6,0,0,1-2.25,1.07,2.34,2.34,0,0,1-1.38-.39,2.59,2.59,0,0,1-.84-1h-.07c0,.28,0,.58,0,.92s0,.63,0,.89v1.53c0,.47.12.77.36.89a1.74,1.74,0,0,0,.84.19h.13V64Zm4.76-4.63a1.39,1.39,0,0,0,1.36-.91,6.67,6.67,0,0,0,.41-2.62,6.35,6.35,0,0,0-.41-2.58,1.42,1.42,0,0,0-1.38-.86,1.54,1.54,0,0,0-1.55.88,6.14,6.14,0,0,0-.42,2.57,6.44,6.44,0,0,0,.42,2.61A1.58,1.58,0,0,0,322.36,59.37Z"/><path class="cls-1" d="M329.46,60.33a2.26,2.26,0,0,1-1.63-.62,2.59,2.59,0,0,1-.64-1.94,2.15,2.15,0,0,1,.83-1.88,4.61,4.61,0,0,1,2.53-.68l1.21,0v-1a5.3,5.3,0,0,0-.09-1,1.19,1.19,0,0,0-.39-.68,1.26,1.26,0,0,0-.86-.25c-.56,0-.92.16-1.08.49a2.67,2.67,0,0,0-.25,1.25c-.86,0-1.3-.33-1.3-1a1.21,1.21,0,0,1,.78-1.16,4.43,4.43,0,0,1,1.93-.37,3,3,0,0,1,2.05.62,2.8,2.8,0,0,1,.68,2.15v4.14a1.42,1.42,0,0,0,.21.91.91.91,0,0,0,.71.24h0v.67h-2.06l-.24-1.39h-.11a7.11,7.11,0,0,1-.61.81,2.27,2.27,0,0,1-.7.54A2.19,2.19,0,0,1,329.46,60.33Zm.4-.92a1.71,1.71,0,0,0,1.4-.64,2.49,2.49,0,0,0,.52-1.65v-1.3l-.93,0a2.53,2.53,0,0,0-1.7.55,2.06,2.06,0,0,0-.46,1.43A2,2,0,0,0,329,59,1,1,0,0,0,329.86,59.41Z"/><path class="cls-1" d="M339,60.33a3.41,3.41,0,0,1-1.76-.44,3,3,0,0,1-1.2-1.42,6.28,6.28,0,0,1-.43-2.54,6.75,6.75,0,0,1,.44-2.69,2.77,2.77,0,0,1,1.19-1.39,3.42,3.42,0,0,1,1.7-.41,4.26,4.26,0,0,1,1.26.18,2.25,2.25,0,0,1,1,.55,1.19,1.19,0,0,1,.37.9.85.85,0,0,1-.34.77,1.84,1.84,0,0,1-1,.22,3,3,0,0,0-.25-1.29,1,1,0,0,0-1-.53,1.52,1.52,0,0,0-1,.32,2.06,2.06,0,0,0-.64,1.12,8.62,8.62,0,0,0-.23,2.24,5.09,5.09,0,0,0,.52,2.57,1.77,1.77,0,0,0,1.66.87,2.09,2.09,0,0,0,1.22-.35,2.2,2.2,0,0,0,.76-.85.78.78,0,0,1,.28.62,1.19,1.19,0,0,1-.28.71,2,2,0,0,1-.84.6A3.68,3.68,0,0,1,339,60.33Z"/><path class="cls-1" d="M346.39,60.33a3.07,3.07,0,0,1-2.55-1.15,5.07,5.07,0,0,1-.91-3.23,5.6,5.6,0,0,1,.86-3.38,2.93,2.93,0,0,1,2.45-1.13,2.82,2.82,0,0,1,2.28,1,4.37,4.37,0,0,1,.83,2.87V56h-4.92a4.93,4.93,0,0,0,.59,2.58,1.84,1.84,0,0,0,1.62.81,2.26,2.26,0,0,0,1.3-.35,2.31,2.31,0,0,0,.78-.81.49.49,0,0,1,.23.18.62.62,0,0,1,.09.34,1.13,1.13,0,0,1-.29.7,2.21,2.21,0,0,1-.88.64A3.57,3.57,0,0,1,346.39,60.33Zm-1.92-5.18h3.36a5.4,5.4,0,0,0-.37-2.07,1.24,1.24,0,0,0-1.22-.79A1.39,1.39,0,0,0,345,53,4.63,4.63,0,0,0,344.47,55.15Z"/><rect class="cls-2" x="202.66" width="46.13" height="22.5"/><rect class="cls-3" y="43.09" width="46.13" height="22.5"/><rect class="cls-4" width="46.13" height="22.5"/><rect class="cls-5" x="202.66" y="43.09" width="46.13" height="22.5"/></g></g></svg>