<svg xmlns="http://www.w3.org/2000/svg" viewBox="0 0 405.32 383.88"><defs><style>.cls-1{fill:#f3b862;}.cls-2{fill:#fff;}.cls-3{fill:none;stroke:#373535;stroke-linecap:round;stroke-linejoin:round;stroke-width:1.62px;}.cls-4{fill:#f8d29a;}.cls-5{fill:#e8e5e3;}.cls-6{fill:#bbb;}.cls-7{fill:#373535;}.cls-8{fill:#e7e6e4;}.cls-9{fill:#f9d196;}.cls-10{fill:#f5b659;}.cls-11{fill:#bababa;}</style></defs><g id="Layer_2" data-name="Layer 2"><g id="Layer_1-2" data-name="Layer 1"><rect class="cls-1" width="405.32" height="289.19"/><path class="cls-1" d="M102.44,104.49h0Z"/><polygon class="cls-2" points="227.01 116.41 296.82 116.41 331.73 55.95 192.1 55.95 227.01 116.41"/><polygon class="cls-3" points="227.01 116.41 296.82 116.41 331.73 55.95 192.1 55.95 227.01 116.41"/><rect class="cls-2" x="103.2" y="198.85" width="71.6" height="51.84"/><rect class="cls-3" x="103.2" y="198.85" width="71.6" height="51.84"/><rect class="cls-2" x="245.58" y="198.85" width="71.6" height="51.84"/><rect class="cls-3" x="245.58" y="198.85" width="71.6" height="51.84"/><rect class="cls-3" x="106.47" y="202.09" width="65.07" height="45.06"/><rect class="cls-3" x="248.84" y="202.09" width="65.07" height="45.06"/><polygon class="cls-3" points="229.47 113.69 294.27 113.69 326.67 58.67 197.07 58.67 229.47 113.69"/><polygon class="cls-2" points="195.89 55.95 126.08 55.95 91.17 116.41 230.79 116.41 195.89 55.95"/><polygon class="cls-3" points="195.89 55.95 126.08 55.95 91.17 116.41 230.79 116.41 195.89 55.95"/><polygon class="cls-3" points="193.43 58.67 128.63 58.67 96.22 113.69 225.82 113.69 193.43 58.67"/><polygon class="cls-4" points="103.2 104.01 129.81 104.01 129.81 96.61 185.19 96.61 185.19 104.01 220.76 104.01 225.82 113.69 96.22 113.69 103.2 104.01"/><polyline class="cls-4" points="326.67 58.67 198.29 58.67 223.78 104.01 229.47 113.69 259.31 113.4 258.98 76.39 286.85 76.39 287.72 68.85 321.04 68.24"/><polyline class="cls-5" points="193.7 59.14 128.63 58.67 102.44 104.49 129.81 104.01 129.64 96.61 185.19 96.61 185.19 104.01 219.85 104.01"/><polyline class="cls-5" points="321.04 68.24 286.78 68.24 286.78 76.39 258.98 76.39 258.98 113.69 293.33 113.69"/><rect class="cls-5" x="106.47" y="202.1" width="65.07" height="45.06"/><rect class="cls-5" x="248.84" y="202.1" width="65.07" height="45.06"/><polygon class="cls-6" points="185.19 96.61 185.19 104.49 220.77 104.01 215.58 96.61 185.19 96.61"/><polyline class="cls-6" points="133.76 96.61 133.76 104.01 102.44 104.49 106.83 96.61"/><path class="cls-7" d="M66.36,337.13A3.12,3.12,0,0,1,63.83,336a5.1,5.1,0,0,1-.93-3.36,5.23,5.23,0,0,1,.89-3.33,3.56,3.56,0,0,1,5.15,0,5.11,5.11,0,0,1,.92,3.33A5.29,5.29,0,0,1,69,336,3.14,3.14,0,0,1,66.36,337.13Zm0-.84a1.56,1.56,0,0,0,1.53-.92,6.53,6.53,0,0,0,.44-2.71,6.25,6.25,0,0,0-.45-2.69,1.76,1.76,0,0,0-3.06,0,6.25,6.25,0,0,0-.45,2.69,6.35,6.35,0,0,0,.45,2.71A1.57,1.57,0,0,0,66.39,336.29Z"/><path class="cls-7" d="M74.71,337.13a2.26,2.26,0,0,1-1.83-.75,3.6,3.6,0,0,1-.64-2.39v-3.86c0-.45-.11-.75-.34-.88a1.8,1.8,0,0,0-.84-.19h0v-.67h2.71v5.54a3.42,3.42,0,0,0,.31,1.63,1.24,1.24,0,0,0,1.19.56,1.51,1.51,0,0,0,1.39-.71,3.64,3.64,0,0,0,.43-1.9v-3.3c0-.5-.11-.81-.34-.95a1.68,1.68,0,0,0-.84-.2h0v-.67H78.5v6.83c0,.47.12.77.36.89a1.86,1.86,0,0,0,.84.18h0V337h-2.4l-.21-1.3h-.06a2.48,2.48,0,0,1-1,1.17A3.05,3.05,0,0,1,74.71,337.13Z"/><path class="cls-7" d="M83.64,337.13a2.11,2.11,0,0,1-1.62-.56,2.81,2.81,0,0,1-.51-1.92v-5.41H80.39v-.59a2.43,2.43,0,0,0,.63-.16,1.63,1.63,0,0,0,.55-.39,2.2,2.2,0,0,0,.39-.65,5.19,5.19,0,0,0,.27-1H83v2H84.9v.85H83v5.44a2,2,0,0,0,.29,1.22,1,1,0,0,0,.8.38,4.05,4.05,0,0,0,.52,0l.46-.08v.7a3.73,3.73,0,0,1-.6.18A4.23,4.23,0,0,1,83.64,337.13Z"/><path class="cls-7" d="M88.52,337.13a3.44,3.44,0,0,1-1.83-.42,1.38,1.38,0,0,1-.67-1.26,1,1,0,0,1,.32-.84,1.06,1.06,0,0,1,.64-.24,2.57,2.57,0,0,0,.37,1.42,1.35,1.35,0,0,0,1.25.58,1.66,1.66,0,0,0,1.19-.39,1.4,1.4,0,0,0,.41-1.06,1.24,1.24,0,0,0-.16-.66,1.64,1.64,0,0,0-.53-.52c-.26-.16-.62-.35-1.07-.57a7.42,7.42,0,0,1-1.29-.72,2.27,2.27,0,0,1-.75-.8,2.48,2.48,0,0,1-.24-1.15,2,2,0,0,1,.76-1.67,3.19,3.19,0,0,1,2-.58,2.61,2.61,0,0,1,1.66.44,1.28,1.28,0,0,1,.56,1,.9.9,0,0,1-.27.69,1.12,1.12,0,0,1-.79.25,2,2,0,0,0-.33-1.25,1.17,1.17,0,0,0-1-.44,1.35,1.35,0,0,0-1,.36,1.29,1.29,0,0,0-.32.92,1.17,1.17,0,0,0,.41,1,6.54,6.54,0,0,0,1.39.76,5.61,5.61,0,0,1,1.71,1.08,2.59,2.59,0,0,1-.27,3.44A3.33,3.33,0,0,1,88.52,337.13Z"/><path class="cls-7" d="M92.4,337v-.68h.2a1.8,1.8,0,0,0,.84-.18c.24-.12.36-.42.36-.89v-5.07c0-.47-.12-.77-.34-.9a1.73,1.73,0,0,0-.83-.19h-.1v-.67h2.72v6.75c0,.5.12.82.35.95a1.57,1.57,0,0,0,.85.2h.19V337Zm2-10.21a.9.9,0,0,1-.61-.21.93.93,0,0,1-.25-.75.91.91,0,0,1,.25-.75.9.9,0,0,1,.61-.21,1,1,0,0,1,.63.21.91.91,0,0,1,.25.75.93.93,0,0,1-.25.75A1,1,0,0,1,94.45,326.76Z"/><path class="cls-7" d="M100.63,337.13a2.6,2.6,0,0,1-2.23-1.07,5.85,5.85,0,0,1-.76-3.37,5.94,5.94,0,0,1,.76-3.39,2.6,2.6,0,0,1,2.24-1.07,2.3,2.3,0,0,1,1.4.39,2.76,2.76,0,0,1,.86,1H103c0-.26,0-.54-.06-.85s0-.6,0-.88v-1.34q0-.7-.36-.9a1.74,1.74,0,0,0-.84-.19h-.13v-.67h2.79v10.4c0,.47.11.76.35.89a1.72,1.72,0,0,0,.85.19h.12V337h-2.54l-.18-1.46h0a3.1,3.1,0,0,1-.88,1.18A2.16,2.16,0,0,1,100.63,337.13Zm.3-1a1.56,1.56,0,0,0,1.54-.88,6,6,0,0,0,.43-2.58,6.3,6.3,0,0,0-.42-2.59,1.57,1.57,0,0,0-1.56-.89,1.4,1.4,0,0,0-1.36.9,6.36,6.36,0,0,0-.42,2.6,6.09,6.09,0,0,0,.42,2.58A1.41,1.41,0,0,0,100.93,336.15Z"/><path class="cls-7" d="M110.21,337.13a3.05,3.05,0,0,1-2.54-1.16,5,5,0,0,1-.91-3.23,5.47,5.47,0,0,1,.86-3.37,2.89,2.89,0,0,1,2.45-1.14,2.83,2.83,0,0,1,2.28,1,4.32,4.32,0,0,1,.82,2.86v.7h-4.91a4.91,4.91,0,0,0,.58,2.58,1.85,1.85,0,0,0,1.63.82,2.23,2.23,0,0,0,1.29-.36,2.25,2.25,0,0,0,.79-.81.47.47,0,0,1,.22.18.56.56,0,0,1,.1.35,1.19,1.19,0,0,1-.29.69,2.19,2.19,0,0,1-.88.64A3.58,3.58,0,0,1,110.21,337.13Zm-1.92-5.19h3.36a5.22,5.22,0,0,0-.37-2.07,1.22,1.22,0,0,0-1.21-.79,1.38,1.38,0,0,0-1.27.73A4.5,4.5,0,0,0,108.29,331.94Z"/><path class="cls-7" d="M65.24,380.21a3.45,3.45,0,0,1-1.83-.41,1.39,1.39,0,0,1-.67-1.27,1,1,0,0,1,.32-.84,1.12,1.12,0,0,1,.64-.23,2.57,2.57,0,0,0,.37,1.42,1.35,1.35,0,0,0,1.25.58,1.66,1.66,0,0,0,1.19-.39,1.42,1.42,0,0,0,.41-1.06,1.24,1.24,0,0,0-.16-.66,1.64,1.64,0,0,0-.53-.52,10.7,10.7,0,0,0-1.07-.57,7.42,7.42,0,0,1-1.29-.72,2.21,2.21,0,0,1-.75-.81,2.41,2.41,0,0,1-.24-1.14,2,2,0,0,1,.76-1.67,3.21,3.21,0,0,1,2-.59,2.67,2.67,0,0,1,1.66.44,1.31,1.31,0,0,1,.56,1,.9.9,0,0,1-.27.68,1.11,1.11,0,0,1-.79.26,2.1,2.1,0,0,0-.33-1.26,1.19,1.19,0,0,0-1-.44,1.19,1.19,0,0,0-1.36,1.28,1.14,1.14,0,0,0,.41,1,6.48,6.48,0,0,0,1.39.77,5.25,5.25,0,0,1,1.71,1.08,2.25,2.25,0,0,1,.53,1.58,2.2,2.2,0,0,1-.8,1.85A3.27,3.27,0,0,1,65.24,380.21Z"/><path class="cls-7" d="M73,380.21a3.09,3.09,0,0,1-2.52-1.1,5.14,5.14,0,0,1-.93-3.36,5.2,5.2,0,0,1,.89-3.34,3.59,3.59,0,0,1,5.15,0,5.14,5.14,0,0,1,.92,3.34,5.33,5.33,0,0,1-.89,3.36A3.14,3.14,0,0,1,73,380.21Zm0-.83a1.54,1.54,0,0,0,1.52-.92,8.5,8.5,0,0,0,0-5.4,1.58,1.58,0,0,0-1.54-.89,1.56,1.56,0,0,0-1.52.89,6.25,6.25,0,0,0-.45,2.69,6.38,6.38,0,0,0,.45,2.71A1.57,1.57,0,0,0,73.08,379.38Z"/><path class="cls-7" d="M81.56,380.21a3.48,3.48,0,0,1-1.76-.44,2.89,2.89,0,0,1-1.2-1.42,6.26,6.26,0,0,1-.44-2.54,6.75,6.75,0,0,1,.44-2.69,2.78,2.78,0,0,1,1.2-1.39,3.38,3.38,0,0,1,1.69-.41,4.38,4.38,0,0,1,1.27.18,2.38,2.38,0,0,1,1,.55,1.22,1.22,0,0,1,.36.9.87.87,0,0,1-.33.77,1.9,1.9,0,0,1-1,.22,3.16,3.16,0,0,0-.24-1.29,1,1,0,0,0-1-.53,1.5,1.5,0,0,0-1,.32,2,2,0,0,0-.64,1.12,8.7,8.7,0,0,0-.22,2.24,5.21,5.21,0,0,0,.51,2.57,1.78,1.78,0,0,0,1.66.87,2.15,2.15,0,0,0,1.23-.35,2.29,2.29,0,0,0,.76-.85.77.77,0,0,1,.27.62,1.17,1.17,0,0,1-.27.71,2,2,0,0,1-.84.6A3.71,3.71,0,0,1,81.56,380.21Z"/><path class="cls-7" d="M85,380.05v-.67h.19a1.84,1.84,0,0,0,.85-.18c.24-.12.35-.42.35-.89v-5.07q0-.71-.33-.9a1.64,1.64,0,0,0-.83-.19h-.1v-.67h2.72v6.75c0,.5.12.82.34.95a1.64,1.64,0,0,0,.86.2h.19v.67Zm2-10.2a1,1,0,0,1-.62-.21,1,1,0,0,1-.24-.75,1,1,0,0,1,.24-.76,1,1,0,0,1,.62-.2,1,1,0,0,1,.62.2.91.91,0,0,1,.26.76.9.9,0,0,1-.26.75A.93.93,0,0,1,87.06,369.85Z"/><path class="cls-7" d="M92.45,380.21a2.22,2.22,0,0,1-1.62-.62,2.6,2.6,0,0,1-.65-1.94,2.18,2.18,0,0,1,.83-1.88,4.63,4.63,0,0,1,2.53-.68l1.22,0v-1a5.24,5.24,0,0,0-.1-1,1.17,1.17,0,0,0-.38-.68,1.29,1.29,0,0,0-.87-.25,1.1,1.1,0,0,0-1.08.49,2.8,2.8,0,0,0-.25,1.25c-.86,0-1.29-.33-1.29-1a1.21,1.21,0,0,1,.77-1.16,4.43,4.43,0,0,1,1.93-.37,3,3,0,0,1,2.05.62,2.8,2.8,0,0,1,.69,2.15v4.14a1.42,1.42,0,0,0,.21.91.87.87,0,0,0,.7.24h0v.67H95.12l-.24-1.39h-.11a6.11,6.11,0,0,1-.61.81,2.09,2.09,0,0,1-1.71.74Zm.4-.92a1.7,1.7,0,0,0,1.4-.64,2.49,2.49,0,0,0,.52-1.65v-1.3l-.93.05a2.5,2.5,0,0,0-1.69.55,2.43,2.43,0,0,0-.18,2.59A1,1,0,0,0,92.85,379.29Z"/><path class="cls-7" d="M98,380.05v-.67h.19a1.61,1.61,0,0,0,.86-.2c.23-.13.35-.45.35-.95v-8.58c0-.47-.13-.76-.37-.89a1.79,1.79,0,0,0-.84-.19H98v-.68h2.85v10.34c0,.5.12.82.34.95a1.64,1.64,0,0,0,.86.2h.19v.67Z"/><path class="cls-7" d="M109.41,380.21a3.39,3.39,0,0,1-1.82-.41,1.4,1.4,0,0,1-.68-1.27,1,1,0,0,1,.32-.84,1.14,1.14,0,0,1,.64-.23,2.65,2.65,0,0,0,.37,1.42,1.36,1.36,0,0,0,1.25.58,1.66,1.66,0,0,0,1.19-.39,1.42,1.42,0,0,0,.41-1.06,1.34,1.34,0,0,0-.15-.66,1.59,1.59,0,0,0-.54-.52,8.83,8.83,0,0,0-1.07-.57,8.26,8.26,0,0,1-1.29-.72,2.27,2.27,0,0,1-.74-.81,2.41,2.41,0,0,1-.24-1.14,2,2,0,0,1,.76-1.67,3.18,3.18,0,0,1,2-.59,2.71,2.71,0,0,1,1.67.44,1.3,1.3,0,0,1,.55,1,.9.9,0,0,1-.27.68,1.1,1.1,0,0,1-.78.26,2,2,0,0,0-.34-1.26,1.17,1.17,0,0,0-1-.44,1.33,1.33,0,0,0-1,.36,1.31,1.31,0,0,0-.33.92,1.15,1.15,0,0,0,.42,1,6.23,6.23,0,0,0,1.39.77,5.08,5.08,0,0,1,1.7,1.08,2.56,2.56,0,0,1-.26,3.43A3.28,3.28,0,0,1,109.41,380.21Z"/><path class="cls-7" d="M113.24,383.88v-.67h.11a1.7,1.7,0,0,0,.83-.2c.23-.14.35-.46.35-1v-8.81c0-.47-.11-.77-.34-.9a1.67,1.67,0,0,0-.83-.19h-.19v-.67h2.61l.16,1.41H116a3.13,3.13,0,0,1,.86-1.14,2.15,2.15,0,0,1,1.4-.43,2.59,2.59,0,0,1,2.23,1.06,7.71,7.71,0,0,1,0,6.76,2.59,2.59,0,0,1-2.25,1.07,2.29,2.29,0,0,1-1.37-.39,2.53,2.53,0,0,1-.85-1H116c0,.28,0,.58,0,.92s0,.63,0,.89v1.53c0,.47.12.77.36.89a1.86,1.86,0,0,0,.84.19h.13v.67Zm4.75-4.63a1.41,1.41,0,0,0,1.37-.91,6.69,6.69,0,0,0,.4-2.62,6.37,6.37,0,0,0-.4-2.58,1.44,1.44,0,0,0-1.39-.86,1.55,1.55,0,0,0-1.55.88,6.14,6.14,0,0,0-.42,2.57,6.42,6.42,0,0,0,.43,2.61A1.56,1.56,0,0,0,118,379.25Z"/><path class="cls-7" d="M125.09,380.21a2.22,2.22,0,0,1-1.62-.62,2.56,2.56,0,0,1-.65-1.94,2.18,2.18,0,0,1,.83-1.88,4.61,4.61,0,0,1,2.53-.68l1.21,0v-1a5.3,5.3,0,0,0-.09-1,1.19,1.19,0,0,0-.39-.68,1.26,1.26,0,0,0-.86-.25,1.1,1.1,0,0,0-1.08.49,2.8,2.8,0,0,0-.25,1.25c-.86,0-1.29-.33-1.29-1a1.21,1.21,0,0,1,.77-1.16,4.43,4.43,0,0,1,1.93-.37,3,3,0,0,1,2.05.62,2.8,2.8,0,0,1,.69,2.15v4.14a1.5,1.5,0,0,0,.2.91.91.91,0,0,0,.71.24h.05v.67h-2.07l-.24-1.39h-.11a6.11,6.11,0,0,1-.61.81,2.27,2.27,0,0,1-.7.54A2.17,2.17,0,0,1,125.09,380.21Zm.4-.92a1.7,1.7,0,0,0,1.4-.64,2.49,2.49,0,0,0,.52-1.65v-1.3l-.93.05a2.5,2.5,0,0,0-1.69.55,2.43,2.43,0,0,0-.18,2.59A1,1,0,0,0,125.49,379.29Z"/><path class="cls-7" d="M134.64,380.21a3.54,3.54,0,0,1-1.76-.44,3,3,0,0,1-1.2-1.42,6.45,6.45,0,0,1-.43-2.54,6.75,6.75,0,0,1,.44-2.69,2.77,2.77,0,0,1,1.19-1.39,3.42,3.42,0,0,1,1.7-.41,4.26,4.26,0,0,1,1.26.18,2.25,2.25,0,0,1,1,.55,1.19,1.19,0,0,1,.37.9.85.85,0,0,1-.34.77,1.84,1.84,0,0,1-1,.22,3,3,0,0,0-.25-1.29,1,1,0,0,0-1-.53,1.5,1.5,0,0,0-1,.32,2,2,0,0,0-.64,1.12,8.62,8.62,0,0,0-.23,2.24,5.2,5.2,0,0,0,.52,2.57,1.77,1.77,0,0,0,1.66.87,2.09,2.09,0,0,0,1.22-.35,2.2,2.2,0,0,0,.76-.85.75.75,0,0,1,.28.62,1.13,1.13,0,0,1-.28.71,2,2,0,0,1-.84.6A3.64,3.64,0,0,1,134.64,380.21Z"/><path class="cls-7" d="M142,380.21a3.07,3.07,0,0,1-2.55-1.15,5.13,5.13,0,0,1-.91-3.23,5.52,5.52,0,0,1,.87-3.38,2.89,2.89,0,0,1,2.44-1.13,2.81,2.81,0,0,1,2.28,1,4.35,4.35,0,0,1,.83,2.87v.7h-4.91a4.84,4.84,0,0,0,.58,2.58,1.84,1.84,0,0,0,1.62.81,2.23,2.23,0,0,0,1.3-.35,2.31,2.31,0,0,0,.78-.81.49.49,0,0,1,.23.18.62.62,0,0,1,.09.34,1.17,1.17,0,0,1-.28.7,2.36,2.36,0,0,1-.88.64A3.62,3.62,0,0,1,142,380.21ZM140.1,375h3.36a5.4,5.4,0,0,0-.37-2.07,1.23,1.23,0,0,0-1.22-.79,1.4,1.4,0,0,0-1.27.73A4.63,4.63,0,0,0,140.1,375Z"/><path class="cls-7" d="M270.61,337v-.68h.19a1.84,1.84,0,0,0,.85-.18c.24-.12.35-.42.35-.89v-5.07q0-.7-.33-.9a1.75,1.75,0,0,0-.83-.19h-.1v-.67h2.72v6.75c0,.5.11.82.34.95a1.64,1.64,0,0,0,.86.2h.19V337Zm2.05-10.21a.93.93,0,0,1-.62-.21,1,1,0,0,1-.24-.75,1,1,0,0,1,.24-.75.93.93,0,0,1,.62-.21,1,1,0,0,1,.62.21.92.92,0,0,1,.26.75.93.93,0,0,1-.26.75A1,1,0,0,1,272.66,326.76Z"/><path class="cls-7" d="M275.44,337v-.68h.13a1.62,1.62,0,0,0,.85-.2c.23-.13.35-.45.35-.95v-5c0-.47-.11-.77-.34-.9a1.78,1.78,0,0,0-.83-.19h-.08v-.67H278l.19,1.3h.08a2.45,2.45,0,0,1,1-1.16,2.78,2.78,0,0,1,1.31-.3,2.28,2.28,0,0,1,1.81.74,3.59,3.59,0,0,1,.65,2.4v3.77c0,.5.1.82.31.95a1.36,1.36,0,0,0,.8.2h.08V337h-2.64v-5.54a3.07,3.07,0,0,0-.36-1.61,1.27,1.27,0,0,0-1.2-.58,1.43,1.43,0,0,0-1.05.37,2,2,0,0,0-.55,1,4.36,4.36,0,0,0-.17,1.28v3.37q0,.72.33.9a1.74,1.74,0,0,0,.82.17h.08V337Z"/><path class="cls-7" d="M287.73,337.13a3.41,3.41,0,0,1-1.82-.42,1.39,1.39,0,0,1-.68-1.26,1,1,0,0,1,.33-.84,1,1,0,0,1,.63-.24,2.65,2.65,0,0,0,.37,1.42,1.36,1.36,0,0,0,1.25.58A1.66,1.66,0,0,0,289,336a1.4,1.4,0,0,0,.41-1.06,1.34,1.34,0,0,0-.15-.66,1.59,1.59,0,0,0-.54-.52,10.52,10.52,0,0,0-1.07-.57,8.26,8.26,0,0,1-1.29-.72,2.33,2.33,0,0,1-.74-.8,2.48,2.48,0,0,1-.24-1.15,2,2,0,0,1,.76-1.67,3.18,3.18,0,0,1,2-.58,2.64,2.64,0,0,1,1.67.44,1.28,1.28,0,0,1,.56,1,.91.91,0,0,1-.28.69,1.09,1.09,0,0,1-.78.25,2,2,0,0,0-.34-1.25,1.14,1.14,0,0,0-1-.44,1.33,1.33,0,0,0-1,.36,1.3,1.3,0,0,0-.33.92,1.17,1.17,0,0,0,.42,1,6.29,6.29,0,0,0,1.39.76,5.42,5.42,0,0,1,1.7,1.08,2.21,2.21,0,0,1,.54,1.58,2.26,2.26,0,0,1-.8,1.86A3.34,3.34,0,0,1,287.73,337.13Z"/><path class="cls-7" d="M294.82,337.13a2.12,2.12,0,0,1-1.62-.56,2.81,2.81,0,0,1-.51-1.92v-5.41h-1.12v-.59a2.33,2.33,0,0,0,.63-.16,1.67,1.67,0,0,0,.56-.39,2.2,2.2,0,0,0,.39-.65,5.27,5.27,0,0,0,.26-1h.74v2h1.93v.85h-1.93v5.44a2,2,0,0,0,.29,1.22.94.94,0,0,0,.8.38,4.17,4.17,0,0,0,.52,0l.45-.08v.7a3.73,3.73,0,0,1-.6.18A4.15,4.15,0,0,1,294.82,337.13Z"/><path class="cls-7" d="M297,337v-.68h0a1.61,1.61,0,0,0,.86-.2c.23-.13.34-.45.34-.95v-5c0-.47-.11-.77-.35-.9a1.78,1.78,0,0,0-.83-.19h0v-.67h2.34l.27,1.63h.07a9.2,9.2,0,0,1,.43-.89,1.87,1.87,0,0,1,.63-.65,2.25,2.25,0,0,1,2.19.07,1.05,1.05,0,0,1,.39.86,1,1,0,0,1-.33.8,1.5,1.5,0,0,1-1.08.31,1.89,1.89,0,0,0-.17-.95.65.65,0,0,0-.61-.3.79.79,0,0,0-.65.34,2.63,2.63,0,0,0-.45.85,6.42,6.42,0,0,0-.24,1.11,7.05,7.05,0,0,0-.08,1.08v2.57c0,.47.11.77.35.89a1.78,1.78,0,0,0,.83.18h.4V337Z"/><path class="cls-7" d="M307.62,337.13a2.26,2.26,0,0,1-1.83-.75,3.66,3.66,0,0,1-.63-2.39v-3.86c0-.45-.12-.75-.35-.88a1.8,1.8,0,0,0-.84-.19h-.05v-.67h2.71v5.54a3.42,3.42,0,0,0,.31,1.63,1.24,1.24,0,0,0,1.19.56,1.5,1.5,0,0,0,1.39-.71,3.63,3.63,0,0,0,.44-1.9v-3.3c0-.5-.12-.81-.35-.95a1.68,1.68,0,0,0-.84-.2h0v-.67h2.69v6.83c0,.47.12.77.36.89a1.86,1.86,0,0,0,.84.18h.05V337h-2.4l-.21-1.3H310a2.48,2.48,0,0,1-1,1.17A3.05,3.05,0,0,1,307.62,337.13Z"/><path class="cls-7" d="M317.2,337.13a3.44,3.44,0,0,1-1.76-.45,3,3,0,0,1-1.2-1.42,6.4,6.4,0,0,1-.43-2.53,6.84,6.84,0,0,1,.44-2.7,2.77,2.77,0,0,1,1.19-1.39,3.53,3.53,0,0,1,1.7-.41,4.26,4.26,0,0,1,1.26.18,2.36,2.36,0,0,1,1,.55,1.19,1.19,0,0,1,.37.9.87.87,0,0,1-.33.77,1.9,1.9,0,0,1-1,.22,2.92,2.92,0,0,0-.25-1.28,1,1,0,0,0-1-.54,1.56,1.56,0,0,0-1,.32,2.06,2.06,0,0,0-.64,1.12,8.7,8.7,0,0,0-.22,2.24,5.18,5.18,0,0,0,.51,2.57,1.77,1.77,0,0,0,1.66.87,2.14,2.14,0,0,0,1.23-.34,2.4,2.4,0,0,0,.76-.86.77.77,0,0,1,.27.62,1.2,1.2,0,0,1-.27.72,2.11,2.11,0,0,1-.84.6A3.73,3.73,0,0,1,317.2,337.13Z"/><path class="cls-7" d="M323.86,337.13a2.11,2.11,0,0,1-1.62-.56,2.81,2.81,0,0,1-.51-1.92v-5.41h-1.12v-.59a2.43,2.43,0,0,0,.63-.16,1.63,1.63,0,0,0,.55-.39,2.23,2.23,0,0,0,.4-.65,5.27,5.27,0,0,0,.26-1h.74v2h1.93v.85h-1.93v5.44a2,2,0,0,0,.29,1.22.94.94,0,0,0,.79.38,3.94,3.94,0,0,0,.52,0l.46-.08v.7a3.73,3.73,0,0,1-.6.18A4.15,4.15,0,0,1,323.86,337.13Z"/><path class="cls-7" d="M325.94,337v-.68h.19a1.87,1.87,0,0,0,.85-.18c.23-.12.35-.42.35-.89v-5.07c0-.47-.11-.77-.34-.9a1.73,1.73,0,0,0-.83-.19h-.09v-.67h2.72v6.75c0,.5.11.82.34.95a1.64,1.64,0,0,0,.86.2h.19V337ZM328,326.76a.81.81,0,0,1-.87-1,.91.91,0,0,1,.25-.75.93.93,0,0,1,.62-.21,1,1,0,0,1,.62.21.92.92,0,0,1,.26.75.93.93,0,0,1-.26.75A1,1,0,0,1,328,326.76Z"/><path class="cls-7" d="M334.63,337.13A3.12,3.12,0,0,1,332.1,336a5.1,5.1,0,0,1-.93-3.36,5.23,5.23,0,0,1,.89-3.33,3.56,3.56,0,0,1,5.15,0,5.11,5.11,0,0,1,.92,3.33,5.29,5.29,0,0,1-.89,3.36A3.14,3.14,0,0,1,334.63,337.13Zm0-.84a1.56,1.56,0,0,0,1.53-.92,6.53,6.53,0,0,0,.44-2.71,6.25,6.25,0,0,0-.45-2.69,1.76,1.76,0,0,0-3.06,0,6.25,6.25,0,0,0-.45,2.69,6.35,6.35,0,0,0,.45,2.71A1.57,1.57,0,0,0,334.66,336.29Z"/><path class="cls-7" d="M339.35,337v-.68h.12a1.62,1.62,0,0,0,.85-.2c.24-.13.35-.45.35-.95v-5c0-.47-.11-.77-.34-.9a1.74,1.74,0,0,0-.82-.19h-.08v-.67h2.44l.2,1.3h.08a2.4,2.4,0,0,1,1-1.16,2.71,2.71,0,0,1,1.3-.3,2.32,2.32,0,0,1,1.82.74,3.65,3.65,0,0,1,.64,2.4v3.77c0,.5.11.82.31.95a1.38,1.38,0,0,0,.8.2h.08V337h-2.64v-5.54a3.18,3.18,0,0,0-.35-1.61,1.29,1.29,0,0,0-1.2-.58,1.46,1.46,0,0,0-1.06.37,2,2,0,0,0-.55,1,4.72,4.72,0,0,0-.17,1.28v3.37c0,.48.11.78.34.9a1.67,1.67,0,0,0,.81.17h.08V337Z"/><path class="cls-7" d="M355.47,337.13a3.43,3.43,0,0,1-1.82-.42,1.38,1.38,0,0,1-.67-1.26.94.94,0,0,1,.32-.84,1.06,1.06,0,0,1,.64-.24,2.57,2.57,0,0,0,.37,1.42,1.34,1.34,0,0,0,1.24.58,1.68,1.68,0,0,0,1.2-.39,1.39,1.39,0,0,0,.4-1.06,1.34,1.34,0,0,0-.15-.66,1.64,1.64,0,0,0-.53-.52,12.15,12.15,0,0,0-1.08-.57,7.68,7.68,0,0,1-1.28-.72,2.27,2.27,0,0,1-.75-.8,2.48,2.48,0,0,1-.24-1.15,2,2,0,0,1,.76-1.67,3.18,3.18,0,0,1,2-.58,2.64,2.64,0,0,1,1.67.44,1.28,1.28,0,0,1,.56,1,.9.9,0,0,1-.27.69,1.12,1.12,0,0,1-.79.25,2,2,0,0,0-.33-1.25,1.17,1.17,0,0,0-1-.44,1.33,1.33,0,0,0-1,.36,1.3,1.3,0,0,0-.33.92,1.17,1.17,0,0,0,.42,1,6.54,6.54,0,0,0,1.39.76,5.61,5.61,0,0,1,1.71,1.08,2.59,2.59,0,0,1-.27,3.44A3.34,3.34,0,0,1,355.47,337.13Z"/><path class="cls-7" d="M359.3,340.79v-.67h.11a1.67,1.67,0,0,0,.83-.2c.24-.14.35-.45.35-.95v-8.82c0-.47-.11-.77-.34-.9a1.74,1.74,0,0,0-.82-.19h-.2v-.67h2.61l.16,1.41h.07a3,3,0,0,1,.85-1.14,2.17,2.17,0,0,1,1.4-.43,2.6,2.6,0,0,1,2.23,1.06,7.71,7.71,0,0,1,0,6.76,2.58,2.58,0,0,1-2.24,1.08,2.24,2.24,0,0,1-1.38-.4,2.61,2.61,0,0,1-.85-1H362c0,.28,0,.59,0,.92s0,.63,0,.89v1.54c0,.46.12.76.36.88a1.74,1.74,0,0,0,.84.19h.12v.67Zm4.75-4.62a1.41,1.41,0,0,0,1.37-.92,6.63,6.63,0,0,0,.41-2.62,6.35,6.35,0,0,0-.41-2.58,1.43,1.43,0,0,0-1.39-.86,1.56,1.56,0,0,0-1.55.88,6.24,6.24,0,0,0-.41,2.58,6.36,6.36,0,0,0,.42,2.6A1.56,1.56,0,0,0,364.05,336.17Z"/><path class="cls-7" d="M371.15,337.13a2.22,2.22,0,0,1-1.62-.63,2.57,2.57,0,0,1-.65-1.93,2.18,2.18,0,0,1,.83-1.89,4.55,4.55,0,0,1,2.53-.67l1.22-.05v-1a4.44,4.44,0,0,0-.1-1,1.17,1.17,0,0,0-.38-.69,1.27,1.27,0,0,0-.87-.25,1.1,1.1,0,0,0-1.08.49,2.81,2.81,0,0,0-.24,1.25c-.87,0-1.3-.33-1.3-1a1.21,1.21,0,0,1,.78-1.17,4.38,4.38,0,0,1,1.92-.37,3,3,0,0,1,2.05.62,2.8,2.8,0,0,1,.69,2.15v4.14a1.42,1.42,0,0,0,.21.91.88.88,0,0,0,.7.24h.05V337h-2.06l-.24-1.4h-.12a7.11,7.11,0,0,1-.6.81,2.51,2.51,0,0,1-.71.55A2.27,2.27,0,0,1,371.15,337.13Zm.4-.93a1.71,1.71,0,0,0,1.4-.63,2.54,2.54,0,0,0,.52-1.66v-1.3l-.92.05a2.51,2.51,0,0,0-1.7.55,2,2,0,0,0-.46,1.44,2,2,0,0,0,.28,1.15A1,1,0,0,0,371.55,336.2Z"/><path class="cls-7" d="M380.71,337.13a3.39,3.39,0,0,1-1.76-.45,2.89,2.89,0,0,1-1.2-1.42,6.21,6.21,0,0,1-.44-2.53,6.84,6.84,0,0,1,.44-2.7,2.78,2.78,0,0,1,1.2-1.39,3.49,3.49,0,0,1,1.69-.41,4.38,4.38,0,0,1,1.27.18,2.5,2.5,0,0,1,1,.55,1.22,1.22,0,0,1,.36.9.87.87,0,0,1-.33.77,1.9,1.9,0,0,1-1,.22,3.08,3.08,0,0,0-.24-1.28,1,1,0,0,0-1-.54,1.56,1.56,0,0,0-1,.32,2.06,2.06,0,0,0-.64,1.12,8.7,8.7,0,0,0-.22,2.24,5.18,5.18,0,0,0,.51,2.57,1.78,1.78,0,0,0,1.66.87,2.14,2.14,0,0,0,1.23-.34A2.31,2.31,0,0,0,383,335a.77.77,0,0,1,.27.62,1.2,1.2,0,0,1-.27.72,2,2,0,0,1-.84.6A3.71,3.71,0,0,1,380.71,337.13Z"/><path class="cls-7" d="M388.08,337.13a3.05,3.05,0,0,1-2.54-1.16,5,5,0,0,1-.91-3.23,5.47,5.47,0,0,1,.86-3.37,2.89,2.89,0,0,1,2.45-1.14,2.83,2.83,0,0,1,2.28,1,4.32,4.32,0,0,1,.82,2.86v.7h-4.91a4.91,4.91,0,0,0,.58,2.58,1.85,1.85,0,0,0,1.63.82,2.23,2.23,0,0,0,1.29-.36,2.25,2.25,0,0,0,.79-.81.47.47,0,0,1,.22.18.56.56,0,0,1,.1.35,1.19,1.19,0,0,1-.29.69,2.19,2.19,0,0,1-.88.64A3.58,3.58,0,0,1,388.08,337.13Zm-1.92-5.19h3.36a5.22,5.22,0,0,0-.37-2.07,1.22,1.22,0,0,0-1.21-.79,1.38,1.38,0,0,0-1.27.73A4.5,4.5,0,0,0,386.16,331.94Z"/><path class="cls-7" d="M274.69,380.73v-.68h.45a1.65,1.65,0,0,0,.85-.2c.23-.13.35-.45.35-1v-1.37c0-.2,0-.43,0-.69s0-.53,0-.78,0-.45,0-.61h-.06a3.14,3.14,0,0,1-.86,1.18,2.18,2.18,0,0,1-1.41.43,2.59,2.59,0,0,1-2.23-1.06,7.85,7.85,0,0,1,0-6.76,2.61,2.61,0,0,1,2.27-1.07,2.29,2.29,0,0,1,1.37.39,2.94,2.94,0,0,1,.87,1h.08l.27-1.24h2.41V369H279a1.62,1.62,0,0,0-.85.2c-.24.13-.35.45-.35.95V379c0,.46.12.76.36.89a1.75,1.75,0,0,0,.85.19h.1v.68Zm-.32-4.64a1.58,1.58,0,0,0,1.53-.85,6,6,0,0,0,.44-2.61,6.27,6.27,0,0,0-.42-2.59,1.58,1.58,0,0,0-1.56-.9A1.4,1.4,0,0,0,273,370a6.36,6.36,0,0,0-.42,2.63,6.12,6.12,0,0,0,.42,2.59A1.42,1.42,0,0,0,274.37,376.09Z"/><path class="cls-7" d="M283.41,377.06a2.28,2.28,0,0,1-1.83-.74,3.7,3.7,0,0,1-.63-2.39v-3.86c0-.46-.12-.75-.35-.88a1.68,1.68,0,0,0-.84-.19h0v-.67h2.7v5.53a3.37,3.37,0,0,0,.31,1.63,1.23,1.23,0,0,0,1.19.56,1.51,1.51,0,0,0,1.4-.71,3.67,3.67,0,0,0,.43-1.89v-3.3c0-.5-.12-.82-.35-.95a1.58,1.58,0,0,0-.84-.2h0v-.67h2.68v6.83c0,.47.12.76.36.88a1.74,1.74,0,0,0,.84.19h.05v.67h-2.4l-.21-1.29h-.06a2.5,2.5,0,0,1-1,1.16A2.92,2.92,0,0,1,283.41,377.06Z"/><path class="cls-7" d="M289.14,376.9v-.67h.19a1.75,1.75,0,0,0,.85-.19c.23-.12.35-.41.35-.88v-5.07c0-.47-.11-.77-.34-.9a1.62,1.62,0,0,0-.83-.19h-.09v-.67H292v6.75c0,.5.11.82.34.95a1.74,1.74,0,0,0,.86.2h.19v.67Zm2.05-10.21a.8.8,0,0,1-.87-1,1,1,0,0,1,.25-.75.93.93,0,0,1,.62-.21,1,1,0,0,1,.62.21.93.93,0,0,1,.26.75.94.94,0,0,1-.26.76A1,1,0,0,1,291.19,366.69Z"/><path class="cls-7" d="M297.83,377.06a3.07,3.07,0,0,1-2.55-1.15,5.09,5.09,0,0,1-.91-3.23,5.57,5.57,0,0,1,.86-3.38,2.9,2.9,0,0,1,2.45-1.13,2.82,2.82,0,0,1,2.28,1,4.34,4.34,0,0,1,.83,2.86v.71h-4.92a5,5,0,0,0,.59,2.58,1.84,1.84,0,0,0,1.62.81,2.31,2.31,0,0,0,1.3-.35,2.42,2.42,0,0,0,.78-.82.53.53,0,0,1,.32.53,1.15,1.15,0,0,1-.29.7,2.24,2.24,0,0,1-.87.64A3.82,3.82,0,0,1,297.83,377.06Zm-1.92-5.18h3.36a5.33,5.33,0,0,0-.37-2.07,1.24,1.24,0,0,0-1.22-.8,1.4,1.4,0,0,0-1.27.74A4.63,4.63,0,0,0,295.91,371.88Z"/><path class="cls-7" d="M305.06,377.06a2.1,2.1,0,0,1-1.62-.55,2.84,2.84,0,0,1-.51-1.93v-5.41h-1.12v-.59a2.09,2.09,0,0,0,.63-.16A1.47,1.47,0,0,0,303,368a2.15,2.15,0,0,0,.4-.66,5.15,5.15,0,0,0,.26-1h.74v2h1.93v.84h-1.93v5.44a2,2,0,0,0,.29,1.23.93.93,0,0,0,.8.37,3.89,3.89,0,0,0,.51,0l.46-.08v.71a3,3,0,0,1-.6.17A4.15,4.15,0,0,1,305.06,377.06Z"/><path class="cls-7" d="M313.78,377.06a3.54,3.54,0,0,1-1.83-.41,1.41,1.41,0,0,1-.67-1.27,1,1,0,0,1,.32-.84,1.14,1.14,0,0,1,.64-.23,2.68,2.68,0,0,0,.37,1.42,1.36,1.36,0,0,0,1.25.58,1.66,1.66,0,0,0,1.19-.39,1.42,1.42,0,0,0,.41-1.07,1.33,1.33,0,0,0-.15-.65,1.5,1.5,0,0,0-.54-.52,7.61,7.61,0,0,0-1.07-.57,10.29,10.29,0,0,1-1.29-.72,2.18,2.18,0,0,1-.74-.81,2.41,2.41,0,0,1-.24-1.14,2,2,0,0,1,.76-1.67,3.16,3.16,0,0,1,2-.59,2.65,2.65,0,0,1,1.66.44,1.28,1.28,0,0,1,.56,1,.9.9,0,0,1-.27.69,1.1,1.1,0,0,1-.78.26,2.06,2.06,0,0,0-.34-1.26,1.17,1.17,0,0,0-1-.44,1.33,1.33,0,0,0-1,.36,1.31,1.31,0,0,0-.33.92,1.17,1.17,0,0,0,.41,1,6.61,6.61,0,0,0,1.4.77,5.19,5.19,0,0,1,1.7,1.08,2.19,2.19,0,0,1,.54,1.58,2.23,2.23,0,0,1-.8,1.85A3.32,3.32,0,0,1,313.78,377.06Z"/><path class="cls-7" d="M317.6,380.73v-.68h.11a1.63,1.63,0,0,0,.84-.2c.23-.13.35-.45.35-1v-8.81c0-.47-.12-.77-.35-.9a1.63,1.63,0,0,0-.82-.19h-.19v-.67h2.61l.16,1.4h.06a3,3,0,0,1,.86-1.13,2.13,2.13,0,0,1,1.4-.43,2.59,2.59,0,0,1,2.23,1.06,5.76,5.76,0,0,1,.77,3.37,5.86,5.86,0,0,1-.77,3.39,2.62,2.62,0,0,1-2.25,1.07,2.34,2.34,0,0,1-1.38-.39,2.66,2.66,0,0,1-.84-1h-.07c0,.28,0,.58,0,.92s0,.63,0,.89V379c0,.47.12.77.36.89a1.86,1.86,0,0,0,.84.18h.13v.68Zm4.76-4.63a1.39,1.39,0,0,0,1.36-.91,6.67,6.67,0,0,0,.41-2.62,6.32,6.32,0,0,0-.41-2.58,1.4,1.4,0,0,0-1.38-.86,1.55,1.55,0,0,0-1.55.87,6.22,6.22,0,0,0-.42,2.58,6.44,6.44,0,0,0,.42,2.61A1.58,1.58,0,0,0,322.36,376.1Z"/><path class="cls-7" d="M329.46,377.06a2.3,2.3,0,0,1-1.63-.62,2.59,2.59,0,0,1-.64-1.94,2.18,2.18,0,0,1,.83-1.89,4.61,4.61,0,0,1,2.53-.67l1.21-.05v-1a5.26,5.26,0,0,0-.09-1,1.25,1.25,0,0,0-.39-.69,1.32,1.32,0,0,0-.86-.24q-.84,0-1.08.48a2.75,2.75,0,0,0-.25,1.26c-.86,0-1.3-.34-1.3-1a1.23,1.23,0,0,1,.78-1.17,4.59,4.59,0,0,1,1.93-.36,3,3,0,0,1,2.05.62,2.79,2.79,0,0,1,.68,2.14v4.15a1.42,1.42,0,0,0,.21.91.91.91,0,0,0,.71.24h0v.67h-2.06l-.24-1.39h-.11a7.11,7.11,0,0,1-.61.81,2.27,2.27,0,0,1-.7.54A2.33,2.33,0,0,1,329.46,377.06Zm.4-.93a1.73,1.73,0,0,0,1.4-.63,2.49,2.49,0,0,0,.52-1.65v-1.3l-.93.05a2.48,2.48,0,0,0-1.7.55,2,2,0,0,0-.46,1.43,2,2,0,0,0,.29,1.15A1,1,0,0,0,329.86,376.13Z"/><path class="cls-7" d="M339,377.06a3.41,3.41,0,0,1-1.76-.45,3,3,0,0,1-1.2-1.41,6.28,6.28,0,0,1-.43-2.54,6.75,6.75,0,0,1,.44-2.69,2.84,2.84,0,0,1,1.19-1.4,3.53,3.53,0,0,1,1.7-.4,4.26,4.26,0,0,1,1.26.18,2.24,2.24,0,0,1,1,.54,1.2,1.2,0,0,1,.37.91.85.85,0,0,1-.34.77,1.93,1.93,0,0,1-1,.22,3,3,0,0,0-.25-1.29,1,1,0,0,0-1-.53,1.46,1.46,0,0,0-1,.32,2,2,0,0,0-.64,1.12,8.62,8.62,0,0,0-.23,2.24,5,5,0,0,0,.52,2.56,1.78,1.78,0,0,0,1.66.88,2.09,2.09,0,0,0,1.22-.35,2.2,2.2,0,0,0,.76-.85.76.76,0,0,1,.28.62,1.21,1.21,0,0,1-.28.71,2,2,0,0,1-.84.6A3.68,3.68,0,0,1,339,377.06Z"/><path class="cls-7" d="M346.39,377.06a3.07,3.07,0,0,1-2.55-1.15,5.09,5.09,0,0,1-.91-3.23,5.57,5.57,0,0,1,.86-3.38,2.9,2.9,0,0,1,2.45-1.13,2.82,2.82,0,0,1,2.28,1,4.34,4.34,0,0,1,.83,2.86v.71h-4.92a5,5,0,0,0,.59,2.58,1.84,1.84,0,0,0,1.62.81,2.33,2.33,0,0,0,1.3-.35,2.42,2.42,0,0,0,.78-.82.53.53,0,0,1,.32.53,1.15,1.15,0,0,1-.29.7,2.21,2.21,0,0,1-.88.64A3.74,3.74,0,0,1,346.39,377.06Zm-1.92-5.18h3.36a5.33,5.33,0,0,0-.37-2.07,1.24,1.24,0,0,0-1.22-.8,1.4,1.4,0,0,0-1.27.74A4.63,4.63,0,0,0,344.47,371.88Z"/><path class="cls-7" d="M8.23,215.75a2.1,2.1,0,0,1-1.62-.55,2.84,2.84,0,0,1-.51-1.93v-5.41H5v-.59a2.43,2.43,0,0,0,.63-.16,1.6,1.6,0,0,0,.55-.38,2.52,2.52,0,0,0,.4-.66,5.34,5.34,0,0,0,.26-1h.74v2H9.49v.85H7.56v5.44a2,2,0,0,0,.28,1.22.94.94,0,0,0,.8.38,3.94,3.94,0,0,0,.52,0l.46-.08v.7a2.41,2.41,0,0,1-.6.18A4.23,4.23,0,0,1,8.23,215.75Z"/><path class="cls-7" d="M10.44,215.59v-.67h0a1.74,1.74,0,0,0,.86-.2c.23-.14.34-.45.34-.95v-5c0-.47-.11-.76-.35-.89a1.67,1.67,0,0,0-.83-.19h-.05V207h2.34l.27,1.64h.06c.14-.32.29-.62.44-.89a2,2,0,0,1,.63-.66,1.91,1.91,0,0,1,1-.25,1.85,1.85,0,0,1,1.18.32,1.08,1.08,0,0,1,.39.87,1,1,0,0,1-.33.8,1.58,1.58,0,0,1-1.08.3,2,2,0,0,0-.17-.95.65.65,0,0,0-.61-.3.83.83,0,0,0-.66.34,2.77,2.77,0,0,0-.44.86,7.1,7.1,0,0,0-.25,1.1,8.6,8.6,0,0,0-.08,1.08v2.58c0,.47.12.76.36.88a1.67,1.67,0,0,0,.83.19h.4v.67Z"/><path class="cls-7" d="M19.68,215.75a2.26,2.26,0,0,1-1.62-.62,2.61,2.61,0,0,1-.65-1.94,2.21,2.21,0,0,1,.83-1.89,4.64,4.64,0,0,1,2.53-.67l1.22,0v-1a4.49,4.49,0,0,0-.1-1,1.23,1.23,0,0,0-.38-.69,1.33,1.33,0,0,0-.87-.25,1.11,1.11,0,0,0-1.08.49,2.89,2.89,0,0,0-.24,1.26c-.87,0-1.3-.34-1.3-1a1.23,1.23,0,0,1,.78-1.17,4.53,4.53,0,0,1,1.92-.37,2.94,2.94,0,0,1,2.05.63,2.78,2.78,0,0,1,.69,2.14v4.15a1.44,1.44,0,0,0,.21.91.88.88,0,0,0,.7.24h.05v.67H22.36l-.24-1.39H22a7.11,7.11,0,0,1-.6.81,2.48,2.48,0,0,1-.71.54A2.3,2.3,0,0,1,19.68,215.75Zm.4-.93a1.71,1.71,0,0,0,1.4-.63,2.5,2.5,0,0,0,.52-1.66v-1.29l-.92,0a2.46,2.46,0,0,0-1.7.55,2.47,2.47,0,0,0-.18,2.58A1,1,0,0,0,20.08,214.82Z"/><path class="cls-7" d="M28.84,215.75a2.57,2.57,0,0,1-2.23-1.06,7.8,7.8,0,0,1,0-6.76,2.58,2.58,0,0,1,2.24-1.08,2.26,2.26,0,0,1,1.4.4,2.92,2.92,0,0,1,.86,1h.08c0-.25,0-.54-.06-.85s0-.6,0-.88v-1.34q0-.7-.36-.9a1.86,1.86,0,0,0-.84-.19h-.13v-.67h2.78v10.4q0,.71.36.9a1.8,1.8,0,0,0,.84.19h.13v.67H31.35l-.18-1.46h-.05a3,3,0,0,1-.87,1.19A2.18,2.18,0,0,1,28.84,215.75Zm.3-1a1.56,1.56,0,0,0,1.54-.88,8,8,0,0,0,0-5.16,1.56,1.56,0,0,0-1.56-.9,1.41,1.41,0,0,0-1.36.9,6.59,6.59,0,0,0-.41,2.6,6.3,6.3,0,0,0,.41,2.59A1.43,1.43,0,0,0,29.14,214.77Z"/><path class="cls-7" d="M34.5,215.59v-.67h.19a1.72,1.72,0,0,0,.85-.19c.23-.12.35-.41.35-.88v-5.08c0-.47-.11-.76-.33-.89a1.68,1.68,0,0,0-.84-.19h-.09V207h2.72v6.76c0,.5.11.81.34.95a1.74,1.74,0,0,0,.86.2h.19v.67Zm2-10.21a.93.93,0,0,1-.62-.21,1.25,1.25,0,0,1,0-1.5.93.93,0,0,1,.62-.21,1,1,0,0,1,.62.21,1.21,1.21,0,0,1,0,1.5A1,1,0,0,1,36.55,205.38Z"/><path class="cls-7" d="M42.47,215.75a2.1,2.1,0,0,1-1.62-.55,2.84,2.84,0,0,1-.51-1.93v-5.41H39.22v-.59a2.43,2.43,0,0,0,.63-.16,1.6,1.6,0,0,0,.55-.38,2.52,2.52,0,0,0,.4-.66,6.21,6.21,0,0,0,.26-1h.74v2h1.93v.85H41.8v5.44a2,2,0,0,0,.28,1.22.93.93,0,0,0,.8.38,4.05,4.05,0,0,0,.52,0l.46-.08v.7a2.41,2.41,0,0,1-.6.18A4.23,4.23,0,0,1,42.47,215.75Z"/><path class="cls-7" d="M44.55,215.59v-.67h.19a1.75,1.75,0,0,0,.85-.19c.23-.12.35-.41.35-.88v-5.08c0-.47-.11-.76-.34-.89a1.62,1.62,0,0,0-.83-.19h-.09V207H47.4v6.76c0,.5.11.81.34.95a1.71,1.71,0,0,0,.86.2h.19v.67Zm2.05-10.21a1,1,0,1,1,0-1.92,1,1,0,0,1,.62.21,1.21,1.21,0,0,1,0,1.5A1,1,0,0,1,46.6,205.38Z"/><path class="cls-7" d="M53.23,215.75a3.14,3.14,0,0,1-2.52-1.1,6.62,6.62,0,0,1,0-6.7,3.56,3.56,0,0,1,5.15,0,5.12,5.12,0,0,1,.92,3.34,5.33,5.33,0,0,1-.89,3.36A3.17,3.17,0,0,1,53.23,215.75Zm0-.83A1.58,1.58,0,0,0,54.8,214a6.62,6.62,0,0,0,.43-2.71,6.21,6.21,0,0,0-.44-2.69,1.75,1.75,0,0,0-3.06,0,6.19,6.19,0,0,0-.45,2.69,6.41,6.41,0,0,0,.45,2.71A1.58,1.58,0,0,0,53.27,214.92Z"/><path class="cls-7" d="M58,215.59v-.67h.12a1.72,1.72,0,0,0,.85-.2c.24-.14.35-.45.35-.95v-5c0-.47-.11-.76-.34-.89a1.64,1.64,0,0,0-.83-.19H58V207h2.44l.2,1.3h.08a2.45,2.45,0,0,1,1-1.16,2.71,2.71,0,0,1,1.3-.3,2.29,2.29,0,0,1,1.82.75,3.6,3.6,0,0,1,.64,2.39v3.78c0,.5.1.81.31.95a1.46,1.46,0,0,0,.8.2h.08v.67H64.07v-5.54a3.11,3.11,0,0,0-.35-1.6,1.3,1.3,0,0,0-1.2-.59,1.46,1.46,0,0,0-1.06.37,2,2,0,0,0-.55,1,4.72,4.72,0,0,0-.17,1.28v3.38c0,.48.11.77.33.89a1.74,1.74,0,0,0,.82.18H62v.67Z"/><path class="cls-7" d="M70.11,215.75a2.26,2.26,0,0,1-1.62-.62,2.61,2.61,0,0,1-.65-1.94,2.19,2.19,0,0,1,.84-1.89,4.57,4.57,0,0,1,2.52-.67l1.22,0v-1a4.49,4.49,0,0,0-.1-1,1.23,1.23,0,0,0-.38-.69,1.33,1.33,0,0,0-.87-.25,1.11,1.11,0,0,0-1.08.49,2.89,2.89,0,0,0-.24,1.26c-.87,0-1.3-.34-1.3-1a1.23,1.23,0,0,1,.78-1.17,4.53,4.53,0,0,1,1.92-.37,2.94,2.94,0,0,1,2,.63,2.78,2.78,0,0,1,.69,2.14v4.15a1.44,1.44,0,0,0,.21.91.88.88,0,0,0,.7.24h0v.67H72.79l-.24-1.39h-.11a8.52,8.52,0,0,1-.61.81,2.48,2.48,0,0,1-.71.54A2.27,2.27,0,0,1,70.11,215.75Zm.41-.93a1.7,1.7,0,0,0,1.39-.63,2.5,2.5,0,0,0,.53-1.66v-1.29l-.93,0a2.48,2.48,0,0,0-1.7.55,2,2,0,0,0-.46,1.43,1.9,1.9,0,0,0,.29,1.15A1,1,0,0,0,70.52,214.82Z"/><path class="cls-7" d="M75.67,215.59v-.67h.19a1.7,1.7,0,0,0,.85-.2c.23-.14.35-.45.35-.95v-8.58c0-.47-.12-.77-.37-.9a1.88,1.88,0,0,0-.83-.19h-.19v-.67h2.84v10.34c0,.5.12.81.35.95a1.7,1.7,0,0,0,.85.2h.2v.67Z"/><path class="cls-7" d="M5,238.61v-.67h.12a1.7,1.7,0,0,0,.83-.2c.23-.13.35-.45.35-1V228c0-.47-.11-.76-.34-.89a1.67,1.67,0,0,0-.83-.19H4.9v-.68H7.51l.16,1.41h.06a2.91,2.91,0,0,1,.86-1.13,2.13,2.13,0,0,1,1.4-.44,2.6,2.6,0,0,1,2.23,1.07,5.76,5.76,0,0,1,.78,3.37,5.85,5.85,0,0,1-.78,3.39A2.62,2.62,0,0,1,10,235a2.29,2.29,0,0,1-1.37-.39,2.6,2.6,0,0,1-.85-1H7.68c0,.27,0,.58,0,.92s0,.63,0,.88v1.54c0,.47.12.77.36.89a1.86,1.86,0,0,0,.84.18h.13v.67ZM9.72,234a1.39,1.39,0,0,0,1.36-.91,6.51,6.51,0,0,0,.41-2.63,6.1,6.1,0,0,0-.41-2.57A1.41,1.41,0,0,0,9.7,227a1.56,1.56,0,0,0-1.55.88,8.14,8.14,0,0,0,0,5.19A1.56,1.56,0,0,0,9.72,234Z"/><path class="cls-7" d="M18.07,235a3.14,3.14,0,0,1-2.53-1.1,5.14,5.14,0,0,1-.93-3.36,5.25,5.25,0,0,1,.89-3.34,3.17,3.17,0,0,1,2.62-1.1,3.13,3.13,0,0,1,2.53,1.1,5.06,5.06,0,0,1,.92,3.34,5.27,5.27,0,0,1-.89,3.36A3.16,3.16,0,0,1,18.07,235Zm0-.83a1.57,1.57,0,0,0,1.53-.92,6.6,6.6,0,0,0,.44-2.71,6.22,6.22,0,0,0-.45-2.69,1.58,1.58,0,0,0-1.54-.9,1.57,1.57,0,0,0-1.52.9,6.39,6.39,0,0,0-.44,2.69,6.6,6.6,0,0,0,.44,2.71A1.58,1.58,0,0,0,18.1,234.12Z"/><path class="cls-7" d="M22.85,234.79v-.67h0a1.74,1.74,0,0,0,.86-.2c.22-.14.34-.45.34-.95v-5c0-.47-.12-.76-.35-.89a1.72,1.72,0,0,0-.83-.19h-.05v-.68H25.2l.28,1.64h.06A8.2,8.2,0,0,1,26,227a1.87,1.87,0,0,1,.62-.66,1.92,1.92,0,0,1,1-.25,1.89,1.89,0,0,1,1.18.32,1.08,1.08,0,0,1,.39.87,1,1,0,0,1-.33.8,1.58,1.58,0,0,1-1.08.3,1.9,1.9,0,0,0-.18-1,.63.63,0,0,0-.6-.3.83.83,0,0,0-.66.34,2.57,2.57,0,0,0-.44.86,6.1,6.1,0,0,0-.25,1.1,8.6,8.6,0,0,0-.08,1.08v2.58c0,.47.12.76.35.88a1.74,1.74,0,0,0,.84.19h.39v.67Z"/><path class="cls-7" d="M33,235a2.1,2.1,0,0,1-1.62-.55,2.84,2.84,0,0,1-.51-1.93v-5.41H29.7v-.59a2.09,2.09,0,0,0,.63-.16,1.6,1.6,0,0,0,.55-.38,2.52,2.52,0,0,0,.4-.66,5.34,5.34,0,0,0,.26-1h.74v2h1.93v.85H32.28v5.44a2.07,2.07,0,0,0,.28,1.23,1,1,0,0,0,.8.37,3.94,3.94,0,0,0,.52,0l.46-.08v.7a2.41,2.41,0,0,1-.6.18A4.23,4.23,0,0,1,33,235Z"/><path class="cls-7" d="M37.7,235a2.26,2.26,0,0,1-1.62-.62,2.57,2.57,0,0,1-.65-1.94,2.21,2.21,0,0,1,.83-1.89,4.61,4.61,0,0,1,2.53-.67l1.21-.05v-1a5.19,5.19,0,0,0-.09-1,1.25,1.25,0,0,0-.39-.69,1.32,1.32,0,0,0-.86-.25,1.11,1.11,0,0,0-1.08.49,2.75,2.75,0,0,0-.25,1.26c-.86,0-1.29-.34-1.29-1a1.22,1.22,0,0,1,.77-1.17,4.58,4.58,0,0,1,1.93-.37,2.94,2.94,0,0,1,2,.63,2.78,2.78,0,0,1,.69,2.14V233a1.52,1.52,0,0,0,.2.91.91.91,0,0,0,.71.24h0v.67H40.37l-.24-1.39H40a7.11,7.11,0,0,1-.61.81,2.27,2.27,0,0,1-.7.54A2.3,2.3,0,0,1,37.7,235Zm.4-.93a1.72,1.72,0,0,0,1.4-.63,2.5,2.5,0,0,0,.52-1.66v-1.29l-.93.05a2.45,2.45,0,0,0-1.69.55,2,2,0,0,0-.47,1.43,2,2,0,0,0,.29,1.15A1,1,0,0,0,38.1,234Z"/><path class="cls-7" d="M48.36,235a2.36,2.36,0,0,1-1.4-.39,2.76,2.76,0,0,1-.86-1H46l-.27,1.25h-2.4v-.67h.11a1.72,1.72,0,0,0,.85-.2c.24-.14.35-.45.35-.95v-8.58q0-.72-.36-.9a1.74,1.74,0,0,0-.84-.19h-.11v-.67h2.78v3.65c0,.28,0,.54,0,.8s0,.45,0,.59h.05a3.22,3.22,0,0,1,.87-1.18,2.19,2.19,0,0,1,1.42-.44,2.57,2.57,0,0,1,2.21,1.07,7.8,7.8,0,0,1,0,6.76A2.59,2.59,0,0,1,48.36,235Zm-.28-1a1.4,1.4,0,0,0,1.37-.9,6.56,6.56,0,0,0,.41-2.6,6.36,6.36,0,0,0-.41-2.6,1.42,1.42,0,0,0-1.38-.86,1.57,1.57,0,0,0-1.55.88,6.2,6.2,0,0,0-.42,2.6,6.3,6.3,0,0,0,.42,2.59A1.57,1.57,0,0,0,48.08,234Z"/><path class="cls-7" d="M52.37,234.79v-.67h.19a1.74,1.74,0,0,0,.86-.2c.23-.14.34-.45.34-.95v-8.58q0-.7-.36-.9a1.92,1.92,0,0,0-.84-.19h-.19v-.67h2.85V233c0,.5.11.81.34.95a1.74,1.74,0,0,0,.86.2h.19v.67Z"/><path class="cls-7" d="M61.06,235a3,3,0,0,1-2.54-1.15,5.09,5.09,0,0,1-.92-3.23,5.5,5.5,0,0,1,.87-3.38,2.88,2.88,0,0,1,2.45-1.14,2.8,2.8,0,0,1,2.27,1,4.34,4.34,0,0,1,.83,2.86v.71H59.11a4.8,4.8,0,0,0,.58,2.57,1.83,1.83,0,0,0,1.63.82,2.3,2.3,0,0,0,1.29-.35,2.55,2.55,0,0,0,.79-.82.49.49,0,0,1,.22.19.6.6,0,0,1,.1.34,1.21,1.21,0,0,1-.29.7,2.36,2.36,0,0,1-.88.64A3.79,3.79,0,0,1,61.06,235Zm-1.92-5.18H62.5a5.24,5.24,0,0,0-.37-2.08,1.24,1.24,0,0,0-1.21-.79,1.42,1.42,0,0,0-1.28.74A4.63,4.63,0,0,0,59.14,229.77Z"/><path class="cls-7" d="M5,77.19v-.67h.12a1.7,1.7,0,0,0,.83-.2c.23-.14.35-.45.35-.95V66.55c0-.47-.11-.77-.34-.9a1.78,1.78,0,0,0-.83-.19H4.9v-.67H7.51l.16,1.41h.06a3,3,0,0,1,.86-1.14,2.13,2.13,0,0,1,1.4-.43,2.59,2.59,0,0,1,2.23,1.06A5.78,5.78,0,0,1,13,69.06a5.81,5.81,0,0,1-.78,3.39A2.6,2.6,0,0,1,10,73.53a2.23,2.23,0,0,1-1.37-.4,2.53,2.53,0,0,1-.85-1H7.68c0,.28,0,.59,0,.92s0,.63,0,.89v1.54c0,.46.12.76.36.88a1.74,1.74,0,0,0,.84.19h.13v.67Zm4.76-4.62a1.39,1.39,0,0,0,1.36-.92A6.45,6.45,0,0,0,11.49,69a6.18,6.18,0,0,0-.41-2.58,1.42,1.42,0,0,0-1.38-.86,1.55,1.55,0,0,0-1.55.88,8.1,8.1,0,0,0,0,5.18A1.56,1.56,0,0,0,9.72,72.57Z"/><path class="cls-7" d="M14,73.37v-.68h.2a1.6,1.6,0,0,0,.85-.2c.23-.13.35-.45.35-.95V63c0-.47-.13-.77-.37-.9a1.75,1.75,0,0,0-.83-.19H14v-.67h2.85V71.54c0,.5.12.82.35.95a1.6,1.6,0,0,0,.85.2h.19v.68Z"/><path class="cls-7" d="M22.47,73.53a2.26,2.26,0,0,1-1.83-.75A3.6,3.6,0,0,1,20,70.39V66.53c0-.45-.11-.75-.34-.88a1.8,1.8,0,0,0-.84-.19h-.05v-.67h2.71v5.54A3.42,3.42,0,0,0,21.79,72a1.24,1.24,0,0,0,1.19.56,1.51,1.51,0,0,0,1.39-.71,3.64,3.64,0,0,0,.43-1.9v-3.3c0-.5-.11-.81-.34-1a1.68,1.68,0,0,0-.84-.2h-.05v-.67h2.69v6.83c0,.47.12.77.36.89a1.86,1.86,0,0,0,.84.18h.05v.68h-2.4l-.21-1.3h-.06a2.48,2.48,0,0,1-1,1.17A3.05,3.05,0,0,1,22.47,73.53Z"/><path class="cls-7" d="M31.28,77.19A3.68,3.68,0,0,1,29,76.57a2.06,2.06,0,0,1-.77-1.7,1.87,1.87,0,0,1,.56-1.45,2.76,2.76,0,0,1,1.3-.65,1.55,1.55,0,0,1-.59-.45,1.27,1.27,0,0,1-.26-.83,1.33,1.33,0,0,1,.25-.82,2.86,2.86,0,0,1,.74-.66,2.11,2.11,0,0,1-1-1,3,3,0,0,1-.36-1.46,3.15,3.15,0,0,1,.7-2.17,2.7,2.7,0,0,1,2.13-.79,2.82,2.82,0,0,1,1,.16,2.46,2.46,0,0,1,.71.37c.14-.15.33-.33.57-.55a1.32,1.32,0,0,1,.88-.32.83.83,0,0,1,.65.25.85.85,0,0,1,.22.59,1,1,0,0,1-.19.58.7.7,0,0,1-.6.25.75.75,0,0,0-.12-.4.42.42,0,0,0-.39-.19.81.81,0,0,0-.33.06,1.64,1.64,0,0,0-.29.16,3.29,3.29,0,0,1,.43.79,3.19,3.19,0,0,1,.18,1.15,2.92,2.92,0,0,1-.68,2,2.52,2.52,0,0,1-2,.78,3.25,3.25,0,0,1-.42,0l-.41-.06a2,2,0,0,0-.45.41,1,1,0,0,0-.19.6.6.6,0,0,0,.2.49,1.2,1.2,0,0,0,.74.17h1.64a2.32,2.32,0,0,1,1.89.68,2.47,2.47,0,0,1,.57,1.65,2.68,2.68,0,0,1-1,2.18A4.61,4.61,0,0,1,31.28,77.19Zm0-.77a4.08,4.08,0,0,0,1.61-.25,1.63,1.63,0,0,0,.81-.7,2.17,2.17,0,0,0,.23-1,1.15,1.15,0,0,0-.38-1,1.94,1.94,0,0,0-1.11-.26H31a2.48,2.48,0,0,0-.77.12,1.24,1.24,0,0,0-.6.47,1.7,1.7,0,0,0-.23,1A1.76,1.76,0,0,0,29.82,76,1.93,1.93,0,0,0,31.32,76.42Zm.28-6.88a1.12,1.12,0,0,0,1-.49,3.09,3.09,0,0,0,.29-1.52,3.3,3.3,0,0,0-.3-1.61,1.1,1.1,0,0,0-1-.52,1.11,1.11,0,0,0-1,.53,3.21,3.21,0,0,0-.32,1.61,2.83,2.83,0,0,0,.32,1.51A1.15,1.15,0,0,0,31.6,69.54Z"/><path class="cls-7" d="M42.67,73.53a2.22,2.22,0,0,1-1.62-.63A2.57,2.57,0,0,1,40.4,71a2.18,2.18,0,0,1,.83-1.89,4.55,4.55,0,0,1,2.53-.67l1.22,0v-1a4.44,4.44,0,0,0-.1-1,1.17,1.17,0,0,0-.38-.69,1.27,1.27,0,0,0-.87-.25,1.1,1.1,0,0,0-1.08.49,2.81,2.81,0,0,0-.24,1.25c-.87,0-1.3-.33-1.3-1A1.21,1.21,0,0,1,41.79,65a4.38,4.38,0,0,1,1.92-.37,3,3,0,0,1,2,.62,2.8,2.8,0,0,1,.69,2.15v4.14a1.42,1.42,0,0,0,.21.91.88.88,0,0,0,.7.24h0v.68H45.35L45.11,72H45a7.11,7.11,0,0,1-.6.81,2.51,2.51,0,0,1-.71.55A2.27,2.27,0,0,1,42.67,73.53Zm.4-.93a1.71,1.71,0,0,0,1.4-.63A2.54,2.54,0,0,0,45,70.31V69l-.92,0a2.51,2.51,0,0,0-1.7.55,2,2,0,0,0-.46,1.44,2,2,0,0,0,.28,1.15A1,1,0,0,0,43.07,72.6Z"/><path class="cls-7" d="M48.44,73.37v-.68h.12a1.62,1.62,0,0,0,.85-.2c.24-.13.35-.45.35-.95v-5c0-.47-.11-.77-.34-.9a1.78,1.78,0,0,0-.83-.19h-.07v-.67H51l.19,1.3h.08a2.51,2.51,0,0,1,1-1.16,2.78,2.78,0,0,1,1.31-.3,2.32,2.32,0,0,1,1.82.74,3.65,3.65,0,0,1,.64,2.4v3.77c0,.5.1.82.31.95a1.38,1.38,0,0,0,.8.2h.08v.68H54.55V67.83a3.07,3.07,0,0,0-.36-1.61,1.27,1.27,0,0,0-1.2-.58,1.43,1.43,0,0,0-1.05.37,2,2,0,0,0-.55,1,4.36,4.36,0,0,0-.17,1.28v3.37q0,.72.33.9a1.74,1.74,0,0,0,.82.17h.08v.68Z"/><path class="cls-7" d="M61.38,73.53a2.6,2.6,0,0,1-2.23-1.07,5.85,5.85,0,0,1-.76-3.37,5.94,5.94,0,0,1,.76-3.39,2.6,2.6,0,0,1,2.24-1.07,2.3,2.3,0,0,1,1.4.39,2.76,2.76,0,0,1,.86,1h.08c0-.26,0-.54-.06-.85s0-.6,0-.88V63q0-.7-.36-.9a1.74,1.74,0,0,0-.84-.19h-.13v-.67h2.79v10.4c0,.47.11.76.35.89a1.72,1.72,0,0,0,.85.19h.12v.68H63.89l-.18-1.46h0a3.1,3.1,0,0,1-.88,1.18A2.14,2.14,0,0,1,61.38,73.53Zm.3-1a1.56,1.56,0,0,0,1.54-.88,6,6,0,0,0,.43-2.58,6.3,6.3,0,0,0-.42-2.59,1.57,1.57,0,0,0-1.56-.89,1.4,1.4,0,0,0-1.36.9,6.36,6.36,0,0,0-.42,2.6,6.09,6.09,0,0,0,.42,2.58A1.41,1.41,0,0,0,61.68,72.55Z"/><path class="cls-7" d="M5,96.39v-.67h.12a1.7,1.7,0,0,0,.83-.2c.23-.14.35-.45.35-1V85.75c0-.47-.11-.77-.34-.9a1.78,1.78,0,0,0-.83-.19H4.9V84H7.51l.16,1.41h.06a3,3,0,0,1,.86-1.14,2.13,2.13,0,0,1,1.4-.43,2.59,2.59,0,0,1,2.23,1.06A5.78,5.78,0,0,1,13,88.26a5.81,5.81,0,0,1-.78,3.39A2.6,2.6,0,0,1,10,92.73a2.29,2.29,0,0,1-1.37-.4,2.53,2.53,0,0,1-.85-1H7.68c0,.28,0,.59,0,.92s0,.63,0,.89v1.54c0,.46.12.76.36.88a1.74,1.74,0,0,0,.84.19h.13v.67Zm4.76-4.62a1.39,1.39,0,0,0,1.36-.92,6.49,6.49,0,0,0,.41-2.62,6.18,6.18,0,0,0-.41-2.58,1.42,1.42,0,0,0-1.38-.86,1.55,1.55,0,0,0-1.55.88,8.1,8.1,0,0,0,0,5.18A1.56,1.56,0,0,0,9.72,91.77Z"/><path class="cls-7" d="M14,92.57v-.68h.2a1.6,1.6,0,0,0,.85-.2c.23-.13.35-.45.35-1V82.16c0-.46-.13-.76-.37-.89a1.75,1.75,0,0,0-.83-.19H14V80.4h2.85V90.74c0,.5.12.82.35,1a1.6,1.6,0,0,0,.85.2h.19v.68Z"/><path class="cls-7" d="M21.44,92.73a2.22,2.22,0,0,1-1.62-.63,2.58,2.58,0,0,1-.65-1.94A2.18,2.18,0,0,1,20,88.28a4.55,4.55,0,0,1,2.53-.67l1.22,0v-1a4.44,4.44,0,0,0-.1-1,1.17,1.17,0,0,0-.38-.69,1.27,1.27,0,0,0-.87-.25,1.1,1.1,0,0,0-1.08.49,2.81,2.81,0,0,0-.24,1.25c-.87,0-1.3-.33-1.3-1a1.21,1.21,0,0,1,.78-1.16,4.38,4.38,0,0,1,1.92-.37,3,3,0,0,1,2.05.62,2.8,2.8,0,0,1,.69,2.15v4.14a1.42,1.42,0,0,0,.21.91.88.88,0,0,0,.7.24h.05v.68H24.12l-.24-1.4h-.12a7.11,7.11,0,0,1-.6.81,2.31,2.31,0,0,1-.71.54A2.13,2.13,0,0,1,21.44,92.73Zm.4-.93a1.69,1.69,0,0,0,1.4-.64,2.49,2.49,0,0,0,.52-1.65v-1.3l-.92.05a2.51,2.51,0,0,0-1.7.55,2,2,0,0,0-.46,1.43A2,2,0,0,0,21,91.4,1,1,0,0,0,21.84,91.8Z"/><path class="cls-7" d="M27,96.39v-.75a3,3,0,0,0,1.63-.4,2.89,2.89,0,0,0,1-1.08,7.41,7.41,0,0,0,.65-1.61l-2.7-7a1.89,1.89,0,0,0-.41-.67,1,1,0,0,0-.63-.18h-.05V84h3.58v.67h-.05a1.08,1.08,0,0,0-.67.17.6.6,0,0,0-.21.5,2.64,2.64,0,0,0,.16.77l1,2.75c.15.43.29.86.43,1.3a7.4,7.4,0,0,1,.27,1c.07-.29.15-.61.26-.93s.21-.66.32-1l1-3.14a2.32,2.32,0,0,0,.15-.77.61.61,0,0,0-.24-.54,1.28,1.28,0,0,0-.72-.16h0V84h3.07v.67H34.8a.88.88,0,0,0-.65.22,2.59,2.59,0,0,0-.48,1l-2.24,6.7a16.09,16.09,0,0,1-.74,1.91,3.68,3.68,0,0,1-.79,1.16,2.39,2.39,0,0,1-1.09.58,6.82,6.82,0,0,1-1.64.16Z"/><rect class="cls-8" x="202.66" y="316.73" width="46.13" height="22.5"/><rect class="cls-9" y="359.82" width="46.13" height="22.5"/><rect class="cls-10" y="316.73" width="46.13" height="22.5"/><rect class="cls-11" x="202.66" y="359.82" width="46.13" height="22.5"/></g></g></svg>