<svg xmlns="http://www.w3.org/2000/svg" viewBox="0 0 32 40" x="0px" y="0px"><title>mail, envelope, letter, email, message</title><path d="M28,5H4A3,3,0,0,0,1,8V24a3,3,0,0,0,3,3H28a3,3,0,0,0,3-3V8A3,3,0,0,0,28,5ZM4,7H28a1,1,0,0,1,.85.51L16,14.85,3.15,7.51A1,1,0,0,1,4,7ZM28,25H4a1,1,0,0,1-1-1V9.72l12.5,7.15a1,1,0,0,0,1,0L29,9.72V24A1,1,0,0,1,28,25Z"/><text x="0" y="47" fill="#000000" font-size="5px" font-weight="bold" font-family="'Helvetica Neue', Helvetica, Arial-Unicode, Arial, Sans-serif">Created by Yogi Aprelliyanto</text><text x="0" y="52" fill="#000000" font-size="5px" font-weight="bold" font-family="'Helvetica Neue', Helvetica, Arial-Unicode, Arial, Sans-serif">from the Noun Project</text></svg>