<svg xmlns="http://www.w3.org/2000/svg" viewBox="0 0 255.3 190.28"><defs><style>.cls-1{fill:#f0d200;stroke-width:1.11px;}.cls-1,.cls-2{stroke:#000;}.cls-1,.cls-2,.cls-3{stroke-miterlimit:10;}.cls-2,.cls-3{fill:none;}.cls-2{stroke-width:0.56px;}.cls-3{stroke:#fff;}</style></defs><g id="Layer_2" data-name="Layer 2"><g id="Layer_1-2" data-name="Layer 1"><path class="cls-1" d="M159.54,82.24a6.67,6.67,0,0,0-4.63,2.32,7.38,7.38,0,0,0-1.91,5,9.74,9.74,0,0,0,.28,2l-11.6,12.61-4,.18a.49.49,0,0,0-.34.15l-3.51,3.79a.48.48,0,0,0-.14.34l.14,5.11a.46.46,0,0,0,.16.34l2.17,2,1.52,1.43a.55.55,0,0,0,.37.14l5.1-.25a.45.45,0,0,0,.33-.15l3.47-3.73,0-.06h0a.52.52,0,0,0,.11-.32v-.1l-.13-4.7,11.22-12a6.78,6.78,0,0,0,1.77.14,7,7,0,0,0,4.87-2.34,7.22,7.22,0,0,0,1.91-5,9.26,9.26,0,0,0-.33-2.3.48.48,0,0,0-.6-.33.43.43,0,0,0-.23.14l-4,4.38-2.6-.66-.69-2.59,3.8-4.37a.49.49,0,0,0,0-.69.38.38,0,0,0-.15-.09,5.57,5.57,0,0,0-2.41-.4Zm4.15,16.52a.49.49,0,0,0-.4.49v2.63a13.44,13.44,0,0,0-3.51,1.41l-1.84-1.89a.47.47,0,0,0-.67,0L153.48,105a.5.5,0,0,0,0,.69h0l1.84,1.89a13,13,0,0,0-1.71,4H151a.49.49,0,0,0-.49.49v5.22a.49.49,0,0,0,.49.49h2.63a13,13,0,0,0,1.71,4l-1.84,1.89a.48.48,0,0,0,0,.69h0l3.79,3.61a.47.47,0,0,0,.67,0l1.83-1.89a12.62,12.62,0,0,0,3.52,1.42v2.62a.49.49,0,0,0,.49.49H169a.49.49,0,0,0,.49-.49v-2.62A12.87,12.87,0,0,0,173,126l1.8,1.89a.49.49,0,0,0,.69,0h0l3.78-3.61a.49.49,0,0,0,0-.69h0l-1.82-1.9a12.89,12.89,0,0,0,1.68-4h2.64a.49.49,0,0,0,.49-.49V112a.49.49,0,0,0-.49-.49h-2.64a13,13,0,0,0-1.68-4l1.82-1.89a.49.49,0,0,0,0-.69h0l-3.76-3.61a.49.49,0,0,0-.69,0h0L173,103.29a13.37,13.37,0,0,0-3.52-1.41V99.25a.49.49,0,0,0-.49-.49h-5.29Zm-21.92,8.07a.48.48,0,0,1,.36.12l2.17,2a.46.46,0,0,1,.16.34l.1,3v0a.48.48,0,0,1-.14.34v0l0,0-2,2.17a.49.49,0,0,1-.33.16l-3,.16a.5.5,0,0,1-.35-.14l-2.19-2a.45.45,0,0,1-.15-.34l-.09-3a.47.47,0,0,1,.12-.34l2.07-2.22a.46.46,0,0,1,.33-.16l3-.14Zm24.61.44a7.39,7.39,0,1,1-7.38,7.39,7.39,7.39,0,0,1,7.38-7.39Zm-24.75.55-2.62.1-1.79,2,.09,2.6,1.89,1.74,2.59-.12,1.8-2-.1-2.58-1.86-1.74Zm24.75.42a6.42,6.42,0,1,0,6.42,6.42,6.41,6.41,0,0,0-6.42-6.42Z"/><path class="cls-1" d="M109.35,72.05,109,65.44A20.08,20.08,0,0,0,97.3,48.27v8.61a2.45,2.45,0,1,1-4.89,0V46.72a18.09,18.09,0,0,0-6.88,0V56.83a2.45,2.45,0,0,1-4.89,0V48.27A20.12,20.12,0,0,0,69,65.44l-.34,6.61c-3.88,1.22-6.11,2.77-6.11,4.44,0,3.83,11.83,7,26.39,7s26.38-3.11,26.38-7C115.3,74.82,113.07,73.27,109.35,72.05Z"/><line class="cls-2" x1="58.1" y1="137.86" x2="188.99" y2="39.77"/><rect class="cls-3" x="0.5" y="0.5" width="254.3" height="189.28"/></g></g></svg>