<svg xmlns:rdf="http://www.w3.org/1999/02/22-rdf-syntax-ns#" xmlns="http://www.w3.org/2000/svg" xmlns:cc="http://creativecommons.org/ns#" xmlns:dc="http://purl.org/dc/elements/1.1/" version="1.1" x="0px" y="0px" viewBox="0 0 100 125"><g transform="translate(0,-952.36218)"><path style="baseline-shift:baseline;block-progression:tb;color:#000000;direction:ltr;text-indent:0;enable-background:accumulate;text-transform:none;" fill="#000" d="m52.766,958.89c-3.084,0.16219-6.083,1.6268-8.3438,4.1875-2.2678,2.5936-3.5425,5.8464-3.4375,9.0625,0.03857,1.1799,0.22022,2.3877,0.5,3.5625l-20.875,22.719-7.125,0.3125a0.87509,0.87509,0,0,0,-0.625,0.28125l-6.3125,6.8125a0.87509,0.87509,0,0,0,-0.25,0.625l0.25,9.1875a0.87509,0.87509,0,0,0,0.28125,0.625l3.9063,3.6563,2.75,2.5625a0.87509,0.87509,0,0,0,0.65625,0.25l9.1875-0.4375a0.87509,0.87509,0,0,0,0.59375,-0.2813l6.25-6.7187,0.09375-0.094a0.87509,0.87509,0,0,0,0.03125,-0.031,0.87509,0.87509,0,0,0,0.1875,-0.5625v-0.094a0.87509,0.87509,0,0,0,0,-0.094l-0.21875-8.4688,20.188-21.594c1.096,0.22055,2.1822,0.30273,3.1875,0.25,3.1685-0.16657,6.3877-1.5078,8.7812-4.2188,2.2596-2.5597,3.5468-5.7308,3.4375-9.0625-0.04456-1.3649-0.199-2.7236-0.59375-4.125a0.87509,0.87509,0,0,0,-1.5,-0.34375l-7.25,7.875-4.6875-1.1875-1.25-4.6562,6.8438-7.875a0.87509,0.87509,0,0,0,-0.3125,-1.4062c-1.3906-0.57345-2.894-0.79519-4.3438-0.71875zm7.4688,29.75a0.87509,0.87509,0,0,0,-0.71875,0.875v4.75c-2.2504,0.54459-4.3642,1.3958-6.3125,2.5312l-3.3125-3.4062a0.87509,0.87509,0,0,0,-1.2188,-0.0312l-6.8125,6.5a0.87509,0.87509,0,0,0,-0.03125,1.25l3.3125,3.4062c-1.3913,2.177-2.4402,4.5754-3.0625,7.1563h-4.75a0.87509,0.87509,0,0,0,-0.875,0.875v9.4062a0.87509,0.87509,0,0,0,0.875,0.875h4.75c0.62498,2.5854,1.6683,4.9797,3.0625,7.1563l-3.3125,3.4062a0.87509,0.87509,0,0,0,0.03125,1.25l6.8125,6.5a0.87509,0.87509,0,0,0,1.2188,-0.031l3.2812-3.4063c1.9582,1.146,4.0793,2.0144,6.3438,2.5625v4.7188a0.87509,0.87509,0,0,0,0.875,0.875h9.375a0.87509,0.87509,0,0,0,0.875,-0.875v-4.7188c2.275-0.5481,4.4087-1.4113,6.375-2.5625l3.25,3.4063a0.87509,0.87509,0,0,0,1.25,0.031l6.8125-6.5a0.87509,0.87509,0,0,0,0,-1.25l-3.2812-3.4375c1.3821-2.1672,2.4091-4.5539,3.0312-7.125h4.75a0.87509,0.87509,0,0,0,0.875,-0.875v-9.4062a0.87509,0.87509,0,0,0,-0.875,-0.875h-4.75c-0.62296-2.5802-1.6402-4.9797-3.0312-7.1563l3.2812-3.4062a0.87509,0.87509,0,0,0,-0.03125,-1.25l-6.7812-6.5a0.87509,0.87509,0,0,0,-1.25,0.0312l-3.2812,3.4062c-1.9564-1.1407-4.0827-1.9866-6.3438-2.5312v-4.75a0.87509,0.87509,0,0,0,-0.875,-0.875h-9.375a0.87509,0.87509,0,0,0,-0.0625,0,0.87509,0.87509,0,0,0,-0.09375,0zm-39.469,14.531a0.87509,0.87509,0,0,1,0.65625,0.2187l3.9062,3.625a0.87509,0.87509,0,0,1,0.28125,0.625l0.1875,5.375v0.031a0.87509,0.87509,0,0,1,-0.25,0.625v0.031a0.87509,0.87509,0,0,1,-0.09375,0.062l-3.625,3.9063a0.87509,0.87509,0,0,1,-0.59375,0.2812l-5.4062,0.2813a0.87509,0.87509,0,0,1,-0.625,-0.25l-3.9375-3.625a0.87509,0.87509,0,0,1,-0.28125,-0.625l-0.15625-5.4063a0.87509,0.87509,0,0,1,0.21875,-0.625l3.7188-4a0.87509,0.87509,0,0,1,0.59375,-0.2812l5.4062-0.25zm44.312,0.7812c7.3399,0,13.312,5.9726,13.312,13.312,0,7.3398-5.9726,13.312-13.312,13.312-7.3399,0-13.281-5.9727-13.281-13.312,0-7.3399,5.9413-13.312,13.281-13.312zm-44.562,1-4.7188,0.1875-3.2188,3.5,0.15625,4.6875,3.4062,3.125,4.6562-0.2187,3.25-3.5-0.1875-4.6563-3.3438-3.125zm44.562,0.75c-6.3941,0-11.562,5.1684-11.562,11.562,0,6.3941,5.1684,11.562,11.562,11.562,6.3941,0,11.562-5.1684,11.562-11.562,0-6.3941-5.1684-11.562-11.562-11.562z"/></g><text x="0" y="115" fill="#000000" font-size="5px" font-weight="bold" font-family="'Helvetica Neue', Helvetica, Arial-Unicode, Arial, Sans-serif">Created by Royal Icon</text><text x="0" y="120" fill="#000000" font-size="5px" font-weight="bold" font-family="'Helvetica Neue', Helvetica, Arial-Unicode, Arial, Sans-serif">from the Noun Project</text></svg>