<?xml version="1.0" encoding="utf-8"?>
<!-- Generator: Adobe Illustrator 25.4.1, SVG Export Plug-In . SVG Version: 6.00 Build 0)  -->
<svg version="1.1"
	 id="Layer_1" xmlns:cc="http://creativecommons.org/ns#" xmlns:dc="http://purl.org/dc/elements/1.1/" xmlns:rdf="http://www.w3.org/1999/02/22-rdf-syntax-ns#"
	 xmlns="http://www.w3.org/2000/svg" xmlns:xlink="http://www.w3.org/1999/xlink" x="0px" y="0px" viewBox="0 0 261 198.6"
	 style="enable-background:new 0 0 261 198.6;" xml:space="preserve">
<style type="text/css">
	.st0{fill:#F0D200;stroke:#000000;stroke-width:1.1108;stroke-miterlimit:10;}
	.st1{fill:none;stroke:#000000;stroke-width:0.5554;stroke-miterlimit:10;}
	.st2{fill:none;stroke:#FFFFFF;stroke-miterlimit:10;}
</style>
<path class="st0" d="M162.4,86c-1.7,0.1-3.4,0.9-4.6,2.3c-1.3,1.4-2,3.2-1.9,5c0,0.7,0.1,1.3,0.3,2l-11.6,12.6l-4,0.2
	c-0.1,0-0.3,0.1-0.3,0.2l-3.5,3.8c-0.1,0.1-0.1,0.2-0.1,0.3l0.1,5.1c0,0.1,0.1,0.3,0.2,0.3l2.2,2l1.5,1.4c0.1,0.1,0.2,0.1,0.4,0.1
	l5.1-0.2c0.1,0,0.2-0.1,0.3-0.2l3.5-3.7l0.1-0.1c0,0,0,0,0,0c0.1-0.1,0.1-0.2,0.1-0.3v-0.1c0,0,0,0,0-0.1l-0.1-4.7l11.2-12
	c0.6,0.1,1.2,0.2,1.8,0.1c1.8-0.1,3.5-0.8,4.9-2.3c1.3-1.4,2-3.2,1.9-5c0-0.8-0.1-1.5-0.3-2.3c-0.1-0.3-0.3-0.4-0.6-0.3
	c-0.1,0-0.2,0.1-0.2,0.1l-4,4.4l-2.6-0.7l-0.7-2.6l3.8-4.4c0.2-0.2,0.2-0.5,0-0.7c0,0-0.1-0.1-0.1-0.1C164,86,163.2,85.9,162.4,86
	L162.4,86z M166.5,102.5c-0.2,0-0.4,0.2-0.4,0.5v2.6c-1.2,0.3-2.4,0.8-3.5,1.4l-1.8-1.9c-0.2-0.2-0.5-0.2-0.7,0l-3.8,3.6
	c-0.2,0.2-0.2,0.5,0,0.7c0,0,0,0,0,0l1.8,1.9c-0.8,1.2-1.4,2.5-1.7,4h-2.6c-0.3,0-0.5,0.2-0.5,0.5v5.2c0,0.3,0.2,0.5,0.5,0.5h2.6
	c0.3,1.4,0.9,2.8,1.7,4l-1.8,1.9c-0.2,0.2-0.2,0.5,0,0.7c0,0,0,0,0,0l3.8,3.6c0.2,0.2,0.5,0.2,0.7,0l1.8-1.9
	c1.1,0.6,2.3,1.1,3.5,1.4v2.6c0,0.3,0.2,0.5,0.5,0.5h5.2c0.3,0,0.5-0.2,0.5-0.5v-2.6c1.3-0.3,2.4-0.8,3.5-1.4l1.8,1.9
	c0.2,0.2,0.5,0.2,0.7,0c0,0,0,0,0,0l3.8-3.6c0.2-0.2,0.2-0.5,0-0.7c0,0,0,0,0,0l-1.8-1.9c0.8-1.2,1.3-2.5,1.7-4h2.6
	c0.3,0,0.5-0.2,0.5-0.5v-5.2c0-0.3-0.2-0.5-0.5-0.5H182c-0.3-1.4-0.9-2.8-1.7-4l1.8-1.9c0.2-0.2,0.2-0.5,0-0.7c0,0,0,0,0,0l-3.8-3.6
	c-0.2-0.2-0.5-0.2-0.7,0c0,0,0,0,0,0l-1.8,1.9c-1.1-0.6-2.3-1.1-3.5-1.4V103c0-0.3-0.2-0.5-0.5-0.5H166.5
	C166.6,102.5,166.6,102.5,166.5,102.5C166.6,102.5,166.5,102.5,166.5,102.5L166.5,102.5z M144.6,110.5c0.1,0,0.3,0,0.4,0.1l2.2,2
	c0.1,0.1,0.2,0.2,0.2,0.3l0.1,3v0c0,0.1,0,0.3-0.1,0.3v0c0,0,0,0-0.1,0l-2,2.2c-0.1,0.1-0.2,0.1-0.3,0.2l-3,0.2
	c-0.1,0-0.3,0-0.3-0.1l-2.2-2c-0.1-0.1-0.2-0.2-0.2-0.3l-0.1-3c0-0.1,0-0.3,0.1-0.3l2.1-2.2c0.1-0.1,0.2-0.1,0.3-0.2L144.6,110.5
	L144.6,110.5z M169.2,111c4.1,0,7.4,3.3,7.4,7.4c0,4.1-3.3,7.4-7.4,7.4c-4.1,0-7.4-3.3-7.4-7.4C161.8,114.3,165.1,111,169.2,111
	L169.2,111z M144.5,111.5l-2.6,0.1l-1.8,1.9l0.1,2.6l1.9,1.7l2.6-0.1l1.8-1.9l-0.1-2.6L144.5,111.5L144.5,111.5z M169.2,112
	c-3.6,0-6.4,2.9-6.4,6.4c0,3.6,2.9,6.4,6.4,6.4c3.6,0,6.4-2.9,6.4-6.4C175.6,114.8,172.8,112,169.2,112L169.2,112z"/>
<path class="st0" d="M112.2,75.8l-0.3-6.6c-0.4-7.7-5.1-14.2-11.7-17.2v8.6c0,1.4-1.1,2.4-2.4,2.4c-1.4,0-2.4-1.1-2.4-2.4V50.4
	c-1.1-0.2-2.3-0.3-3.4-0.3s-2.3,0.1-3.4,0.3v10.1c0,1.4-1.1,2.4-2.4,2.4c-1.4,0-2.4-1.1-2.4-2.4V52c-6.6,3.1-11.3,9.5-11.7,17.2
	l-0.3,6.6c-3.9,1.2-6.1,2.8-6.1,4.4c0,3.8,11.8,7,26.4,7s26.4-3.1,26.4-7C118.1,78.5,115.9,77,112.2,75.8z"/>
<line class="st1" x1="60.9" y1="141.6" x2="191.8" y2="43.5"/>
<rect x="3.3" y="4.2" class="st2" width="254.3" height="189.3"/>
</svg>
