<svg xmlns="http://www.w3.org/2000/svg" viewBox="0 0 236.28 177.4"><defs><style>.cls-1{fill:#f0d200;stroke-width:2px;}.cls-1,.cls-2{stroke:#000;stroke-miterlimit:10;}.cls-2{fill:none;}</style></defs><g id="Layer_2" data-name="Layer 2"><g id="Layer_1-2" data-name="Layer 1"><path class="cls-1" d="M183,76.86a12,12,0,0,0-8.34,4.19,13.29,13.29,0,0,0-3.44,9.06,18.06,18.06,0,0,0,.5,3.56L150.8,116.39l-7.13.31a.9.9,0,0,0-.62.28l-6.32,6.82a.89.89,0,0,0-.25.62l.25,9.19a.9.9,0,0,0,.28.62l3.91,3.66,2.75,2.56a.88.88,0,0,0,.66.25l9.18-.43a.93.93,0,0,0,.6-.29l6.25-6.71.09-.1,0,0a.83.83,0,0,0,.19-.56v-.19l-.22-8.47,20.19-21.59a13.06,13.06,0,0,0,3.19.25,12.52,12.52,0,0,0,8.78-4.22,13,13,0,0,0,3.44-9.06,17,17,0,0,0-.6-4.13.88.88,0,0,0-1.08-.61.9.9,0,0,0-.42.27L186.7,92.7,182,91.51l-1.25-4.65L187.61,79a.86.86,0,0,0-.05-1.23.83.83,0,0,0-.26-.17,9.93,9.93,0,0,0-4.35-.72Zm7.47,29.75a.89.89,0,0,0-.72.87v4.75a23.51,23.51,0,0,0-6.31,2.54l-3.31-3.41a.88.88,0,0,0-1.22,0l-6.81,6.5a.86.86,0,0,0-.05,1.23v0l3.32,3.4a23.79,23.79,0,0,0-3.07,7.16h-4.75a.87.87,0,0,0-.87.88v9.4a.88.88,0,0,0,.87.88h4.75a23.38,23.38,0,0,0,3.07,7.15L172,151.36a.89.89,0,0,0,0,1.24h0l6.81,6.5a.88.88,0,0,0,1.22,0l3.28-3.41a23.11,23.11,0,0,0,6.34,2.56V163a.87.87,0,0,0,.88.88H200a.87.87,0,0,0,.88-.88v-4.72a23.18,23.18,0,0,0,6.37-2.56l3.25,3.41a.88.88,0,0,0,1.24,0h0l6.81-6.5a.87.87,0,0,0,0-1.24h0l-3.28-3.44a23.23,23.23,0,0,0,3-7.12H223a.88.88,0,0,0,.88-.88v-9.4a.87.87,0,0,0-.88-.88h-4.75a23.45,23.45,0,0,0-3-7.16l3.28-3.4a.88.88,0,0,0,0-1.24h0l-6.78-6.5a.87.87,0,0,0-1.24,0h0l-3.28,3.41a23.38,23.38,0,0,0-6.34-2.54v-4.75a.87.87,0,0,0-.88-.87h-9.53ZM151,121.14a.89.89,0,0,1,.66.22l3.9,3.62a.89.89,0,0,1,.29.63L156,131v0a.83.83,0,0,1-.25.63v0l-.09.06L152,135.64a.83.83,0,0,1-.59.28l-5.41.28a.9.9,0,0,1-.62-.25l-3.94-3.62a.94.94,0,0,1-.28-.63l-.16-5.4a.9.9,0,0,1,.22-.63l3.72-4a.87.87,0,0,1,.6-.28l5.4-.25Zm44.31.78A13.32,13.32,0,1,1,182,135.23a13.33,13.33,0,0,1,13.28-13.31Zm-44.56,1-4.72.19-3.22,3.5.16,4.69,3.41,3.12,4.65-.22,3.25-3.5-.18-4.65-3.35-3.13Zm44.56.75a11.57,11.57,0,1,0,11.57,11.56,11.55,11.55,0,0,0-11.57-11.56Z"/><path class="cls-1" d="M92.59,58.51,92,46.61a36.17,36.17,0,0,0-21.1-30.9v15.5a4.4,4.4,0,0,1-8.8,0V12.91a32.33,32.33,0,0,0-12.4,0v18.2a4.4,4.4,0,1,1-8.8,0V15.71a36.2,36.2,0,0,0-21,30.9l-.6,11.9c-7,2.2-11,5-11,8,0,6.9,21.3,12.6,47.5,12.6s47.5-5.6,47.5-12.6C103.29,63.51,99.29,60.71,92.59,58.51Z"/><line class="cls-2" x1="0.3" y1="177" x2="235.98" y2="0.4"/></g></g></svg>