<?xml version="1.0" encoding="utf-8"?>
<!-- Generator: Adobe Illustrator 25.4.1, SVG Export Plug-In . SVG Version: 6.00 Build 0)  -->
<svg version="1.1" id="Layer_1" xmlns="http://www.w3.org/2000/svg" xmlns:xlink="http://www.w3.org/1999/xlink" x="0px" y="0px"
	 viewBox="0 0 466.2 376.8" style="enable-background:new 0 0 466.2 376.8;" xml:space="preserve">
<style type="text/css">
	.st0{fill-rule:evenodd;clip-rule:evenodd;fill:#C1E2E8;}
	.st1{fill:#003366;}
	.st2{fill:#C1E2E8;}
	.st3{clip-path:url(#SVGID_00000060003310422191426120000003021484855574663591_);}
	.st4{clip-path:url(#SVGID_00000098183449319309652280000007622083019850827943_);}
	.st5{fill:#2C559E;}
	.st6{clip-path:url(#SVGID_00000031204715361557818610000001365918688091202179_);}
	.st7{clip-path:url(#SVGID_00000114764968178893990260000003187975530443783076_);}
	.st8{clip-path:url(#SVGID_00000014599716215001865270000009506920924367096213_);}
	.st9{clip-path:url(#SVGID_00000125601387158348789900000018008864216873127055_);}
	.st10{clip-path:url(#SVGID_00000124877193075295564610000002689812531325607337_);}
	.st11{clip-path:url(#SVGID_00000044154658382648282310000007569927645042731393_);}
	.st12{clip-path:url(#SVGID_00000013884725395271640350000003394380572492351153_);}
	.st13{clip-path:url(#SVGID_00000056428320795827834990000004290053928091461006_);}
	.st14{clip-path:url(#SVGID_00000120537760658729253600000008463414452524625568_);}
	.st15{font-family:'Roboto-Medium';}
	.st16{font-size:21px;}
	.st17{fill:#FFFFFF;}
	.st18{font-size:10px;}
	.st19{font-size:8px;}
</style>
<g id="Layer_2_00000155144051250129612220000018005444871272620217_">
	<g id="squares">
		<polyline class="st0" points="132.9,17.2 132.9,77.4 72.4,77.4 72.4,17.2 		"/>
		<rect x="71" y="77.5" class="st1" width="81.8" height="81.7"/>
		<rect x="394.6" y="135.4" class="st2" width="71.5" height="70.6"/>
		<g>
			<defs>
				<rect id="SVGID_1_" x="394.6" y="135.4" width="71.5" height="70.6"/>
			</defs>
			<clipPath id="SVGID_00000102510582716266511500000004292462422840696705_">
				<use xlink:href="#SVGID_1_"  style="overflow:visible;"/>
			</clipPath>
			<g style="clip-path:url(#SVGID_00000102510582716266511500000004292462422840696705_);">
				<rect x="394.6" y="135" class="st2" width="71.6" height="71.6"/>
			</g>
		</g>
		<rect x="233.9" y="315" class="st2" width="61.9" height="61"/>
		<g>
			<defs>
				<rect id="SVGID_00000157286980500278557120000006190110520712101005_" x="233.9" y="315" width="61.9" height="61"/>
			</defs>
			<clipPath id="SVGID_00000057845660371230422350000002159242501268139707_">
				<use xlink:href="#SVGID_00000157286980500278557120000006190110520712101005_"  style="overflow:visible;"/>
			</clipPath>
			<g style="clip-path:url(#SVGID_00000057845660371230422350000002159242501268139707_);">
				<rect x="233.9" y="314.5" class="st2" width="61.9" height="62"/>
			</g>
		</g>
		<rect x="173.2" y="315.7" class="st5" width="61.3" height="60.4"/>
		<g>
			<defs>
				<rect id="SVGID_00000084523825523859128660000012018804883886758025_" x="173.2" y="315.7" width="61.3" height="60.4"/>
			</defs>
			<clipPath id="SVGID_00000141437976808409459830000014898367087443068567_">
				<use xlink:href="#SVGID_00000084523825523859128660000012018804883886758025_"  style="overflow:visible;"/>
			</clipPath>
			<g style="clip-path:url(#SVGID_00000141437976808409459830000014898367087443068567_);">
				<rect x="173.2" y="315.2" class="st5" width="61.3" height="61.3"/>
			</g>
		</g>
		<rect x="232.2" y="235.7" class="st1" width="82.5" height="80.2"/>
		<g>
			<defs>
				<rect id="SVGID_00000016067996176262331950000012461271335525601981_" x="232.2" y="235.7" width="82.5" height="80.2"/>
			</defs>
			<clipPath id="SVGID_00000169548742100170412650000016846329348261714836_">
				<use xlink:href="#SVGID_00000016067996176262331950000012461271335525601981_"  style="overflow:visible;"/>
			</clipPath>
			<g style="clip-path:url(#SVGID_00000169548742100170412650000016846329348261714836_);">
				<rect x="232.2" y="234.5" class="st1" width="82.5" height="82.5"/>
			</g>
		</g>
		<rect x="314.2" y="31.2" class="st5" width="66.6" height="66.3"/>
		<g>
			<defs>
				<rect id="SVGID_00000137124147875797372800000012970517075030321582_" x="314.2" y="31.2" width="66.6" height="66.3"/>
			</defs>
			<clipPath id="SVGID_00000036251043000308303050000011262180571911686049_">
				<use xlink:href="#SVGID_00000137124147875797372800000012970517075030321582_"  style="overflow:visible;"/>
			</clipPath>
			<g style="clip-path:url(#SVGID_00000036251043000308303050000011262180571911686049_);">
				<rect x="314.2" y="30.9" class="st5" width="66.6" height="66.7"/>
			</g>
		</g>
		<rect x="85" y="238.1" class="st2" width="67.1" height="65.7"/>
		<g>
			<defs>
				<rect id="SVGID_00000159430421688471115670000002154821738746544527_" x="85" y="238.1" width="67.1" height="65.7"/>
			</defs>
			<clipPath id="SVGID_00000101791945888886082940000005530831637344569507_">
				<use xlink:href="#SVGID_00000159430421688471115670000002154821738746544527_"  style="overflow:visible;"/>
			</clipPath>
			<g style="clip-path:url(#SVGID_00000101791945888886082940000005530831637344569507_);">
				<rect x="85" y="236.9" class="st2" width="67.1" height="67.1"/>
			</g>
		</g>
		<rect x="152.6" y="236.6" class="st1" width="81" height="79.5"/>
		<g>
			<defs>
				<rect id="SVGID_00000168795640009125064490000005423099245709596048_" x="152.6" y="236.6" width="81" height="79.5"/>
			</defs>
			<clipPath id="SVGID_00000049919307213852762500000011108548166988601017_">
				<use xlink:href="#SVGID_00000168795640009125064490000005423099245709596048_"  style="overflow:visible;"/>
			</clipPath>
			<g style="clip-path:url(#SVGID_00000049919307213852762500000011108548166988601017_);">
				<rect x="152.6" y="235.8" class="st1" width="81" height="81"/>
			</g>
		</g>
		<rect x="332.6" y="237.3" class="st2" width="62.1" height="60.5"/>
		<g>
			<defs>
				<rect id="SVGID_00000009586861337039536830000012018216961101759369_" x="332.6" y="237.3" width="62.1" height="60.5"/>
			</defs>
			<clipPath id="SVGID_00000066509358485073541060000008355813509446331580_">
				<use xlink:href="#SVGID_00000009586861337039536830000012018216961101759369_"  style="overflow:visible;"/>
			</clipPath>
			<g style="clip-path:url(#SVGID_00000066509358485073541060000008355813509446331580_);">
				<rect x="332.6" y="236.4" class="st2" width="62.1" height="62.1"/>
			</g>
		</g>
		<rect x="233.9" y="0.5" class="st1" width="81.8" height="80.2"/>
		<g>
			<defs>
				<rect id="SVGID_00000023994028030773629360000013117689983176651943_" x="233.9" y="0.5" width="81.8" height="80.2"/>
			</defs>
			<clipPath id="SVGID_00000028286604301262888100000011998179758263439545_">
				<use xlink:href="#SVGID_00000023994028030773629360000013117689983176651943_"  style="overflow:visible;"/>
			</clipPath>
			<g style="clip-path:url(#SVGID_00000028286604301262888100000011998179758263439545_);">
				<rect x="233.9" class="st1" width="81.8" height="81.8"/>
			</g>
		</g>
		<rect x="190.1" y="34.9" class="st5" width="44.1" height="42.5"/>
		<g>
			<defs>
				<rect id="SVGID_00000054953790531323594650000004191905691109032068_" x="190.1" y="34.9" width="44.1" height="42.5"/>
			</defs>
			<clipPath id="SVGID_00000084499105140337816260000012857636407180805539_">
				<use xlink:href="#SVGID_00000054953790531323594650000004191905691109032068_"  style="overflow:visible;"/>
			</clipPath>
			<g style="clip-path:url(#SVGID_00000084499105140337816260000012857636407180805539_);">
				<rect x="190.1" y="34.1" class="st5" width="44.1" height="44.1"/>
			</g>
		</g>
		<rect x="152.8" y="77.5" class="st2" width="162.8" height="160.5"/>
		<g>
			<defs>
				<rect id="SVGID_00000036942775297058739410000014193672013811744442_" x="152.8" y="77.5" width="162.8" height="160.5"/>
			</defs>
			<clipPath id="SVGID_00000025424672549931528450000017863913419195726262_">
				<use xlink:href="#SVGID_00000036942775297058739410000014193672013811744442_"  style="overflow:visible;"/>
			</clipPath>
			<g style="clip-path:url(#SVGID_00000025424672549931528450000017863913419195726262_);">
				<rect x="152.8" y="76.4" class="st2" width="163" height="163"/>
			</g>
		</g>
		<rect y="77.3" class="st5" width="72.9" height="72.9"/>
		<rect x="314.2" y="159.4" class="st1" width="81.8" height="80.2"/>
	</g>
	<g id="test">
		<text transform="matrix(1 0 0 1 164.63 142.5)" class="st1 st15 st16">Common Goals </text>
		<text transform="matrix(1 0 0 1 230.36 167.7)" class="st1 st15 st16">&amp; </text>
		<text transform="matrix(1 0 0 1 183.43 192.9)" class="st1 st15 st16">Pain Points</text>
		<text transform="matrix(1 0 0 1 239.25 32.04)" class="st17 st15 st18">Create a record </text>
		<text transform="matrix(1 0 0 1 239.49 44.04)" class="st17 st15 st18">to look back on</text>
		<text transform="matrix(1 0 0 1 321.23 192.49)" class="st17 st15 st18">Unsure of what </text>
		<text transform="matrix(1 0 0 1 338.19 204.49)" class="st17 st15 st18">to write</text>
		<text transform="matrix(1 0 0 1 256.76 280.73)" class="st17 st15 st18">Rigidity</text>
		<text transform="matrix(1 0 0 1 178.38 271.1)" class="st17 st15 st18">Lack of </text>
		<text transform="matrix(1 0 0 1 166.01 283.1)" class="st17 st15 st18">Convenience</text>
		<text transform="matrix(1 0 0 1 326.36 42.3)" class="st17 st15 st19">“It would be </text>
		<text transform="matrix(1 0 0 1 323.71 51.9)" class="st17 st15 st19">interesting to </text>
		<text transform="matrix(1 0 0 1 323.08 61.5)" class="st17 st15 st19">keep a trail of </text>
		<text transform="matrix(1 0 0 1 320.54 71.1)" class="st17 st15 st19">my thoughts to </text>
		<text transform="matrix(1 0 0 1 327.3 80.7)" class="st17 st15 st19">learn about </text>
		<text transform="matrix(1 0 0 1 333.87 90.3)" class="st17 st15 st19">myself”</text>
		<text transform="matrix(1 0 0 1 195.99 49.55)" class="st17 st15 st19">“I’d like a </text>
		<text transform="matrix(1 0 0 1 193.86 59.15)" class="st17 st15 st19">google for </text>
		<text transform="matrix(1 0 0 1 195.17 68.75)" class="st17 st15 st19">my brain”</text>
		<text transform="matrix(1 0 0 1 182.17 329)" class="st17 st15 st19">&quot;Sometimes </text>
		<text transform="matrix(1 0 0 1 182.94 338.6)" class="st17 st15 st19">things don&apos;t </text>
		<text transform="matrix(1 0 0 1 186.98 348.2)" class="st17 st15 st19">sync, and </text>
		<text transform="matrix(1 0 0 1 184.05 357.8)" class="st17 st15 st19">there is lag </text>
		<text transform="matrix(1 0 0 1 190.95 367.4)" class="st17 st15 st19">issues&quot;</text>
		<text transform="matrix(1 0 0 1 12.1 89.22)" class="st17 st15 st19">&quot;It is a vent in </text>
		<text transform="matrix(1 0 0 1 8.33 98.82)" class="st17 st15 st19">some ways, the </text>
		<text transform="matrix(1 0 0 1 7.96 108.42)" class="st17 st15 st19">things you can&apos;t </text>
		<text transform="matrix(1 0 0 1 3.91 118.02)" class="st17 st15 st19">tell anyone else, it </text>
		<text transform="matrix(1 0 0 1 6.28 127.62)" class="st17 st15 st19">is nice to get out </text>
		<text transform="matrix(1 0 0 1 8.14 137.22)" class="st17 st15 st19">of your system&quot;</text>
		<text transform="matrix(1 0 0 1 80.15 37.5)" class="st5 st15 st19">“It feels like </text>
		<text transform="matrix(1 0 0 1 76.39 47.1)" class="st5 st15 st19">I’m offloading </text>
		<text transform="matrix(1 0 0 1 77.78 56.7)" class="st5 st15 st19">what is in my </text>
		<text transform="matrix(1 0 0 1 90.59 66.3)" class="st5 st15 st19">brain”</text>
		<text transform="matrix(1 0 0 1 408.68 155.56)" class="st5 st15 st19">&quot;Sometimes </text>
		<text transform="matrix(1 0 0 1 414.13 165.16)" class="st5 st15 st19">you don&apos;t </text>
		<text transform="matrix(1 0 0 1 406.49 174.76)" class="st5 st15 st19">know what to </text>
		<text transform="matrix(1 0 0 1 409.18 184.36)" class="st5 st15 st19">talk or write </text>
		<text transform="matrix(1 0 0 1 418.8 193.96)" class="st5 st15 st19">about&quot;</text>
		<text transform="matrix(1 0 0 1 336.5 255.74)" class="st5 st15 st19">&quot;Maybe if it was </text>
		<text transform="matrix(1 0 0 1 341.42 265.34)" class="st5 st15 st19">specific for a </text>
		<text transform="matrix(1 0 0 1 336.99 274.94)" class="st5 st15 st19">use, it would be </text>
		<text transform="matrix(1 0 0 1 337.86 284.54)" class="st5 st15 st19">easier to track&quot;</text>
		<text transform="matrix(1 0 0 1 91.06 250.52)" class="st5 st15 st19">&quot;Typing on your </text>
		<text transform="matrix(1 0 0 1 94.85 260.12)" class="st5 st15 st19">phone can be </text>
		<text transform="matrix(1 0 0 1 90.39 269.72)" class="st5 st15 st19">hard, and I don&apos;t </text>
		<text transform="matrix(1 0 0 1 91.98 279.32)" class="st5 st15 st19">want to get out </text>
		<text transform="matrix(1 0 0 1 96.52 288.92)" class="st5 st15 st19">my laptop to </text>
		<text transform="matrix(1 0 0 1 109.87 298.52)" class="st5 st15 st19">type&quot;</text>
		<text transform="matrix(1 0 0 1 239.32 330.66)" class="st5 st15 st19">&quot;The tools can </text>
		<text transform="matrix(1 0 0 1 244.61 340.26)" class="st5 st15 st19">be too rigid </text>
		<text transform="matrix(1 0 0 1 243.48 349.86)" class="st5 st15 st19">when I want </text>
		<text transform="matrix(1 0 0 1 245.68 359.46)" class="st5 st15 st19">them to be </text>
		<text transform="matrix(1 0 0 1 247.86 369.06)" class="st5 st15 st19">freeform&quot;</text>
		<text transform="matrix(1 0 0 1 77.16 119.6)" class="st17 st15 st18">Stress Relieving</text>
	</g>
</g>
</svg>
