<svg xmlns="http://www.w3.org/2000/svg" xmlns:xlink="http://www.w3.org/1999/xlink" viewBox="0 0 466.23 376.75"><defs><style>.cls-1,.cls-4{fill:#c1e2e8;}.cls-16,.cls-2{fill:#036;}.cls-19,.cls-3{fill:#2c559e;}.cls-4{fill-rule:evenodd;}.cls-5{clip-path:url(#clip-path);}.cls-6{clip-path:url(#clip-path-2);}.cls-7{clip-path:url(#clip-path-3);}.cls-8{clip-path:url(#clip-path-4);}.cls-9{clip-path:url(#clip-path-5);}.cls-10{clip-path:url(#clip-path-6);}.cls-11{clip-path:url(#clip-path-7);}.cls-12{clip-path:url(#clip-path-8);}.cls-13{clip-path:url(#clip-path-9);}.cls-14{clip-path:url(#clip-path-10);}.cls-15{clip-path:url(#clip-path-11);}.cls-16{font-size:21px;}.cls-16,.cls-17,.cls-18,.cls-19{font-family:Roboto-Medium, Roboto;font-weight:500;}.cls-17{font-size:10px;}.cls-17,.cls-18{fill:#fff;}.cls-18,.cls-19{font-size:8px;}</style><clipPath id="clip-path" transform="translate(0 0.49)"><rect class="cls-1" x="394.57" y="134.87" width="71.52" height="70.58"/></clipPath><clipPath id="clip-path-2" transform="translate(0 0.49)"><rect class="cls-1" x="233.89" y="314.56" width="61.94" height="60.98"/></clipPath><clipPath id="clip-path-3" transform="translate(0 0.49)"><rect class="cls-3" x="173.17" y="315.19" width="61.31" height="60.35"/></clipPath><clipPath id="clip-path-4" transform="translate(0 0.49)"><rect class="cls-2" x="232.22" y="235.17" width="82.5" height="80.25"/></clipPath><clipPath id="clip-path-5" transform="translate(0 0.49)"><rect class="cls-3" x="314.17" y="30.73" width="66.65" height="66.33"/></clipPath><clipPath id="clip-path-6" transform="translate(0 0.49)"><rect class="cls-1" x="84.99" y="237.65" width="67.13" height="65.68"/></clipPath><clipPath id="clip-path-7" transform="translate(0 0.49)"><rect class="cls-2" x="152.64" y="236.13" width="81" height="79.5"/></clipPath><clipPath id="clip-path-8" transform="translate(0 0.49)"><rect class="cls-1" x="332.56" y="236.82" width="62.09" height="60.47"/></clipPath><clipPath id="clip-path-9" transform="translate(0 0.49)"><rect class="cls-2" x="233.87" width="81.75" height="80.25"/></clipPath><clipPath id="clip-path-10" transform="translate(0 0.49)"><rect class="cls-3" x="190.15" y="34.44" width="44.14" height="42.53"/></clipPath><clipPath id="clip-path-11" transform="translate(0 0.49)"><rect class="cls-1" x="152.75" y="77.05" width="162.75" height="160.5"/></clipPath></defs><g id="Layer_2" data-name="Layer 2"><g id="squares"><polyline class="cls-4" points="132.94 17.22 132.94 77.43 72.44 77.43 72.44 17.22"/><rect class="cls-2" x="71" y="77.46" width="81.75" height="81.75"/><rect class="cls-1" x="394.57" y="135.36" width="71.52" height="70.58"/><g class="cls-5"><rect class="cls-1" x="394.57" y="135.03" width="71.65" height="71.65"/></g><rect class="cls-1" x="233.89" y="315.05" width="61.94" height="60.98"/><g class="cls-6"><rect class="cls-1" x="233.89" y="314.53" width="61.95" height="61.95"/></g><rect class="cls-3" x="173.17" y="315.68" width="61.31" height="60.35"/><g class="cls-7"><rect class="cls-3" x="173.17" y="315.18" width="61.31" height="61.31"/></g><rect class="cls-2" x="232.22" y="235.66" width="82.5" height="80.25"/><g class="cls-8"><rect class="cls-2" x="232.22" y="234.47" width="82.5" height="82.5"/></g><rect class="cls-3" x="314.17" y="31.22" width="66.65" height="66.33"/><g class="cls-9"><rect class="cls-3" x="314.17" y="30.9" width="66.65" height="66.65"/></g><rect class="cls-1" x="84.99" y="238.14" width="67.13" height="65.68"/><g class="cls-10"><rect class="cls-1" x="84.99" y="236.93" width="67.13" height="67.13"/></g><rect class="cls-2" x="152.64" y="236.62" width="81" height="79.5"/><g class="cls-11"><rect class="cls-2" x="152.64" y="235.84" width="81" height="81"/></g><rect class="cls-1" x="332.56" y="237.31" width="62.09" height="60.47"/><g class="cls-12"><rect class="cls-1" x="332.56" y="236.45" width="62.09" height="62.09"/></g><rect class="cls-2" x="233.87" y="0.49" width="81.75" height="80.25"/><g class="cls-13"><rect class="cls-2" x="233.87" width="81.75" height="81.75"/></g><rect class="cls-3" x="190.15" y="34.93" width="44.14" height="42.53"/><g class="cls-14"><rect class="cls-3" x="190.15" y="34.1" width="44.14" height="44.14"/></g><rect class="cls-1" x="152.75" y="77.54" width="162.75" height="160.5"/><g class="cls-15"><rect class="cls-1" x="152.75" y="76.38" width="163" height="163"/></g><rect class="cls-3" y="77.26" width="72.9" height="72.9"/><rect class="cls-2" x="314.16" y="159.43" width="81.75" height="80.25"/></g><g id="test"><text class="cls-16" transform="translate(164.63 142.5)">Common Goals <tspan x="65.73" y="25.2">&amp; </tspan><tspan x="18.8" y="50.4">Pain Points</tspan></text><text class="cls-17" transform="translate(239.25 32.04)">Create a record <tspan x="0.24" y="12">to look back on</tspan></text><text class="cls-17" transform="translate(321.23 192.49)">Unsure of what <tspan x="16.96" y="12">to write</tspan></text><text class="cls-17" transform="translate(256.76 280.73)">Rigidity</text><text class="cls-17" transform="translate(178.38 271.1)">Lack of <tspan x="-12.37" y="12">Convenience</tspan></text><text class="cls-18" transform="translate(326.36 42.3)">“It would be <tspan x="-2.65" y="9.6">interesting to </tspan><tspan x="-3.28" y="19.2">keep a trail of </tspan><tspan x="-5.82" y="28.8">my thoughts to </tspan><tspan x="0.94" y="38.4">learn about </tspan><tspan x="7.51" y="48">myself”</tspan></text><text class="cls-18" transform="translate(195.99 49.55)">“I’d like a <tspan x="-2.13" y="9.6">google for </tspan><tspan x="-0.82" y="19.2">my brain”</tspan></text><text class="cls-18" transform="translate(182.17 329)">&quot;Sometimes <tspan x="0.77" y="9.6">things don&apos;t </tspan><tspan x="4.81" y="19.2">sync, and </tspan><tspan x="1.88" y="28.8">there is lag </tspan><tspan x="8.78" y="38.4">issues&quot;</tspan></text><text class="cls-18" transform="translate(12.1 89.22)">&quot;It is a vent in <tspan x="-3.77" y="9.6">some ways, the </tspan><tspan x="-4.14" y="19.2">things you can&apos;t </tspan><tspan x="-8.19" y="28.8">tell anyone else, it </tspan><tspan x="-5.82" y="38.4">is nice to get out </tspan><tspan x="-3.96" y="48">of your system&quot;</tspan></text><text class="cls-19" transform="translate(80.15 37.5)">“It feels like <tspan x="-3.76" y="9.6">I’m offloading </tspan><tspan x="-2.37" y="19.2">what is in my </tspan><tspan x="10.44" y="28.8">brain”</tspan></text><text class="cls-19" transform="translate(408.68 155.56)">&quot;Sometimes <tspan x="5.45" y="9.6">you don&apos;t </tspan><tspan x="-2.19" y="19.2">know what to </tspan><tspan x="0.5" y="28.8">talk or write </tspan><tspan x="10.12" y="38.4">about&quot;</tspan></text><text class="cls-19" transform="translate(336.5 255.74)">&quot;Maybe if it was <tspan x="4.92" y="9.6">specific for a </tspan><tspan x="0.49" y="19.2">use, it would be </tspan><tspan x="1.36" y="28.8">easier to track&quot;</tspan></text><text class="cls-19" transform="translate(91.06 250.52)">&quot;Typing on your <tspan x="3.79" y="9.6">phone can be </tspan><tspan x="-0.67" y="19.2">hard, and I don&apos;t </tspan><tspan x="0.92" y="28.8">want to get out </tspan><tspan x="5.46" y="38.4">my laptop to </tspan><tspan x="18.81" y="48">type&quot;</tspan></text><text class="cls-19" transform="translate(239.32 330.66)">&quot;The tools can <tspan x="5.29" y="9.6">be too rigid </tspan><tspan x="4.16" y="19.2">when I want </tspan><tspan x="6.36" y="28.8">them to be </tspan><tspan x="8.54" y="38.4">freeform&quot;</tspan></text><text class="cls-17" transform="translate(77.16 119.6)">Stress Relieving</text></g></g></svg>