<svg width="1715" height="1082" viewBox="0 0 1715 1082" fill="none" xmlns="http://www.w3.org/2000/svg">
<rect x="109" y="782" width="1193" height="300" fill="#004BE2"/>
<rect x="109" y="418" width="251" height="251" rx="4" fill="#E3F0F3"/>
<rect x="1464" y="425" width="251" height="251" rx="4" fill="#004BE2"/>
<rect x="1135" y="425" width="252" height="251" rx="4" fill="#F2FFF4"/>
<rect x="1135" y="425" width="252" height="251" rx="4" fill="white"/>
<rect x="807" y="425" width="252" height="251" rx="4" fill="#004BE2"/>
<path d="M232.121 913.081C230.582 910.24 228.356 908.089 225.441 906.628C222.607 905.086 219.246 904.315 215.36 904.315C208.639 904.315 203.255 906.547 199.206 911.011C195.158 915.394 193.133 921.279 193.133 928.664C193.133 936.537 195.239 942.706 199.449 947.17C203.741 951.553 209.611 953.744 217.06 953.744C222.161 953.744 226.453 952.446 229.935 949.849C233.497 947.251 236.088 943.518 237.708 938.648H211.352V923.308H256.533V942.665C254.995 947.86 252.363 952.689 248.639 957.153C244.995 961.617 240.339 965.229 234.671 967.989C229.003 970.748 222.607 972.128 215.481 972.128C207.06 972.128 199.53 970.302 192.89 966.65C186.332 962.916 181.19 957.762 177.466 951.188C173.822 944.613 172 937.106 172 928.664C172 920.223 173.822 912.716 177.466 906.141C181.19 899.486 186.332 894.332 192.89 890.679C199.449 886.946 206.939 885.079 215.36 885.079C225.562 885.079 234.145 887.555 241.109 892.506C248.153 897.457 252.809 904.315 255.076 913.081H232.121Z" fill="#F2FFF4"/>
<path d="M232.121 913.081C230.582 910.24 228.356 908.089 225.441 906.628C222.607 905.086 219.246 904.315 215.36 904.315C208.639 904.315 203.255 906.547 199.206 911.011C195.158 915.394 193.133 921.279 193.133 928.664C193.133 936.537 195.239 942.706 199.449 947.17C203.741 951.553 209.611 953.744 217.06 953.744C222.161 953.744 226.453 952.446 229.935 949.849C233.497 947.251 236.088 943.518 237.708 938.648H211.352V923.308H256.533V942.665C254.995 947.86 252.363 952.689 248.639 957.153C244.995 961.617 240.339 965.229 234.671 967.989C229.003 970.748 222.607 972.128 215.481 972.128C207.06 972.128 199.53 970.302 192.89 966.65C186.332 962.916 181.19 957.762 177.466 951.188C173.822 944.613 172 937.106 172 928.664C172 920.223 173.822 912.716 177.466 906.141C181.19 899.486 186.332 894.332 192.89 890.679C199.449 886.946 206.939 885.079 215.36 885.079C225.562 885.079 234.145 887.555 241.109 892.506C248.153 897.457 252.809 904.315 255.076 913.081H232.121Z" fill="white"/>
<path d="M278.483 896.523C274.839 896.523 271.843 895.468 269.495 893.358C267.228 891.166 266.094 888.488 266.094 885.322C266.094 882.076 267.228 879.397 269.495 877.287C271.843 875.096 274.839 874 278.483 874C282.046 874 284.96 875.096 287.228 877.287C289.576 879.397 290.75 882.076 290.75 885.322C290.75 888.488 289.576 891.166 287.228 893.358C284.96 895.468 282.046 896.523 278.483 896.523ZM288.807 903.585V971.52H268.038V903.585H288.807Z" fill="#F2FFF4"/>
<path d="M278.483 896.523C274.839 896.523 271.843 895.468 269.495 893.358C267.228 891.166 266.094 888.488 266.094 885.322C266.094 882.076 267.228 879.397 269.495 877.287C271.843 875.096 274.839 874 278.483 874C282.046 874 284.96 875.096 287.228 877.287C289.576 879.397 290.75 882.076 290.75 885.322C290.75 888.488 289.576 891.166 287.228 893.358C284.96 895.468 282.046 896.523 278.483 896.523ZM288.807 903.585V971.52H268.038V903.585H288.807Z" fill="white"/>
<path d="M334.343 952.04L349.039 903.585H371.144L347.096 971.52H321.469L297.42 903.585H319.647L334.343 952.04Z" fill="#F2FFF4"/>
<path d="M334.343 952.04L349.039 903.585H371.144L347.096 971.52H321.469L297.42 903.585H319.647L334.343 952.04Z" fill="white"/>
<path d="M443.772 936.456C443.772 938.404 443.651 940.433 443.408 942.544H396.404C396.728 946.764 398.064 950.011 400.412 952.283C402.841 954.475 405.797 955.571 409.279 955.571C414.461 955.571 418.064 953.379 420.088 948.996H442.193C441.06 953.46 438.995 957.478 435.999 961.049C433.084 964.621 429.4 967.421 424.946 969.45C420.493 971.479 415.513 972.493 410.007 972.493C403.368 972.493 397.457 971.073 392.275 968.232C387.093 965.392 383.044 961.333 380.129 956.058C377.214 950.782 375.757 944.613 375.757 937.552C375.757 930.491 377.174 924.322 380.008 919.046C382.923 913.771 386.971 909.713 392.153 906.872C397.335 904.031 403.287 902.611 410.007 902.611C416.566 902.611 422.396 903.99 427.497 906.75C432.598 909.51 436.566 913.446 439.4 918.559C442.315 923.673 443.772 929.638 443.772 936.456ZM422.517 930.978C422.517 927.406 421.303 924.566 418.874 922.455C416.445 920.345 413.408 919.29 409.764 919.29C406.283 919.29 403.327 920.305 400.898 922.334C398.55 924.363 397.093 927.244 396.526 930.978H422.517Z" fill="#F2FFF4"/>
<path d="M443.772 936.456C443.772 938.404 443.651 940.433 443.408 942.544H396.404C396.728 946.764 398.064 950.011 400.412 952.283C402.841 954.475 405.797 955.571 409.279 955.571C414.461 955.571 418.064 953.379 420.088 948.996H442.193C441.06 953.46 438.995 957.478 435.999 961.049C433.084 964.621 429.4 967.421 424.946 969.45C420.493 971.479 415.513 972.493 410.007 972.493C403.368 972.493 397.457 971.073 392.275 968.232C387.093 965.392 383.044 961.333 380.129 956.058C377.214 950.782 375.757 944.613 375.757 937.552C375.757 930.491 377.174 924.322 380.008 919.046C382.923 913.771 386.971 909.713 392.153 906.872C397.335 904.031 403.287 902.611 410.007 902.611C416.566 902.611 422.396 903.99 427.497 906.75C432.598 909.51 436.566 913.446 439.4 918.559C442.315 923.673 443.772 929.638 443.772 936.456ZM422.517 930.978C422.517 927.406 421.303 924.566 418.874 922.455C416.445 920.345 413.408 919.29 409.764 919.29C406.283 919.29 403.327 920.305 400.898 922.334C398.55 924.363 397.093 927.244 396.526 930.978H422.517Z" fill="white"/>
<path d="M551.286 886.053V971.52H530.517V920.264L511.449 971.52H494.688L475.498 920.142V971.52H454.729V886.053H479.263L503.19 945.222L526.874 886.053H551.286Z" fill="#F2FFF4"/>
<path d="M551.286 886.053V971.52H530.517V920.264L511.449 971.52H494.688L475.498 920.142V971.52H454.729V886.053H479.263L503.19 945.222L526.874 886.053H551.286Z" fill="white"/>
<path d="M630.108 936.456C630.108 938.404 629.986 940.433 629.743 942.544H582.74C583.064 946.764 584.4 950.011 586.748 952.283C589.177 954.475 592.132 955.571 595.614 955.571C600.796 955.571 604.399 953.379 606.424 948.996H628.529C627.395 953.46 625.33 957.478 622.334 961.049C619.419 964.621 615.735 967.421 611.282 969.45C606.828 971.479 601.849 972.493 596.343 972.493C589.703 972.493 583.792 971.073 578.61 968.232C573.428 965.392 569.38 961.333 566.465 956.058C563.55 950.782 562.092 944.613 562.092 937.552C562.092 930.491 563.509 924.322 566.343 919.046C569.258 913.771 573.307 909.713 578.489 906.872C583.671 904.031 589.622 902.611 596.343 902.611C602.901 902.611 608.731 903.99 613.832 906.75C618.934 909.51 622.901 913.446 625.735 918.559C628.65 923.673 630.108 929.638 630.108 936.456ZM608.853 930.978C608.853 927.406 607.638 924.566 605.209 922.455C602.78 920.345 599.744 919.29 596.1 919.29C592.618 919.29 589.663 920.305 587.234 922.334C584.885 924.363 583.428 927.244 582.861 930.978H608.853Z" fill="#F2FFF4"/>
<path d="M630.108 936.456C630.108 938.404 629.986 940.433 629.743 942.544H582.74C583.064 946.764 584.4 950.011 586.748 952.283C589.177 954.475 592.132 955.571 595.614 955.571C600.796 955.571 604.399 953.379 606.424 948.996H628.529C627.395 953.46 625.33 957.478 622.334 961.049C619.419 964.621 615.735 967.421 611.282 969.45C606.828 971.479 601.849 972.493 596.343 972.493C589.703 972.493 583.792 971.073 578.61 968.232C573.428 965.392 569.38 961.333 566.465 956.058C563.55 950.782 562.092 944.613 562.092 937.552C562.092 930.491 563.509 924.322 566.343 919.046C569.258 913.771 573.307 909.713 578.489 906.872C583.671 904.031 589.622 902.611 596.343 902.611C602.901 902.611 608.731 903.99 613.832 906.75C618.934 909.51 622.901 913.446 625.735 918.559C628.65 923.673 630.108 929.638 630.108 936.456ZM608.853 930.978C608.853 927.406 607.638 924.566 605.209 922.455C602.78 920.345 599.744 919.29 596.1 919.29C592.618 919.29 589.663 920.305 587.234 922.334C584.885 924.363 583.428 927.244 582.861 930.978H608.853Z" fill="white"/>
<path d="M694.141 956.423H662.319L657.218 971.52H635.477L666.327 886.053H690.375L721.225 971.52H699.242L694.141 956.423ZM688.796 940.352L678.23 909.063L667.785 940.352H688.796Z" fill="#F2FFF4"/>
<path d="M694.141 956.423H662.319L657.218 971.52H635.477L666.327 886.053H690.375L721.225 971.52H699.242L694.141 956.423ZM688.796 940.352L678.23 909.063L667.785 940.352H688.796Z" fill="white"/>
<path d="M761.464 972.372C755.229 972.372 749.642 971.357 744.703 969.328C739.764 967.299 735.796 964.296 732.801 960.319C729.886 956.342 728.347 951.553 728.185 945.953H750.29C750.614 949.118 751.707 951.553 753.57 953.257C755.432 954.881 757.861 955.692 760.857 955.692C763.934 955.692 766.363 955.002 768.144 953.623C769.926 952.162 770.816 950.173 770.816 947.657C770.816 945.547 770.088 943.802 768.63 942.422C767.254 941.042 765.513 939.906 763.407 939.013C761.383 938.12 758.468 937.106 754.663 935.969C749.157 934.265 744.663 932.56 741.181 930.856C737.699 929.151 734.703 926.635 732.193 923.308C729.683 919.98 728.428 915.638 728.428 910.281C728.428 902.327 731.303 896.117 737.052 891.653C742.8 887.108 750.29 884.836 759.521 884.836C768.913 884.836 776.484 887.108 782.233 891.653C787.982 896.117 791.059 902.367 791.464 910.402H768.994C768.833 907.643 767.82 905.492 765.958 903.95C764.096 902.327 761.707 901.515 758.792 901.515C756.282 901.515 754.258 902.205 752.719 903.585C751.181 904.883 750.412 906.791 750.412 909.307C750.412 912.066 751.707 914.217 754.298 915.759C756.889 917.301 760.938 918.965 766.444 920.751C771.95 922.618 776.403 924.403 779.804 926.108C783.286 927.812 786.282 930.288 788.792 933.534C791.302 936.781 792.557 940.961 792.557 946.074C792.557 950.944 791.302 955.368 788.792 959.345C786.363 963.322 782.8 966.487 778.104 968.841C773.407 971.195 767.861 972.372 761.464 972.372Z" fill="#F2FFF4"/>
<path d="M761.464 972.372C755.229 972.372 749.642 971.357 744.703 969.328C739.764 967.299 735.796 964.296 732.801 960.319C729.886 956.342 728.347 951.553 728.185 945.953H750.29C750.614 949.118 751.707 951.553 753.57 953.257C755.432 954.881 757.861 955.692 760.857 955.692C763.934 955.692 766.363 955.002 768.144 953.623C769.926 952.162 770.816 950.173 770.816 947.657C770.816 945.547 770.088 943.802 768.63 942.422C767.254 941.042 765.513 939.906 763.407 939.013C761.383 938.12 758.468 937.106 754.663 935.969C749.157 934.265 744.663 932.56 741.181 930.856C737.699 929.151 734.703 926.635 732.193 923.308C729.683 919.98 728.428 915.638 728.428 910.281C728.428 902.327 731.303 896.117 737.052 891.653C742.8 887.108 750.29 884.836 759.521 884.836C768.913 884.836 776.484 887.108 782.233 891.653C787.982 896.117 791.059 902.367 791.464 910.402H768.994C768.833 907.643 767.82 905.492 765.958 903.95C764.096 902.327 761.707 901.515 758.792 901.515C756.282 901.515 754.258 902.205 752.719 903.585C751.181 904.883 750.412 906.791 750.412 909.307C750.412 912.066 751.707 914.217 754.298 915.759C756.889 917.301 760.938 918.965 766.444 920.751C771.95 922.618 776.403 924.403 779.804 926.108C783.286 927.812 786.282 930.288 788.792 933.534C791.302 936.781 792.557 940.961 792.557 946.074C792.557 950.944 791.302 955.368 788.792 959.345C786.363 963.322 782.8 966.487 778.104 968.841C773.407 971.195 767.861 972.372 761.464 972.372Z" fill="white"/>
<path d="M815.784 896.523C812.14 896.523 809.144 895.468 806.796 893.358C804.529 891.166 803.395 888.488 803.395 885.322C803.395 882.076 804.529 879.397 806.796 877.287C809.144 875.096 812.14 874 815.784 874C819.346 874 822.261 875.096 824.528 877.287C826.876 879.397 828.051 882.076 828.051 885.322C828.051 888.488 826.876 891.166 824.528 893.358C822.261 895.468 819.346 896.523 815.784 896.523ZM826.107 903.585V971.52H805.338V903.585H826.107Z" fill="#F2FFF4"/>
<path d="M815.784 896.523C812.14 896.523 809.144 895.468 806.796 893.358C804.529 891.166 803.395 888.488 803.395 885.322C803.395 882.076 804.529 879.397 806.796 877.287C809.144 875.096 812.14 874 815.784 874C819.346 874 822.261 875.096 824.528 877.287C826.876 879.397 828.051 882.076 828.051 885.322C828.051 888.488 826.876 891.166 824.528 893.358C822.261 895.468 819.346 896.523 815.784 896.523ZM826.107 903.585V971.52H805.338V903.585H826.107Z" fill="white"/>
<path d="M866.907 902.611C871.684 902.611 875.854 903.585 879.417 905.533C883.061 907.48 885.854 910.037 887.797 913.203V903.585H908.566V971.398C908.566 977.647 907.311 983.288 904.801 988.321C902.372 993.434 898.607 997.492 893.506 1000.5C888.486 1003.5 882.21 1005 874.68 1005C864.64 1005 856.502 1002.61 850.268 997.817C844.033 993.109 840.47 986.697 839.579 978.581H860.105C860.753 981.178 862.292 983.207 864.721 984.668C867.15 986.21 870.146 986.981 873.709 986.981C878 986.981 881.401 985.723 883.911 983.207C886.502 980.772 887.797 976.836 887.797 971.398V961.78C885.773 964.945 882.98 967.542 879.417 969.572C875.854 971.52 871.684 972.493 866.907 972.493C861.32 972.493 856.259 971.073 851.725 968.232C847.191 965.31 843.587 961.212 840.915 955.936C838.324 950.579 837.029 944.41 837.029 937.43C837.029 930.45 838.324 924.322 840.915 919.046C843.587 913.771 847.191 909.713 851.725 906.872C856.259 904.031 861.32 902.611 866.907 902.611ZM887.797 937.552C887.797 932.357 886.34 928.259 883.425 925.256C880.591 922.252 877.109 920.751 872.98 920.751C868.85 920.751 865.328 922.252 862.413 925.256C859.579 928.178 858.162 932.236 858.162 937.43C858.162 942.625 859.579 946.764 862.413 949.849C865.328 952.852 868.85 954.353 872.98 954.353C877.109 954.353 880.591 952.852 883.425 949.849C886.34 946.845 887.797 942.747 887.797 937.552Z" fill="#F2FFF4"/>
<path d="M866.907 902.611C871.684 902.611 875.854 903.585 879.417 905.533C883.061 907.48 885.854 910.037 887.797 913.203V903.585H908.566V971.398C908.566 977.647 907.311 983.288 904.801 988.321C902.372 993.434 898.607 997.492 893.506 1000.5C888.486 1003.5 882.21 1005 874.68 1005C864.64 1005 856.502 1002.61 850.268 997.817C844.033 993.109 840.47 986.697 839.579 978.581H860.105C860.753 981.178 862.292 983.207 864.721 984.668C867.15 986.21 870.146 986.981 873.709 986.981C878 986.981 881.401 985.723 883.911 983.207C886.502 980.772 887.797 976.836 887.797 971.398V961.78C885.773 964.945 882.98 967.542 879.417 969.572C875.854 971.52 871.684 972.493 866.907 972.493C861.32 972.493 856.259 971.073 851.725 968.232C847.191 965.31 843.587 961.212 840.915 955.936C838.324 950.579 837.029 944.41 837.029 937.43C837.029 930.45 838.324 924.322 840.915 919.046C843.587 913.771 847.191 909.713 851.725 906.872C856.259 904.031 861.32 902.611 866.907 902.611ZM887.797 937.552C887.797 932.357 886.34 928.259 883.425 925.256C880.591 922.252 877.109 920.751 872.98 920.751C868.85 920.751 865.328 922.252 862.413 925.256C859.579 928.178 858.162 932.236 858.162 937.43C858.162 942.625 859.579 946.764 862.413 949.849C865.328 952.852 868.85 954.353 872.98 954.353C877.109 954.353 880.591 952.852 883.425 949.849C886.34 946.845 887.797 942.747 887.797 937.552Z" fill="white"/>
<path d="M964.887 902.854C972.822 902.854 979.138 905.451 983.834 910.646C988.611 915.759 991 922.821 991 931.83V971.52H970.352V934.63C970.352 930.085 969.178 926.554 966.83 924.038C964.482 921.522 961.324 920.264 957.357 920.264C953.389 920.264 950.231 921.522 947.883 924.038C945.535 926.554 944.361 930.085 944.361 934.63V971.52H923.592V903.585H944.361V912.594C946.466 909.591 949.3 907.237 952.863 905.533C956.426 903.747 960.434 902.854 964.887 902.854Z" fill="#F2FFF4"/>
<path d="M964.887 902.854C972.822 902.854 979.138 905.451 983.834 910.646C988.611 915.759 991 922.821 991 931.83V971.52H970.352V934.63C970.352 930.085 969.178 926.554 966.83 924.038C964.482 921.522 961.324 920.264 957.357 920.264C953.389 920.264 950.231 921.522 947.883 924.038C945.535 926.554 944.361 930.085 944.361 934.63V971.52H923.592V903.585H944.361V912.594C946.466 909.591 949.3 907.237 952.863 905.533C956.426 903.747 960.434 902.854 964.887 902.854Z" fill="white"/>
<path d="M1045.6 876.303C1045.58 875.011 1045.83 873.729 1046.31 872.53C1046.78 871.343 1047.51 870.274 1048.44 869.399C1049.34 868.497 1050.41 867.773 1051.58 867.263C1052.77 866.759 1054.05 866.493 1055.35 866.48C1056.62 866.486 1057.88 866.752 1059.05 867.263C1060.25 867.755 1061.34 868.481 1062.25 869.399C1063.16 870.278 1063.87 871.348 1064.32 872.53C1064.82 873.725 1065.09 875.006 1065.1 876.303V915.309C1065.13 917.965 1064.11 920.524 1062.25 922.427C1061.32 923.357 1060.21 924.089 1058.98 924.579C1057.76 925.068 1056.45 925.305 1055.13 925.274C1053.82 925.313 1052.5 925.08 1051.28 924.591C1050.05 924.101 1048.94 923.364 1048.02 922.427C1047.09 921.494 1046.35 920.382 1045.86 919.159C1045.37 917.936 1045.14 916.626 1045.17 915.309L1045.6 876.303Z" fill="#F2FFF4"/>
<path d="M1045.6 876.303C1045.58 875.011 1045.83 873.729 1046.31 872.53C1046.78 871.343 1047.51 870.274 1048.44 869.399C1049.34 868.497 1050.41 867.773 1051.58 867.263C1052.77 866.759 1054.05 866.493 1055.35 866.48C1056.62 866.486 1057.88 866.752 1059.05 867.263C1060.25 867.755 1061.34 868.481 1062.25 869.399C1063.16 870.278 1063.87 871.348 1064.32 872.53C1064.82 873.725 1065.09 875.006 1065.1 876.303V915.309C1065.13 917.965 1064.11 920.524 1062.25 922.427C1061.32 923.357 1060.21 924.089 1058.98 924.579C1057.76 925.068 1056.45 925.305 1055.13 925.274C1053.82 925.313 1052.5 925.08 1051.28 924.591C1050.05 924.101 1048.94 923.364 1048.02 922.427C1047.09 921.494 1046.35 920.382 1045.86 919.159C1045.37 917.936 1045.14 916.626 1045.17 915.309L1045.6 876.303Z" fill="white"/>
<path d="M1067.95 871.96V907.549C1067.91 910.065 1068.6 912.539 1069.94 914.667C1071.18 916.724 1072.98 918.38 1075.14 919.436V919.436C1078.73 921.264 1082.71 922.215 1086.74 922.212H1122.33C1125.34 922.222 1128.27 921.184 1130.61 919.275C1132.94 917.367 1134.55 914.707 1135.14 911.749L1142.9 872.743C1143.36 870.874 1143.36 868.919 1142.9 867.049C1142.45 865.165 1141.58 863.41 1140.34 861.924C1139.14 860.418 1137.6 859.222 1135.85 858.436C1134.12 857.586 1132.22 857.148 1130.3 857.155H1107.17V830.677C1107.15 827.235 1105.77 823.94 1103.33 821.512C1100.89 819.085 1097.58 817.722 1094.14 817.722C1092.42 817.706 1090.75 818.371 1089.51 819.573C1088.33 820.831 1087.65 822.475 1087.59 824.2V828.542C1087.61 834.166 1085.79 839.642 1082.4 844.13L1073.29 856.301C1069.92 860.803 1068.1 866.27 1068.09 871.889L1067.95 871.96Z" fill="#F2FFF4"/>
<path d="M1067.95 871.96V907.549C1067.91 910.065 1068.6 912.539 1069.94 914.667C1071.18 916.724 1072.98 918.38 1075.14 919.436V919.436C1078.73 921.264 1082.71 922.215 1086.74 922.212H1122.33C1125.34 922.222 1128.27 921.184 1130.61 919.275C1132.94 917.367 1134.55 914.707 1135.14 911.749L1142.9 872.743C1143.36 870.874 1143.36 868.919 1142.9 867.049C1142.45 865.165 1141.58 863.41 1140.34 861.924C1139.14 860.418 1137.6 859.222 1135.85 858.436C1134.12 857.586 1132.22 857.148 1130.3 857.155H1107.17V830.677C1107.15 827.235 1105.77 823.94 1103.33 821.512C1100.89 819.085 1097.58 817.722 1094.14 817.722C1092.42 817.706 1090.75 818.371 1089.51 819.573C1088.33 820.831 1087.65 822.475 1087.59 824.2V828.542C1087.61 834.166 1085.79 839.642 1082.4 844.13L1073.29 856.301C1069.92 860.803 1068.1 866.27 1068.09 871.889L1067.95 871.96Z" fill="white"/>
<path d="M1250.63 989.038C1250.63 991.707 1249.57 994.266 1247.69 996.154C1245.8 998.041 1243.24 999.101 1240.57 999.101C1237.9 999.11 1235.32 998.069 1233.41 996.203C1231.53 994.284 1230.47 991.72 1230.43 989.038V948.785C1230.47 946.104 1231.53 943.539 1233.41 941.62C1235.32 939.754 1237.9 938.714 1240.57 938.722C1243.24 938.722 1245.8 939.782 1247.69 941.67C1249.57 943.557 1250.63 946.116 1250.63 948.785V989.038Z" fill="#F2FFF4"/>
<path d="M1250.63 989.038C1250.63 991.707 1249.57 994.266 1247.69 996.154C1245.8 998.041 1243.24 999.101 1240.57 999.101C1237.9 999.11 1235.32 998.069 1233.41 996.203C1231.53 994.284 1230.47 991.72 1230.43 989.038V948.785C1230.47 946.104 1231.53 943.539 1233.41 941.62C1235.32 939.754 1237.9 938.714 1240.57 938.722C1243.24 938.722 1245.8 939.782 1247.69 941.67C1249.57 943.557 1250.63 946.116 1250.63 948.785V989.038Z" fill="white"/>
<path d="M1223.75 990.165V953.696C1223.74 951.195 1223.04 948.745 1221.73 946.612C1220.44 944.476 1218.57 942.747 1216.34 941.62H1215.94C1212.21 939.763 1208.11 938.798 1203.94 938.803H1167.55C1164.45 938.812 1161.44 939.89 1159.04 941.854C1156.64 943.818 1154.98 946.55 1154.35 949.59L1146.3 989.843C1145.9 991.781 1145.9 993.781 1146.3 995.72C1146.77 997.67 1147.68 999.487 1148.96 1001.03C1150.25 1002.55 1151.84 1003.78 1153.63 1004.66C1155.41 1005.52 1157.36 1005.96 1159.34 1005.94H1183.49V1032.83C1183.48 1034.6 1183.83 1036.35 1184.5 1037.98C1185.18 1039.61 1186.18 1041.09 1187.44 1042.33C1188.67 1043.6 1190.15 1044.6 1191.78 1045.28C1193.42 1045.96 1195.17 1046.3 1196.94 1046.28C1197.82 1046.29 1198.69 1046.12 1199.51 1045.79C1200.32 1045.46 1201.07 1044.97 1201.69 1044.34C1202.31 1043.72 1202.8 1042.98 1203.13 1042.16C1203.47 1041.35 1203.63 1040.48 1203.62 1039.59V1035.09C1203.66 1029.28 1205.55 1023.64 1209.01 1018.99L1218.43 1006.51C1221.9 1001.85 1223.79 996.21 1223.83 990.406L1223.75 990.165Z" fill="#F2FFF4"/>
<path d="M1223.75 990.165V953.696C1223.74 951.195 1223.04 948.745 1221.73 946.612C1220.44 944.476 1218.57 942.747 1216.34 941.62H1215.94C1212.21 939.763 1208.11 938.798 1203.94 938.803H1167.55C1164.45 938.812 1161.44 939.89 1159.04 941.854C1156.64 943.818 1154.98 946.55 1154.35 949.59L1146.3 989.843C1145.9 991.781 1145.9 993.781 1146.3 995.72C1146.77 997.67 1147.68 999.487 1148.96 1001.03C1150.25 1002.55 1151.84 1003.78 1153.63 1004.66C1155.41 1005.52 1157.36 1005.96 1159.34 1005.94H1183.49V1032.83C1183.48 1034.6 1183.83 1036.35 1184.5 1037.98C1185.18 1039.61 1186.18 1041.09 1187.44 1042.33C1188.67 1043.6 1190.15 1044.6 1191.78 1045.28C1193.42 1045.96 1195.17 1046.3 1196.94 1046.28C1197.82 1046.29 1198.69 1046.12 1199.51 1045.79C1200.32 1045.46 1201.07 1044.97 1201.69 1044.34C1202.31 1043.72 1202.8 1042.98 1203.13 1042.16C1203.47 1041.35 1203.63 1040.48 1203.62 1039.59V1035.09C1203.66 1029.28 1205.55 1023.64 1209.01 1018.99L1218.43 1006.51C1221.9 1001.85 1223.79 996.21 1223.83 990.406L1223.75 990.165Z" fill="white"/>
<line x1="1071.7" y1="1012.31" x2="1233.04" y2="850.98" stroke="#F2FFF4"/>
<line x1="1071.7" y1="1012.31" x2="1233.04" y2="850.98" stroke="white"/>
<path d="M1485.02 492.815C1485.01 491.473 1485.26 490.142 1485.76 488.897C1486.25 487.663 1487.01 486.553 1487.98 485.643C1488.91 484.707 1490.02 483.955 1491.23 483.425C1492.47 482.902 1493.8 482.626 1495.15 482.612C1496.47 482.618 1497.78 482.895 1498.99 483.425C1500.24 483.936 1501.37 484.69 1502.32 485.643C1503.27 486.557 1504 487.668 1504.47 488.897C1504.99 490.137 1505.26 491.469 1505.28 492.815V533.332C1505.31 536.091 1504.25 538.749 1502.32 540.725C1501.35 541.692 1500.2 542.453 1498.93 542.961C1497.66 543.469 1496.3 543.715 1494.93 543.683C1493.56 543.724 1492.2 543.482 1490.92 542.973C1489.65 542.464 1488.5 541.699 1487.53 540.725C1486.57 539.757 1485.81 538.602 1485.3 537.331C1484.79 536.061 1484.54 534.7 1484.58 533.332L1485.02 492.815Z" fill="#7EE58E"/>
<path d="M1508.24 488.304V525.272C1508.19 527.885 1508.91 530.454 1510.31 532.666C1511.59 534.802 1513.47 536.522 1515.7 537.619C1519.44 539.518 1523.57 540.506 1527.76 540.503H1564.72C1567.86 540.513 1570.9 539.434 1573.32 537.452C1575.75 535.47 1577.42 532.707 1578.03 529.634L1586.09 489.118C1586.57 487.175 1586.57 485.145 1586.09 483.203C1585.63 481.246 1584.72 479.423 1583.43 477.879C1582.19 476.315 1580.59 475.073 1578.77 474.257C1576.98 473.373 1575 472.918 1573 472.926H1548.98V445.422C1548.96 441.846 1547.52 438.424 1544.99 435.902C1542.45 433.381 1539.02 431.965 1535.45 431.966C1533.65 431.948 1531.93 432.639 1530.64 433.888C1529.41 435.195 1528.7 436.903 1528.64 438.694V443.204C1528.66 449.046 1526.77 454.734 1523.25 459.396L1513.78 472.039C1510.29 476.715 1508.4 482.393 1508.38 488.23L1508.24 488.304Z" fill="#7EE58E"/>
<path d="M1156.84 492.815C1156.83 491.473 1157.08 490.142 1157.58 488.897C1158.07 487.663 1158.83 486.553 1159.79 485.643C1160.73 484.707 1161.83 483.955 1163.05 483.425C1164.29 482.902 1165.62 482.626 1166.97 482.612C1168.29 482.618 1169.6 482.895 1170.81 483.425C1172.06 483.936 1173.19 484.69 1174.14 485.643C1175.08 486.557 1175.82 487.668 1176.28 488.897C1176.81 490.137 1177.08 491.469 1177.1 492.815V533.332C1177.13 536.091 1176.06 538.749 1174.14 540.725C1173.17 541.692 1172.02 542.453 1170.74 542.961C1169.47 543.469 1168.11 543.715 1166.74 543.683C1165.38 543.724 1164.01 543.482 1162.74 542.973C1161.47 542.464 1160.31 541.699 1159.35 540.725C1158.38 539.757 1157.62 538.602 1157.12 537.331C1156.61 536.061 1156.36 534.7 1156.39 533.332L1156.84 492.815Z" fill="#7EE58E"/>
<path d="M1180.05 488.304V525.272C1180.01 527.885 1180.73 530.454 1182.12 532.666C1183.41 534.802 1185.28 536.522 1187.52 537.619C1191.26 539.518 1195.39 540.506 1199.57 540.503H1236.54C1239.67 540.513 1242.71 539.434 1245.14 537.452C1247.57 535.47 1249.23 532.707 1249.85 529.634L1257.91 489.118C1258.39 487.175 1258.39 485.145 1257.91 483.203C1257.45 481.246 1256.54 479.423 1255.25 477.879C1254.01 476.315 1252.41 475.073 1250.59 474.257C1248.8 473.373 1246.82 472.918 1244.82 472.926H1220.79V445.422C1220.77 441.846 1219.34 438.424 1216.8 435.902C1214.27 433.381 1210.84 431.965 1207.26 431.966C1205.47 431.948 1203.74 432.639 1202.46 433.888C1201.23 435.195 1200.52 436.903 1200.46 438.694V443.204C1200.48 449.046 1198.59 454.734 1195.06 459.396L1185.6 472.039C1182.11 476.715 1180.21 482.393 1180.2 488.23L1180.05 488.304Z" fill="#7EE58E"/>
<path d="M130.394 492.815C130.382 491.473 130.634 490.142 131.134 488.897C131.626 487.663 132.384 486.553 133.352 485.643C134.288 484.707 135.391 483.955 136.605 483.425C137.846 482.902 139.177 482.626 140.523 482.612C141.847 482.618 143.155 482.895 144.368 483.425C145.613 483.936 146.744 484.69 147.695 485.643C148.64 486.557 149.372 487.668 149.839 488.897C150.363 490.137 150.639 491.469 150.652 492.815V533.332C150.684 536.091 149.62 538.749 147.695 540.725C146.726 541.692 145.572 542.453 144.301 542.961C143.03 543.469 141.67 543.715 140.302 543.683C138.932 543.724 137.569 543.482 136.297 542.973C135.025 542.464 133.871 541.699 132.908 540.725C131.941 539.757 131.181 538.602 130.672 537.331C130.164 536.061 129.918 534.7 129.951 533.332L130.394 492.815Z" fill="#004BE2"/>
<path d="M153.611 488.304V525.272C153.569 527.885 154.288 530.454 155.681 532.666C156.966 534.802 158.84 536.522 161.079 537.619C164.812 539.518 168.942 540.506 173.13 540.503H210.098C213.232 540.513 216.271 539.434 218.699 537.452C221.126 535.47 222.79 532.707 223.406 529.634L231.465 489.118C231.947 487.175 231.947 485.145 231.465 483.203C231.004 481.246 230.092 479.423 228.803 477.879C227.564 476.315 225.967 475.073 224.145 474.257C222.352 473.373 220.378 472.918 218.379 472.926H194.35V445.422C194.33 441.846 192.896 438.424 190.361 435.902C187.825 433.381 184.395 431.965 180.819 431.966C179.027 431.948 177.3 432.639 176.014 433.888C174.788 435.195 174.078 436.903 174.017 438.694V443.204C174.039 449.046 172.143 454.734 168.62 459.396L159.156 472.039C155.662 476.715 153.77 482.393 153.759 488.23L153.611 488.304Z" fill="#004BE2"/>
<path d="M1698 609.917C1698 612.689 1696.9 615.348 1694.94 617.308C1692.98 619.269 1690.32 620.37 1687.55 620.37C1684.77 620.379 1682.1 619.298 1680.11 617.359C1678.16 615.367 1677.05 612.703 1677.01 609.917V568.105C1677.05 565.32 1678.16 562.655 1680.11 560.663C1682.1 558.724 1684.77 557.643 1687.55 557.652C1690.32 557.652 1692.98 558.754 1694.94 560.714C1696.9 562.674 1698 565.333 1698 568.105V609.917Z" fill="#E8B53F"/>
<path d="M1670.07 611.088V573.206C1670.06 570.608 1669.34 568.063 1667.98 565.847C1666.63 563.629 1664.69 561.833 1662.38 560.663H1661.96C1658.09 558.733 1653.82 557.731 1649.5 557.736H1611.7C1608.48 557.746 1605.35 558.865 1602.86 560.905C1600.36 562.946 1598.64 565.783 1597.99 568.941L1589.63 610.753C1589.21 612.767 1589.21 614.844 1589.63 616.858C1590.11 618.883 1591.06 620.771 1592.39 622.377C1593.73 623.947 1595.38 625.228 1597.24 626.14C1599.09 627.036 1601.12 627.494 1603.17 627.478H1628.26V655.408C1628.25 657.243 1628.6 659.062 1629.31 660.757C1630.01 662.452 1631.05 663.989 1632.36 665.275C1633.64 666.592 1635.17 667.634 1636.87 668.338C1638.57 669.043 1640.39 669.395 1642.22 669.373C1643.14 669.384 1644.05 669.212 1644.89 668.868C1645.74 668.523 1646.51 668.012 1647.16 667.365C1647.8 666.718 1648.32 665.949 1648.66 665.102C1649 664.254 1649.18 663.347 1649.17 662.432V657.749C1649.21 651.721 1651.17 645.862 1654.77 641.025L1664.55 628.063C1668.15 623.226 1670.11 617.367 1670.16 611.338L1670.07 611.088Z" fill="#E8B53F"/>
<path d="M1369.82 609.917C1369.82 612.689 1368.72 615.348 1366.76 617.308C1364.8 619.269 1362.14 620.37 1359.37 620.37C1356.59 620.379 1353.91 619.298 1351.92 617.359C1349.98 615.367 1348.87 612.703 1348.83 609.917V568.105C1348.87 565.32 1349.98 562.655 1351.92 560.663C1353.91 558.724 1356.59 557.643 1359.37 557.652C1362.14 557.652 1364.8 558.754 1366.76 560.714C1368.72 562.674 1369.82 565.333 1369.82 568.105V609.917Z" fill="#E8B53F"/>
<path d="M1341.89 611.088V573.206C1341.88 570.608 1341.15 568.063 1339.8 565.847C1338.45 563.629 1336.51 561.833 1334.2 560.663H1333.78C1329.91 558.733 1325.64 557.731 1321.32 557.736H1283.52C1280.29 557.746 1277.17 558.865 1274.67 560.905C1272.18 562.946 1270.46 565.783 1269.81 568.941L1261.44 610.753C1261.03 612.767 1261.03 614.844 1261.44 616.858C1261.93 618.883 1262.88 620.771 1264.2 622.377C1265.55 623.947 1267.2 625.228 1269.05 626.14C1270.9 627.036 1272.93 627.494 1274.99 627.478H1300.08V655.408C1300.07 657.243 1300.42 659.062 1301.13 660.757C1301.83 662.452 1302.87 663.989 1304.17 665.275C1305.46 666.592 1306.99 667.634 1308.69 668.338C1310.38 669.043 1312.21 669.395 1314.04 669.373C1314.96 669.384 1315.86 669.212 1316.71 668.868C1317.56 668.523 1318.33 668.012 1318.98 667.365C1319.62 666.718 1320.13 665.949 1320.48 665.102C1320.82 664.254 1320.99 663.347 1320.98 662.432V657.749C1321.02 651.721 1322.99 645.862 1326.59 641.025L1336.37 628.063C1339.97 623.226 1341.93 617.367 1341.97 611.338L1341.89 611.088Z" fill="#E8B53F"/>
<path d="M828.655 499.798C828.643 498.456 828.894 497.125 829.394 495.879C829.887 494.646 830.644 493.536 831.612 492.626C832.548 491.69 833.652 490.937 834.865 490.408C836.106 489.885 837.437 489.608 838.784 489.595C840.108 489.6 841.416 489.877 842.629 490.408C843.874 490.919 845.005 491.673 845.956 492.626C846.901 493.54 847.633 494.651 848.1 495.879C848.623 497.12 848.9 498.451 848.913 499.798V540.315C848.945 543.073 847.881 545.732 845.956 547.708C844.987 548.675 843.833 549.435 842.562 549.944C841.291 550.452 839.931 550.698 838.562 550.665C837.193 550.706 835.83 550.465 834.558 549.956C833.286 549.447 832.132 548.682 831.169 547.708C830.202 546.739 829.441 545.585 828.933 544.314C828.425 543.043 828.179 541.683 828.211 540.315L828.655 499.798Z" fill="#7EE58E"/>
<path d="M851.872 495.287V532.255C851.829 534.868 852.549 537.437 853.942 539.648C855.226 541.785 857.101 543.505 859.339 544.602C863.073 546.5 867.202 547.488 871.391 547.485H908.359C911.492 547.495 914.532 546.417 916.959 544.435C919.387 542.453 921.05 539.689 921.667 536.617L929.726 496.1C930.208 494.158 930.208 492.128 929.726 490.185C929.264 488.228 928.353 486.406 927.064 484.862C925.825 483.298 924.227 482.055 922.406 481.239C920.613 480.356 918.639 479.9 916.639 479.908H892.61V452.404C892.591 448.829 891.157 445.406 888.621 442.885C886.086 440.364 882.656 438.948 879.08 438.948C877.287 438.931 875.56 439.621 874.274 440.87C873.049 442.178 872.339 443.885 872.278 445.676V450.186C872.3 456.029 870.404 461.717 866.881 466.378L857.417 479.021C853.923 483.697 852.03 489.376 852.02 495.213L851.872 495.287Z" fill="#7EE58E"/>
<path d="M1034.65 602.934C1034.65 605.707 1033.55 608.365 1031.59 610.326C1029.63 612.286 1026.97 613.387 1024.2 613.387C1021.42 613.396 1018.75 612.315 1016.76 610.377C1014.81 608.384 1013.7 605.72 1013.66 602.934V561.123C1013.7 558.337 1014.81 555.673 1016.76 553.68C1018.75 551.742 1021.42 550.661 1024.2 550.67C1026.97 550.67 1029.63 551.771 1031.59 553.731C1033.55 555.692 1034.65 558.35 1034.65 561.123V602.934Z" fill="#E8B53F"/>
<path d="M1006.72 604.105V566.224C1006.71 563.626 1005.99 561.081 1004.63 558.865C1003.29 556.647 1001.35 554.851 999.03 553.68H998.612C994.742 551.75 990.476 550.748 986.152 550.753H948.354C945.129 550.763 942.006 551.882 939.509 553.923C937.012 555.963 935.293 558.801 934.64 561.959L926.278 603.771C925.861 605.784 925.861 607.862 926.278 609.875C926.766 611.9 927.71 613.788 929.037 615.394C930.381 616.965 932.032 618.245 933.887 619.157C935.737 620.053 937.769 620.511 939.825 620.495H964.912V648.425C964.9 650.261 965.256 652.08 965.96 653.775C966.664 655.47 967.701 657.006 969.009 658.293C970.29 659.609 971.826 660.651 973.522 661.356C975.218 662.06 977.04 662.412 978.877 662.39C979.791 662.402 980.699 662.23 981.546 661.885C982.393 661.54 983.163 661.029 983.81 660.383C984.456 659.736 984.967 658.966 985.312 658.119C985.657 657.272 985.829 656.364 985.818 655.45V650.767C985.859 644.738 987.822 638.879 991.42 634.042L1001.2 621.081C1004.8 616.243 1006.77 610.385 1006.81 604.356L1006.72 604.105Z" fill="#E8B53F"/>
<path d="M343.375 602.934C343.375 605.707 342.274 608.365 340.314 610.326C338.353 612.286 335.695 613.387 332.922 613.387C330.143 613.396 327.471 612.315 325.48 610.377C323.533 608.384 322.425 605.72 322.386 602.934V561.123C322.425 558.337 323.533 555.673 325.48 553.68C327.471 551.741 330.143 550.661 332.922 550.67C335.695 550.67 338.353 551.771 340.314 553.731C342.274 555.692 343.375 558.35 343.375 561.123V602.934Z" fill="#004BE2"/>
<path d="M315.446 604.105V566.223C315.434 563.626 314.711 561.08 313.355 558.865C312.009 556.647 310.068 554.851 307.752 553.68H307.334C303.464 551.75 299.198 550.748 294.874 550.753H257.076C253.852 550.763 250.728 551.882 248.231 553.923C245.734 555.963 244.015 558.801 243.362 561.959L235 603.77C234.583 605.784 234.583 607.861 235 609.875C235.488 611.9 236.432 613.788 237.759 615.394C239.104 616.965 240.754 618.245 242.609 619.157C244.46 620.053 246.491 620.511 248.547 620.495H273.634V648.425C273.622 650.261 273.978 652.08 274.682 653.774C275.386 655.469 276.423 657.006 277.731 658.293C279.012 659.609 280.548 660.651 282.244 661.356C283.94 662.06 285.762 662.412 287.599 662.39C288.514 662.402 289.421 662.23 290.268 661.885C291.115 661.54 291.885 661.029 292.532 660.382C293.179 659.736 293.689 658.966 294.034 658.119C294.379 657.272 294.551 656.364 294.54 655.45V650.767C294.581 644.738 296.544 638.879 300.142 634.042L309.926 621.08C313.525 616.243 315.487 610.385 315.529 604.356L315.446 604.105Z" fill="#004BE2"/>
<line x1="1512.33" y1="634.284" x2="1679.91" y2="466.701" stroke="white" stroke-width="0.5"/>
<line x1="1183.97" y1="634.107" x2="1351.55" y2="466.525" stroke="#004BE2"/>
<rect x="465.113" y="418" width="251.374" height="251.374" rx="4" fill="#004BE2"/>
<path d="M486.507 485.833C486.496 484.491 486.747 483.159 487.247 481.914C487.74 480.681 488.497 479.57 489.465 478.661C490.401 477.724 491.504 476.972 492.718 476.443C493.959 475.92 495.29 475.643 496.637 475.63C497.96 475.635 499.269 475.912 500.481 476.443C501.727 476.954 502.858 477.708 503.808 478.661C504.753 479.575 505.485 480.685 505.952 481.914C506.476 483.155 506.752 484.486 506.766 485.833V526.349C506.797 529.108 505.734 531.767 503.808 533.743C502.84 534.71 501.685 535.47 500.414 535.979C499.144 536.487 497.783 536.732 496.415 536.7C495.045 536.741 493.682 536.5 492.41 535.991C491.138 535.482 489.985 534.717 489.021 533.743C488.054 532.774 487.294 531.62 486.786 530.349C486.277 529.078 486.032 527.718 486.064 526.349L486.507 485.833Z" fill="#F2FFF4"/>
<path d="M486.507 485.833C486.496 484.491 486.747 483.159 487.247 481.914C487.74 480.681 488.497 479.57 489.465 478.661C490.401 477.724 491.504 476.972 492.718 476.443C493.959 475.92 495.29 475.643 496.637 475.63C497.96 475.635 499.269 475.912 500.481 476.443C501.727 476.954 502.858 477.708 503.808 478.661C504.753 479.575 505.485 480.685 505.952 481.914C506.476 483.155 506.752 484.486 506.766 485.833V526.349C506.797 529.108 505.734 531.767 503.808 533.743C502.84 534.71 501.685 535.47 500.414 535.979C499.144 536.487 497.783 536.732 496.415 536.7C495.045 536.741 493.682 536.5 492.41 535.991C491.138 535.482 489.985 534.717 489.021 533.743C488.054 532.774 487.294 531.62 486.786 530.349C486.277 529.078 486.032 527.718 486.064 526.349L486.507 485.833Z" fill="white"/>
<path d="M509.724 481.322V518.289C509.682 520.903 510.401 523.472 511.795 525.683C513.079 527.82 514.953 529.54 517.192 530.637C520.925 532.535 525.055 533.523 529.243 533.52H566.211C569.345 533.53 572.385 532.452 574.812 530.47C577.239 528.487 578.903 525.724 579.519 522.652L587.578 482.135C588.061 480.193 588.061 478.162 587.578 476.22C587.117 474.263 586.206 472.44 584.917 470.897C583.678 469.333 582.08 468.09 580.259 467.274C578.465 466.391 576.491 465.935 574.492 465.943H550.463V438.439C550.443 434.864 549.009 431.441 546.474 428.92C543.939 426.398 540.508 424.983 536.933 424.983C535.14 424.965 533.413 425.656 532.127 426.905C530.901 428.212 530.192 429.92 530.131 431.711V436.221C530.152 442.064 528.256 447.752 524.733 452.413L515.27 465.056C511.776 469.732 509.883 475.411 509.872 481.248L509.724 481.322Z" fill="#F2FFF4"/>
<path d="M509.724 481.322V518.289C509.682 520.903 510.401 523.472 511.795 525.683C513.079 527.82 514.953 529.54 517.192 530.637C520.925 532.535 525.055 533.523 529.243 533.52H566.211C569.345 533.53 572.385 532.452 574.812 530.47C577.239 528.487 578.903 525.724 579.519 522.652L587.578 482.135C588.061 480.193 588.061 478.162 587.578 476.22C587.117 474.263 586.206 472.44 584.917 470.897C583.678 469.333 582.08 468.09 580.259 467.274C578.465 466.391 576.491 465.935 574.492 465.943H550.463V438.439C550.443 434.864 549.009 431.441 546.474 428.92C543.939 426.398 540.508 424.983 536.933 424.983C535.14 424.965 533.413 425.656 532.127 426.905C530.901 428.212 530.192 429.92 530.131 431.711V436.221C530.152 442.064 528.256 447.752 524.733 452.413L515.27 465.056C511.776 469.732 509.883 475.411 509.872 481.248L509.724 481.322Z" fill="white"/>
<path d="M699.488 602.934C699.488 605.707 698.387 608.365 696.427 610.326C694.467 612.286 691.808 613.387 689.036 613.387C686.256 613.396 683.584 612.315 681.593 610.377C679.646 608.384 678.539 605.72 678.499 602.934V561.123C678.539 558.337 679.646 555.673 681.593 553.68C683.584 551.741 686.256 550.661 689.036 550.67C691.808 550.67 694.467 551.771 696.427 553.731C698.387 555.692 699.488 558.35 699.488 561.123V602.934Z" fill="#F2FFF4"/>
<path d="M699.488 602.934C699.488 605.707 698.387 608.365 696.427 610.326C694.467 612.286 691.808 613.387 689.036 613.387C686.256 613.396 683.584 612.315 681.593 610.377C679.646 608.384 678.539 605.72 678.499 602.934V561.123C678.539 558.337 679.646 555.673 681.593 553.68C683.584 551.741 686.256 550.661 689.036 550.67C691.808 550.67 694.467 551.771 696.427 553.731C698.387 555.692 699.488 558.35 699.488 561.123V602.934Z" fill="white"/>
<path d="M671.559 604.105V566.223C671.547 563.626 670.824 561.08 669.468 558.865C668.122 556.647 666.181 554.851 663.865 553.68H663.447C659.578 551.75 655.312 550.748 650.987 550.753H613.19C609.965 550.763 606.842 551.882 604.345 553.923C601.847 555.963 600.128 558.801 599.475 561.959L591.113 603.77C590.696 605.784 590.696 607.861 591.113 609.875C591.602 611.9 592.545 613.788 593.873 615.394C595.217 616.965 596.867 618.245 598.723 619.157C600.573 620.053 602.604 620.511 604.66 620.495H629.747V648.425C629.735 650.261 630.091 652.08 630.795 653.774C631.499 655.469 632.536 657.006 633.845 658.293C635.126 659.609 636.661 660.651 638.357 661.356C640.054 662.06 641.876 662.412 643.712 662.39C644.627 662.402 645.534 662.23 646.382 661.885C647.229 661.54 647.998 661.029 648.645 660.382C649.292 659.736 649.803 658.966 650.147 658.119C650.492 657.272 650.664 656.364 650.653 655.45V650.767C650.695 644.738 652.657 638.879 656.256 634.042L666.04 621.08C669.638 616.243 671.601 610.385 671.642 604.356L671.559 604.105Z" fill="#F2FFF4"/>
<path d="M671.559 604.105V566.223C671.547 563.626 670.824 561.08 669.468 558.865C668.122 556.647 666.181 554.851 663.865 553.68H663.447C659.578 551.75 655.312 550.748 650.987 550.753H613.19C609.965 550.763 606.842 551.882 604.345 553.923C601.847 555.963 600.128 558.801 599.475 561.959L591.113 603.77C590.696 605.784 590.696 607.861 591.113 609.875C591.602 611.9 592.545 613.788 593.873 615.394C595.217 616.965 596.867 618.245 598.723 619.157C600.573 620.053 602.604 620.511 604.66 620.495H629.747V648.425C629.735 650.261 630.091 652.08 630.795 653.774C631.499 655.469 632.536 657.006 633.845 658.293C635.126 659.609 636.661 660.651 638.357 661.356C640.054 662.06 641.876 662.412 643.712 662.39C644.627 662.402 645.534 662.23 646.382 661.885C647.229 661.54 647.998 661.029 648.645 660.382C649.292 659.736 649.803 658.966 650.147 658.119C650.492 657.272 650.664 656.364 650.653 655.45V650.767C650.695 644.738 652.657 638.879 656.256 634.042L666.04 621.08C669.638 616.243 671.601 610.385 671.642 604.356L671.559 604.105Z" fill="white"/>
<line x1="513.638" y1="627.125" x2="681.221" y2="459.542" stroke="#F2FFF4"/>
<line x1="513.638" y1="627.125" x2="681.221" y2="459.542" stroke="white"/>
<rect x="661" y="1" width="226" height="174" fill="#08105B"/>
<rect x="937" y="1" width="226" height="173" fill="#7EE68E"/>
<rect x="1213" y="1" width="226" height="174" fill="#F7E7C6"/>
<rect x="1488" width="227" height="174" fill="#F2C55B"/>
<rect x="109" y="1" width="227" height="174" fill="#E3F0F3"/>
<rect x="385" y="1" width="226" height="174" fill="#004BE2"/>
<path d="M120.235 310.252C118.387 310.252 116.731 309.952 115.267 309.352C113.803 308.752 112.627 307.864 111.739 306.688C110.875 305.512 110.419 304.096 110.371 302.44H116.923C117.019 303.376 117.343 304.096 117.895 304.6C118.447 305.08 119.167 305.32 120.055 305.32C120.967 305.32 121.687 305.116 122.215 304.708C122.743 304.276 123.007 303.688 123.007 302.944C123.007 302.32 122.791 301.804 122.359 301.396C121.951 300.988 121.435 300.652 120.811 300.388C120.211 300.124 119.347 299.824 118.219 299.488C116.587 298.984 115.255 298.48 114.223 297.976C113.191 297.472 112.303 296.728 111.559 295.744C110.815 294.76 110.443 293.476 110.443 291.892C110.443 289.54 111.295 287.704 112.999 286.384C114.703 285.04 116.923 284.368 119.659 284.368C122.443 284.368 124.687 285.04 126.391 286.384C128.095 287.704 129.007 289.552 129.127 291.928H122.467C122.419 291.112 122.119 290.476 121.567 290.02C121.015 289.54 120.307 289.3 119.443 289.3C118.699 289.3 118.099 289.504 117.643 289.912C117.187 290.296 116.959 290.86 116.959 291.604C116.959 292.42 117.343 293.056 118.111 293.512C118.879 293.968 120.079 294.46 121.711 294.988C123.343 295.54 124.663 296.068 125.671 296.572C126.703 297.076 127.591 297.808 128.335 298.768C129.079 299.728 129.451 300.964 129.451 302.476C129.451 303.916 129.079 305.224 128.335 306.4C127.615 307.576 126.559 308.512 125.167 309.208C123.775 309.904 122.131 310.252 120.235 310.252ZM153.076 289.912V310H146.92V307.264C146.296 308.152 145.444 308.872 144.364 309.424C143.308 309.952 142.132 310.216 140.836 310.216C139.3 310.216 137.944 309.88 136.768 309.208C135.592 308.512 134.68 307.516 134.032 306.22C133.384 304.924 133.06 303.4 133.06 301.648V289.912H139.18V300.82C139.18 302.164 139.528 303.208 140.224 303.952C140.92 304.696 141.856 305.068 143.032 305.068C144.232 305.068 145.18 304.696 145.876 303.952C146.572 303.208 146.92 302.164 146.92 300.82V289.912H153.076ZM163.654 293.26C164.374 292.156 165.274 291.292 166.354 290.668C167.434 290.02 168.634 289.696 169.954 289.696V296.212H168.262C166.726 296.212 165.574 296.548 164.806 297.22C164.038 297.868 163.654 299.02 163.654 300.676V310H157.498V289.912H163.654V293.26ZM181.932 304.24L186.288 289.912H192.84L185.712 310H178.116L170.988 289.912H177.576L181.932 304.24ZM214.367 299.632C214.367 300.208 214.331 300.808 214.259 301.432H200.327C200.423 302.68 200.819 303.64 201.515 304.312C202.235 304.96 203.111 305.284 204.143 305.284C205.679 305.284 206.747 304.636 207.347 303.34H213.899C213.563 304.66 212.951 305.848 212.063 306.904C211.199 307.96 210.107 308.788 208.787 309.388C207.467 309.988 205.991 310.288 204.359 310.288C202.391 310.288 200.639 309.868 199.103 309.028C197.567 308.188 196.367 306.988 195.503 305.428C194.639 303.868 194.207 302.044 194.207 299.956C194.207 297.868 194.627 296.044 195.467 294.484C196.331 292.924 197.531 291.724 199.067 290.884C200.603 290.044 202.367 289.624 204.359 289.624C206.303 289.624 208.031 290.032 209.543 290.848C211.055 291.664 212.231 292.828 213.071 294.34C213.935 295.852 214.367 297.616 214.367 299.632ZM208.067 298.012C208.067 296.956 207.707 296.116 206.987 295.492C206.267 294.868 205.367 294.556 204.287 294.556C203.255 294.556 202.379 294.856 201.659 295.456C200.963 296.056 200.531 296.908 200.363 298.012H208.067ZM238.135 289.912L225.535 319.54H218.911L223.519 309.316L215.347 289.912H222.223L226.867 302.476L231.475 289.912H238.135ZM265.99 314.32L262.75 309.964C261.79 310.156 260.854 310.252 259.942 310.252C257.566 310.252 255.382 309.7 253.39 308.596C251.422 307.492 249.85 305.956 248.674 303.988C247.522 301.996 246.946 299.764 246.946 297.292C246.946 294.82 247.522 292.6 248.674 290.632C249.85 288.664 251.422 287.128 253.39 286.024C255.382 284.92 257.566 284.368 259.942 284.368C262.318 284.368 264.49 284.92 266.458 286.024C268.45 287.128 270.01 288.664 271.138 290.632C272.29 292.6 272.866 294.82 272.866 297.292C272.866 299.452 272.422 301.432 271.534 303.232C270.67 305.008 269.458 306.484 267.898 307.66L273.442 314.32H265.99ZM253.246 297.292C253.246 299.524 253.846 301.312 255.046 302.656C256.27 303.976 257.902 304.636 259.942 304.636C261.958 304.636 263.566 303.964 264.766 302.62C265.99 301.276 266.602 299.5 266.602 297.292C266.602 295.06 265.99 293.284 264.766 291.964C263.566 290.62 261.958 289.948 259.942 289.948C257.902 289.948 256.27 290.608 255.046 291.928C253.846 293.248 253.246 295.036 253.246 297.292ZM296.197 289.912V310H290.041V307.264C289.417 308.152 288.565 308.872 287.485 309.424C286.429 309.952 285.253 310.216 283.957 310.216C282.421 310.216 281.065 309.88 279.889 309.208C278.713 308.512 277.801 307.516 277.153 306.22C276.505 304.924 276.181 303.4 276.181 301.648V289.912H282.301V300.82C282.301 302.164 282.649 303.208 283.345 303.952C284.041 304.696 284.977 305.068 286.153 305.068C287.353 305.068 288.301 304.696 288.997 303.952C289.693 303.208 290.041 302.164 290.041 300.82V289.912H296.197ZM319.555 299.632C319.555 300.208 319.519 300.808 319.447 301.432H305.515C305.611 302.68 306.007 303.64 306.703 304.312C307.423 304.96 308.299 305.284 309.331 305.284C310.867 305.284 311.935 304.636 312.535 303.34H319.087C318.751 304.66 318.139 305.848 317.251 306.904C316.387 307.96 315.295 308.788 313.975 309.388C312.655 309.988 311.179 310.288 309.547 310.288C307.579 310.288 305.827 309.868 304.291 309.028C302.755 308.188 301.555 306.988 300.691 305.428C299.827 303.868 299.395 302.044 299.395 299.956C299.395 297.868 299.815 296.044 300.655 294.484C301.519 292.924 302.719 291.724 304.255 290.884C305.791 290.044 307.555 289.624 309.547 289.624C311.491 289.624 313.219 290.032 314.731 290.848C316.243 291.664 317.419 292.828 318.259 294.34C319.123 295.852 319.555 297.616 319.555 299.632ZM313.255 298.012C313.255 296.956 312.895 296.116 312.175 295.492C311.455 294.868 310.555 294.556 309.475 294.556C308.443 294.556 307.567 294.856 306.847 295.456C306.151 296.056 305.719 296.908 305.551 298.012H313.255ZM330.974 310.288C329.222 310.288 327.662 309.988 326.294 309.388C324.926 308.788 323.846 307.972 323.054 306.94C322.262 305.884 321.818 304.708 321.722 303.412H327.806C327.878 304.108 328.202 304.672 328.778 305.104C329.354 305.536 330.062 305.752 330.902 305.752C331.67 305.752 332.258 305.608 332.666 305.32C333.098 305.008 333.314 304.612 333.314 304.132C333.314 303.556 333.014 303.136 332.414 302.872C331.814 302.584 330.842 302.272 329.498 301.936C328.058 301.6 326.858 301.252 325.898 300.892C324.938 300.508 324.11 299.92 323.414 299.128C322.718 298.312 322.37 297.22 322.37 295.852C322.37 294.7 322.682 293.656 323.306 292.72C323.954 291.76 324.89 291.004 326.114 290.452C327.362 289.9 328.838 289.624 330.542 289.624C333.062 289.624 335.042 290.248 336.482 291.496C337.946 292.744 338.786 294.4 339.002 296.464H333.314C333.218 295.768 332.906 295.216 332.378 294.808C331.874 294.4 331.202 294.196 330.362 294.196C329.642 294.196 329.09 294.34 328.706 294.628C328.322 294.892 328.13 295.264 328.13 295.744C328.13 296.32 328.43 296.752 329.03 297.04C329.654 297.328 330.614 297.616 331.91 297.904C333.398 298.288 334.61 298.672 335.546 299.056C336.482 299.416 337.298 300.016 337.994 300.856C338.714 301.672 339.086 302.776 339.11 304.168C339.11 305.344 338.774 306.4 338.102 307.336C337.454 308.248 336.506 308.968 335.258 309.496C334.034 310.024 332.606 310.288 330.974 310.288ZM354.073 304.78V310H350.941C348.709 310 346.969 309.46 345.721 308.38C344.473 307.276 343.849 305.488 343.849 303.016V295.024H341.401V289.912H343.849V285.016H350.005V289.912H354.037V295.024H350.005V303.088C350.005 303.688 350.149 304.12 350.437 304.384C350.725 304.648 351.205 304.78 351.877 304.78H354.073ZM360.598 287.824C359.518 287.824 358.63 287.512 357.934 286.888C357.262 286.24 356.926 285.448 356.926 284.512C356.926 283.552 357.262 282.76 357.934 282.136C358.63 281.488 359.518 281.164 360.598 281.164C361.654 281.164 362.518 281.488 363.19 282.136C363.886 282.76 364.234 283.552 364.234 284.512C364.234 285.448 363.886 286.24 363.19 286.888C362.518 287.512 361.654 287.824 360.598 287.824ZM363.658 289.912V310H357.502V289.912H363.658ZM377.263 310.288C375.295 310.288 373.519 309.868 371.935 309.028C370.375 308.188 369.139 306.988 368.227 305.428C367.339 303.868 366.895 302.044 366.895 299.956C366.895 297.892 367.351 296.08 368.263 294.52C369.175 292.936 370.423 291.724 372.007 290.884C373.591 290.044 375.367 289.624 377.335 289.624C379.303 289.624 381.079 290.044 382.663 290.884C384.247 291.724 385.495 292.936 386.407 294.52C387.319 296.08 387.775 297.892 387.775 299.956C387.775 302.02 387.307 303.844 386.371 305.428C385.459 306.988 384.199 308.188 382.591 309.028C381.007 309.868 379.231 310.288 377.263 310.288ZM377.263 304.96C378.439 304.96 379.435 304.528 380.251 303.664C381.091 302.8 381.511 301.564 381.511 299.956C381.511 298.348 381.103 297.112 380.287 296.248C379.495 295.384 378.511 294.952 377.335 294.952C376.135 294.952 375.139 295.384 374.347 296.248C373.555 297.088 373.159 298.324 373.159 299.956C373.159 301.564 373.543 302.8 374.311 303.664C375.103 304.528 376.087 304.96 377.263 304.96ZM403.281 289.696C405.633 289.696 407.505 290.464 408.897 292C410.313 293.512 411.021 295.6 411.021 298.264V310H404.901V299.092C404.901 297.748 404.553 296.704 403.857 295.96C403.161 295.216 402.225 294.844 401.049 294.844C399.873 294.844 398.937 295.216 398.241 295.96C397.545 296.704 397.197 297.748 397.197 299.092V310H391.041V289.912H397.197V292.576C397.821 291.688 398.661 290.992 399.717 290.488C400.773 289.96 401.961 289.696 403.281 289.696ZM423.47 310.288C421.718 310.288 420.158 309.988 418.79 309.388C417.422 308.788 416.342 307.972 415.55 306.94C414.758 305.884 414.314 304.708 414.218 303.412H420.302C420.374 304.108 420.698 304.672 421.274 305.104C421.85 305.536 422.558 305.752 423.398 305.752C424.166 305.752 424.754 305.608 425.162 305.32C425.594 305.008 425.81 304.612 425.81 304.132C425.81 303.556 425.51 303.136 424.91 302.872C424.31 302.584 423.338 302.272 421.994 301.936C420.554 301.6 419.354 301.252 418.394 300.892C417.434 300.508 416.606 299.92 415.91 299.128C415.214 298.312 414.866 297.22 414.866 295.852C414.866 294.7 415.178 293.656 415.802 292.72C416.45 291.76 417.386 291.004 418.61 290.452C419.858 289.9 421.334 289.624 423.038 289.624C425.558 289.624 427.538 290.248 428.978 291.496C430.442 292.744 431.282 294.4 431.498 296.464H425.81C425.714 295.768 425.402 295.216 424.874 294.808C424.37 294.4 423.698 294.196 422.858 294.196C422.138 294.196 421.586 294.34 421.202 294.628C420.818 294.892 420.626 295.264 420.626 295.744C420.626 296.32 420.926 296.752 421.526 297.04C422.15 297.328 423.11 297.616 424.406 297.904C425.894 298.288 427.106 298.672 428.042 299.056C428.978 299.416 429.794 300.016 430.49 300.856C431.21 301.672 431.582 302.776 431.606 304.168C431.606 305.344 431.27 306.4 430.598 307.336C429.95 308.248 429.002 308.968 427.754 309.496C426.53 310.024 425.102 310.288 423.47 310.288Z" fill="#004BE2"/>
</svg>
