<svg width="1024" height="1366" viewBox="0 0 1024 1366" fill="none" xmlns="http://www.w3.org/2000/svg">
<g clip-path="url(#clip0_502_4645)">
<rect width="1024" height="1366" fill="#08105B"/>
<path d="M0 80H1024V1366H0V80Z" fill="url(#paint0_diamond_502_4645)"/>
<path d="M285.668 329.728L279.08 355H271.628L267.596 338.368L263.42 355H255.968L249.56 329.728H256.148L259.784 348.124L264.284 329.728H271.052L275.372 348.124L279.044 329.728H285.668ZM301.103 334.696C303.407 334.696 305.255 335.464 306.647 337C308.039 338.512 308.735 340.6 308.735 343.264V355H302.615V344.092C302.615 342.748 302.267 341.704 301.571 340.96C300.875 340.216 299.939 339.844 298.763 339.844C297.587 339.844 296.651 340.216 295.955 340.96C295.259 341.704 294.911 342.748 294.911 344.092V355H288.755V328.36H294.911V337.612C295.535 336.724 296.387 336.016 297.467 335.488C298.547 334.96 299.759 334.696 301.103 334.696ZM311.789 344.92C311.789 342.856 312.173 341.044 312.941 339.484C313.733 337.924 314.801 336.724 316.145 335.884C317.489 335.044 318.989 334.624 320.645 334.624C322.061 334.624 323.297 334.912 324.353 335.488C325.433 336.064 326.261 336.82 326.837 337.756V334.912H332.993V355H326.837V352.156C326.237 353.092 325.397 353.848 324.317 354.424C323.261 355 322.025 355.288 320.609 355.288C318.977 355.288 317.489 354.868 316.145 354.028C314.801 353.164 313.733 351.952 312.941 350.392C312.173 348.808 311.789 346.984 311.789 344.92ZM326.837 344.956C326.837 343.42 326.405 342.208 325.541 341.32C324.701 340.432 323.669 339.988 322.445 339.988C321.221 339.988 320.177 340.432 319.313 341.32C318.473 342.184 318.053 343.384 318.053 344.92C318.053 346.456 318.473 347.68 319.313 348.592C320.177 349.48 321.221 349.924 322.445 349.924C323.669 349.924 324.701 349.48 325.541 348.592C326.405 347.704 326.837 346.492 326.837 344.956ZM348.643 349.78V355H345.511C343.279 355 341.539 354.46 340.291 353.38C339.043 352.276 338.419 350.488 338.419 348.016V340.024H335.971V334.912H338.419V330.016H344.575V334.912H348.607V340.024H344.575V348.088C344.575 348.688 344.719 349.12 345.007 349.384C345.295 349.648 345.775 349.78 346.447 349.78H348.643ZM370.897 349.78V355H367.765C365.533 355 363.793 354.46 362.545 353.38C361.297 352.276 360.673 350.488 360.673 348.016V340.024H358.225V334.912H360.673V330.016H366.829V334.912H370.861V340.024H366.829V348.088C366.829 348.688 366.973 349.12 367.261 349.384C367.549 349.648 368.029 349.78 368.701 349.78H370.897ZM394.846 334.912L382.246 364.54H375.622L380.23 354.316L372.058 334.912H378.934L383.578 347.476L388.186 334.912H394.846ZM403.228 337.756C403.828 336.82 404.656 336.064 405.712 335.488C406.768 334.912 408.004 334.624 409.42 334.624C411.076 334.624 412.576 335.044 413.92 335.884C415.264 336.724 416.32 337.924 417.088 339.484C417.88 341.044 418.276 342.856 418.276 344.92C418.276 346.984 417.88 348.808 417.088 350.392C416.32 351.952 415.264 353.164 413.92 354.028C412.576 354.868 411.076 355.288 409.42 355.288C408.028 355.288 406.792 355 405.712 354.424C404.656 353.848 403.828 353.104 403.228 352.192V364.576H397.072V334.912H403.228V337.756ZM412.012 344.92C412.012 343.384 411.58 342.184 410.716 341.32C409.876 340.432 408.832 339.988 407.584 339.988C406.36 339.988 405.316 340.432 404.452 341.32C403.612 342.208 403.192 343.42 403.192 344.956C403.192 346.492 403.612 347.704 404.452 348.592C405.316 349.48 406.36 349.924 407.584 349.924C408.808 349.924 409.852 349.48 410.716 348.592C411.58 347.68 412.012 346.456 412.012 344.92ZM440.441 344.632C440.441 345.208 440.405 345.808 440.333 346.432H426.401C426.497 347.68 426.893 348.64 427.589 349.312C428.309 349.96 429.185 350.284 430.217 350.284C431.753 350.284 432.821 349.636 433.421 348.34H439.973C439.637 349.66 439.025 350.848 438.137 351.904C437.273 352.96 436.181 353.788 434.861 354.388C433.541 354.988 432.065 355.288 430.433 355.288C428.465 355.288 426.713 354.868 425.177 354.028C423.641 353.188 422.441 351.988 421.577 350.428C420.713 348.868 420.281 347.044 420.281 344.956C420.281 342.868 420.701 341.044 421.541 339.484C422.405 337.924 423.605 336.724 425.141 335.884C426.677 335.044 428.441 334.624 430.433 334.624C432.377 334.624 434.105 335.032 435.617 335.848C437.129 336.664 438.305 337.828 439.145 339.34C440.009 340.852 440.441 342.616 440.441 344.632ZM434.141 343.012C434.141 341.956 433.781 341.116 433.061 340.492C432.341 339.868 431.441 339.556 430.361 339.556C429.329 339.556 428.453 339.856 427.733 340.456C427.037 341.056 426.605 341.908 426.437 343.012H434.141ZM460.462 355.288C458.494 355.288 456.718 354.868 455.134 354.028C453.574 353.188 452.338 351.988 451.426 350.428C450.538 348.868 450.094 347.044 450.094 344.956C450.094 342.892 450.55 341.08 451.462 339.52C452.374 337.936 453.622 336.724 455.206 335.884C456.79 335.044 458.566 334.624 460.534 334.624C462.502 334.624 464.278 335.044 465.862 335.884C467.446 336.724 468.694 337.936 469.606 339.52C470.518 341.08 470.974 342.892 470.974 344.956C470.974 347.02 470.506 348.844 469.57 350.428C468.658 351.988 467.398 353.188 465.79 354.028C464.206 354.868 462.43 355.288 460.462 355.288ZM460.462 349.96C461.638 349.96 462.634 349.528 463.45 348.664C464.29 347.8 464.71 346.564 464.71 344.956C464.71 343.348 464.302 342.112 463.486 341.248C462.694 340.384 461.71 339.952 460.534 339.952C459.334 339.952 458.338 340.384 457.546 341.248C456.754 342.088 456.358 343.324 456.358 344.956C456.358 346.564 456.742 347.8 457.51 348.664C458.302 349.528 459.286 349.96 460.462 349.96ZM484.32 340.024H481.008V355H474.852V340.024H472.62V334.912H474.852V334.336C474.852 331.864 475.56 329.992 476.976 328.72C478.392 327.424 480.468 326.776 483.204 326.776C483.66 326.776 483.996 326.788 484.212 326.812V332.032C483.036 331.96 482.208 332.128 481.728 332.536C481.248 332.944 481.008 333.676 481.008 334.732V334.912H484.32V340.024ZM493.617 344.92C493.617 342.856 494.001 341.044 494.769 339.484C495.561 337.924 496.629 336.724 497.973 335.884C499.317 335.044 500.817 334.624 502.473 334.624C503.889 334.624 505.125 334.912 506.181 335.488C507.261 336.064 508.089 336.82 508.665 337.756V334.912H514.821V355H508.665V352.156C508.065 353.092 507.225 353.848 506.145 354.424C505.089 355 503.853 355.288 502.437 355.288C500.805 355.288 499.317 354.868 497.973 354.028C496.629 353.164 495.561 351.952 494.769 350.392C494.001 348.808 493.617 346.984 493.617 344.92ZM508.665 344.956C508.665 343.42 508.233 342.208 507.369 341.32C506.529 340.432 505.497 339.988 504.273 339.988C503.049 339.988 502.005 340.432 501.141 341.32C500.301 342.184 499.881 343.384 499.881 344.92C499.881 346.456 500.301 347.68 501.141 348.592C502.005 349.48 503.049 349.924 504.273 349.924C505.497 349.924 506.529 349.48 507.369 348.592C508.233 347.704 508.665 346.492 508.665 344.956ZM531.515 334.696C533.867 334.696 535.739 335.464 537.131 337C538.547 338.512 539.255 340.6 539.255 343.264V355H533.135V344.092C533.135 342.748 532.787 341.704 532.091 340.96C531.395 340.216 530.459 339.844 529.283 339.844C528.107 339.844 527.171 340.216 526.475 340.96C525.779 341.704 525.431 342.748 525.431 344.092V355H519.275V334.912H525.431V337.576C526.055 336.688 526.895 335.992 527.951 335.488C529.007 334.96 530.195 334.696 531.515 334.696ZM551.705 355.288C549.953 355.288 548.393 354.988 547.025 354.388C545.657 353.788 544.577 352.972 543.785 351.94C542.993 350.884 542.549 349.708 542.453 348.412H548.537C548.609 349.108 548.933 349.672 549.509 350.104C550.085 350.536 550.793 350.752 551.633 350.752C552.401 350.752 552.989 350.608 553.397 350.32C553.829 350.008 554.045 349.612 554.045 349.132C554.045 348.556 553.745 348.136 553.145 347.872C552.545 347.584 551.573 347.272 550.229 346.936C548.789 346.6 547.589 346.252 546.629 345.892C545.669 345.508 544.841 344.92 544.145 344.128C543.449 343.312 543.101 342.22 543.101 340.852C543.101 339.7 543.413 338.656 544.037 337.72C544.685 336.76 545.621 336.004 546.845 335.452C548.093 334.9 549.569 334.624 551.273 334.624C553.793 334.624 555.773 335.248 557.213 336.496C558.677 337.744 559.517 339.4 559.733 341.464H554.045C553.949 340.768 553.637 340.216 553.109 339.808C552.605 339.4 551.933 339.196 551.093 339.196C550.373 339.196 549.821 339.34 549.437 339.628C549.053 339.892 548.861 340.264 548.861 340.744C548.861 341.32 549.161 341.752 549.761 342.04C550.385 342.328 551.345 342.616 552.641 342.904C554.129 343.288 555.341 343.672 556.277 344.056C557.213 344.416 558.029 345.016 558.725 345.856C559.445 346.672 559.817 347.776 559.841 349.168C559.841 350.344 559.505 351.4 558.833 352.336C558.185 353.248 557.237 353.968 555.989 354.496C554.765 355.024 553.337 355.288 551.705 355.288ZM592.443 334.912L587.007 355H580.203L577.035 341.968L573.759 355H566.991L561.519 334.912H567.675L570.519 349.276L573.903 334.912H580.419L583.839 349.204L586.647 334.912H592.443ZM613.727 344.632C613.727 345.208 613.691 345.808 613.619 346.432H599.687C599.783 347.68 600.179 348.64 600.875 349.312C601.595 349.96 602.471 350.284 603.503 350.284C605.039 350.284 606.107 349.636 606.707 348.34H613.259C612.923 349.66 612.311 350.848 611.423 351.904C610.559 352.96 609.467 353.788 608.147 354.388C606.827 354.988 605.351 355.288 603.719 355.288C601.751 355.288 599.999 354.868 598.463 354.028C596.927 353.188 595.727 351.988 594.863 350.428C593.999 348.868 593.567 347.044 593.567 344.956C593.567 342.868 593.987 341.044 594.827 339.484C595.691 337.924 596.891 336.724 598.427 335.884C599.963 335.044 601.727 334.624 603.719 334.624C605.663 334.624 607.391 335.032 608.903 335.848C610.415 336.664 611.591 337.828 612.431 339.34C613.295 340.852 613.727 342.616 613.727 344.632ZM607.427 343.012C607.427 341.956 607.067 341.116 606.347 340.492C605.627 339.868 604.727 339.556 603.647 339.556C602.615 339.556 601.739 339.856 601.019 340.456C600.323 341.056 599.891 341.908 599.723 343.012H607.427ZM623.13 338.26C623.85 337.156 624.75 336.292 625.83 335.668C626.91 335.02 628.11 334.696 629.43 334.696V341.212H627.738C626.202 341.212 625.05 341.548 624.282 342.22C623.514 342.868 623.13 344.02 623.13 345.676V355H616.974V334.912H623.13V338.26ZM638.778 344.92C638.778 342.856 639.162 341.044 639.93 339.484C640.722 337.924 641.79 336.724 643.134 335.884C644.478 335.044 645.978 334.624 647.634 334.624C649.05 334.624 650.286 334.912 651.342 335.488C652.422 336.064 653.25 336.82 653.826 337.756V334.912H659.982V355H653.826V352.156C653.226 353.092 652.386 353.848 651.306 354.424C650.25 355 649.014 355.288 647.598 355.288C645.966 355.288 644.478 354.868 643.134 354.028C641.79 353.164 640.722 351.952 639.93 350.392C639.162 348.808 638.778 346.984 638.778 344.92ZM653.826 344.956C653.826 343.42 653.394 342.208 652.53 341.32C651.69 340.432 650.658 339.988 649.434 339.988C648.21 339.988 647.166 340.432 646.302 341.32C645.462 342.184 645.042 343.384 645.042 344.92C645.042 346.456 645.462 347.68 646.302 348.592C647.166 349.48 648.21 349.924 649.434 349.924C650.658 349.924 651.69 349.48 652.53 348.592C653.394 347.704 653.826 346.492 653.826 344.956ZM670.591 338.26C671.311 337.156 672.211 336.292 673.291 335.668C674.371 335.02 675.571 334.696 676.891 334.696V341.212H675.199C673.663 341.212 672.511 341.548 671.743 342.22C670.975 342.868 670.591 344.02 670.591 345.676V355H664.435V334.912H670.591V338.26ZM698.77 344.632C698.77 345.208 698.734 345.808 698.662 346.432H684.73C684.826 347.68 685.222 348.64 685.918 349.312C686.638 349.96 687.514 350.284 688.546 350.284C690.082 350.284 691.15 349.636 691.75 348.34H698.302C697.966 349.66 697.354 350.848 696.466 351.904C695.602 352.96 694.51 353.788 693.19 354.388C691.87 354.988 690.394 355.288 688.762 355.288C686.794 355.288 685.042 354.868 683.506 354.028C681.97 353.188 680.77 351.988 679.906 350.428C679.042 348.868 678.61 347.044 678.61 344.956C678.61 342.868 679.03 341.044 679.87 339.484C680.734 337.924 681.934 336.724 683.47 335.884C685.006 335.044 686.77 334.624 688.762 334.624C690.706 334.624 692.434 335.032 693.946 335.848C695.458 336.664 696.634 337.828 697.474 339.34C698.338 340.852 698.77 342.616 698.77 344.632ZM692.47 343.012C692.47 341.956 692.11 341.116 691.39 340.492C690.67 339.868 689.77 339.556 688.69 339.556C687.658 339.556 686.782 339.856 686.062 340.456C685.366 341.056 684.934 341.908 684.766 343.012H692.47ZM730.166 334.912L717.566 364.54H710.942L715.55 354.316L707.378 334.912H714.254L718.898 347.476L723.506 334.912H730.166ZM741.536 355.288C739.568 355.288 737.792 354.868 736.208 354.028C734.648 353.188 733.412 351.988 732.5 350.428C731.612 348.868 731.168 347.044 731.168 344.956C731.168 342.892 731.624 341.08 732.536 339.52C733.448 337.936 734.696 336.724 736.28 335.884C737.864 335.044 739.64 334.624 741.608 334.624C743.576 334.624 745.352 335.044 746.936 335.884C748.52 336.724 749.768 337.936 750.68 339.52C751.592 341.08 752.048 342.892 752.048 344.956C752.048 347.02 751.58 348.844 750.644 350.428C749.732 351.988 748.472 353.188 746.864 354.028C745.28 354.868 743.504 355.288 741.536 355.288ZM741.536 349.96C742.712 349.96 743.708 349.528 744.524 348.664C745.364 347.8 745.784 346.564 745.784 344.956C745.784 343.348 745.376 342.112 744.56 341.248C743.768 340.384 742.784 339.952 741.608 339.952C740.408 339.952 739.412 340.384 738.62 341.248C737.828 342.088 737.432 343.324 737.432 344.956C737.432 346.564 737.816 347.8 738.584 348.664C739.376 349.528 740.36 349.96 741.536 349.96ZM775.15 334.912V355H768.994V352.264C768.37 353.152 767.518 353.872 766.438 354.424C765.382 354.952 764.206 355.216 762.91 355.216C761.374 355.216 760.018 354.88 758.842 354.208C757.666 353.512 756.754 352.516 756.106 351.22C755.458 349.924 755.134 348.4 755.134 346.648V334.912H761.254V345.82C761.254 347.164 761.602 348.208 762.298 348.952C762.994 349.696 763.93 350.068 765.106 350.068C766.306 350.068 767.254 349.696 767.95 348.952C768.646 348.208 768.994 347.164 768.994 345.82V334.912H775.15ZM413.23 382.36V409H407.074V382.36H413.23ZM426.835 409.288C424.867 409.288 423.091 408.868 421.507 408.028C419.947 407.188 418.711 405.988 417.799 404.428C416.911 402.868 416.467 401.044 416.467 398.956C416.467 396.892 416.923 395.08 417.835 393.52C418.747 391.936 419.995 390.724 421.579 389.884C423.163 389.044 424.939 388.624 426.907 388.624C428.875 388.624 430.651 389.044 432.235 389.884C433.819 390.724 435.067 391.936 435.979 393.52C436.891 395.08 437.347 396.892 437.347 398.956C437.347 401.02 436.879 402.844 435.943 404.428C435.031 405.988 433.771 407.188 432.163 408.028C430.579 408.868 428.803 409.288 426.835 409.288ZM426.835 403.96C428.011 403.96 429.007 403.528 429.823 402.664C430.663 401.8 431.083 400.564 431.083 398.956C431.083 397.348 430.675 396.112 429.859 395.248C429.067 394.384 428.083 393.952 426.907 393.952C425.707 393.952 424.711 394.384 423.919 395.248C423.127 396.088 422.731 397.324 422.731 398.956C422.731 400.564 423.115 401.8 423.883 402.664C424.675 403.528 425.659 403.96 426.835 403.96ZM449.757 409.288C447.789 409.288 446.013 408.868 444.429 408.028C442.869 407.188 441.633 405.988 440.721 404.428C439.833 402.868 439.389 401.044 439.389 398.956C439.389 396.892 439.845 395.08 440.757 393.52C441.669 391.936 442.917 390.724 444.501 389.884C446.085 389.044 447.861 388.624 449.829 388.624C451.797 388.624 453.573 389.044 455.157 389.884C456.741 390.724 457.989 391.936 458.901 393.52C459.813 395.08 460.269 396.892 460.269 398.956C460.269 401.02 459.801 402.844 458.865 404.428C457.953 405.988 456.693 407.188 455.085 408.028C453.501 408.868 451.725 409.288 449.757 409.288ZM449.757 403.96C450.933 403.96 451.929 403.528 452.745 402.664C453.585 401.8 454.005 400.564 454.005 398.956C454.005 397.348 453.597 396.112 452.781 395.248C451.989 394.384 451.005 393.952 449.829 393.952C448.629 393.952 447.633 394.384 446.841 395.248C446.049 396.088 445.653 397.324 445.653 398.956C445.653 400.564 446.037 401.8 446.805 402.664C447.597 403.528 448.581 403.96 449.757 403.96ZM475.811 409L469.691 400.576V409H463.535V382.36H469.691V397.084L475.775 388.912H483.371L475.019 398.992L483.443 409H475.811ZM488.885 386.824C487.805 386.824 486.917 386.512 486.221 385.888C485.549 385.24 485.213 384.448 485.213 383.512C485.213 382.552 485.549 381.76 486.221 381.136C486.917 380.488 487.805 380.164 488.885 380.164C489.941 380.164 490.805 380.488 491.477 381.136C492.173 381.76 492.521 382.552 492.521 383.512C492.521 384.448 492.173 385.24 491.477 385.888C490.805 386.512 489.941 386.824 488.885 386.824ZM491.945 388.912V409H485.789V388.912H491.945ZM508.646 388.696C510.998 388.696 512.87 389.464 514.262 391C515.678 392.512 516.386 394.6 516.386 397.264V409H510.266V398.092C510.266 396.748 509.918 395.704 509.222 394.96C508.526 394.216 507.59 393.844 506.414 393.844C505.238 393.844 504.302 394.216 503.606 394.96C502.91 395.704 502.562 396.748 502.562 398.092V409H496.406V388.912H502.562V391.576C503.186 390.688 504.026 389.992 505.082 389.488C506.138 388.96 507.326 388.696 508.646 388.696ZM528.296 388.624C529.712 388.624 530.948 388.912 532.004 389.488C533.084 390.064 533.912 390.82 534.488 391.756V388.912H540.644V408.964C540.644 410.812 540.272 412.48 539.528 413.968C538.808 415.48 537.692 416.68 536.18 417.568C534.692 418.456 532.832 418.9 530.6 418.9C527.624 418.9 525.212 418.192 523.364 416.776C521.516 415.384 520.46 413.488 520.196 411.088H526.28C526.472 411.856 526.928 412.456 527.648 412.888C528.368 413.344 529.256 413.572 530.312 413.572C531.584 413.572 532.592 413.2 533.336 412.456C534.104 411.736 534.488 410.572 534.488 408.964V406.12C533.888 407.056 533.06 407.824 532.004 408.424C530.948 409 529.712 409.288 528.296 409.288C526.64 409.288 525.14 408.868 523.796 408.028C522.452 407.164 521.384 405.952 520.592 404.392C519.824 402.808 519.44 400.984 519.44 398.92C519.44 396.856 519.824 395.044 520.592 393.484C521.384 391.924 522.452 390.724 523.796 389.884C525.14 389.044 526.64 388.624 528.296 388.624ZM534.488 398.956C534.488 397.42 534.056 396.208 533.192 395.32C532.352 394.432 531.32 393.988 530.096 393.988C528.872 393.988 527.828 394.432 526.964 395.32C526.124 396.184 525.704 397.384 525.704 398.92C525.704 400.456 526.124 401.68 526.964 402.592C527.828 403.48 528.872 403.924 530.096 403.924C531.32 403.924 532.352 403.48 533.192 402.592C534.056 401.704 534.488 400.492 534.488 398.956ZM562.806 394.024H559.494V409H553.338V394.024H551.106V388.912H553.338V388.336C553.338 385.864 554.046 383.992 555.462 382.72C556.878 381.424 558.954 380.776 561.69 380.776C562.146 380.776 562.482 380.788 562.698 380.812V386.032C561.522 385.96 560.694 386.128 560.214 386.536C559.734 386.944 559.494 387.676 559.494 388.732V388.912H562.806V394.024ZM574.843 409.288C572.875 409.288 571.099 408.868 569.515 408.028C567.955 407.188 566.719 405.988 565.807 404.428C564.919 402.868 564.475 401.044 564.475 398.956C564.475 396.892 564.931 395.08 565.843 393.52C566.755 391.936 568.003 390.724 569.587 389.884C571.171 389.044 572.947 388.624 574.915 388.624C576.883 388.624 578.659 389.044 580.243 389.884C581.827 390.724 583.075 391.936 583.987 393.52C584.899 395.08 585.355 396.892 585.355 398.956C585.355 401.02 584.887 402.844 583.951 404.428C583.039 405.988 581.779 407.188 580.171 408.028C578.587 408.868 576.811 409.288 574.843 409.288ZM574.843 403.96C576.019 403.96 577.015 403.528 577.831 402.664C578.671 401.8 579.091 400.564 579.091 398.956C579.091 397.348 578.683 396.112 577.867 395.248C577.075 394.384 576.091 393.952 574.915 393.952C573.715 393.952 572.719 394.384 571.927 395.248C571.135 396.088 570.739 397.324 570.739 398.956C570.739 400.564 571.123 401.8 571.891 402.664C572.683 403.528 573.667 403.96 574.843 403.96ZM594.777 392.26C595.497 391.156 596.397 390.292 597.477 389.668C598.557 389.02 599.757 388.696 601.077 388.696V395.212H599.385C597.849 395.212 596.697 395.548 595.929 396.22C595.161 396.868 594.777 398.02 594.777 399.676V409H588.621V388.912H594.777V392.26ZM611.399 382.324C613.967 382.324 616.019 382.996 617.555 384.34C619.115 385.684 619.895 387.58 619.895 390.028C619.895 392.284 619.151 394.048 617.663 395.32C616.199 396.568 614.255 397.204 611.831 397.228L611.651 399.928H606.251L606.071 393.232H608.231C610.079 393.232 611.483 393.004 612.443 392.548C613.427 392.092 613.919 391.264 613.919 390.064C613.919 389.224 613.691 388.564 613.235 388.084C612.779 387.604 612.143 387.364 611.327 387.364C610.463 387.364 609.791 387.616 609.311 388.12C608.831 388.6 608.591 389.26 608.591 390.1H602.795C602.747 388.636 603.047 387.316 603.695 386.14C604.367 384.964 605.351 384.04 606.647 383.368C607.967 382.672 609.551 382.324 611.399 382.324ZM609.023 409.288C607.943 409.288 607.055 408.976 606.359 408.352C605.687 407.704 605.351 406.912 605.351 405.976C605.351 405.016 605.687 404.212 606.359 403.564C607.055 402.916 607.943 402.592 609.023 402.592C610.079 402.592 610.943 402.916 611.615 403.564C612.311 404.212 612.659 405.016 612.659 405.976C612.659 406.912 612.311 407.704 611.615 408.352C610.943 408.976 610.079 409.288 609.023 409.288Z" fill="white"/>
<rect x="247" y="497" width="533" height="240" rx="4" fill="#09115C"/>
<path d="M335.695 624.77C335.677 622.68 336.068 620.607 336.847 618.667C337.614 616.746 338.794 615.017 340.301 613.6C341.759 612.142 343.478 610.97 345.368 610.146C347.3 609.331 349.373 608.901 351.471 608.879C353.532 608.888 355.57 609.319 357.459 610.146C359.398 610.942 361.16 612.116 362.64 613.6C364.112 615.023 365.252 616.753 365.98 618.667C366.795 620.6 367.225 622.673 367.246 624.77V687.872C367.295 692.169 365.639 696.31 362.64 699.388C361.132 700.893 359.334 702.078 357.355 702.869C355.375 703.661 353.256 704.043 351.125 703.993C348.993 704.057 346.87 703.681 344.889 702.888C342.908 702.096 341.111 700.904 339.61 699.388C338.105 697.879 336.92 696.081 336.128 694.102C335.337 692.122 334.954 690.003 335.004 687.872L335.695 624.77Z" fill="#7EE58E"/>
<path d="M371.856 617.745V675.32C371.79 679.39 372.91 683.391 375.08 686.835C377.08 690.163 379.999 692.842 383.486 694.55C389.301 697.507 395.732 699.046 402.256 699.041H459.831C464.711 699.056 469.446 697.377 473.226 694.29C477.006 691.203 479.597 686.899 480.558 682.114L493.109 619.012C493.86 615.987 493.86 612.824 493.109 609.8C492.39 606.751 490.971 603.913 488.964 601.509C487.034 599.072 484.545 597.137 481.709 595.866C478.916 594.491 475.841 593.781 472.727 593.794H435.304V550.958C435.273 545.389 433.04 540.059 429.091 536.132C425.142 532.205 419.8 530 414.231 530.001C411.439 529.973 408.749 531.049 406.746 532.994C404.837 535.03 403.732 537.69 403.637 540.479V547.503C403.671 556.603 400.718 565.462 395.231 572.721L380.492 592.412C375.051 599.695 372.103 608.539 372.086 617.63L371.856 617.745Z" fill="#7EE58E"/>
<path d="M688.345 611.75C688.345 615.797 686.737 619.679 683.875 622.541C681.013 625.403 677.132 627.01 673.085 627.01C669.028 627.023 665.127 625.446 662.22 622.615C659.377 619.706 657.76 615.817 657.703 611.75V550.71C657.76 546.643 659.377 542.754 662.22 539.844C665.127 537.014 669.028 535.436 673.085 535.45C677.132 535.45 681.013 537.057 683.875 539.919C686.737 542.781 688.345 546.662 688.345 550.71V611.75Z" fill="#E8B53F"/>
<path d="M647.571 613.459V558.156C647.554 554.364 646.499 550.648 644.519 547.413C642.553 544.175 639.72 541.553 636.34 539.844H635.729C630.08 537.027 623.852 535.564 617.539 535.571H562.358C557.65 535.586 553.091 537.22 549.445 540.199C545.8 543.177 543.29 547.32 542.337 551.93L530.129 612.971C529.52 615.91 529.52 618.943 530.129 621.883C530.842 624.84 532.22 627.595 534.158 629.94C536.12 632.233 538.529 634.102 541.238 635.434C543.939 636.742 546.905 637.41 549.906 637.387H586.53V678.162C586.513 680.841 587.033 683.497 588.061 685.971C589.088 688.446 590.602 690.689 592.512 692.568C594.382 694.489 596.624 696.01 599.1 697.039C601.577 698.067 604.237 698.581 606.918 698.55C608.253 698.566 609.578 698.315 610.815 697.812C612.052 697.308 613.175 696.562 614.119 695.618C615.064 694.674 615.809 693.551 616.313 692.314C616.816 691.077 617.067 689.752 617.051 688.417V681.58C617.111 672.779 619.977 664.226 625.23 657.164L639.514 638.242C644.767 631.18 647.632 622.627 647.693 613.825L647.571 613.459Z" fill="#E8B53F"/>
<rect x="247" y="802" width="540" height="240" rx="4" fill="#08105B"/>
<path d="M102.507 161.36C102.279 160.94 101.949 160.622 101.517 160.406C101.097 160.178 100.599 160.064 100.023 160.064C99.0269 160.064 98.2289 160.394 97.6289 161.054C97.0289 161.702 96.7289 162.572 96.7289 163.664C96.7289 164.828 97.0409 165.74 97.6649 166.4C98.3009 167.048 99.1709 167.372 100.275 167.372C101.031 167.372 101.667 167.18 102.183 166.796C102.711 166.412 103.095 165.86 103.335 165.14H99.4289V162.872H106.125V165.734C105.897 166.502 105.507 167.216 104.955 167.876C104.415 168.536 103.725 169.07 102.885 169.478C102.045 169.886 101.097 170.09 100.041 170.09C98.7929 170.09 97.6769 169.82 96.6929 169.28C95.7209 168.728 94.9589 167.966 94.4069 166.994C93.8669 166.022 93.5969 164.912 93.5969 163.664C93.5969 162.416 93.8669 161.306 94.4069 160.334C94.9589 159.35 95.7209 158.588 96.6929 158.048C97.6649 157.496 98.7749 157.22 100.023 157.22C101.535 157.22 102.807 157.586 103.839 158.318C104.883 159.05 105.573 160.064 105.909 161.36H102.507ZM109.378 158.912C108.838 158.912 108.394 158.756 108.046 158.444C107.71 158.12 107.542 157.724 107.542 157.256C107.542 156.776 107.71 156.38 108.046 156.068C108.394 155.744 108.838 155.582 109.378 155.582C109.906 155.582 110.338 155.744 110.674 156.068C111.022 156.38 111.196 156.776 111.196 157.256C111.196 157.724 111.022 158.12 110.674 158.444C110.338 158.756 109.906 158.912 109.378 158.912ZM110.908 159.956V170H107.83V159.956H110.908ZM117.656 167.12L119.834 159.956H123.11L119.546 170H115.748L112.184 159.956H115.478L117.656 167.12ZM133.874 164.816C133.874 165.104 133.856 165.404 133.82 165.716H126.854C126.902 166.34 127.1 166.82 127.448 167.156C127.808 167.48 128.246 167.642 128.762 167.642C129.53 167.642 130.064 167.318 130.364 166.67H133.64C133.472 167.33 133.166 167.924 132.722 168.452C132.29 168.98 131.744 169.394 131.084 169.694C130.424 169.994 129.686 170.144 128.87 170.144C127.886 170.144 127.01 169.934 126.242 169.514C125.474 169.094 124.874 168.494 124.442 167.714C124.01 166.934 123.794 166.022 123.794 164.978C123.794 163.934 124.004 163.022 124.424 162.242C124.856 161.462 125.456 160.862 126.224 160.442C126.992 160.022 127.874 159.812 128.87 159.812C129.842 159.812 130.706 160.016 131.462 160.424C132.218 160.832 132.806 161.414 133.226 162.17C133.658 162.926 133.874 163.808 133.874 164.816ZM130.724 164.006C130.724 163.478 130.544 163.058 130.184 162.746C129.824 162.434 129.374 162.278 128.834 162.278C128.318 162.278 127.88 162.428 127.52 162.728C127.172 163.028 126.956 163.454 126.872 164.006H130.724ZM149.808 157.364V170H146.73V162.422L143.904 170H141.42L138.576 162.404V170H135.498V157.364H139.134L142.68 166.112L146.19 157.364H149.808ZM161.489 164.816C161.489 165.104 161.471 165.404 161.435 165.716H154.469C154.517 166.34 154.715 166.82 155.063 167.156C155.423 167.48 155.861 167.642 156.377 167.642C157.145 167.642 157.679 167.318 157.979 166.67H161.255C161.087 167.33 160.781 167.924 160.337 168.452C159.905 168.98 159.359 169.394 158.699 169.694C158.039 169.994 157.301 170.144 156.485 170.144C155.501 170.144 154.625 169.934 153.857 169.514C153.089 169.094 152.489 168.494 152.057 167.714C151.625 166.934 151.409 166.022 151.409 164.978C151.409 163.934 151.619 163.022 152.039 162.242C152.471 161.462 153.071 160.862 153.839 160.442C154.607 160.022 155.489 159.812 156.485 159.812C157.457 159.812 158.321 160.016 159.077 160.424C159.833 160.832 160.421 161.414 160.841 162.17C161.273 162.926 161.489 163.808 161.489 164.816ZM158.339 164.006C158.339 163.478 158.159 163.058 157.799 162.746C157.439 162.434 156.989 162.278 156.449 162.278C155.933 162.278 155.495 162.428 155.135 162.728C154.787 163.028 154.571 163.454 154.487 164.006H158.339ZM170.979 167.768H166.263L165.507 170H162.285L166.857 157.364H170.421L174.993 170H171.735L170.979 167.768ZM170.187 165.392L168.621 160.766L167.073 165.392H170.187ZM180.957 170.126C180.033 170.126 179.205 169.976 178.473 169.676C177.741 169.376 177.153 168.932 176.709 168.344C176.277 167.756 176.049 167.048 176.025 166.22H179.301C179.349 166.688 179.511 167.048 179.787 167.3C180.063 167.54 180.423 167.66 180.867 167.66C181.323 167.66 181.683 167.558 181.947 167.354C182.211 167.138 182.343 166.844 182.343 166.472C182.343 166.16 182.235 165.902 182.019 165.698C181.815 165.494 181.557 165.326 181.245 165.194C180.945 165.062 180.513 164.912 179.949 164.744C179.133 164.492 178.467 164.24 177.951 163.988C177.435 163.736 176.991 163.364 176.619 162.872C176.247 162.38 176.061 161.738 176.061 160.946C176.061 159.77 176.487 158.852 177.339 158.192C178.191 157.52 179.301 157.184 180.669 157.184C182.061 157.184 183.183 157.52 184.035 158.192C184.887 158.852 185.343 159.776 185.403 160.964H182.073C182.049 160.556 181.899 160.238 181.623 160.01C181.347 159.77 180.993 159.65 180.561 159.65C180.189 159.65 179.889 159.752 179.661 159.956C179.433 160.148 179.319 160.43 179.319 160.802C179.319 161.21 179.511 161.528 179.895 161.756C180.279 161.984 180.879 162.23 181.695 162.494C182.511 162.77 183.171 163.034 183.675 163.286C184.191 163.538 184.635 163.904 185.007 164.384C185.379 164.864 185.565 165.482 185.565 166.238C185.565 166.958 185.379 167.612 185.007 168.2C184.647 168.788 184.119 169.256 183.423 169.604C182.727 169.952 181.905 170.126 180.957 170.126ZM189.007 158.912C188.467 158.912 188.023 158.756 187.675 158.444C187.339 158.12 187.171 157.724 187.171 157.256C187.171 156.776 187.339 156.38 187.675 156.068C188.023 155.744 188.467 155.582 189.007 155.582C189.535 155.582 189.967 155.744 190.303 156.068C190.651 156.38 190.825 156.776 190.825 157.256C190.825 157.724 190.651 158.12 190.303 158.444C189.967 158.756 189.535 158.912 189.007 158.912ZM190.537 159.956V170H187.459V159.956H190.537ZM196.583 159.812C197.291 159.812 197.909 159.956 198.437 160.244C198.977 160.532 199.391 160.91 199.679 161.378V159.956H202.757V169.982C202.757 170.906 202.571 171.74 202.199 172.484C201.839 173.24 201.281 173.84 200.525 174.284C199.781 174.728 198.851 174.95 197.735 174.95C196.247 174.95 195.041 174.596 194.117 173.888C193.193 173.192 192.665 172.244 192.533 171.044H195.575C195.671 171.428 195.899 171.728 196.259 171.944C196.619 172.172 197.063 172.286 197.591 172.286C198.227 172.286 198.731 172.1 199.103 171.728C199.487 171.368 199.679 170.786 199.679 169.982V168.56C199.379 169.028 198.965 169.412 198.437 169.712C197.909 170 197.291 170.144 196.583 170.144C195.755 170.144 195.005 169.934 194.333 169.514C193.661 169.082 193.127 168.476 192.731 167.696C192.347 166.904 192.155 165.992 192.155 164.96C192.155 163.928 192.347 163.022 192.731 162.242C193.127 161.462 193.661 160.862 194.333 160.442C195.005 160.022 195.755 159.812 196.583 159.812ZM199.679 164.978C199.679 164.21 199.463 163.604 199.031 163.16C198.611 162.716 198.095 162.494 197.483 162.494C196.871 162.494 196.349 162.716 195.917 163.16C195.497 163.592 195.287 164.192 195.287 164.96C195.287 165.728 195.497 166.34 195.917 166.796C196.349 167.24 196.871 167.462 197.483 167.462C198.095 167.462 198.611 167.24 199.031 166.796C199.463 166.352 199.679 165.746 199.679 164.978ZM211.104 159.848C212.28 159.848 213.216 160.232 213.912 161C214.62 161.756 214.974 162.8 214.974 164.132V170H211.914V164.546C211.914 163.874 211.74 163.352 211.392 162.98C211.044 162.608 210.576 162.422 209.988 162.422C209.4 162.422 208.932 162.608 208.584 162.98C208.236 163.352 208.062 163.874 208.062 164.546V170H204.984V159.956H208.062V161.288C208.374 160.844 208.794 160.496 209.322 160.244C209.85 159.98 210.444 159.848 211.104 159.848Z" fill="#F2FFF4"/>
<path d="M102.507 161.36C102.279 160.94 101.949 160.622 101.517 160.406C101.097 160.178 100.599 160.064 100.023 160.064C99.0269 160.064 98.2289 160.394 97.6289 161.054C97.0289 161.702 96.7289 162.572 96.7289 163.664C96.7289 164.828 97.0409 165.74 97.6649 166.4C98.3009 167.048 99.1709 167.372 100.275 167.372C101.031 167.372 101.667 167.18 102.183 166.796C102.711 166.412 103.095 165.86 103.335 165.14H99.4289V162.872H106.125V165.734C105.897 166.502 105.507 167.216 104.955 167.876C104.415 168.536 103.725 169.07 102.885 169.478C102.045 169.886 101.097 170.09 100.041 170.09C98.7929 170.09 97.6769 169.82 96.6929 169.28C95.7209 168.728 94.9589 167.966 94.4069 166.994C93.8669 166.022 93.5969 164.912 93.5969 163.664C93.5969 162.416 93.8669 161.306 94.4069 160.334C94.9589 159.35 95.7209 158.588 96.6929 158.048C97.6649 157.496 98.7749 157.22 100.023 157.22C101.535 157.22 102.807 157.586 103.839 158.318C104.883 159.05 105.573 160.064 105.909 161.36H102.507ZM109.378 158.912C108.838 158.912 108.394 158.756 108.046 158.444C107.71 158.12 107.542 157.724 107.542 157.256C107.542 156.776 107.71 156.38 108.046 156.068C108.394 155.744 108.838 155.582 109.378 155.582C109.906 155.582 110.338 155.744 110.674 156.068C111.022 156.38 111.196 156.776 111.196 157.256C111.196 157.724 111.022 158.12 110.674 158.444C110.338 158.756 109.906 158.912 109.378 158.912ZM110.908 159.956V170H107.83V159.956H110.908ZM117.656 167.12L119.834 159.956H123.11L119.546 170H115.748L112.184 159.956H115.478L117.656 167.12ZM133.874 164.816C133.874 165.104 133.856 165.404 133.82 165.716H126.854C126.902 166.34 127.1 166.82 127.448 167.156C127.808 167.48 128.246 167.642 128.762 167.642C129.53 167.642 130.064 167.318 130.364 166.67H133.64C133.472 167.33 133.166 167.924 132.722 168.452C132.29 168.98 131.744 169.394 131.084 169.694C130.424 169.994 129.686 170.144 128.87 170.144C127.886 170.144 127.01 169.934 126.242 169.514C125.474 169.094 124.874 168.494 124.442 167.714C124.01 166.934 123.794 166.022 123.794 164.978C123.794 163.934 124.004 163.022 124.424 162.242C124.856 161.462 125.456 160.862 126.224 160.442C126.992 160.022 127.874 159.812 128.87 159.812C129.842 159.812 130.706 160.016 131.462 160.424C132.218 160.832 132.806 161.414 133.226 162.17C133.658 162.926 133.874 163.808 133.874 164.816ZM130.724 164.006C130.724 163.478 130.544 163.058 130.184 162.746C129.824 162.434 129.374 162.278 128.834 162.278C128.318 162.278 127.88 162.428 127.52 162.728C127.172 163.028 126.956 163.454 126.872 164.006H130.724ZM149.808 157.364V170H146.73V162.422L143.904 170H141.42L138.576 162.404V170H135.498V157.364H139.134L142.68 166.112L146.19 157.364H149.808ZM161.489 164.816C161.489 165.104 161.471 165.404 161.435 165.716H154.469C154.517 166.34 154.715 166.82 155.063 167.156C155.423 167.48 155.861 167.642 156.377 167.642C157.145 167.642 157.679 167.318 157.979 166.67H161.255C161.087 167.33 160.781 167.924 160.337 168.452C159.905 168.98 159.359 169.394 158.699 169.694C158.039 169.994 157.301 170.144 156.485 170.144C155.501 170.144 154.625 169.934 153.857 169.514C153.089 169.094 152.489 168.494 152.057 167.714C151.625 166.934 151.409 166.022 151.409 164.978C151.409 163.934 151.619 163.022 152.039 162.242C152.471 161.462 153.071 160.862 153.839 160.442C154.607 160.022 155.489 159.812 156.485 159.812C157.457 159.812 158.321 160.016 159.077 160.424C159.833 160.832 160.421 161.414 160.841 162.17C161.273 162.926 161.489 163.808 161.489 164.816ZM158.339 164.006C158.339 163.478 158.159 163.058 157.799 162.746C157.439 162.434 156.989 162.278 156.449 162.278C155.933 162.278 155.495 162.428 155.135 162.728C154.787 163.028 154.571 163.454 154.487 164.006H158.339ZM170.979 167.768H166.263L165.507 170H162.285L166.857 157.364H170.421L174.993 170H171.735L170.979 167.768ZM170.187 165.392L168.621 160.766L167.073 165.392H170.187ZM180.957 170.126C180.033 170.126 179.205 169.976 178.473 169.676C177.741 169.376 177.153 168.932 176.709 168.344C176.277 167.756 176.049 167.048 176.025 166.22H179.301C179.349 166.688 179.511 167.048 179.787 167.3C180.063 167.54 180.423 167.66 180.867 167.66C181.323 167.66 181.683 167.558 181.947 167.354C182.211 167.138 182.343 166.844 182.343 166.472C182.343 166.16 182.235 165.902 182.019 165.698C181.815 165.494 181.557 165.326 181.245 165.194C180.945 165.062 180.513 164.912 179.949 164.744C179.133 164.492 178.467 164.24 177.951 163.988C177.435 163.736 176.991 163.364 176.619 162.872C176.247 162.38 176.061 161.738 176.061 160.946C176.061 159.77 176.487 158.852 177.339 158.192C178.191 157.52 179.301 157.184 180.669 157.184C182.061 157.184 183.183 157.52 184.035 158.192C184.887 158.852 185.343 159.776 185.403 160.964H182.073C182.049 160.556 181.899 160.238 181.623 160.01C181.347 159.77 180.993 159.65 180.561 159.65C180.189 159.65 179.889 159.752 179.661 159.956C179.433 160.148 179.319 160.43 179.319 160.802C179.319 161.21 179.511 161.528 179.895 161.756C180.279 161.984 180.879 162.23 181.695 162.494C182.511 162.77 183.171 163.034 183.675 163.286C184.191 163.538 184.635 163.904 185.007 164.384C185.379 164.864 185.565 165.482 185.565 166.238C185.565 166.958 185.379 167.612 185.007 168.2C184.647 168.788 184.119 169.256 183.423 169.604C182.727 169.952 181.905 170.126 180.957 170.126ZM189.007 158.912C188.467 158.912 188.023 158.756 187.675 158.444C187.339 158.12 187.171 157.724 187.171 157.256C187.171 156.776 187.339 156.38 187.675 156.068C188.023 155.744 188.467 155.582 189.007 155.582C189.535 155.582 189.967 155.744 190.303 156.068C190.651 156.38 190.825 156.776 190.825 157.256C190.825 157.724 190.651 158.12 190.303 158.444C189.967 158.756 189.535 158.912 189.007 158.912ZM190.537 159.956V170H187.459V159.956H190.537ZM196.583 159.812C197.291 159.812 197.909 159.956 198.437 160.244C198.977 160.532 199.391 160.91 199.679 161.378V159.956H202.757V169.982C202.757 170.906 202.571 171.74 202.199 172.484C201.839 173.24 201.281 173.84 200.525 174.284C199.781 174.728 198.851 174.95 197.735 174.95C196.247 174.95 195.041 174.596 194.117 173.888C193.193 173.192 192.665 172.244 192.533 171.044H195.575C195.671 171.428 195.899 171.728 196.259 171.944C196.619 172.172 197.063 172.286 197.591 172.286C198.227 172.286 198.731 172.1 199.103 171.728C199.487 171.368 199.679 170.786 199.679 169.982V168.56C199.379 169.028 198.965 169.412 198.437 169.712C197.909 170 197.291 170.144 196.583 170.144C195.755 170.144 195.005 169.934 194.333 169.514C193.661 169.082 193.127 168.476 192.731 167.696C192.347 166.904 192.155 165.992 192.155 164.96C192.155 163.928 192.347 163.022 192.731 162.242C193.127 161.462 193.661 160.862 194.333 160.442C195.005 160.022 195.755 159.812 196.583 159.812ZM199.679 164.978C199.679 164.21 199.463 163.604 199.031 163.16C198.611 162.716 198.095 162.494 197.483 162.494C196.871 162.494 196.349 162.716 195.917 163.16C195.497 163.592 195.287 164.192 195.287 164.96C195.287 165.728 195.497 166.34 195.917 166.796C196.349 167.24 196.871 167.462 197.483 167.462C198.095 167.462 198.611 167.24 199.031 166.796C199.463 166.352 199.679 165.746 199.679 164.978ZM211.104 159.848C212.28 159.848 213.216 160.232 213.912 161C214.62 161.756 214.974 162.8 214.974 164.132V170H211.914V164.546C211.914 163.874 211.74 163.352 211.392 162.98C211.044 162.608 210.576 162.422 209.988 162.422C209.4 162.422 208.932 162.608 208.584 162.98C208.236 163.352 208.062 163.874 208.062 164.546V170H204.984V159.956H208.062V161.288C208.374 160.844 208.794 160.496 209.322 160.244C209.85 159.98 210.444 159.848 211.104 159.848Z" fill="white"/>
<path d="M223.064 155.714C223.062 155.522 223.098 155.332 223.17 155.153C223.24 154.977 223.349 154.818 223.487 154.687C223.622 154.553 223.78 154.445 223.953 154.37C224.131 154.295 224.322 154.255 224.515 154.253C224.704 154.254 224.892 154.294 225.065 154.37C225.244 154.443 225.406 154.551 225.542 154.687C225.677 154.818 225.782 154.977 225.849 155.153C225.924 155.331 225.963 155.522 225.965 155.714V161.517C225.97 161.912 225.817 162.293 225.542 162.576C225.403 162.714 225.238 162.823 225.056 162.896C224.874 162.969 224.679 163.004 224.483 162.999C224.287 163.005 224.091 162.971 223.909 162.898C223.727 162.825 223.562 162.715 223.424 162.576C223.285 162.437 223.177 162.272 223.104 162.09C223.031 161.908 222.996 161.713 223 161.517L223.064 155.714Z" fill="#F2FFF4"/>
<path d="M223.064 155.714C223.062 155.522 223.098 155.332 223.17 155.153C223.24 154.977 223.349 154.818 223.487 154.687C223.622 154.553 223.78 154.445 223.953 154.37C224.131 154.295 224.322 154.255 224.515 154.253C224.704 154.254 224.892 154.294 225.065 154.37C225.244 154.443 225.406 154.551 225.542 154.687C225.677 154.818 225.782 154.977 225.849 155.153C225.924 155.331 225.963 155.522 225.965 155.714V161.517C225.97 161.912 225.817 162.293 225.542 162.576C225.403 162.714 225.238 162.823 225.056 162.896C224.874 162.969 224.679 163.004 224.483 162.999C224.287 163.005 224.091 162.971 223.909 162.898C223.727 162.825 223.562 162.715 223.424 162.576C223.285 162.437 223.177 162.272 223.104 162.09C223.031 161.908 222.996 161.713 223 161.517L223.064 155.714Z" fill="white"/>
<path d="M226.389 155.068V160.363C226.383 160.737 226.486 161.105 226.685 161.422C226.869 161.728 227.138 161.974 227.458 162.131C227.993 162.403 228.584 162.544 229.184 162.544H234.479C234.927 162.545 235.363 162.391 235.71 162.107C236.058 161.823 236.296 161.427 236.384 160.987L237.539 155.185C237.608 154.907 237.608 154.616 237.539 154.338C237.473 154.058 237.342 153.797 237.157 153.576C236.98 153.351 236.751 153.174 236.49 153.057C236.233 152.93 235.951 152.865 235.664 152.866H232.223V148.927C232.22 148.415 232.015 147.925 231.652 147.564C231.289 147.203 230.798 147 230.285 147C230.029 146.998 229.781 147.096 229.597 147.275C229.422 147.463 229.32 147.707 229.311 147.964V148.609C229.314 149.446 229.043 150.261 228.538 150.928L227.183 152.739C226.683 153.409 226.412 154.222 226.41 155.058L226.389 155.068Z" fill="#F2FFF4"/>
<path d="M226.389 155.068V160.363C226.383 160.737 226.486 161.105 226.685 161.422C226.869 161.728 227.138 161.974 227.458 162.131C227.993 162.403 228.584 162.544 229.184 162.544H234.479C234.927 162.545 235.363 162.391 235.71 162.107C236.058 161.823 236.296 161.427 236.384 160.987L237.539 155.185C237.608 154.907 237.608 154.616 237.539 154.338C237.473 154.058 237.342 153.797 237.157 153.576C236.98 153.351 236.751 153.174 236.49 153.057C236.233 152.93 235.951 152.865 235.664 152.866H232.223V148.927C232.22 148.415 232.015 147.925 231.652 147.564C231.289 147.203 230.798 147 230.285 147C230.029 146.998 229.781 147.096 229.597 147.275C229.422 147.463 229.32 147.707 229.311 147.964V148.609C229.314 149.446 229.043 150.261 228.538 150.928L227.183 152.739C226.683 153.409 226.412 154.222 226.41 155.058L226.389 155.068Z" fill="white"/>
<path d="M253.566 172.485C253.566 172.882 253.408 173.263 253.127 173.544C252.846 173.824 252.466 173.982 252.069 173.982C251.671 173.983 251.288 173.828 251.003 173.551C250.724 173.265 250.565 172.884 250.56 172.485V166.497C250.565 166.098 250.724 165.717 251.003 165.431C251.288 165.154 251.671 164.999 252.069 165C252.466 165 252.846 165.158 253.127 165.438C253.408 165.719 253.566 166.1 253.566 166.497V172.485Z" fill="#F2FFF4"/>
<path d="M253.566 172.485C253.566 172.882 253.408 173.263 253.127 173.544C252.846 173.824 252.466 173.982 252.069 173.982C251.671 173.983 251.288 173.828 251.003 173.551C250.724 173.265 250.565 172.884 250.56 172.485V166.497C250.565 166.098 250.724 165.717 251.003 165.431C251.288 165.154 251.671 164.999 252.069 165C252.466 165 252.846 165.158 253.127 165.438C253.408 165.719 253.566 166.1 253.566 166.497V172.485Z" fill="white"/>
<path d="M249.566 172.653V167.228C249.564 166.855 249.46 166.491 249.266 166.174C249.073 165.856 248.795 165.599 248.464 165.431H248.404C247.85 165.155 247.239 165.011 246.62 165.012H241.206C240.745 165.013 240.297 165.174 239.94 165.466C239.582 165.758 239.336 166.164 239.242 166.617L238.045 172.605C237.985 172.893 237.985 173.191 238.045 173.479C238.115 173.769 238.25 174.039 238.44 174.269C238.633 174.494 238.869 174.678 239.135 174.808C239.4 174.937 239.691 175.002 239.985 175H243.578V179C243.576 179.263 243.627 179.523 243.728 179.766C243.829 180.009 243.977 180.229 244.164 180.413C244.348 180.602 244.568 180.751 244.811 180.852C245.054 180.953 245.315 181.003 245.578 181C245.709 181.001 245.839 180.977 245.96 180.927C246.081 180.878 246.191 180.805 246.284 180.712C246.377 180.62 246.45 180.509 246.499 180.388C246.549 180.267 246.573 180.137 246.572 180.006V179.335C246.578 178.472 246.859 177.633 247.374 176.94L248.775 175.084C249.291 174.391 249.572 173.552 249.578 172.689L249.566 172.653Z" fill="#F2FFF4"/>
<path d="M249.566 172.653V167.228C249.564 166.855 249.46 166.491 249.266 166.174C249.073 165.856 248.795 165.599 248.464 165.431H248.404C247.85 165.155 247.239 165.011 246.62 165.012H241.206C240.745 165.013 240.297 165.174 239.94 165.466C239.582 165.758 239.336 166.164 239.242 166.617L238.045 172.605C237.985 172.893 237.985 173.191 238.045 173.479C238.115 173.769 238.25 174.039 238.44 174.269C238.633 174.494 238.869 174.678 239.135 174.808C239.4 174.937 239.691 175.002 239.985 175H243.578V179C243.576 179.263 243.627 179.523 243.728 179.766C243.829 180.009 243.977 180.229 244.164 180.413C244.348 180.602 244.568 180.751 244.811 180.852C245.054 180.953 245.315 181.003 245.578 181C245.709 181.001 245.839 180.977 245.96 180.927C246.081 180.878 246.191 180.805 246.284 180.712C246.377 180.62 246.45 180.509 246.499 180.388C246.549 180.267 246.573 180.137 246.572 180.006V179.335C246.578 178.472 246.859 177.633 247.374 176.94L248.775 175.084C249.291 174.391 249.572 173.552 249.578 172.689L249.566 172.653Z" fill="white"/>
<line x1="226.646" y1="175.646" x2="250.646" y2="151.646" stroke="#F2FFF4"/>
<line x1="226.646" y1="175.646" x2="250.646" y2="151.646" stroke="white"/>
<g filter="url(#filter0_d_502_4645)">
<rect width="1024" height="80" fill="#F9F9F9" fill-opacity="0.94"/>
<path d="M435.516 58.9917L434.354 54.7168C434.298 54.5065 434.232 54.252 434.154 53.9531C434.077 53.6543 433.999 53.3472 433.922 53.0317C433.844 52.7108 433.773 52.4147 433.706 52.1436C433.645 51.8724 433.598 51.6621 433.565 51.5127H433.499C433.471 51.6621 433.427 51.8724 433.366 52.1436C433.305 52.4147 433.236 52.7108 433.158 53.0317C433.081 53.3527 433.003 53.6654 432.926 53.9697C432.854 54.2741 432.787 54.5342 432.727 54.75L431.506 58.9917H429.365L426.792 49.8027H428.767L429.962 54.3682C430.04 54.6781 430.115 55.0129 430.187 55.3726C430.264 55.7323 430.33 56.0754 430.386 56.4019C430.441 56.7284 430.483 56.9967 430.51 57.207H430.577C430.599 57.0576 430.629 56.8695 430.668 56.6426C430.707 56.4102 430.751 56.1694 430.801 55.9204C430.851 55.6659 430.9 55.4279 430.95 55.2065C431 54.9797 431.047 54.797 431.091 54.6587L432.503 49.8027H434.636L435.989 54.6587C436.05 54.869 436.116 55.1346 436.188 55.4556C436.26 55.771 436.324 56.0892 436.379 56.4102C436.44 56.7256 436.479 56.9884 436.495 57.1987H436.562C436.584 57.0106 436.622 56.756 436.678 56.4351C436.739 56.1086 436.808 55.7627 436.885 55.3975C436.963 55.0267 437.043 54.6836 437.126 54.3682L438.346 49.8027H440.289L437.699 58.9917H435.516ZM448.968 58.9917L447.806 54.7168C447.751 54.5065 447.684 54.252 447.607 53.9531C447.529 53.6543 447.452 53.3472 447.374 53.0317C447.297 52.7108 447.225 52.4147 447.158 52.1436C447.098 51.8724 447.051 51.6621 447.017 51.5127H446.951C446.923 51.6621 446.879 51.8724 446.818 52.1436C446.757 52.4147 446.688 52.7108 446.611 53.0317C446.533 53.3527 446.456 53.6654 446.378 53.9697C446.306 54.2741 446.24 54.5342 446.179 54.75L444.959 58.9917H442.817L440.244 49.8027H442.219L443.415 54.3682C443.492 54.6781 443.567 55.0129 443.639 55.3726C443.716 55.7323 443.783 56.0754 443.838 56.4019C443.893 56.7284 443.935 56.9967 443.963 57.207H444.029C444.051 57.0576 444.082 56.8695 444.12 56.6426C444.159 56.4102 444.203 56.1694 444.253 55.9204C444.303 55.6659 444.353 55.4279 444.403 55.2065C444.452 54.9797 444.499 54.797 444.544 54.6587L445.955 49.8027H448.088L449.441 54.6587C449.502 54.869 449.568 55.1346 449.64 55.4556C449.712 55.771 449.776 56.0892 449.831 56.4102C449.892 56.7256 449.931 56.9884 449.947 57.1987H450.014C450.036 57.0106 450.075 56.756 450.13 56.4351C450.191 56.1086 450.26 55.7627 450.338 55.3975C450.415 55.0267 450.495 54.6836 450.578 54.3682L451.799 49.8027H453.741L451.151 58.9917H448.968ZM462.42 58.9917L461.258 54.7168C461.203 54.5065 461.136 54.252 461.059 53.9531C460.981 53.6543 460.904 53.3472 460.827 53.0317C460.749 52.7108 460.677 52.4147 460.611 52.1436C460.55 51.8724 460.503 51.6621 460.47 51.5127H460.403C460.376 51.6621 460.331 51.8724 460.27 52.1436C460.21 52.4147 460.14 52.7108 460.063 53.0317C459.985 53.3527 459.908 53.6654 459.83 53.9697C459.759 54.2741 459.692 54.5342 459.631 54.75L458.411 58.9917H456.269L453.696 49.8027H455.672L456.867 54.3682C456.945 54.6781 457.019 55.0129 457.091 55.3726C457.169 55.7323 457.235 56.0754 457.29 56.4019C457.346 56.7284 457.387 56.9967 457.415 57.207H457.481C457.503 57.0576 457.534 56.8695 457.573 56.6426C457.611 56.4102 457.656 56.1694 457.705 55.9204C457.755 55.6659 457.805 55.4279 457.855 55.2065C457.905 54.9797 457.952 54.797 457.996 54.6587L459.407 49.8027H461.54L462.893 54.6587C462.954 54.869 463.021 55.1346 463.093 55.4556C463.165 55.771 463.228 56.0892 463.284 56.4102C463.344 56.7256 463.383 56.9884 463.4 57.1987H463.466C463.488 57.0106 463.527 56.756 463.582 56.4351C463.643 56.1086 463.712 55.7627 463.79 55.3975C463.867 55.0267 463.948 54.6836 464.031 54.3682L465.251 49.8027H467.193L464.603 58.9917H462.42ZM468.078 57.9707C468.078 57.5169 468.194 57.1987 468.427 57.0161C468.665 56.828 468.953 56.7339 469.29 56.7339C469.628 56.7339 469.915 56.828 470.153 57.0161C470.397 57.1987 470.519 57.5169 470.519 57.9707C470.519 58.4134 470.397 58.7344 470.153 58.9336C469.915 59.1273 469.628 59.2241 469.29 59.2241C468.953 59.2241 468.665 59.1273 468.427 58.9336C468.194 58.7344 468.078 58.4134 468.078 57.9707ZM475.238 63.084C473.993 63.084 473.039 62.8599 472.375 62.4116C471.711 61.9634 471.379 61.3353 471.379 60.5273C471.379 59.9629 471.556 59.4842 471.91 59.0913C472.264 58.7039 472.77 58.4355 473.429 58.2861C473.18 58.1755 472.964 58.0039 472.781 57.7715C472.604 57.5335 472.516 57.2707 472.516 56.9829C472.516 56.6398 472.613 56.3465 472.806 56.103C473 55.8595 473.291 55.6243 473.678 55.3975C473.196 55.1927 472.809 54.8607 472.516 54.4014C472.228 53.9365 472.084 53.3914 472.084 52.7661C472.084 52.1021 472.225 51.5376 472.508 51.0728C472.79 50.6024 473.202 50.2454 473.744 50.002C474.287 49.7529 474.942 49.6284 475.712 49.6284C475.878 49.6284 476.057 49.6395 476.251 49.6616C476.45 49.6782 476.633 49.7004 476.799 49.728C476.971 49.7502 477.101 49.7751 477.189 49.8027H480.368V50.8901L478.808 51.1807C478.957 51.391 479.076 51.6317 479.165 51.9028C479.253 52.1685 479.298 52.459 479.298 52.7744C479.298 53.7262 478.968 54.4761 478.31 55.0239C477.657 55.5662 476.755 55.8374 475.604 55.8374C475.327 55.8263 475.059 55.8042 474.799 55.771C474.599 55.8927 474.447 56.0283 474.342 56.1777C474.237 56.3216 474.184 56.4849 474.184 56.6675C474.184 56.8169 474.237 56.9386 474.342 57.0327C474.447 57.1213 474.602 57.1877 474.807 57.2319C475.017 57.2762 475.272 57.2983 475.571 57.2983H477.156C478.163 57.2983 478.932 57.5114 479.464 57.9375C479.995 58.3636 480.26 58.9889 480.26 59.8135C480.26 60.8594 479.829 61.6646 478.966 62.229C478.102 62.799 476.86 63.084 475.238 63.084ZM475.313 61.7144C475.994 61.7144 476.567 61.6479 477.031 61.5151C477.496 61.3823 477.848 61.1914 478.086 60.9424C478.324 60.6989 478.443 60.4084 478.443 60.0708C478.443 59.772 478.368 59.5423 478.218 59.3818C478.069 59.2214 477.845 59.1107 477.546 59.0498C477.247 58.9889 476.877 58.9585 476.434 58.9585H474.989C474.63 58.9585 474.312 59.0138 474.035 59.1245C473.758 59.2407 473.542 59.4067 473.387 59.6226C473.238 59.8384 473.163 60.0985 473.163 60.4028C473.163 60.8234 473.349 61.1471 473.719 61.374C474.096 61.6009 474.627 61.7144 475.313 61.7144ZM475.695 54.5591C476.265 54.5591 476.688 54.4041 476.965 54.0942C477.242 53.7788 477.38 53.3361 477.38 52.7661C477.38 52.1463 477.236 51.6815 476.948 51.3716C476.666 51.0617 476.246 50.9067 475.687 50.9067C475.139 50.9067 474.721 51.0645 474.433 51.3799C474.151 51.6953 474.01 52.1629 474.01 52.7827C474.01 53.3416 474.151 53.7788 474.433 54.0942C474.721 54.4041 475.142 54.5591 475.695 54.5591ZM483.586 49.811V59H481.635V49.811H483.586ZM482.623 46.2915C482.922 46.2915 483.179 46.3717 483.395 46.5322C483.616 46.6927 483.727 46.9694 483.727 47.3623C483.727 47.7497 483.616 48.0264 483.395 48.1924C483.179 48.3529 482.922 48.4331 482.623 48.4331C482.313 48.4331 482.05 48.3529 481.834 48.1924C481.624 48.0264 481.519 47.7497 481.519 47.3623C481.519 46.9694 481.624 46.6927 481.834 46.5322C482.05 46.3717 482.313 46.2915 482.623 46.2915ZM488.073 59L484.579 49.811H486.646L488.538 55.2065C488.66 55.5496 488.771 55.9204 488.87 56.3188C488.97 56.7173 489.039 57.0521 489.078 57.3232H489.144C489.183 57.041 489.258 56.7035 489.368 56.3105C489.479 55.9121 489.592 55.5441 489.709 55.2065L491.601 49.811H493.66L490.165 59H488.073ZM498.305 49.6367C499.124 49.6367 499.827 49.8055 500.413 50.1431C501 50.4806 501.451 50.9593 501.766 51.5791C502.082 52.1989 502.239 52.9404 502.239 53.8037V54.8496H496.105C496.127 55.7406 496.365 56.4268 496.819 56.9082C497.278 57.3896 497.92 57.6304 498.745 57.6304C499.331 57.6304 499.857 57.575 500.322 57.4644C500.792 57.3481 501.277 57.1794 501.775 56.958V58.5435C501.315 58.7593 500.848 58.917 500.372 59.0166C499.896 59.1162 499.326 59.166 498.662 59.166C497.76 59.166 496.966 58.9917 496.279 58.6431C495.599 58.2889 495.065 57.7632 494.677 57.0659C494.296 56.3687 494.105 55.5026 494.105 54.4678C494.105 53.4385 494.279 52.5641 494.628 51.8447C494.976 51.1253 495.466 50.5775 496.097 50.2012C496.728 49.8249 497.464 49.6367 498.305 49.6367ZM498.305 51.106C497.691 51.106 497.193 51.3052 496.811 51.7036C496.434 52.1021 496.213 52.6859 496.147 53.4551H500.33C500.325 52.9958 500.247 52.589 500.098 52.2349C499.954 51.8807 499.733 51.604 499.434 51.4048C499.14 51.2056 498.764 51.106 498.305 51.106ZM514.413 49.6367C515.443 49.6367 516.217 49.9023 516.738 50.4336C517.263 50.9648 517.526 51.8171 517.526 52.9902V59H515.576V53.3389C515.576 52.6416 515.44 52.1159 515.169 51.7617C514.898 51.4076 514.485 51.2305 513.932 51.2305C513.157 51.2305 512.598 51.4795 512.255 51.9775C511.918 52.4701 511.749 53.1867 511.749 54.1274V59H509.798V53.3389C509.798 52.874 509.737 52.4867 509.616 52.1768C509.499 51.8613 509.32 51.6261 509.076 51.4712C508.833 51.3107 508.525 51.2305 508.155 51.2305C507.618 51.2305 507.189 51.3522 506.868 51.5957C506.553 51.8392 506.326 52.1989 506.187 52.6748C506.049 53.1452 505.98 53.7235 505.98 54.4097V59H504.029V49.811H505.548L505.822 51.0479H505.93C506.118 50.7269 506.351 50.464 506.627 50.2593C506.91 50.049 507.222 49.894 507.565 49.7944C507.908 49.6893 508.265 49.6367 508.636 49.6367C509.322 49.6367 509.901 49.7585 510.371 50.002C510.841 50.2399 511.193 50.6051 511.425 51.0977H511.575C511.862 50.5996 512.264 50.2316 512.778 49.9937C513.293 49.7557 513.838 49.6367 514.413 49.6367ZM523.5 49.6367C524.319 49.6367 525.021 49.8055 525.608 50.1431C526.194 50.4806 526.646 50.9593 526.961 51.5791C527.276 52.1989 527.434 52.9404 527.434 53.8037V54.8496H521.3C521.322 55.7406 521.56 56.4268 522.014 56.9082C522.473 57.3896 523.115 57.6304 523.939 57.6304C524.526 57.6304 525.052 57.575 525.517 57.4644C525.987 57.3481 526.471 57.1794 526.969 56.958V58.5435C526.51 58.7593 526.042 58.917 525.566 59.0166C525.09 59.1162 524.521 59.166 523.856 59.166C522.954 59.166 522.16 58.9917 521.474 58.6431C520.793 58.2889 520.259 57.7632 519.872 57.0659C519.49 56.3687 519.299 55.5026 519.299 54.4678C519.299 53.4385 519.474 52.5641 519.822 51.8447C520.171 51.1253 520.661 50.5775 521.292 50.2012C521.922 49.8249 522.658 49.6367 523.5 49.6367ZM523.5 51.106C522.885 51.106 522.387 51.3052 522.005 51.7036C521.629 52.1021 521.408 52.6859 521.341 53.4551H525.525C525.519 52.9958 525.442 52.589 525.292 52.2349C525.149 51.8807 524.927 51.604 524.628 51.4048C524.335 51.2056 523.959 51.106 523.5 51.106ZM532.826 49.6367C533.988 49.6367 534.866 49.894 535.458 50.4087C536.055 50.9233 536.354 51.7257 536.354 52.8159V59H534.968L534.594 57.6968H534.528C534.268 58.0288 534 58.3027 533.723 58.5186C533.446 58.7344 533.125 58.8949 532.76 59C532.4 59.1107 531.96 59.166 531.44 59.166C530.892 59.166 530.403 59.0664 529.971 58.8672C529.539 58.6624 529.199 58.3525 528.95 57.9375C528.701 57.5225 528.576 56.9967 528.576 56.3604C528.576 55.4141 528.928 54.703 529.631 54.2271C530.339 53.7511 531.407 53.4883 532.835 53.4385L534.428 53.3804V52.8989C534.428 52.2625 534.279 51.8088 533.98 51.5376C533.687 51.2664 533.272 51.1309 532.735 51.1309C532.276 51.1309 531.83 51.1973 531.399 51.3301C530.967 51.4629 530.546 51.6261 530.137 51.8198L529.506 50.4419C529.954 50.2039 530.463 50.0103 531.033 49.8608C531.609 49.7114 532.207 49.6367 532.826 49.6367ZM534.42 54.6089L533.233 54.6504C532.259 54.6836 531.576 54.8496 531.183 55.1484C530.79 55.4473 530.593 55.8568 530.593 56.377C530.593 56.8307 530.729 57.1628 531 57.373C531.271 57.5778 531.628 57.6802 532.071 57.6802C532.746 57.6802 533.305 57.4893 533.748 57.1074C534.196 56.7201 534.42 56.1528 534.42 55.4058V54.6089ZM544.851 56.377C544.851 56.9801 544.704 57.4893 544.411 57.9043C544.118 58.3193 543.689 58.6348 543.124 58.8506C542.565 59.0609 541.879 59.166 541.066 59.166C540.424 59.166 539.87 59.119 539.406 59.0249C538.946 58.9364 538.512 58.798 538.102 58.6099V56.9248C538.54 57.1296 539.029 57.3066 539.572 57.4561C540.119 57.6055 540.637 57.6802 541.124 57.6802C541.766 57.6802 542.228 57.5806 542.51 57.3813C542.792 57.1766 542.933 56.9054 542.933 56.5679C542.933 56.3687 542.875 56.1916 542.759 56.0366C542.648 55.8761 542.438 55.7129 542.128 55.5469C541.824 55.3753 541.376 55.1706 540.784 54.9326C540.202 54.7002 539.713 54.4678 539.314 54.2354C538.916 54.0029 538.614 53.7235 538.409 53.397C538.205 53.0649 538.102 52.6416 538.102 52.127C538.102 51.3135 538.423 50.6965 539.065 50.2759C539.713 49.8498 540.568 49.6367 541.63 49.6367C542.195 49.6367 542.726 49.6948 543.224 49.811C543.728 49.9217 544.22 50.085 544.701 50.3008L544.087 51.77C543.672 51.5874 543.254 51.438 542.834 51.3218C542.419 51.2 541.995 51.1392 541.564 51.1392C541.06 51.1392 540.676 51.2166 540.41 51.3716C540.15 51.5265 540.02 51.7479 540.02 52.0356C540.02 52.2515 540.083 52.4341 540.211 52.5835C540.338 52.7329 540.557 52.8823 540.867 53.0317C541.182 53.1812 541.619 53.3665 542.178 53.5879C542.726 53.7982 543.199 54.0195 543.597 54.252C544.001 54.4788 544.311 54.7583 544.527 55.0903C544.743 55.4224 544.851 55.8512 544.851 56.377ZM548.5 49.811V59H546.549V49.811H548.5ZM547.537 46.2915C547.836 46.2915 548.093 46.3717 548.309 46.5322C548.53 46.6927 548.641 46.9694 548.641 47.3623C548.641 47.7497 548.53 48.0264 548.309 48.1924C548.093 48.3529 547.836 48.4331 547.537 48.4331C547.227 48.4331 546.964 48.3529 546.749 48.1924C546.538 48.0264 546.433 47.7497 546.433 47.3623C546.433 46.9694 546.538 46.6927 546.749 46.5322C546.964 46.3717 547.227 46.2915 547.537 46.2915ZM553.51 63.084C552.265 63.084 551.311 62.8599 550.647 62.4116C549.983 61.9634 549.651 61.3353 549.651 60.5273C549.651 59.9629 549.828 59.4842 550.182 59.0913C550.536 58.7039 551.042 58.4355 551.701 58.2861C551.452 58.1755 551.236 58.0039 551.053 57.7715C550.876 57.5335 550.788 57.2707 550.788 56.9829C550.788 56.6398 550.885 56.3465 551.078 56.103C551.272 55.8595 551.562 55.6243 551.95 55.3975C551.468 55.1927 551.081 54.8607 550.788 54.4014C550.5 53.9365 550.356 53.3914 550.356 52.7661C550.356 52.1021 550.497 51.5376 550.779 51.0728C551.062 50.6024 551.474 50.2454 552.016 50.002C552.559 49.7529 553.214 49.6284 553.984 49.6284C554.15 49.6284 554.329 49.6395 554.523 49.6616C554.722 49.6782 554.905 49.7004 555.071 49.728C555.242 49.7502 555.373 49.7751 555.461 49.8027H558.64V50.8901L557.08 51.1807C557.229 51.391 557.348 51.6317 557.437 51.9028C557.525 52.1685 557.569 52.459 557.569 52.7744C557.569 53.7262 557.24 54.4761 556.582 55.0239C555.929 55.5662 555.027 55.8374 553.876 55.8374C553.599 55.8263 553.331 55.8042 553.07 55.771C552.871 55.8927 552.719 56.0283 552.614 56.1777C552.509 56.3216 552.456 56.4849 552.456 56.6675C552.456 56.8169 552.509 56.9386 552.614 57.0327C552.719 57.1213 552.874 57.1877 553.079 57.2319C553.289 57.2762 553.544 57.2983 553.842 57.2983H555.428C556.435 57.2983 557.204 57.5114 557.735 57.9375C558.267 58.3636 558.532 58.9889 558.532 59.8135C558.532 60.8594 558.101 61.6646 557.237 62.229C556.374 62.799 555.132 63.084 553.51 63.084ZM553.585 61.7144C554.266 61.7144 554.839 61.6479 555.303 61.5151C555.768 61.3823 556.12 61.1914 556.358 60.9424C556.596 60.6989 556.714 60.4084 556.714 60.0708C556.714 59.772 556.64 59.5423 556.49 59.3818C556.341 59.2214 556.117 59.1107 555.818 59.0498C555.519 58.9889 555.148 58.9585 554.706 58.9585H553.261C552.902 58.9585 552.583 59.0138 552.307 59.1245C552.03 59.2407 551.814 59.4067 551.659 59.6226C551.51 59.8384 551.435 60.0985 551.435 60.4028C551.435 60.8234 551.621 61.1471 551.991 61.374C552.368 61.6009 552.899 61.7144 553.585 61.7144ZM553.967 54.5591C554.537 54.5591 554.96 54.4041 555.237 54.0942C555.514 53.7788 555.652 53.3361 555.652 52.7661C555.652 52.1463 555.508 51.6815 555.22 51.3716C554.938 51.0617 554.518 50.9067 553.959 50.9067C553.411 50.9067 552.993 51.0645 552.705 51.3799C552.423 51.6953 552.282 52.1629 552.282 52.7827C552.282 53.3416 552.423 53.7788 552.705 54.0942C552.993 54.4041 553.414 54.5591 553.967 54.5591ZM564.697 49.6367C565.731 49.6367 566.537 49.9051 567.112 50.4419C567.693 50.9731 567.984 51.8281 567.984 53.0068V59H566.033V53.3721C566.033 52.6582 565.886 52.1242 565.593 51.77C565.3 51.4103 564.846 51.2305 564.232 51.2305C563.341 51.2305 562.721 51.5044 562.372 52.0522C562.029 52.6001 561.858 53.3942 561.858 54.4346V59H559.907V49.811H561.426L561.7 51.0562H561.808C562.007 50.7352 562.253 50.4723 562.547 50.2676C562.846 50.0573 563.178 49.8996 563.543 49.7944C563.914 49.6893 564.298 49.6367 564.697 49.6367ZM570.022 57.9707C570.022 57.5169 570.139 57.1987 570.371 57.0161C570.609 56.828 570.897 56.7339 571.234 56.7339C571.572 56.7339 571.86 56.828 572.098 57.0161C572.341 57.1987 572.463 57.5169 572.463 57.9707C572.463 58.4134 572.341 58.7344 572.098 58.9336C571.86 59.1273 571.572 59.2241 571.234 59.2241C570.897 59.2241 570.609 59.1273 570.371 58.9336C570.139 58.7344 570.022 58.4134 570.022 57.9707ZM578.262 59.166C577.393 59.166 576.64 58.9972 576.004 58.6597C575.368 58.3221 574.878 57.8047 574.535 57.1074C574.192 56.4102 574.02 55.5247 574.02 54.4512C574.02 53.3333 574.208 52.4202 574.585 51.7119C574.961 51.0036 575.481 50.4806 576.145 50.1431C576.815 49.8055 577.581 49.6367 578.444 49.6367C578.992 49.6367 579.488 49.6921 579.93 49.8027C580.379 49.9079 580.758 50.0379 581.068 50.1929L580.486 51.7534C580.149 51.6151 579.803 51.4989 579.449 51.4048C579.095 51.3107 578.754 51.2637 578.428 51.2637C577.891 51.2637 577.443 51.3826 577.083 51.6206C576.729 51.8586 576.463 52.2127 576.286 52.6831C576.115 53.1535 576.029 53.7373 576.029 54.4346C576.029 55.1097 576.117 55.6797 576.295 56.1445C576.472 56.6038 576.734 56.9525 577.083 57.1904C577.432 57.4229 577.861 57.5391 578.37 57.5391C578.873 57.5391 579.324 57.4782 579.723 57.3564C580.121 57.2347 580.498 57.077 580.852 56.8833V58.5767C580.503 58.7759 580.13 58.9225 579.731 59.0166C579.333 59.1162 578.843 59.166 578.262 59.166ZM590.735 54.3848C590.735 55.1484 590.635 55.8263 590.436 56.4185C590.237 57.0106 589.946 57.5114 589.564 57.9209C589.182 58.3249 588.723 58.6348 588.186 58.8506C587.65 59.0609 587.044 59.166 586.368 59.166C585.738 59.166 585.159 59.0609 584.634 58.8506C584.108 58.6348 583.651 58.3249 583.264 57.9209C582.882 57.5114 582.586 57.0106 582.376 56.4185C582.165 55.8263 582.06 55.1484 582.06 54.3848C582.06 53.3721 582.235 52.5143 582.583 51.8115C582.937 51.1032 583.441 50.5636 584.094 50.1929C584.747 49.8221 585.525 49.6367 586.427 49.6367C587.273 49.6367 588.02 49.8221 588.668 50.1929C589.315 50.5636 589.822 51.1032 590.187 51.8115C590.552 52.5199 590.735 53.3776 590.735 54.3848ZM584.069 54.3848C584.069 55.0544 584.149 55.6271 584.31 56.103C584.476 56.5789 584.73 56.9442 585.074 57.1987C585.417 57.4478 585.859 57.5723 586.402 57.5723C586.944 57.5723 587.387 57.4478 587.73 57.1987C588.073 56.9442 588.325 56.5789 588.485 56.103C588.646 55.6271 588.726 55.0544 588.726 54.3848C588.726 53.7152 588.646 53.1479 588.485 52.6831C588.325 52.2127 588.073 51.8558 587.73 51.6123C587.387 51.3633 586.941 51.2388 586.393 51.2388C585.585 51.2388 584.996 51.5099 584.625 52.0522C584.255 52.5946 584.069 53.3721 584.069 54.3848ZM602.95 49.6367C603.979 49.6367 604.754 49.9023 605.274 50.4336C605.8 50.9648 606.063 51.8171 606.063 52.9902V59H604.112V53.3389C604.112 52.6416 603.977 52.1159 603.706 51.7617C603.434 51.4076 603.022 51.2305 602.469 51.2305C601.694 51.2305 601.135 51.4795 600.792 51.9775C600.454 52.4701 600.286 53.1867 600.286 54.1274V59H598.335V53.3389C598.335 52.874 598.274 52.4867 598.152 52.1768C598.036 51.8613 597.856 51.6261 597.613 51.4712C597.369 51.3107 597.062 51.2305 596.691 51.2305C596.155 51.2305 595.726 51.3522 595.405 51.5957C595.089 51.8392 594.862 52.1989 594.724 52.6748C594.586 53.1452 594.517 53.7235 594.517 54.4097V59H592.566V49.811H594.085L594.359 51.0479H594.467C594.655 50.7269 594.887 50.464 595.164 50.2593C595.446 50.049 595.759 49.894 596.102 49.7944C596.445 49.6893 596.802 49.6367 597.173 49.6367C597.859 49.6367 598.437 49.7585 598.908 50.002C599.378 50.2399 599.729 50.6051 599.962 51.0977H600.111C600.399 50.5996 600.8 50.2316 601.315 49.9937C601.83 49.7557 602.375 49.6367 602.95 49.6367Z" fill="black"/>
<path d="M27.5308 52.3159C27.5308 53.6828 27.2817 54.8255 26.7837 55.7441C26.2856 56.6572 25.5635 57.3462 24.6172 57.811C23.6764 58.2703 22.5337 58.5 21.189 58.5H17.8936V46.3643H21.5542C22.7882 46.3643 23.8507 46.5911 24.7417 47.0449C25.6326 47.4932 26.3188 48.16 26.8003 49.0454C27.2873 49.9253 27.5308 51.0155 27.5308 52.3159ZM26.0449 52.3657C26.0449 51.2756 25.8623 50.3763 25.4971 49.668C25.1374 48.9596 24.6061 48.4339 23.9033 48.0908C23.2061 47.7422 22.3511 47.5679 21.3384 47.5679H19.3047V57.2881H21.0229C22.6942 57.2881 23.9476 56.8758 24.7832 56.0513C25.6243 55.2267 26.0449 53.9982 26.0449 52.3657ZM37.8652 53.9346C37.8652 54.6816 37.7684 55.3485 37.5747 55.9351C37.381 56.5216 37.1016 57.0169 36.7363 57.4209C36.3711 57.8249 35.9284 58.1348 35.4082 58.3506C34.8936 58.5609 34.3097 58.666 33.6567 58.666C33.048 58.666 32.4891 58.5609 31.98 58.3506C31.4764 58.1348 31.0392 57.8249 30.6685 57.4209C30.3032 57.0169 30.0182 56.5216 29.8135 55.9351C29.6143 55.3485 29.5146 54.6816 29.5146 53.9346C29.5146 52.9385 29.6834 52.0918 30.021 51.3945C30.3586 50.6917 30.84 50.1577 31.4653 49.7925C32.0962 49.4217 32.846 49.2363 33.7148 49.2363C34.5449 49.2363 35.2699 49.4217 35.8896 49.7925C36.515 50.1632 36.9992 50.7 37.3423 51.4028C37.6909 52.1001 37.8652 52.944 37.8652 53.9346ZM30.9424 53.9346C30.9424 54.665 31.0392 55.2987 31.2329 55.8354C31.4266 56.3722 31.7254 56.7873 32.1294 57.0806C32.5334 57.3739 33.0535 57.5205 33.6899 57.5205C34.3208 57.5205 34.8382 57.3739 35.2422 57.0806C35.6517 56.7873 35.9533 56.3722 36.147 55.8354C36.3407 55.2987 36.4375 54.665 36.4375 53.9346C36.4375 53.2096 36.3407 52.5843 36.147 52.0586C35.9533 51.5273 35.6545 51.1178 35.2505 50.8301C34.8465 50.5423 34.3236 50.3984 33.6816 50.3984C32.7354 50.3984 32.0409 50.7111 31.5981 51.3364C31.161 51.9618 30.9424 52.8278 30.9424 53.9346ZM44.5557 49.2363C45.6348 49.2363 46.451 49.502 47.0044 50.0332C47.5578 50.5589 47.8345 51.4056 47.8345 52.5732V58.5H46.4731V52.6646C46.4731 51.9064 46.2988 51.3392 45.9502 50.9629C45.6071 50.5866 45.0786 50.3984 44.3647 50.3984C43.3576 50.3984 42.6493 50.6834 42.2397 51.2534C41.8302 51.8234 41.6255 52.6507 41.6255 53.7354V58.5H40.2476V49.4023H41.3599L41.5674 50.7139H41.6421C41.8358 50.3929 42.082 50.1245 42.3809 49.9087C42.6797 49.6873 43.0145 49.5213 43.3853 49.4106C43.756 49.2944 44.1462 49.2363 44.5557 49.2363ZM54.1763 49.2363C54.951 49.2363 55.6151 49.4079 56.1685 49.751C56.7218 50.0941 57.1452 50.5755 57.4385 51.1953C57.7318 51.8096 57.8784 52.529 57.8784 53.3535V54.2085H51.5947C51.6113 55.2765 51.877 56.09 52.3916 56.6489C52.9062 57.2078 53.6312 57.4873 54.5664 57.4873C55.1419 57.4873 55.651 57.4347 56.0938 57.3296C56.5365 57.2244 56.9958 57.0695 57.4717 56.8647V58.0767C57.0124 58.2814 56.5558 58.4308 56.1021 58.5249C55.6538 58.619 55.1226 58.666 54.5083 58.666C53.634 58.666 52.8703 58.4889 52.2173 58.1348C51.5698 57.7751 51.0662 57.2493 50.7065 56.5576C50.3468 55.8659 50.167 55.0192 50.167 54.0176C50.167 53.0381 50.3302 52.1914 50.6567 51.4775C50.9888 50.7581 51.4536 50.2048 52.0513 49.8174C52.6545 49.43 53.3628 49.2363 54.1763 49.2363ZM54.1597 50.3652C53.4237 50.3652 52.8371 50.606 52.3999 51.0874C51.9627 51.5688 51.7026 52.2412 51.6196 53.1045H56.4341C56.4285 52.5622 56.3428 52.0863 56.1768 51.6768C56.0163 51.2617 55.77 50.9408 55.438 50.7139C55.106 50.4814 54.6799 50.3652 54.1597 50.3652Z" fill="#0A7AFF"/>
</g>
<path d="M300.56 867.16V860.8H311.64V890H304.52V867.16H300.56Z" fill="#E8B53F"/>
<path d="M307.031 950.9L301.131 962.856L287.931 964.775L297.481 974.087L295.225 987.231L307.031 981.025L318.838 987.225L316.581 974.081L326.131 964.775L312.931 962.856L307.031 950.9Z" fill="#FFDA76" fill-opacity="0.15"/>
<path d="M331.788 961.05L315.919 958.744L308.825 944.363C308.631 943.969 308.313 943.65 307.919 943.456C306.931 942.969 305.731 943.375 305.238 944.363L298.144 958.744L282.275 961.05C281.838 961.113 281.438 961.319 281.131 961.631C280.761 962.012 280.557 962.524 280.564 963.055C280.571 963.586 280.789 964.092 281.169 964.463L292.65 975.656L289.938 991.463C289.874 991.83 289.915 992.208 290.055 992.554C290.195 992.9 290.43 993.199 290.732 993.419C291.034 993.638 291.391 993.768 291.763 993.795C292.135 993.821 292.508 993.743 292.838 993.569L307.031 986.106L321.225 993.569C321.613 993.775 322.063 993.844 322.494 993.769C323.581 993.581 324.313 992.55 324.125 991.463L321.413 975.656L332.894 964.463C333.206 964.156 333.413 963.756 333.475 963.319C333.644 962.225 332.881 961.213 331.788 961.05ZM316.581 974.081L318.838 987.225L307.031 981.025L295.225 987.231L297.481 974.088L287.931 964.775L301.131 962.856L307.031 950.9L312.931 962.856L326.131 964.775L316.581 974.081Z" fill="#F2C55B"/>
<path d="M402.134 884.52C403.041 883.8 403.454 883.467 403.374 883.52C405.988 881.36 408.041 879.587 409.534 878.2C411.054 876.813 412.334 875.36 413.374 873.84C414.414 872.32 414.934 870.84 414.934 869.4C414.934 868.307 414.681 867.453 414.174 866.84C413.668 866.227 412.908 865.92 411.894 865.92C410.881 865.92 410.081 866.307 409.494 867.08C408.934 867.827 408.654 868.893 408.654 870.28H402.054C402.108 868.013 402.588 866.12 403.494 864.6C404.428 863.08 405.641 861.96 407.134 861.24C408.654 860.52 410.334 860.16 412.174 860.16C415.348 860.16 417.734 860.973 419.334 862.6C420.961 864.227 421.774 866.347 421.774 868.96C421.774 871.813 420.801 874.467 418.854 876.92C416.908 879.347 414.428 881.72 411.414 884.04H422.214V889.6H402.134V884.52Z" fill="#E8B53F"/>
<path d="M412.031 952.9L406.131 964.856L392.931 966.775L402.481 976.087L400.225 989.231L412.031 983.025L423.837 989.225L421.581 976.081L431.131 966.775L417.931 964.856L412.031 952.9Z" fill="#FFDA76" fill-opacity="0.15"/>
<path d="M436.788 963.05L420.919 960.744L413.825 946.363C413.631 945.969 413.312 945.65 412.919 945.456C411.931 944.969 410.731 945.375 410.237 946.363L403.144 960.744L387.275 963.05C386.838 963.113 386.438 963.319 386.131 963.631C385.761 964.012 385.557 964.524 385.564 965.055C385.571 965.586 385.789 966.092 386.169 966.463L397.65 977.656L394.938 993.463C394.874 993.83 394.915 994.208 395.055 994.554C395.195 994.9 395.43 995.199 395.732 995.419C396.034 995.638 396.391 995.768 396.763 995.795C397.135 995.821 397.508 995.743 397.838 995.569L412.031 988.106L426.225 995.569C426.613 995.775 427.063 995.844 427.494 995.769C428.581 995.581 429.313 994.55 429.125 993.463L426.413 977.656L437.894 966.463C438.206 966.156 438.413 965.756 438.475 965.319C438.644 964.225 437.881 963.213 436.788 963.05ZM421.581 976.081L423.838 989.225L412.031 983.025L400.225 989.231L402.481 976.088L392.931 966.775L406.131 964.856L412.031 952.9L417.931 964.856L431.131 966.775L421.581 976.081Z" fill="#F2C55B"/>
<path d="M506.931 872.04C507.037 869.187 507.971 866.987 509.731 865.44C511.491 863.893 513.877 863.12 516.891 863.12C518.891 863.12 520.597 863.467 522.011 864.16C523.451 864.853 524.531 865.8 525.251 867C525.997 868.2 526.371 869.547 526.371 871.04C526.371 872.8 525.931 874.24 525.051 875.36C524.171 876.453 523.144 877.2 521.971 877.6V877.76C523.491 878.267 524.691 879.107 525.571 880.28C526.451 881.453 526.891 882.96 526.891 884.8C526.891 886.453 526.504 887.92 525.731 889.2C524.984 890.453 523.877 891.44 522.411 892.16C520.971 892.88 519.251 893.24 517.251 893.24C514.051 893.24 511.491 892.453 509.571 890.88C507.677 889.307 506.677 886.933 506.571 883.76H513.211C513.237 884.933 513.571 885.867 514.211 886.56C514.851 887.227 515.784 887.56 517.011 887.56C518.051 887.56 518.851 887.267 519.411 886.68C519.997 886.067 520.291 885.267 520.291 884.28C520.291 883 519.877 882.08 519.051 881.52C518.251 880.933 516.957 880.64 515.171 880.64H513.891V875.08H515.171C516.531 875.08 517.624 874.853 518.451 874.4C519.304 873.92 519.731 873.08 519.731 871.88C519.731 870.92 519.464 870.173 518.931 869.64C518.397 869.107 517.664 868.84 516.731 868.84C515.717 868.84 514.957 869.147 514.451 869.76C513.971 870.373 513.691 871.133 513.611 872.04H506.931Z" fill="#E8B53F"/>
<path d="M517.031 952.9L511.131 964.856L497.931 966.775L507.481 976.087L505.225 989.231L517.031 983.025L528.838 989.225L526.581 976.081L536.131 966.775L522.931 964.856L517.031 952.9Z" fill="#FFDA76" fill-opacity="0.15"/>
<path d="M541.788 963.05L525.919 960.744L518.825 946.363C518.631 945.969 518.313 945.65 517.919 945.456C516.931 944.969 515.731 945.375 515.238 946.363L508.144 960.744L492.275 963.05C491.838 963.113 491.438 963.319 491.131 963.631C490.761 964.012 490.557 964.524 490.564 965.055C490.571 965.586 490.789 966.092 491.169 966.463L502.65 977.656L499.938 993.463C499.874 993.83 499.915 994.208 500.055 994.554C500.195 994.9 500.43 995.199 500.732 995.419C501.034 995.638 501.391 995.768 501.763 995.795C502.135 995.821 502.508 995.743 502.838 995.569L517.031 988.106L531.225 995.569C531.613 995.775 532.063 995.844 532.494 995.769C533.581 995.581 534.313 994.55 534.125 993.463L531.413 977.656L542.894 966.463C543.206 966.156 543.413 965.756 543.475 965.319C543.644 964.225 542.881 963.213 541.788 963.05ZM526.581 976.081L528.838 989.225L517.031 983.025L505.225 989.231L507.481 976.088L497.931 966.775L511.131 964.856L517.031 952.9L522.931 964.856L536.131 966.775L526.581 976.081Z" fill="#F2C55B"/>
<path d="M608.425 887.8V882.28L621.065 864.2H628.705V881.88H631.985V887.8H628.705V893H621.865V887.8H608.425ZM622.345 871.72L615.625 881.88H622.345V871.72Z" fill="#E8B53F"/>
<path d="M622.031 952.9L616.131 964.856L602.931 966.775L612.481 976.087L610.225 989.231L622.031 983.025L633.837 989.225L631.581 976.081L641.131 966.775L627.931 964.856L622.031 952.9Z" fill="#FFDA76" fill-opacity="0.15"/>
<path d="M646.787 963.05L630.919 960.744L623.825 946.363C623.631 945.969 623.312 945.65 622.919 945.456C621.931 944.969 620.731 945.375 620.237 946.363L613.144 960.744L597.275 963.05C596.837 963.113 596.437 963.319 596.131 963.631C595.761 964.012 595.557 964.524 595.564 965.055C595.571 965.586 595.789 966.092 596.169 966.463L607.65 977.656L604.937 993.463C604.874 993.83 604.915 994.208 605.055 994.554C605.195 994.9 605.43 995.199 605.732 995.419C606.034 995.638 606.391 995.768 606.763 995.795C607.135 995.821 607.508 995.743 607.837 995.569L622.031 988.106L636.225 995.569C636.612 995.775 637.062 995.844 637.494 995.769C638.581 995.581 639.312 994.55 639.125 993.463L636.412 977.656L647.894 966.463C648.206 966.156 648.412 965.756 648.475 965.319C648.644 964.225 647.881 963.213 646.787 963.05ZM631.581 976.081L633.837 989.225L622.031 983.025L610.225 989.231L612.481 976.088L602.931 966.775L616.131 964.856L622.031 952.9L627.931 964.856L641.131 966.775L631.581 976.081Z" fill="#F2C55B"/>
<path d="M736.352 869.76H723.872V875.28C724.406 874.693 725.152 874.213 726.112 873.84C727.072 873.467 728.112 873.28 729.232 873.28C731.232 873.28 732.886 873.733 734.192 874.64C735.526 875.547 736.499 876.72 737.112 878.16C737.726 879.6 738.032 881.16 738.032 882.84C738.032 885.96 737.152 888.44 735.392 890.28C733.632 892.093 731.152 893 727.952 893C725.819 893 723.966 892.64 722.392 891.92C720.819 891.173 719.606 890.147 718.752 888.84C717.899 887.533 717.432 886.027 717.352 884.32H724.032C724.192 885.147 724.579 885.84 725.192 886.4C725.806 886.933 726.646 887.2 727.712 887.2C728.966 887.2 729.899 886.8 730.512 886C731.126 885.2 731.432 884.133 731.432 882.8C731.432 881.493 731.112 880.493 730.472 879.8C729.832 879.107 728.899 878.76 727.672 878.76C726.766 878.76 726.019 878.987 725.432 879.44C724.846 879.867 724.459 880.44 724.272 881.16H717.672V863.76H736.352V869.76Z" fill="#E8B53F"/>
<path d="M727.031 952.9L721.131 964.856L707.931 966.775L717.481 976.087L715.225 989.231L727.031 983.025L738.837 989.225L736.581 976.081L746.131 966.775L732.931 964.856L727.031 952.9Z" fill="#FFDA76" fill-opacity="0.15"/>
<path d="M751.787 963.05L735.919 960.744L728.825 946.363C728.631 945.969 728.312 945.65 727.919 945.456C726.931 944.969 725.731 945.375 725.237 946.363L718.144 960.744L702.275 963.05C701.837 963.113 701.437 963.319 701.131 963.631C700.761 964.012 700.557 964.524 700.564 965.055C700.571 965.586 700.789 966.092 701.169 966.463L712.65 977.656L709.937 993.463C709.874 993.83 709.915 994.208 710.055 994.554C710.195 994.9 710.43 995.199 710.732 995.419C711.034 995.638 711.391 995.768 711.763 995.795C712.135 995.821 712.508 995.743 712.837 995.569L727.031 988.106L741.225 995.569C741.612 995.775 742.062 995.844 742.494 995.769C743.581 995.581 744.312 994.55 744.125 993.463L741.412 977.656L752.894 966.463C753.206 966.156 753.412 965.756 753.475 965.319C753.644 964.225 752.881 963.213 751.787 963.05ZM736.581 976.081L738.837 989.225L727.031 983.025L715.225 989.231L717.481 976.088L707.931 966.775L721.131 964.856L727.031 952.9L732.931 964.856L746.131 966.775L736.581 976.081Z" fill="#F2C55B"/>
</g>
<defs>
<filter id="filter0_d_502_4645" x="0" y="0" width="1024" height="80.5" filterUnits="userSpaceOnUse" color-interpolation-filters="sRGB">
<feFlood flood-opacity="0" result="BackgroundImageFix"/>
<feColorMatrix in="SourceAlpha" type="matrix" values="0 0 0 0 0 0 0 0 0 0 0 0 0 0 0 0 0 0 127 0" result="hardAlpha"/>
<feOffset dy="0.5"/>
<feColorMatrix type="matrix" values="0 0 0 0 0 0 0 0 0 0 0 0 0 0 0 0 0 0 0.3 0"/>
<feBlend mode="normal" in2="BackgroundImageFix" result="effect1_dropShadow_502_4645"/>
<feBlend mode="normal" in="SourceGraphic" in2="effect1_dropShadow_502_4645" result="shape"/>
</filter>
<radialGradient id="paint0_diamond_502_4645" cx="0" cy="0" r="1" gradientUnits="userSpaceOnUse" gradientTransform="translate(1024 861.704) rotate(-161.558) scale(2050.06 835.406)">
<stop stop-color="#004BE2"/>
<stop offset="1" stop-color="#08105B"/>
</radialGradient>
<clipPath id="clip0_502_4645">
<rect width="1024" height="1366" fill="white"/>
</clipPath>
</defs>
</svg>
